   0
SECTION
   2
HEADER
 999

   9
$EXTMAX
  10
700.524579
  20
192.91712
   9
$EXTMIN
  10
-9.84588
  20
-378.34
   9
$LIMMAX
  10
700.524579
  20
192.91712
   9
$LIMMIN
  10
-9.84588
  20
-378.34
   0
ENDSEC
   0
SECTION
   2
TABLES
   0
TABLE
   2
LTYPE
  70
     1
   0
LTYPE
   2
CONTINUOUS
  70
    64
   3
Solid line
  72
    65
  73
     0
  40
0
   0
ENDTAB
   0
TABLE
   2
LAYER
  70
     3
   0
LAYER
   2
0
  70
     0
  62
     7
   6
CONTINUOUS
   0
LAYER
   2
PV
  70
     0
  62
     7
   6
CONTINUOUS
   0
LAYER
   2
A
  70
     0
  62
     7
   6
CONTINUOUS
   0
ENDTAB
   0
TABLE
   2
STYLE
  70
     1
   0
STYLE
   2
STANDARD
  70
     0
  40
0
  41
1
  50
0
  71
     0
  42
3.2
   3
TXT
   4
BIGFONT
   0
ENDTAB
   0
TABLE
   2
APPID
  70
     9
   0
APPID
   2
ACAD
  70
     0
   0
APPID
   2
ACAD_PSEXT
  70
     0
   0
APPID
   2
ACADANNOPO
  70
     0
   0
APPID
   2
ACADANNOTATIVE
  70
     0
   0
APPID
   2
ACAD_DSTYLE_DIMJAG
  70
     0
   0
APPID
   2
ACAD_DSTYLE_DIMTALN
  70
     0
   0
APPID
   2
ACAD_MLEADERVER
  70
     0
   0
APPID
   2
ACAD_NAV_VCDISPLAY
  70
     0
   0
APPID
   2
ACAD_DSTYLE_DIMBREAK
  70
     0
   0
ENDTAB
   0
TABLE
   2
DIMSTYLE
  70
     1
   0
DIMSTYLE
   2
ISO-25
  70
     0
   3

   4

   5

   6

   7

  40
1
  41
2.5
  42
0.625
  43
3.75
  44
1.25
  45
0
  46
0
  47
0
  48
0
 140
2.5
 141
2.5
 142
0.0
 143
0.03937007874016
 144
1.0
 145
0.0
 146
1.0
 147
0.625
  71
     0
  72
     0
  73
     0
  74
     0
  75
     0
  76
     0
  77
     1
  78
     8
 170
     0
 171
     3
 172
     1
 173
     0
 174
     0
 175
     0
 176
     0
 177
     0
 178
     0
   0
ENDTAB
   0
TABLE
   2
VIEW
  70
     0
   0
ENDTAB
   0
TABLE
   2
UCS
  70
     0
   0
ENDTAB
   0
ENDSEC
   0
SECTION
   2
BLOCKS
   0
ENDSEC
   0
SECTION
   2
ENTITIES
   0
POINT
   8
A
  10
0
  20
0
   0
LINE
   8
PV
   6
CONTINUOUS
  10
174.18994
  20
-157.70522
  11
179.03997
  21
-157.70386
   0
LINE
   8
PV
   6
CONTINUOUS
  10
45.68386
  20
63.66861
  11
45.6815
  21
65.91161
   0
LINE
   8
PV
   6
CONTINUOUS
  10
38.31557
  20
72.51496
  11
38.28649
  21
71.5255
   0
LINE
   8
PV
   6
CONTINUOUS
  10
42.65187
  20
-66.4788
  11
42.65431
  21
-66.991
   0
LINE
   8
PV
   6
CONTINUOUS
  10
45.41601
  20
124.85277
  11
45.49845
  21
119.075
   0
LINE
   8
PV
   6
CONTINUOUS
  10
38.11132
  20
65.03547
  11
38.10856
  21
64.92499
   0
LINE
   8
PV
   6
CONTINUOUS
  10
42.66469
  20
-69.03953
  11
42.66764
  21
-69.5516
   0
LINE
   8
PV
   6
CONTINUOUS
  10
42.80578
  20
64.98306
  11
42.80578
  21
74.98306
   0
LINE
   8
PV
   6
CONTINUOUS
  10
10.76143
  20
116.25319
  11
10.7583
  21
107.87318
   0
LINE
   8
PV
   6
CONTINUOUS
  10
179.03997
  20
-157.70386
  11
183.89003
  21
-157.70276
   0
LINE
   8
PV
   6
CONTINUOUS
  10
39.9345
  20
65.30073
  11
39.92849
  21
64.98306
   0
LINE
   8
PV
   6
CONTINUOUS
  10
38.11409
  20
65.14595
  11
38.11132
  21
65.03547
   0
LINE
   8
PV
   6
CONTINUOUS
  10
42.80578
  20
74.98306
  11
40.25773
  21
74.98306
   0
LINE
   8
PV
   6
CONTINUOUS
  10
159.64013
  20
-157.7108
  11
164.49002
  21
-157.70869
   0
LINE
   8
PV
   6
CONTINUOUS
  10
42.095
  20
63.98334
  11
42.09399
  21
64.98318
   0
LINE
   8
PV
   6
CONTINUOUS
  10
35.67784
  20
-40.32245
  11
38.0045
  21
-40.32357
   0
LINE
   8
PV
   6
CONTINUOUS
  10
10.74677
  20
40.83307
  11
10.74904
  21
65.97311
   0
LINE
   8
PV
   6
CONTINUOUS
  10
179.03997
  20
157.66997
  11
183.89003
  21
157.66887
   0
LINE
   8
PV
   6
CONTINUOUS
  10
42.66192
  20
-68.52744
  11
42.66469
  21
-69.03953
   0
LINE
   8
PV
   6
CONTINUOUS
  10
169.33996
  20
-157.70683
  11
174.18994
  21
-157.70522
   0
LINE
   8
PV
   6
CONTINUOUS
  10
10.75024
  20
74.35312
  11
10.74904
  21
65.97311
   0
LINE
   8
PV
   6
CONTINUOUS
  10
36.4803
  20
-350.07749
  11
35.40411
  21
-350.11508
   0
LINE
   8
PV
   6
CONTINUOUS
  10
45.28059
  20
118.13306
  11
45.47316
  21
118.13306
   0
LINE
   8
PV
   6
CONTINUOUS
  10
10.00899
  20
171.96403
  11
10.00895
  21
171.58354
   0
LINE
   8
PV
   6
CONTINUOUS
  10
38.37573
  20
74.49374
  11
38.34532
  21
73.50437
   0
LINE
   8
PV
   6
CONTINUOUS
  10
36.44017
  20
-364.29785
  11
35.40411
  21
-364.33064
   0
LINE
   8
PV
   6
CONTINUOUS
  10
161.57677
  20
-159.2498
  11
160.28119
  21
-159.2498
   0
LINE
   8
PV
   6
CONTINUOUS
  10
36.44017
  20
-355.70215
  11
35.40411
  21
-355.66935
   0
LINE
   8
PV
   6
CONTINUOUS
  10
6.15412
  20
-378.34
  11
27.40412
  21
-378.34
   0
LINE
   8
PV
   6
CONTINUOUS
  10
52.97974
  20
192.86153
  11
96.90988
  21
192.75111
   0
LINE
   8
PV
   6
CONTINUOUS
  10
245.71862
  20
192.33636
  11
246.20815
  21
192.33765
   0
LINE
   8
PV
   6
CONTINUOUS
  10
10.00863
  20
-168.13046
  11
10.00899
  21
-171.99792
   0
LINE
   8
PV
   6
CONTINUOUS
  10
45.26164
  20
119.46103
  11
45.27115
  21
118.7973
   0
LINE
   8
PV
   6
CONTINUOUS
  10
40.19261
  20
72.21477
  11
40.17182
  21
71.29188
   0
LINE
   8
PV
   6
CONTINUOUS
  10
45.18361
  20
124.75148
  11
45.19347
  21
124.09211
   0
LINE
   8
PV
   6
CONTINUOUS
  10
38.25805
  20
70.536
  11
38.23024
  21
69.54646
   0
LINE
   8
PV
   6
CONTINUOUS
  10
208.14105
  20
-157.70132
  11
183.89003
  21
-157.70276
   0
LINE
   8
PV
   6
CONTINUOUS
  10
40.09316
  20
67.59972
  11
40.07459
  21
66.67654
   0
LINE
   8
PV
   6
CONTINUOUS
  10
45.20332
  20
123.43217
  11
45.21314
  21
122.77168
   0
LINE
   8
PV
   6
CONTINUOUS
  10
45.44503
  20
120.15476
  11
45.45448
  21
119.48139
   0
LINE
   8
PV
   6
CONTINUOUS
  10
96.90988
  20
192.75111
  11
165.14161
  21
192.58049
   0
LINE
   8
PV
   6
CONTINUOUS
  10
42.65431
  20
-66.991
  11
42.65677
  21
-67.50317
   0
LINE
   8
PV
   6
CONTINUOUS
  10
40.15149
  20
70.36893
  11
40.1316
  21
69.44592
   0
LINE
   8
PV
   6
CONTINUOUS
  10
45.40673
  20
122.84272
  11
45.41636
  21
122.17157
   0
LINE
   8
PV
   6
CONTINUOUS
  10
37.20412
  20
-349.32795
  11
37.20412
  21
-347.97204
   0
LINE
   8
PV
   6
CONTINUOUS
  10
43.1553
  20
127.03306
  11
11.41416
  21
127.03306
   0
LINE
   8
PV
   6
CONTINUOUS
  10
38.10856
  20
64.92499
  11
38.10581
  21
64.81451
   0
LINE
   8
PV
   6
CONTINUOUS
  10
10.75172
  20
82.73314
  11
10.75024
  21
74.35312
   0
LINE
   8
PV
   6
CONTINUOUS
  10
42.65677
  20
-67.50317
  11
42.65929
  21
-68.01532
   0
LINE
   8
PV
   6
CONTINUOUS
  10
42.96462
  20
126.83306
  11
11.23118
  21
126.83306
   0
LINE
   8
PV
   6
CONTINUOUS
  10
45.68149
  20
65.91168
  11
45.68131
  21
66.02057
   0
LINE
   8
PV
   6
CONTINUOUS
  10
43.37619
  20
38.63306
  11
11.20613
  21
38.63306
   0
LINE
   8
PV
   6
CONTINUOUS
  10
42.64942
  20
-65.96656
  11
42.65187
  21
-66.4788
   0
LINE
   8
PV
   6
CONTINUOUS
  10
207.4714
  20
159.2502
  11
157.32945
  21
159.2502
   0
LINE
   8
PV
   6
CONTINUOUS
  10
10.75352
  20
91.11315
  11
10.75172
  21
82.73314
   0
LINE
   8
PV
   6
CONTINUOUS
  10
169.33996
  20
157.67295
  11
174.18994
  21
157.67133
   0
LINE
   8
PV
   6
CONTINUOUS
  10
157.55848
  20
157.67789
  11
159.64013
  21
157.67691
   0
LINE
   8
PV
   6
CONTINUOUS
  10
38.6593
  20
75.98306
  11
45.15936
  21
75.98306
   0
LINE
   8
PV
   6
CONTINUOUS
  10
38.10032
  20
64.59354
  11
38.09758
  21
64.48306
   0
LINE
   8
PV
   6
CONTINUOUS
  10
10.75568
  20
99.49316
  11
10.75352
  21
91.11315
   0
LINE
   8
PV
   6
CONTINUOUS
  10
42.65929
  20
-68.01532
  11
42.66192
  21
-68.52744
   0
LINE
   8
PV
   6
CONTINUOUS
  10
159.31223
  20
-159.30969
  11
154.82965
  21
-159.30963
   0
LINE
   8
PV
   6
CONTINUOUS
  10
45.39706
  20
123.51331
  11
45.40673
  21
122.84272
   0
LINE
   8
PV
   6
CONTINUOUS
  10
45.87179
  20
65.93802
  11
45.8716
  21
66.04701
   0
LINE
   8
PV
   6
CONTINUOUS
  10
40.07459
  20
66.67654
  11
40.05645
  21
65.7533
   0
LINE
   8
PV
   6
CONTINUOUS
  10
31.01465
  20
192.91712
  11
52.97974
  21
192.86153
   0
LINE
   8
PV
   6
CONTINUOUS
  10
45.2424
  20
120.7869
  11
45.25205
  21
120.12423
   0
LINE
   8
PV
   6
CONTINUOUS
  10
45.42596
  20
121.49985
  11
45.43552
  21
120.82758
   0
LINE
   8
PV
   6
CONTINUOUS
  10
246.20815
  20
192.33765
  11
246.69774
  21
192.33893
   0
LINE
   8
PV
   6
CONTINUOUS
  10
31.44321
  20
-73.42527
  11
32.98096
  21
-73.42636
   0
LINE
   8
PV
   6
CONTINUOUS
  10
148.98599
  20
-187.6044
  11
148.98599
  21
-187.752
   0
LINE
   8
PV
   6
CONTINUOUS
  10
45.37769
  20
124.85277
  11
45.38738
  21
124.18333
   0
LINE
   8
PV
   6
CONTINUOUS
  10
249.63659
  20
192.34638
  11
250.12661
  21
192.34758
   0
LINE
   8
PV
   6
CONTINUOUS
  10
6.15412
  20
-341.66
  11
27.40412
  21
-341.66
   0
LINE
   8
PV
   6
CONTINUOUS
  10
31.01465
  20
-192.95101
  11
39.51308
  21
-192.92943
   0
LINE
   8
PV
   6
CONTINUOUS
  10
252.926
  20
-192.14765
  11
252.5338
  21
-192.14678
   0
LINE
   8
PV
   6
CONTINUOUS
  10
40.11216
  20
68.52285
  11
40.09316
  21
67.59972
   0
LINE
   8
PV
   6
CONTINUOUS
  10
159.64013
  20
-157.7108
  11
157.55848
  21
-157.71178
   0
LINE
   8
PV
   6
CONTINUOUS
  10
38.11686
  20
65.25643
  11
38.11409
  21
65.14595
   0
LINE
   8
PV
   6
CONTINUOUS
  10
39.51308
  20
-192.92943
  11
56.50994
  21
-192.88652
   0
LINE
   8
PV
   6
CONTINUOUS
  10
207.4714
  20
-159.2498
  11
161.92031
  21
-159.2498
   0
LINE
   8
PV
   6
CONTINUOUS
  10
246.69774
  20
192.33893
  11
247.1874
  21
192.3402
   0
LINE
   8
PV
   6
CONTINUOUS
  10
38.11964
  20
65.36692
  11
38.11686
  21
65.25643
   0
LINE
   8
PV
   6
CONTINUOUS
  10
248.16689
  20
192.34271
  11
248.65673
  21
192.34394
   0
LINE
   8
PV
   6
CONTINUOUS
  10
164.49002
  20
-157.70869
  11
169.33996
  21
-157.70683
   0
LINE
   8
PV
   6
CONTINUOUS
  10
42.80578
  20
64.98306
  11
39.92737
  21
64.98306
   0
LINE
   8
PV
   6
CONTINUOUS
  10
36.55973
  20
-73.42957
  11
38.1788
  21
-73.43114
   0
LINE
   8
PV
   6
CONTINUOUS
  10
38.23024
  20
69.54646
  11
38.20306
  21
68.55688
   0
LINE
   8
PV
   6
CONTINUOUS
  10
36.55973
  20
-73.42957
  11
32.98113
  21
-73.42637
   0
LINE
   8
PV
   6
CONTINUOUS
  10
38.12243
  20
65.4774
  11
38.11964
  21
65.36692
   0
LINE
   8
PV
   6
CONTINUOUS
  10
45.25205
  20
120.12423
  11
45.26164
  21
119.46103
   0
LINE
   8
PV
   6
CONTINUOUS
  10
40.23555
  20
74.06036
  11
40.21385
  21
73.1376
   0
LINE
   8
PV
   6
CONTINUOUS
  10
45.19347
  20
124.09211
  11
45.20332
  21
123.43217
   0
LINE
   8
PV
   6
CONTINUOUS
  10
38.1765
  20
67.56725
  11
38.15055
  21
66.57759
   0
LINE
   8
PV
   6
CONTINUOUS
  10
148.47245
  20
183.06989
  11
148.60259
  21
182.66057
   0
LINE
   8
PV
   6
CONTINUOUS
  10
45.46386
  20
118.80749
  11
45.47316
  21
118.13306
   0
LINE
   8
PV
   6
CONTINUOUS
  10
115.99891
  20
-192.73734
  11
218.83923
  21
-192.48092
   0
LINE
   8
PV
   6
CONTINUOUS
  10
56.50994
  20
-192.88652
  11
56.85245
  21
-192.88565
   0
LINE
   8
PV
   6
CONTINUOUS
  10
174.18994
  20
157.67133
  11
179.03997
  21
157.66997
   0
LINE
   8
PV
   6
CONTINUOUS
  10
214.94162
  20
154.70778
  11
214.97378
  21
154.59559
   0
LINE
   8
PV
   6
CONTINUOUS
  10
40.25773
  20
74.98306
  11
40.23555
  21
74.06036
   0
LINE
   8
PV
   6
CONTINUOUS
  10
42.66764
  20
-69.5516
  11
42.67081
  21
-70.06365
   0
LINE
   8
PV
   6
CONTINUOUS
  10
248.65673
  20
192.34394
  11
249.14663
  21
192.34517
   0
LINE
   8
PV
   6
CONTINUOUS
  10
164.49002
  20
157.6748
  11
169.33996
  21
157.67295
   0
LINE
   8
PV
   6
CONTINUOUS
  10
151.37674
  20
-182.66197
  11
151.28867
  21
-182.92112
   0
LINE
   8
PV
   6
CONTINUOUS
  10
40.1316
  20
69.44592
  11
40.11216
  21
68.52285
   0
LINE
   8
PV
   6
CONTINUOUS
  10
45.41636
  20
122.17157
  11
45.42596
  21
121.49985
   0
LINE
   8
PV
   6
CONTINUOUS
  10
208.14105
  20
157.66743
  11
183.89003
  21
157.66887
   0
LINE
   8
PV
   6
CONTINUOUS
  10
45.27115
  20
118.7973
  11
45.28059
  21
118.13306
   0
LINE
   8
PV
   6
CONTINUOUS
  10
43.57329
  20
38.43306
  11
11.389
  21
38.43306
   0
LINE
   8
PV
   6
CONTINUOUS
  10
45.45448
  20
119.48139
  11
45.46386
  21
118.80749
   0
LINE
   8
PV
   6
CONTINUOUS
  10
31.44321
  20
-73.42527
  11
20.30739
  21
-73.41932
   0
LINE
   8
PV
   6
CONTINUOUS
  10
45.22294
  20
122.11063
  11
45.23269
  21
121.44904
   0
LINE
   8
PV
   6
CONTINUOUS
  10
250.12661
  20
192.34758
  11
250.61669
  21
192.34877
   0
LINE
   8
PV
   6
CONTINUOUS
  10
38.34532
  20
73.50437
  11
38.31557
  21
72.51496
   0
LINE
   8
PV
   6
CONTINUOUS
  10
5.15412
  20
-377.34
  11
5.15412
  21
-342.66
   0
LINE
   8
PV
   6
CONTINUOUS
  10
38.28649
  20
71.5255
  11
38.25805
  21
70.536
   0
LINE
   8
PV
   6
CONTINUOUS
  10
252.52858
  20
-192.14738
  11
253.07776
  21
-192.14861
   0
LINE
   8
PV
   6
CONTINUOUS
  10
10.7583
  20
107.87318
  11
10.75568
  21
99.49316
   0
LINE
   8
PV
   6
CONTINUOUS
  10
249.14663
  20
192.34517
  11
249.63659
  21
192.34638
   0
LINE
   8
PV
   6
CONTINUOUS
  10
247.1874
  20
192.3402
  11
247.67711
  21
192.34146
   0
LINE
   8
PV
   6
CONTINUOUS
  10
214.94162
  20
-154.70737
  11
214.97378
  21
-154.59518
   0
LINE
   8
PV
   6
CONTINUOUS
  10
148.47245
  20
-183.10378
  11
148.60259
  21
-182.69446
   0
LINE
   8
PV
   6
CONTINUOUS
  10
45.36125
  20
112.13306
  11
45.5517
  21
112.13306
   0
LINE
   8
PV
   6
CONTINUOUS
  10
38.12522
  20
65.58788
  11
38.12243
  21
65.4774
   0
LINE
   8
PV
   6
CONTINUOUS
  10
38.1788
  20
-73.43114
  11
40.9034
  21
-73.43354
   0
LINE
   8
PV
   6
CONTINUOUS
  10
42.67081
  20
-70.06365
  11
42.67423
  21
-70.57568
   0
LINE
   8
PV
   6
CONTINUOUS
  10
10.76516
  20
124.6332
  11
10.76143
  21
116.25319
   0
LINE
   8
PV
   6
CONTINUOUS
  10
45.23269
  20
121.44904
  11
45.2424
  21
120.7869
   0
LINE
   8
PV
   6
CONTINUOUS
  10
38.53894
  20
63.98306
  11
45.19281
  21
63.98306
   0
LINE
   8
PV
   6
CONTINUOUS
  10
36.48029
  20
-347.2225
  11
35.00702
  21
-347.17105
   0
LINE
   8
PV
   6
CONTINUOUS
  10
40.17182
  20
71.29188
  11
40.15149
  21
70.36893
   0
LINE
   8
PV
   6
CONTINUOUS
  10
116.00667
  20
-192.73873
  11
250.66501
  21
-192.40314
   0
LINE
   8
PV
   6
CONTINUOUS
  10
45.38738
  20
124.18333
  11
45.39706
  21
123.51331
   0
LINE
   8
PV
   6
CONTINUOUS
  10
35.40412
  20
-370.34
  11
35.40412
  21
-349.66
   0
LINE
   8
PV
   6
CONTINUOUS
  10
38.10581
  20
64.81451
  11
38.10306
  21
64.70402
   0
LINE
   8
PV
   6
CONTINUOUS
  10
38.20306
  20
68.55688
  11
38.1765
  21
67.56725
   0
LINE
   8
PV
   6
CONTINUOUS
  10
45.21314
  20
122.77168
  11
45.22294
  21
122.11063
   0
LINE
   8
PV
   6
CONTINUOUS
  10
40.21385
  20
73.1376
  11
40.19261
  21
72.21477
   0
LINE
   8
PV
   6
CONTINUOUS
  10
247.67711
  20
192.34146
  11
248.16689
  21
192.34271
   0
LINE
   8
PV
   6
CONTINUOUS
  10
38.40682
  20
75.48306
  11
38.37573
  21
74.49374
   0
LINE
   8
PV
   6
CONTINUOUS
  10
159.64013
  20
157.67691
  11
164.49002
  21
157.6748
   0
LINE
   8
PV
   6
CONTINUOUS
  10
38.10306
  20
64.70402
  11
38.10032
  21
64.59354
   0
LINE
   8
PV
   6
CONTINUOUS
  10
45.43552
  20
120.82758
  11
45.44503
  21
120.15476
   0
LINE
   8
PV
   6
CONTINUOUS
  10
27.278429
  20
-192.884642
  11
21.896408
  21
-341.519144
   0
LINE
   8
PV
   6
CONTINUOUS
  10
35.67784
  20
-40.32245
  11
20.12408
  21
-40.31796
   0
LINE
   8
A
   6
CONTINUOUS
  10
0.15412
  20
-125
  11
0.15412
  21
-105
   0
LINE
   8
A
   6
CONTINUOUS
  10
-9.84588
  20
-115
  11
10.15412
  21
-115
   0
LINE
   8
A
   6
CONTINUOUS
  10
192.928932
  20
-7.071067
  11
207.071068
  21
7.071068
   0
LINE
   8
A
   6
CONTINUOUS
  10
192.928932
  20
7.071068
  11
207.071068
  21
-7.071067
   0
LINE
   8
PV
   6
CONTINUOUS
  10
214.536041
  20
-155.98423
  11
214.585856
  21
-155.847751
   0
ARC
   8
PV
   6
CONTINUOUS
  10
151.06961
  20
-174.65172
  40
14.538493
  50
261.168759
  51
263.194507
   0
ARC
   8
PV
   6
CONTINUOUS
  10
30.78147
  20
100.82221
  40
92.095195
  50
89.853978
  51
92.179838
   0
ARC
   8
PV
   6
CONTINUOUS
  10
151.11338
  20
-188.8526
  40
1.155772
  50
157.370704
  51
171.195122
   0
ARC
   8
PV
   6
CONTINUOUS
  10
195.0241
  20
-134.99979
  40
5.597214
  50
237.719219
  51
302.193214
   0
LINE
   8
PV
   6
CONTINUOUS
  10
151.868961
  20
-175.889062
  11
151.962132
  21
-179.449878
   0
ARC
   8
PV
   6
CONTINUOUS
  10
11.389
  20
38.52446
  40
0.091409
  50
179.231976
  51
270
   0
ARC
   8
PV
   6
CONTINUOUS
  10
195.33582
  20
-134.13662
  40
6.241588
  50
140.051433
  51
143.708317
   0
ARC
   8
PV
   6
CONTINUOUS
  10
150.86604
  20
-187.82085
  40
1.833208
  50
178.964418
  51
208.997862
   0
ARC
   8
PV
   6
CONTINUOUS
  10
150.55394
  20
-187.93836
  40
1.626222
  50
149.062303
  51
158.787082
   0
ARC
   8
PV
   6
CONTINUOUS
  10
195.48668
  20
-134.23361
  40
6.421117
  50
150.970023
  51
154.574895
   0
LINE
   8
PV
   6
CONTINUOUS
  10
214.941619
  20
154.707781
  11
214.87681
  21
154.931947
   0
ARC
   8
PV
   6
CONTINUOUS
  10
144.05789
  20
-180.28593
  40
7.74756
  50
338.571901
  51
339.588406
   0
ARC
   8
PV
   6
CONTINUOUS
  10
10.22025
  20
127.08227
  40
1.126764
  50
347.403214
  51
354.134983
   0
ARC
   8
PV
   6
CONTINUOUS
  10
-177.08424
  20
-43.62885
  40
407.479524
  50
346.071084
  51
347.945568
   0
ARC
   8
PV
   6
CONTINUOUS
  10
-443.92833
  20
2.38227
  40
676.780518
  50
359.796883
  51
2.723851
   0
ARC
   8
PV
   6
CONTINUOUS
  10
36.45413
  20
-347.97204
  40
0.749993
  50
359.99977
  51
88.000834
   0
ARC
   8
PV
   6
CONTINUOUS
  10
208.92652
  20
-155.03772
  40
2.683289
  50
270.191304
  51
306.908971
   0
ARC
   8
PV
   6
CONTINUOUS
  10
11.41416
  20
126.95963
  40
0.073425
  50
90
  51
174.134983
   0
ARC
   8
PV
   6
CONTINUOUS
  10
152.82552
  20
185.71083
  40
4.469042
  50
99.844547
  51
121.884091
   0
LINE
   8
PV
   6
CONTINUOUS
  10
212.798681
  20
192.004034
  11
190.377005
  21
191.845259
   0
LINE
   8
PV
   6
CONTINUOUS
  10
38.137799
  20
66.082731
  11
38.125199
  21
65.587876
   0
ARC
   8
PV
   6
CONTINUOUS
  10
195.37365
  20
-134.16441
  40
6.288528
  50
143.708317
  51
147.36494
   0
ARC
   8
PV
   6
CONTINUOUS
  10
10.30253
  20
38.53903
  40
0.995155
  50
359.231976
  51
9.869071
   0
ARC
   8
PV
   6
CONTINUOUS
  10
163.63596
  20
-123.49134
  40
67.619878
  50
260.132652
  51
261.603386
   0
ARC
   8
PV
   6
CONTINUOUS
  10
151.68072
  20
-182.7993
  40
0.320114
  50
134.193702
  51
158.882438
   0
ARC
   8
PV
   6
CONTINUOUS
  10
23.05902
  20
5.15169
  40
7.384829
  50
29.752972
  51
44.990397
   0
ARC
   8
PV
   6
CONTINUOUS
  10
38.6593
  20
75.80822
  40
0.174833
  50
90
  51
158.517448
   0
ARC
   8
PV
   6
CONTINUOUS
  10
194.27862
  20
-134.36323
  40
6.658043
  50
348.570082
  51
32.413142
   0
ARC
   8
PV
   6
CONTINUOUS
  10
27.15657
  20
-8.68096
  40
2.283726
  50
212.771718
  51
253.604224
   0
ARC
   8
PV
   6
CONTINUOUS
  10
443.78675
  20
-148.56391
  40
329.650225
  50
65.747553
  51
72.767082
   0
ARC
   8
PV
   6
CONTINUOUS
  10
11.20809
  20
38.93306
  40
0.300819
  50
179.996121
  51
224.810468
   0
LINE
   8
PV
   6
CONTINUOUS
  10
190.353479
  20
-191.844675
  11
212.781148
  21
-192.003528
   0
LINE
   8
PV
   6
CONTINUOUS
  10
45.871598
  20
66.047049
  11
45.77266
  21
89.09052
   0
ARC
   8
PV
   6
CONTINUOUS
  10
43.65507
  20
40.63085
  40
2.16176
  50
325.255129
  51
359.535437
   0
LINE
   8
PV
   6
CONTINUOUS
  10
214.768199
  20
-155.29479
  11
214.810628
  21
-155.155299
   0
ARC
   8
PV
   6
CONTINUOUS
  10
155.69458
  20
-190.39339
  40
7.290398
  50
143.545765
  51
149.161924
   0
LINE
   8
PV
   6
CONTINUOUS
  10
19.479098
  20
-56.873996
  11
19.562174
  21
-70.926347
   0
ARC
   8
PV
   6
CONTINUOUS
  10
22.67375
  20
-41.94551
  40
3.183935
  50
158.760335
  51
170.26869
   0
ARC
   8
PV
   6
CONTINUOUS
  10
208.86844
  20
-153.9788
  40
6.008321
  50
333.598374
  51
334.983384
   0
ARC
   8
PV
   6
CONTINUOUS
  10
152.80448
  20
-185.76247
  40
4.413744
  50
237.883221
  51
260.132652
   0
ARC
   8
PV
   6
CONTINUOUS
  10
210.48303
  20
154.89279
  40
4.148424
  50
35.126526
  51
82.060603
   0
ARC
   8
PV
   6
CONTINUOUS
  10
195.26273
  20
-134.0754
  40
6.146244
  50
136.337861
  51
140.051433
   0
ARC
   8
PV
   6
CONTINUOUS
  10
31.99231
  20
2.6437
  40
4.614869
  50
129.551887
  51
148.146543
   0
ARC
   8
PV
   6
CONTINUOUS
  10
148.10527
  20
-186.93401
  40
1.856293
  50
235.995355
  51
246.405261
   0
ARC
   8
PV
   6
CONTINUOUS
  10
-533.41625
  20
0.0002
  40
766.774264
  50
357.945088
  51
2.054912
   0
ARC
   8
PV
   6
CONTINUOUS
  10
28.1948
  20
-168.81105
  40
24.091029
  50
258.945082
  51
267.820045
   0
ARC
   8
PV
   6
CONTINUOUS
  10
40.44447
  20
-42.1416
  40
1.848024
  50
45.420303
  51
66.516142
   0
ARC
   8
PV
   6
CONTINUOUS
  10
40.05274
  20
-0.01694
  40
13.220593
  50
180
  51
191.017243
   0
ARC
   8
PV
   6
CONTINUOUS
  10
43.57421
  20
40.72452
  40
2.291432
  50
273.547416
  51
277.117826
   0
ARC
   8
PV
   6
CONTINUOUS
  10
43.13778
  20
124.77014
  40
2.262916
  50
46.0531
  51
90
   0
ARC
   8
PV
   6
CONTINUOUS
  10
23.02
  20
-5.23449
  40
7.358557
  50
315.043439
  51
330.974195
   0
ARC
   8
PV
   6
CONTINUOUS
  10
45.15936
  20
76.50042
  40
0.517363
  50
270
  51
286.026879
   0
ARC
   8
PV
   6
CONTINUOUS
  10
69.31177
  20
-171.99137
  40
59.302792
  50
180.005438
  51
185.767015
   0
ARC
   8
PV
   6
CONTINUOUS
  10
30.78148
  20
-100.85835
  40
92.092942
  50
267.820045
  51
270.146022
   0
ARC
   8
PV
   6
CONTINUOUS
  10
149.74389
  20
-182.06881
  40
7.002775
  50
255.714457
  51
259.142186
   0
ARC
   8
PV
   6
CONTINUOUS
  10
149.75307
  20
-187.62752
  40
0.76715
  50
158.787082
  51
179.231803
   0
ARC
   8
PV
   6
CONTINUOUS
  10
-45.17611
  20
-65.86551
  40
272.577362
  50
343.802891
  51
346.918009
   0
ARC
   8
PV
   6
CONTINUOUS
  10
13.90265
  20
125.81865
  40
3.093801
  50
164.643733
  51
173.80621
   0
ARC
   8
PV
   6
CONTINUOUS
  10
208.7189
  20
-154.76129
  40
3.029001
  50
306.908971
  51
339.673708
   0
ARC
   8
PV
   6
CONTINUOUS
  10
545.75814
  20
-12.18656
  40
157.741114
  50
28.441425
  51
36.385478
   0
ARC
   8
PV
   6
CONTINUOUS
  10
194.7161
  20
-134.08546
  40
6.139828
  50
32.413142
  51
59.959461
   0
ARC
   8
PV
   6
CONTINUOUS
  10
39.18143
  20
-2.22875
  40
15.981837
  50
187.452899
  51
202.787215
   0
LINE
   8
PV
   6
CONTINUOUS
  10
167.962122
  20
191.354693
  11
160.853213
  21
191.068217
   0
ARC
   8
PV
   6
CONTINUOUS
  10
43.02049
  20
124.62279
  40
2.187761
  50
0.786303
  51
46.120945
   0
ARC
   8
PV
   6
CONTINUOUS
  10
36.30412
  20
-360
  40
4.300001
  50
271.813133
  51
88.186867
   0
ARC
   8
PV
   6
CONTINUOUS
  10
6.15412
  20
-377.34
  40
1
  50
180
  51
270
   0
ARC
   8
PV
   6
CONTINUOUS
  10
27.90612
  20
-176.17312
  40
17.686513
  50
185.767015
  51
204.921442
   0
ARC
   8
PV
   6
CONTINUOUS
  10
142.52877
  20
-181.08536
  40
8.833749
  50
325.677065
  51
333.652798
   0
ARC
   8
PV
   6
CONTINUOUS
  10
208.58051
  20
-153.84444
  40
6.326061
  50
334.983384
  51
336.296594
   0
ARC
   8
PV
   6
CONTINUOUS
  10
105.08261
  20
-109.51148
  40
116.108023
  50
336.497889
  51
343.802891
   0
LINE
   8
PV
   6
CONTINUOUS
  10
214.679961
  20
-155.572507
  11
214.724693
  21
-155.433946
   0
ARC
   8
PV
   6
CONTINUOUS
  10
163.58829
  20
123.68857
  40
67.418204
  50
98.365379
  51
99.844547
   0
ARC
   8
PV
   6
CONTINUOUS
  10
149.79901
  20
-187.79604
  40
0.813084
  50
159.758952
  51
179.227077
   0
LINE
   8
PV
   6
CONTINUOUS
  10
42.674235
  20
-70.575687
  11
42.676049
  21
-70.831693
   0
ARC
   8
PV
   6
CONTINUOUS
  10
27.27482
  20
173.48606
  40
19.293098
  50
101.054408
  51
112.397969
   0
ARC
   8
PV
   6
CONTINUOUS
  10
150.09908
  20
-188.25365
  40
3.55689
  50
160.08376
  51
162.243749
   0
ARC
   8
PV
   6
CONTINUOUS
  10
496.39004
  20
-61.0925
  40
227.537761
  50
48.176239
  51
57.421972
   0
ARC
   8
PV
   6
CONTINUOUS
  10
43.60213
  20
40.6317
  40
2.177331
  50
314.068812
  51
359.516443
   0
ARC
   8
PV
   6
CONTINUOUS
  10
210.48303
  20
-154.89238
  40
4.148424
  50
277.939397
  51
324.873474
   0
ARC
   8
PV
   6
CONTINUOUS
  10
209.62512
  20
154.36279
  40
5.159907
  50
27.935369
  51
29.556136
   0
ARC
   8
PV
   6
CONTINUOUS
  10
207.4714
  20
133.2982
  40
25.952001
  50
82.060603
  51
90
   0
ARC
   8
PV
   6
CONTINUOUS
  10
39.08606
  20
64.40766
  40
0.989437
  50
185.651828
  51
191.784773
   0
ARC
   8
PV
   6
CONTINUOUS
  10
147.86028
  20
-187.60449
  40
1.224936
  50
165.495231
  51
196.629339
   0
ARC
   8
PV
   6
CONTINUOUS
  10
546.5617
  20
11.67803
  40
156.80371
  50
321.563258
  51
329.81933
   0
LINE
   8
PV
   6
CONTINUOUS
  10
284.128082
  20
-191.990718
  11
315.327078
  21
-191.542544
   0
ARC
   8
PV
   6
CONTINUOUS
  10
210.36901
  20
-154.81014
  40
4.291321
  50
324.861002
  51
326.828632
   0
ARC
   8
PV
   6
CONTINUOUS
  10
195.11951
  20
-134.59108
  40
4.794173
  50
209.982284
  51
262.990702
   0
ARC
   8
PV
   6
CONTINUOUS
  10
43.57329
  20
40.73935
  40
2.306294
  50
270
  51
273.547416
   0
ARC
   8
PV
   6
CONTINUOUS
  10
20.30748
  20
-73.18211
  40
0.237216
  50
238.33293
  51
269.978127
   0
LINE
   8
PV
   6
CONTINUOUS
  10
45.779376
  20
40.61331
  11
45.857172
  21
53.275555
   0
ARC
   8
PV
   6
CONTINUOUS
  10
416.27984
  20
-237.24399
  40
422.498422
  50
72.767082
  51
78.24668
   0
ARC
   8
PV
   6
CONTINUOUS
  10
40.18929
  20
-0.01694
  40
13.353503
  50
168.558955
  51
180
   0
ARC
   8
PV
   6
CONTINUOUS
  10
-218.83589
  20
34.72224
  40
450.170683
  50
7.302937
  51
12.033794
   0
ARC
   8
PV
   6
CONTINUOUS
  10
210.36901
  20
154.81055
  40
4.291321
  50
33.171368
  51
35.138998
   0
ARC
   8
PV
   6
CONTINUOUS
  10
12.4873
  20
39.4283
  40
1.679995
  50
187.035409
  51
192.925907
   0
ARC
   8
PV
   6
CONTINUOUS
  10
162.27184
  20
162.95106
  40
3.21084
  50
196.744667
  51
231.350129
   0
ARC
   8
PV
   6
CONTINUOUS
  10
140.34783
  20
178.57618
  40
12.179553
  50
30.965925
  51
37.846197
   0
ARC
   8
PV
   6
CONTINUOUS
  10
27.56709
  20
-42.75842
  40
8.145329
  50
174.962176
  51
177.702969
   0
ARC
   8
PV
   6
CONTINUOUS
  10
24.8847
  20
40.58227
  40
14.134857
  50
181.410293
  51
183.837073
   0
ARC
   8
PV
   6
CONTINUOUS
  10
20.12402
  20
-40.62371
  40
0.305745
  50
89.989982
  51
150.298955
   0
ARC
   8
PV
   6
CONTINUOUS
  10
115.9472
  20
170.8163
  40
34.75689
  50
20.643414
  51
22.614459
   0
ARC
   8
PV
   6
CONTINUOUS
  10
38.53894
  20
64.54619
  40
0.563135
  50
255.962996
  51
270
   0
ARC
   8
PV
   6
CONTINUOUS
  10
56.08919
  20
-0.01694
  40
33.033653
  50
180.000009
  51
187.452899
   0
LINE
   8
PV
   6
CONTINUOUS
  10
284.128084
  20
191.99112
  11
252.92635
  21
192.148042
   0
ARC
   8
PV
   6
CONTINUOUS
  10
477.29273
  20
87.28277
  40
259.874282
  50
298.044491
  51
303.144988
   0
ARC
   8
PV
   6
CONTINUOUS
  10
25.48826
  20
177.4765
  40
14.906666
  50
126.542992
  51
141.182089
   0
ARC
   8
PV
   6
CONTINUOUS
  10
187.83119
  20
169.41888
  40
34.637482
  50
190.037124
  51
193.041335
   0
ARC
   8
PV
   6
CONTINUOUS
  10
158.09061
  20
192.36182
  40
10.289313
  50
209.705877
  51
217.846197
   0
LINE
   8
PV
   6
CONTINUOUS
  10
165.129266
  20
192.580526
  11
250.660216
  21
192.368129
   0
LINE
   8
PV
   6
CONTINUOUS
  10
45.857174
  20
53.275562
  11
45.871789
  21
65.937999
   0
ARC
   8
PV
   6
CONTINUOUS
  10
152.02081
  20
-166.68119
  40
22.565582
  50
263.194507
  51
264.49973
   0
ARC
   8
PV
   6
CONTINUOUS
  10
-390.08223
  20
-6.70112
  40
622.746218
  50
351.526631
  51
354.253696
   0
ARC
   8
PV
   6
CONTINUOUS
  10
25.80805
  20
-177.07891
  40
15.443737
  50
233.455598
  51
247.601071
   0
LINE
   8
PV
   6
CONTINUOUS
  10
214.724693
  20
-155.433952
  11
214.768196
  21
-155.294793
   0
ARC
   8
PV
   6
CONTINUOUS
  10
15.0221
  20
39.76337
  40
4.238875
  50
183.846609
  51
191.468893
   0
ARC
   8
PV
   6
CONTINUOUS
  10
151.05569
  20
187.76399
  40
2.033045
  50
151.508195
  51
178.797773
   0
ARC
   8
PV
   6
CONTINUOUS
  10
150.63313
  20
-188.77822
  40
0.669798
  50
171.195122
  51
194.825544
   0
ARC
   8
PV
   6
CONTINUOUS
  10
32.50077
  20
-2.32698
  40
5.232137
  50
209.514042
  51
225.530469
   0
LINE
   8
PV
   6
CONTINUOUS
  10
10.000923
  20
-0.010732
  11
10.00863
  21
-168.133084
   0
ARC
   8
PV
   6
CONTINUOUS
  10
559.6989
  20
4.03793
  40
141.606437
  50
329.81933
  51
344.091764
   0
ARC
   8
PV
   6
CONTINUOUS
  10
11.21894
  20
38.99176
  40
0.358234
  50
191.468893
  51
267.962001
   0
ARC
   8
PV
   6
CONTINUOUS
  10
197.55039
  20
-648.24308
  40
840.118962
  50
90.489228
  51
92.018325
   0
ARC
   8
PV
   6
CONTINUOUS
  10
121.84604
  20
-171.56863
  40
31.608774
  50
336.86245
  51
338.571901
   0
ARC
   8
PV
   6
CONTINUOUS
  10
19.80563
  20
3.292
  40
11.132227
  50
19.159144
  51
29.752972
   0
ARC
   8
PV
   6
CONTINUOUS
  10
118.26448
  20
171.78158
  40
32.2466
  50
22.614459
  51
24.738908
   0
ARC
   8
PV
   6
CONTINUOUS
  10
207.86167
  20
-153.52884
  40
7.111131
  50
336.296594
  51
337.464836
   0
ARC
   8
PV
   6
CONTINUOUS
  10
157.56724
  20
-160.97607
  40
3.264307
  50
90.157036
  51
95.10658
   0
ARC
   8
PV
   6
CONTINUOUS
  10
69.30913
  20
171.95748
  40
59.300153
  50
174.232454
  51
179.994562
   0
ARC
   8
PV
   6
CONTINUOUS
  10
21.94414
  20
-41.66193
  40
2.401153
  50
150.298955
  51
158.760335
   0
ARC
   8
PV
   6
CONTINUOUS
  10
8.83313
  20
-0.01693
  40
22.623008
  50
359.999957
  51
6.363174
   0
ARC
   8
PV
   6
CONTINUOUS
  10
195.44941
  20
-134.21293
  40
6.378493
  50
147.36494
  51
150.970023
   0
ARC
   8
PV
   6
CONTINUOUS
  10
150.6285
  20
188.76798
  40
0.664091
  50
143.819855
  51
186.39831
   0
LINE
   8
PV
   6
CONTINUOUS
  10
42.676045
  20
-70.831689
  11
42.677934
  21
-71.087693
   0
ARC
   8
PV
   6
CONTINUOUS
  10
150.65636
  20
-177.31157
  40
11.846731
  50
259.142186
  51
261.168759
   0
ARC
   8
PV
   6
CONTINUOUS
  10
154.26699
  20
189.76319
  40
8.001355
  50
200.140623
  51
206.965981
   0
ARC
   8
PV
   6
CONTINUOUS
  10
105.08261
  20
109.4776
  40
116.108023
  50
16.197109
  51
23.502111
   0
ARC
   8
PV
   6
CONTINUOUS
  10
195.45545
  20
-134.31694
  40
6.404895
  50
179.999998
  51
237.719219
   0
ARC
   8
PV
   6
CONTINUOUS
  10
147.60064
  20
-187.68203
  40
0.953963
  50
196.629339
  51
235.995355
   0
ARC
   8
PV
   6
CONTINUOUS
  10
194.68564
  20
-134.37108
  40
5.195581
  50
317.568036
  51
350.290326
   0
LINE
   8
PV
   6
CONTINUOUS
  10
45.584625
  20
89.077287
  11
45.361244
  21
112.133071
   0
ARC
   8
PV
   6
CONTINUOUS
  10
39.63331
  20
-42.86778
  40
2.943374
  50
14.897505
  51
30.757315
   0
ARC
   8
PV
   6
CONTINUOUS
  10
45.2945
  20
124.85861
  40
0.083395
  50
280.638296
  51
355.982109
   0
ARC
   8
PV
   6
CONTINUOUS
  10
27.49317
  20
-70.90826
  40
7.930104
  50
182.95007
  51
185.769152
   0
ARC
   8
PV
   6
CONTINUOUS
  10
157.62196
  20
161.5545
  40
3.87907
  50
260.727533
  51
264.89342
   0
LINE
   8
PV
   6
CONTINUOUS
  10
10.008949
  20
171.593963
  11
10.000919
  21
-0.024672
   0
ARC
   8
PV
   6
CONTINUOUS
  10
-138.48186
  20
44.14961
  40
368.369178
  50
8.473369
  51
13.081991
   0
ARC
   8
PV
   6
CONTINUOUS
  10
43.23242
  20
124.8184
  40
2.183851
  50
0.901773
  51
46.455438
   0
ARC
   8
PV
   6
CONTINUOUS
  10
39.66134
  20
-71.11042
  40
3.016679
  50
328.308583
  51
0.431619
   0
ARC
   8
PV
   6
CONTINUOUS
  10
45.16081
  20
76.49537
  40
0.512106
  50
286.026879
  51
302.216091
   0
ARC
   8
PV
   6
CONTINUOUS
  10
164.05258
  20
120.53122
  40
70.609517
  50
92.597002
  51
98.365379
   0
ARC
   8
PV
   6
CONTINUOUS
  10
27.90566
  20
176.1394
  40
17.686027
  50
155.076614
  51
174.232454
   0
ARC
   8
PV
   6
CONTINUOUS
  10
210.14005
  20
-154.66048
  40
4.564862
  50
326.828632
  51
328.678376
   0
ARC
   8
PV
   6
CONTINUOUS
  10
40.90465
  20
-71.87804
  40
1.555499
  50
269.954262
  51
328.308583
   0
ARC
   8
PV
   6
CONTINUOUS
  10
195.59026
  20
-134.28042
  40
6.534824
  50
158.136332
  51
161.69761
   0
ARC
   8
PV
   6
CONTINUOUS
  10
-177.08424
  20
43.62926
  40
407.479524
  50
12.054432
  51
13.928916
   0
ARC
   8
PV
   6
CONTINUOUS
  10
150.67263
  20
-188.76776
  40
0.710659
  50
194.825544
  51
224.536171
   0
ARC
   8
PV
   6
CONTINUOUS
  10
157.07049
  20
160.35888
  40
2.579282
  50
191.491481
  51
218.287508
   0
ARC
   8
PV
   6
CONTINUOUS
  10
207.41878
  20
-153.34507
  40
7.590637
  50
337.464836
  51
338.559729
   0
LINE
   8
PV
   6
CONTINUOUS
  10
42.583783
  20
-42.917295
  11
42.607123
  21
-54.441999
   0
ARC
   8
PV
   6
CONTINUOUS
  10
401.42346
  20
-308.64802
  40
495.431587
  50
78.24668
  51
82.965818
   0
ARC
   8
PV
   6
CONTINUOUS
  10
156.96707
  20
160.27724
  40
2.447519
  50
218.287508
  51
246.470023
   0
ARC
   8
PV
   6
CONTINUOUS
  10
157.75483
  20
161.94754
  40
4.290437
  50
252.661804
  51
259.593501
   0
LINE
   8
PV
   6
CONTINUOUS
  10
42.607121
  20
-54.441971
  11
42.649453
  21
-65.966546
   0
ARC
   8
PV
   6
CONTINUOUS
  10
27.40412
  20
-370.34
  40
8
  50
270
  51
0
   0
LINE
   8
PV
   6
CONTINUOUS
  10
214.876813
  20
154.93194
  11
214.810624
  21
155.155701
   0
ARC
   8
PV
   6
CONTINUOUS
  10
167.84085
  20
-198.36694
  40
21.815134
  50
145.677065
  51
148.911098
   0
ARC
   8
PV
   6
CONTINUOUS
  10
149.79901
  20
187.79645
  40
0.813084
  50
180.772923
  51
200.241048
   0
ARC
   8
PV
   6
CONTINUOUS
  10
207.86167
  20
153.52924
  40
7.111131
  50
22.535164
  51
23.703406
   0
ARC
   8
PV
   6
CONTINUOUS
  10
150.54488
  20
-187.99886
  40
1.466013
  50
208.997862
  51
246.086346
   0
ARC
   8
PV
   6
CONTINUOUS
  10
401.1778
  20
310.02294
  40
496.827339
  50
277.007246
  51
281.703402
   0
ARC
   8
PV
   6
CONTINUOUS
  10
39.4292
  20
-42.92209
  40
3.154592
  50
0.087402
  51
14.897505
   0
ARC
   8
PV
   6
CONTINUOUS
  10
42.96462
  20
124.56469
  40
2.268363
  50
46.120945
  51
90
   0
ARC
   8
PV
   6
CONTINUOUS
  10
150.89728
  20
188.79812
  40
0.934552
  50
186.39831
  51
200.690253
   0
ARC
   8
PV
   6
CONTINUOUS
  10
157.90797
  20
162.43808
  40
4.804329
  50
246.470023
  51
252.661804
   0
ARC
   8
PV
   6
CONTINUOUS
  10
579.07591
  20
-1.48477
  40
121.457763
  50
344.091764
  51
0.701141
   0
ARC
   8
PV
   6
CONTINUOUS
  10
57.26156
  20
137.80572
  40
104.88206
  50
21.107123
  51
23.904656
   0
ARC
   8
PV
   6
CONTINUOUS
  10
43.57737
  20
40.71199
  40
2.278562
  50
280.752099
  51
284.42611
   0
ARC
   8
PV
   6
CONTINUOUS
  10
11.20613
  20
38.9311
  40
0.298046
  50
224.810468
  51
270
   0
ARC
   8
PV
   6
CONTINUOUS
  10
36.45412
  20
-349.32795
  40
0.75
  50
272
  51
0
   0
ARC
   8
PV
   6
CONTINUOUS
  10
195.06885
  20
-133.77344
  40
4.566433
  50
54.022106
  51
90
   0
ARC
   8
PV
   6
CONTINUOUS
  10
43.54947
  20
40.68609
  40
2.253038
  50
270
  51
314.068812
   0
ARC
   8
PV
   6
CONTINUOUS
  10
355.13868
  20
-683.75712
  40
873.385447
  50
82.965818
  51
85.643796
   0
LINE
   8
PV
   6
CONTINUOUS
  10
368.438651
  20
190.081094
  11
315.327074
  21
191.54295
   0
ARC
   8
PV
   6
CONTINUOUS
  10
125.25666
  20
175.00338
  40
24.547859
  50
24.738907
  51
26.965981
   0
LINE
   8
PV
   6
CONTINUOUS
  10
214.536042
  20
155.984634
  11
214.484138
  21
156.120083
   0
ARC
   8
PV
   6
CONTINUOUS
  10
163.68965
  20
164.64113
  40
5.390931
  50
260.830352
  51
269.897804
   0
LINE
   8
PV
   6
CONTINUOUS
  10
151.818827
  20
-172.327429
  11
151.868966
  21
-175.889064
   0
ARC
   8
PV
   6
CONTINUOUS
  10
210.14005
  20
154.66088
  40
4.564862
  50
31.321624
  51
33.171368
   0
ARC
   8
PV
   6
CONTINUOUS
  10
148.92469
  20
185.00595
  40
3.920406
  50
108.549046
  51
112.616818
   0
ARC
   8
PV
   6
CONTINUOUS
  10
11.54145
  20
-0.57482
  40
19.790932
  50
341.265354
  51
347.215684
   0
ARC
   8
PV
   6
CONTINUOUS
  10
452.87752
  20
-132.28045
  40
311.048803
  50
61.737702
  51
66.040931
   0
ARC
   8
PV
   6
CONTINUOUS
  10
-528.9596
  20
0.16011
  40
762.314747
  50
2.054912
  51
4.121843
   0
ARC
   8
PV
   6
CONTINUOUS
  10
209.39037
  20
-154.23791
  40
5.425614
  50
332.064631
  51
333.598374
   0
ARC
   8
PV
   6
CONTINUOUS
  10
207.41878
  20
153.34547
  40
7.590637
  50
21.440271
  51
22.535164
   0
LINE
   8
PV
   6
CONTINUOUS
  10
250.661953
  20
-192.402013
  11
218.841698
  21
-192.480918
   0
ARC
   8
PV
   6
CONTINUOUS
  10
154.26699
  20
-189.79708
  40
8.001355
  50
153.034019
  51
159.859377
   0
ARC
   8
PV
   6
CONTINUOUS
  10
27.07515
  20
8.72527
  40
2.187764
  50
102.075946
  51
145.951551
   0
ARC
   8
PV
   6
CONTINUOUS
  10
568.98403
  20
-0.572
  40
131.719103
  50
9.77563
  51
19.303704
   0
LINE
   8
PV
   6
CONTINUOUS
  10
151.839295
  20
-172.24177
  11
151.878531
  21
-175.819721
   0
ARC
   8
PV
   6
CONTINUOUS
  10
46.38332
  20
119.06197
  40
5.814618
  50
100.638296
  51
101.907207
   0
ARC
   8
PV
   6
CONTINUOUS
  10
148.2496
  20
186.62641
  40
2.164953
  50
112.616818
  51
119.97591
   0
ARC
   8
PV
   6
CONTINUOUS
  10
39.86434
  20
-42.7303
  40
2.674534
  50
30.757315
  51
45.420303
   0
ARC
   8
PV
   6
CONTINUOUS
  10
17.34365
  20
40.02764
  40
6.573193
  50
185.528659
  51
187.035409
   0
LINE
   8
PV
   6
CONTINUOUS
  10
214.633723
  20
-155.710579
  11
214.679962
  21
-155.572514
   0
ARC
   8
PV
   6
CONTINUOUS
  10
148.89842
  20
-185.1181
  40
3.837856
  50
246.405261
  51
251.450954
   0
ARC
   8
PV
   6
CONTINUOUS
  10
20.43928
  20
-72.96843
  40
0.488272
  50
222.654267
  51
238.33293
   0
ARC
   8
PV
   6
CONTINUOUS
  10
157.56724
  20
160.94218
  40
3.264307
  50
264.89342
  51
269.842964
   0
LINE
   8
PV
   6
CONTINUOUS
  10
45.681301
  20
66.020583
  11
45.584622
  21
89.077295
   0
LINE
   8
PV
   6
CONTINUOUS
  10
232.657203
  20
-192.091349
  11
252.533946
  21
-192.14678
   0
ARC
   8
PV
   6
CONTINUOUS
  10
131.78364
  20
-175.81508
  40
20.801915
  50
334.265171
  51
336.86245
   0
ARC
   8
PV
   6
CONTINUOUS
  10
195.13165
  20
-133.95031
  40
5.96505
  50
113.890143
  51
136.337861
   0
LINE
   8
PV
   6
CONTINUOUS
  10
45.816758
  20
40.613351
  11
45.894596
  21
53.319195
   0
ARC
   8
PV
   6
CONTINUOUS
  10
148.9616
  20
-187.88941
  40
2.362519
  50
162.243749
  51
165.495231
   0
LINE
   8
PV
   6
CONTINUOUS
  10
214.585851
  20
-155.847748
  11
214.633716
  21
-155.710571
   0
ARC
   8
PV
   6
CONTINUOUS
  10
164.0123
  20
-120.94173
  40
70.197117
  50
261.603386
  51
267.401101
   0
ARC
   8
PV
   6
CONTINUOUS
  10
161.92031
  20
-163.66578
  40
4.415982
  50
90
  51
91.685257
   0
ARC
   8
PV
   6
CONTINUOUS
  10
115.19964
  20
163.48597
  40
41.507803
  50
23.904656
  51
30.965925
   0
LINE
   8
PV
   6
CONTINUOUS
  10
214.585856
  20
155.848161
  11
214.536041
  21
155.98464
   0
ARC
   8
PV
   6
CONTINUOUS
  10
45.89423
  20
146.35563
  40
109.107791
  50
12.82718
  51
16.362381
   0
ARC
   8
PV
   6
CONTINUOUS
  10
195.09999
  20
-134.74986
  40
4.634196
  50
262.990702
  51
317.568036
   0
ARC
   8
PV
   6
CONTINUOUS
  10
512.17014
  20
41.60222
  40
202.470482
  50
308.183514
  51
314.581788
   0
ARC
   8
PV
   6
CONTINUOUS
  10
25.80812
  20
177.04491
  40
15.443861
  50
112.397969
  51
126.542992
   0
LINE
   8
PV
   6
CONTINUOUS
  10
315.327084
  20
-191.54254
  11
368.326439
  21
-190.084767
   0
ARC
   8
PV
   6
CONTINUOUS
  10
157.75483
  20
-161.98143
  40
4.290437
  50
100.406499
  51
107.338196
   0
ARC
   8
PV
   6
CONTINUOUS
  10
30.39165
  20
4.58187
  40
2.101183
  50
89.999189
  51
129.551887
   0
ARC
   8
PV
   6
CONTINUOUS
  10
45.16464
  20
76.48929
  40
0.50493
  50
302.216091
  51
330.815255
   0
ARC
   8
PV
   6
CONTINUOUS
  10
9.4792
  20
-0.10688
  40
21.90561
  50
347.215684
  51
353.72545
   0
LINE
   8
PV
   6
CONTINUOUS
  10
45.6793
  20
52.147944
  11
45.70135
  21
63.482633
   0
LINE
   8
PV
   6
CONTINUOUS
  10
45.616929
  20
44.163848
  11
45.65918
  21
51.55488
   0
ARC
   8
PV
   6
CONTINUOUS
  10
38.81389
  20
2.23772
  40
15.659929
  50
156.786251
  51
172.491356
   0
ARC
   8
PV
   6
CONTINUOUS
  10
209.62512
  20
-154.36239
  40
5.159907
  50
330.443864
  51
332.064631
   0
ARC
   8
PV
   6
CONTINUOUS
  10
443.48359
  20
149.33319
  40
330.475801
  50
287.160427
  51
294.147466
   0
ARC
   8
PV
   6
CONTINUOUS
  10
160.28119
  20
-163.18507
  40
3.93527
  50
90
  51
97.07181
   0
ARC
   8
PV
   6
CONTINUOUS
  10
448.99491
  20
140.40368
  40
320.0623
  50
293.902215
  51
298.044491
   0
LINE
   8
PV
   6
CONTINUOUS
  10
214.633716
  20
155.710981
  11
214.585851
  21
155.848158
   0
ARC
   8
PV
   6
CONTINUOUS
  10
-1.82477
  20
-135.94112
  40
157.960927
  50
348.679261
  51
350.038256
   0
LINE
   8
PV
   6
CONTINUOUS
  10
214.484138
  20
-156.119683
  11
214.536042
  21
-155.984234
   0
ARC
   8
PV
   6
CONTINUOUS
  10
151.17026
  20
188.37177
  40
1.335274
  50
121.884083
  51
143.819855
   0
ARC
   8
PV
   6
CONTINUOUS
  10
-138.48186
  20
-44.1835
  40
368.369178
  50
346.918009
  51
351.526631
   0
ARC
   8
PV
   6
CONTINUOUS
  10
-422.56211
  20
3.39879
  40
655.390132
  50
2.723851
  51
5.746304
   0
ARC
   8
PV
   6
CONTINUOUS
  10
26.99739
  20
9.08874
  40
1.816069
  50
44.990397
  51
102.075946
   0
ARC
   8
PV
   6
CONTINUOUS
  10
22.4321
  20
125.17772
  40
11.649127
  50
176.440614
  51
177.68243
   0
ARC
   8
PV
   6
CONTINUOUS
  10
150.61666
  20
188.09795
  40
1.684552
  50
200.241048
  51
209.707603
   0
ARC
   8
PV
   6
CONTINUOUS
  10
195.55746
  20
-134.26725
  40
6.499481
  50
154.574895
  51
158.136332
   0
ARC
   8
PV
   6
CONTINUOUS
  10
32.96113
  20
4.74788
  40
9.291589
  50
145.951551
  51
156.786251
   0
ARC
   8
PV
   6
CONTINUOUS
  10
27.27474
  20
-173.52025
  40
19.292792
  50
247.601071
  51
258.945082
   0
ARC
   8
PV
   6
CONTINUOUS
  10
320.50415
  20
-1138.41617
  40
1329.361768
  50
85.643796
  51
87.933564
   0
ARC
   8
PV
   6
CONTINUOUS
  10
43.57672
  20
40.71453
  40
2.281183
  50
284.42611
  51
288.244708
   0
ARC
   8
PV
   6
CONTINUOUS
  10
78.53488
  20
146.01745
  40
82.078838
  50
16.556755
  51
21.107123
   0
ARC
   8
PV
   6
CONTINUOUS
  10
563.93952
  20
-2.33893
  40
137.064107
  50
19.303704
  51
28.441425
   0
LINE
   8
PV
   6
CONTINUOUS
  10
212.781146
  20
-192.003529
  11
232.657314
  21
-192.091349
   0
ARC
   8
PV
   6
CONTINUOUS
  10
45.89423
  20
-146.38952
  40
109.107791
  50
343.637619
  51
347.17282
   0
ARC
   8
PV
   6
CONTINUOUS
  10
208.92652
  20
155.00383
  40
2.683289
  50
53.091029
  51
89.808696
   0
LINE
   8
PV
   6
CONTINUOUS
  10
38.004595
  20
-40.323564
  11
40.619817
  21
-40.324734
   0
ARC
   8
PV
   6
CONTINUOUS
  10
187.83119
  20
-169.45277
  40
34.637482
  50
166.958665
  51
169.962876
   0
LINE
   8
PV
   6
CONTINUOUS
  10
19.421148
  20
-42.821435
  11
19.4791
  21
-56.873984
   0
ARC
   8
PV
   6
CONTINUOUS
  10
-422.56211
  20
-3.43268
  40
655.390132
  50
354.253696
  51
357.276149
   0
ARC
   8
PV
   6
CONTINUOUS
  10
161.97706
  20
162.7202
  40
2.865272
  50
191.731086
  51
194.021056
   0
ARC
   8
PV
   6
CONTINUOUS
  10
529.30346
  20
-24.31156
  40
178.180581
  50
36.385478
  51
48.176239
   0
LINE
   8
PV
   6
CONTINUOUS
  10
45.772662
  20
89.090516
  11
45.551704
  21
112.133034
   0
ARC
   8
PV
   6
CONTINUOUS
  10
43.1553
  20
124.73725
  40
2.295803
  50
46.455438
  51
90
   0
ARC
   8
PV
   6
CONTINUOUS
  10
-1.82477
  20
135.90723
  40
157.960927
  50
9.961744
  51
11.320739
   0
ARC
   8
PV
   6
CONTINUOUS
  10
156.96707
  20
-160.31112
  40
2.447519
  50
113.529977
  51
141.712492
   0
ARC
   8
PV
   6
CONTINUOUS
  10
21.14349
  20
-72.31964
  40
1.44579
  50
189.496358
  51
222.654267
   0
ARC
   8
PV
   6
CONTINUOUS
  10
187.99543
  20
169.45693
  40
34.806078
  50
193.041335
  51
196.031002
   0
ARC
   8
PV
   6
CONTINUOUS
  10
34.76171
  20
-1.04707
  40
7.83021
  50
191.017243
  51
209.514042
   0
ARC
   8
PV
   6
CONTINUOUS
  10
115.9472
  20
-170.85019
  40
34.75689
  50
337.385541
  51
339.356586
   0
LINE
   8
PV
   6
CONTINUOUS
  10
45.908922
  20
66.047092
  11
45.784007
  21
92.561659
   0
LINE
   8
PV
   6
CONTINUOUS
  10
45.784004
  20
92.561658
  11
45.498455
  21
119.07498
   0
ARC
   8
PV
   6
CONTINUOUS
  10
26.11749
  20
-177.00419
  40
15.714236
  50
204.921442
  51
218.816107
   0
LINE
   8
PV
   6
CONTINUOUS
  10
214.724693
  20
155.434356
  11
214.679961
  21
155.572917
   0
ARC
   8
PV
   6
CONTINUOUS
  10
43.57272
  20
40.73648
  40
2.303493
  50
277.117826
  51
280.752099
   0
ARC
   8
PV
   6
CONTINUOUS
  10
32.76498
  20
-70.37563
  40
13.228758
  50
185.769152
  51
189.496358
   0
ARC
   8
PV
   6
CONTINUOUS
  10
45.19281
  20
63.468
  40
0.515054
  50
47.28215
  51
90
   0
LINE
   8
PV
   6
CONTINUOUS
  10
45.894599
  20
53.319184
  11
45.908962
  21
66.025234
   0
ARC
   8
PV
   6
CONTINUOUS
  10
416.08481
  20
238.06124
  40
423.337853
  50
281.703402
  51
287.160427
   0
ARC
   8
PV
   6
CONTINUOUS
  10
197.51182
  20
646.44233
  40
838.317565
  50
267.97796
  51
269.510749
   0
ARC
   8
PV
   6
CONTINUOUS
  10
43.18952
  20
124.82382
  40
2.18836
  50
0.758004
  51
46.0531
   0
ARC
   8
PV
   6
CONTINUOUS
  10
195.06885
  20
-133.96407
  40
4.757066
  50
90
  51
153.303682
   0
ARC
   8
PV
   6
CONTINUOUS
  10
95.27331
  20
-160.88735
  40
57.644408
  50
336.95176
  51
343.637619
   0
ARC
   8
PV
   6
CONTINUOUS
  10
208.58051
  20
153.84484
  40
6.326061
  50
23.703406
  51
25.016616
   0
ARC
   8
PV
   6
CONTINUOUS
  10
-443.92833
  20
-2.41616
  40
676.780518
  50
357.276149
  51
0.203117
   0
LINE
   8
PV
   6
CONTINUOUS
  10
151.87853
  20
-175.819714
  11
151.960659
  21
-179.396983
   0
ARC
   8
PV
   6
CONTINUOUS
  10
13.33677
  20
-138.9764
  40
142.49855
  50
347.17282
  51
348.679261
   0
LINE
   8
PV
   6
CONTINUOUS
  10
214.810628
  20
155.155709
  11
214.768199
  21
155.2952
   0
ARC
   8
PV
   6
CONTINUOUS
  10
144.34181
  20
-182.0068
  40
6.824147
  50
323.545765
  51
329.544962
   0
ARC
   8
PV
   6
CONTINUOUS
  10
159.31198
  20
-155.37245
  40
3.937234
  50
270.003518
  51
277.07181
   0
ARC
   8
PV
   6
CONTINUOUS
  10
208.7189
  20
154.72741
  40
3.029001
  50
20.326292
  51
53.091029
   0
ARC
   8
PV
   6
CONTINUOUS
  10
45.17581
  20
76.48305
  40
0.492133
  50
330.815255
  51
0.12644
   0
ARC
   8
PV
   6
CONTINUOUS
  10
187.99543
  20
-169.49082
  40
34.806078
  50
163.968998
  51
166.958665
   0
ARC
   8
PV
   6
CONTINUOUS
  10
11.17754
  20
126.56703
  40
0.267797
  50
79.062294
  51
164.643733
   0
LINE
   8
PV
   6
CONTINUOUS
  10
38.15055
  20
66.577588
  11
38.1378
  21
66.082735
   0
ARC
   8
PV
   6
CONTINUOUS
  10
95.27331
  20
160.85346
  40
57.644408
  50
16.362381
  51
23.04824
   0
ARC
   8
PV
   6
CONTINUOUS
  10
33.4187
  20
-4.64966
  40
9.731246
  50
202.787215
  51
212.771718
   0
LINE
   8
PV
   6
CONTINUOUS
  10
252.53393
  20
192.14719
  11
232.666322
  21
192.091788
   0
ARC
   8
PV
   6
CONTINUOUS
  10
43.37619
  20
40.88943
  40
2.256378
  50
270
  51
314.028863
   0
LINE
   8
PV
   6
CONTINUOUS
  10
214.679962
  20
155.572914
  11
214.633723
  21
155.710979
   0
ARC
   8
PV
   6
CONTINUOUS
  10
194.98187
  20
-133.61215
  40
5.595209
  50
90
  51
113.890143
   0
ARC
   8
PV
   6
CONTINUOUS
  10
157.90797
  20
-162.47197
  40
4.804329
  50
107.338196
  51
113.529977
   0
ARC
   8
PV
   6
CONTINUOUS
  10
493.2191
  20
65.69897
  40
233.126566
  50
302.625192
  51
308.183514
   0
LINE
   8
PV
   6
CONTINUOUS
  10
116.003282
  20
-192.737332
  11
56.848215
  21
-192.885665
   0
ARC
   8
PV
   6
CONTINUOUS
  10
354.87493
  20
686.73578
  40
876.375124
  50
274.343928
  51
277.007246
   0
LINE
   8
PV
   6
CONTINUOUS
  10
214.768196
  20
155.295193
  11
214.724693
  21
155.434352
   0
ARC
   8
PV
   6
CONTINUOUS
  10
6.15412
  20
-342.66
  40
1
  50
90
  51
180
   0
LINE
   8
PV
   6
CONTINUOUS
  10
232.666219
  20
192.091783
  11
212.798683
  21
192.004033
   0
ARC
   8
PV
   6
CONTINUOUS
  10
28.19487
  20
168.77671
  40
24.091481
  50
92.179838
  51
101.054408
   0
ARC
   8
PV
   6
CONTINUOUS
  10
195.67658
  20
-134.26968
  40
5.437311
  50
153.303682
  51
209.982284
   0
ARC
   8
PV
   6
CONTINUOUS
  10
43.43217
  20
40.83153
  40
2.175841
  50
314.028863
  51
359.523993
   0
ARC
   8
PV
   6
CONTINUOUS
  10
-143.40354
  20
-51.98202
  40
372.778443
  50
344.022144
  51
346.071084
   0
LINE
   8
PV
   6
CONTINUOUS
  10
45.659186
  20
51.554875
  11
45.681349
  21
58.946029
   0
ARC
   8
PV
   6
CONTINUOUS
  10
151.31443
  20
-188.13627
  40
1.611036
  50
224.536171
  51
237.8832
   0
ARC
   8
PV
   6
CONTINUOUS
  10
34.38343
  20
1.15805
  40
7.429938
  50
148.146543
  51
168.558955
   0
ARC
   8
PV
   6
CONTINUOUS
  10
208.86844
  20
153.97921
  40
6.008321
  50
25.016616
  51
26.401626
   0
ARC
   8
PV
   6
CONTINUOUS
  10
150.61666
  20
-188.09754
  40
1.684552
  50
150.292397
  51
159.758952
   0
ARC
   8
PV
   6
CONTINUOUS
  10
40.61912
  20
-41.60606
  40
1.281325
  50
83.631649
  51
89.976368
   0
ARC
   8
PV
   6
CONTINUOUS
  10
125.25666
  20
-175.03727
  40
24.547859
  50
333.034019
  51
335.261093
   0
ARC
   8
PV
   6
CONTINUOUS
  10
27.00105
  20
-9.20951
  40
1.732767
  50
253.604224
  51
315.043439
   0
ARC
   8
PV
   6
CONTINUOUS
  10
209.39037
  20
154.23832
  40
5.425614
  50
26.401626
  51
27.935369
   0
ARC
   8
PV
   6
CONTINUOUS
  10
38.64467
  20
64.31557
  40
0.538545
  50
191.784773
  51
203.027039
   0
ARC
   8
PV
   6
CONTINUOUS
  10
45.20657
  20
63.4829
  40
0.494781
  50
2.980412
  51
47.28215
   0
ARC
   8
PV
   6
CONTINUOUS
  10
-143.40354
  20
51.98243
  40
372.778443
  50
13.928916
  51
15.977856
   0
ARC
   8
PV
   6
CONTINUOUS
  10
143.54578
  20
-179.61735
  40
8.417762
  50
349.488762
  51
1.500118
   0
ARC
   8
PV
   6
CONTINUOUS
  10
12.0198
  20
0.58691
  40
19.374602
  50
13.060524
  51
19.159144
   0
ARC
   8
PV
   6
CONTINUOUS
  10
147.62284
  20
187.63812
  40
1.006794
  50
164.983672
  51
190.734554
   0
ARC
   8
PV
   6
CONTINUOUS
  10
19.46642
  20
-3.26262
  40
11.422571
  50
330.974195
  51
341.265354
   0
ARC
   8
PV
   6
CONTINUOUS
  10
194.98187
  20
-133.62588
  40
5.608937
  50
59.959461
  51
90
   0
ARC
   8
PV
   6
CONTINUOUS
  10
9.95722
  20
0.10843
  40
21.491958
  50
6.363174
  51
13.060524
   0
ARC
   8
PV
   6
CONTINUOUS
  10
157.62196
  20
-161.58839
  40
3.87907
  50
95.10658
  51
99.272467
   0
ARC
   8
PV
   6
CONTINUOUS
  10
195.6484
  20
-134.29965
  40
6.596068
  50
161.69761
  51
165.225842
   0
ARC
   8
PV
   6
CONTINUOUS
  10
40.59539
  20
-41.75958
  40
1.436867
  50
71.838518
  51
77.711202
   0
LINE
   8
PV
   6
CONTINUOUS
  10
214.852195
  20
-155.015517
  11
214.893105
  21
-154.875543
   0
ARC
   8
PV
   6
CONTINUOUS
  10
27.40412
  20
-349.66
  40
8
  50
0
  51
90
   0
ARC
   8
PV
   6
CONTINUOUS
  10
28.3894
  20
-42.79141
  40
8.968305
  50
177.702969
  51
180.192336
   0
ARC
   8
PV
   6
CONTINUOUS
  10
43.57905
  20
40.70744
  40
2.273718
  50
288.244708
  51
292.075835
   0
LINE
   8
PV
   6
CONTINUOUS
  10
45.607935
  20
40.813449
  11
45.679302
  21
52.147944
   0
ARC
   8
PV
   6
CONTINUOUS
  10
25.48823
  20
-177.51042
  40
14.906628
  50
218.816107
  51
233.455598
   0
ARC
   8
PV
   6
CONTINUOUS
  10
151.73669
  20
-182.85687
  40
0.400412
  50
114.345694
  51
134.193702
   0
ARC
   8
PV
   6
CONTINUOUS
  10
35.01439
  20
40.83166
  40
24.267621
  50
179.996657
  51
181.410293
   0
ARC
   8
PV
   6
CONTINUOUS
  10
147.43626
  20
187.68817
  40
0.813626
  50
136.467362
  51
164.983672
   0
ARC
   8
PV
   6
CONTINUOUS
  10
157.07049
  20
-160.39277
  40
2.579282
  50
141.712492
  51
168.508519
   0
ARC
   8
PV
   6
CONTINUOUS
  10
161.90313
  20
162.70484
  40
2.789765
  50
189.379155
  51
191.731086
   0
LINE
   8
PV
   6
CONTINUOUS
  10
214.810628
  20
-155.1553
  11
214.852199
  21
-155.015522
   0
ARC
   8
PV
   6
CONTINUOUS
  10
147.88076
  20
187.26588
  40
1.426735
  50
119.97591
  51
136.467362
   0
ARC
   8
PV
   6
CONTINUOUS
  10
-45.17611
  20
65.83162
  40
272.577362
  50
13.081991
  51
16.197109
   0
ARC
   8
PV
   6
CONTINUOUS
  10
28.31939
  20
-70.86568
  40
8.757418
  50
180.397214
  51
182.95007
   0
ARC
   8
PV
   6
CONTINUOUS
  10
30.45189
  20
-4.41415
  40
2.307377
  50
225.530469
  51
260.917658
   0
ARC
   8
PV
   6
CONTINUOUS
  10
-436.57763
  20
6.81753
  40
669.693209
  50
4.121843
  51
7.302937
   0
ARC
   8
PV
   6
CONTINUOUS
  10
40.54901
  20
-41.90098
  40
1.58568
  50
66.516142
  51
71.838518
   0
ARC
   8
PV
   6
CONTINUOUS
  10
161.92245
  20
-163.73851
  40
4.488747
  50
91.685257
  51
93.3432
   0
ARC
   8
PV
   6
CONTINUOUS
  10
12.33156
  20
126.33578
  40
151.145818
  50
14.084789
  51
16.556755
   0
LINE
   8
PV
   6
CONTINUOUS
  10
160.829296
  20
-191.066638
  11
167.932682
  21
-191.353239
   0
ARC
   8
PV
   6
CONTINUOUS
  10
39.81056
  20
75.35513
  40
1.412045
  50
158.517448
  51
168.158218
   0
ARC
   8
PV
   6
CONTINUOUS
  10
209.9931
  20
-154.57106
  40
4.736878
  50
328.678376
  51
330.443864
   0
ARC
   8
PV
   6
CONTINUOUS
  10
-436.57763
  20
-6.81712
  40
669.693209
  50
352.697063
  51
355.878157
   0
ARC
   8
PV
   6
CONTINUOUS
  10
149.44951
  20
187.98442
  40
2.866008
  50
190.734554
  51
199.91624
   0
ARC
   8
PV
   6
CONTINUOUS
  10
-218.83589
  20
-34.72183
  40
450.170683
  50
347.966206
  51
352.697063
   0
ARC
   8
PV
   6
CONTINUOUS
  10
580.95731
  20
1.4909
  40
119.56941
  50
359.284542
  51
9.77563
   0
ARC
   8
PV
   6
CONTINUOUS
  10
140.6797
  20
-179.08557
  40
11.332762
  50
340.552294
  51
349.488762
   0
ARC
   8
PV
   6
CONTINUOUS
  10
194.4613
  20
-134.3327
  40
5.423187
  50
350.290326
  51
21.708454
   0
ARC
   8
PV
   6
CONTINUOUS
  10
27.25191
  20
-42.73064
  40
7.828933
  50
170.26869
  51
174.962176
   0
ARC
   8
PV
   6
CONTINUOUS
  10
26.1173
  20
176.97042
  40
15.714012
  50
141.182089
  51
155.076614
   0
ARC
   8
PV
   6
CONTINUOUS
  10
-390.08223
  20
6.66723
  40
622.746218
  50
5.746304
  51
8.473369
   0
ARC
   8
PV
   6
CONTINUOUS
  10
163.62798
  20
164.64683
  40
5.382184
  50
231.350129
  51
252.405792
   0
ARC
   8
PV
   6
CONTINUOUS
  10
209.9931
  20
154.57146
  40
4.736878
  50
29.556136
  51
31.321624
   0
ARC
   8
PV
   6
CONTINUOUS
  10
40.60892
  20
-41.6975
  40
1.373329
  50
77.711202
  51
83.631649
   0
ARC
   8
PV
   6
CONTINUOUS
  10
13.33677
  20
138.94251
  40
142.49855
  50
11.320739
  51
12.82718
   0
ARC
   8
PV
   6
CONTINUOUS
  10
118.26448
  20
-171.81547
  40
32.2466
  50
335.261092
  51
337.385541
   0
ARC
   8
PV
   6
CONTINUOUS
  10
194.67362
  20
-134.44309
  40
6.255049
  50
302.193214
  51
348.570082
   0
ARC
   8
PV
   6
CONTINUOUS
  10
55.91986
  20
-0.01695
  40
32.913844
  50
172.491356
  51
179.999991
   0
ARC
   8
PV
   6
CONTINUOUS
  10
320.33061
  20
1141.497
  40
1332.44648
  50
272.064288
  51
274.343928
   0
ARC
   8
PV
   6
CONTINUOUS
  10
38.53594
  20
64.53418
  40
0.550753
  50
241.613666
  51
255.962996
   0
ARC
   8
PV
   6
CONTINUOUS
  10
207.4714
  20
-133.2978
  40
25.952001
  50
270
  51
277.939397
   0
ARC
   8
PV
   6
CONTINUOUS
  10
150.45093
  20
188.09224
  40
1.34494
  50
111.206803
  51
151.508195
   0
ARC
   8
PV
   6
CONTINUOUS
  10
194.74479
  20
-134.21983
  40
5.118051
  50
21.708454
  51
54.022106
   0
LINE
   8
PV
   6
CONTINUOUS
  10
252.926353
  20
-192.147642
  11
284.128087
  21
-191.99072
   0
LINE
   8
PV
   6
CONTINUOUS
  10
151.318998
  20
-182.987981
  11
151.365882
  21
-182.858773
   0
LINE
   8
PV
   6
CONTINUOUS
  10
315.327075
  20
191.542954
  11
284.128079
  21
191.991128
   0
ARC
   8
PV
   6
CONTINUOUS
  10
468.8322
  20
-102.60263
  40
277.354222
  50
56.912275
  51
61.737702
   0
ARC
   8
PV
   6
CONTINUOUS
  10
8.6609
  20
-0.01691
  40
22.72884
  50
353.72545
  51
359.999914
   0
ARC
   8
PV
   6
CONTINUOUS
  10
524.06613
  20
29.53129
  40
185.522861
  50
314.581788
  51
321.563258
   0
ARC
   8
PV
   6
CONTINUOUS
  10
163.75548
  20
165.0489
  40
5.803983
  50
252.405792
  51
260.830352
   0
ARC
   8
PV
   6
CONTINUOUS
  10
-528.9596
  20
-0.1597
  40
762.314747
  50
355.878157
  51
357.945088
   0
ARC
   8
PV
   6
CONTINUOUS
  10
43.59252
  20
40.67424
  40
2.237888
  50
292.075835
  51
325.255129
   0
ARC
   8
PV
   6
CONTINUOUS
  10
16.28532
  20
125.56007
  40
5.490463
  50
173.80621
  51
176.440614
   0
CIRCLE
   8
A
   6
CONTINUOUS
  10
0
  20
0
  40
2
   0
ENDSEC
   0
EOF
