  0
SECTION
  2
HEADER
  9
$ACADVER
  1
AC1009
  9
$DWGCODEPAGE
  3
dos932
  9
$INSBASE
 10
0.0
 20
0.0
 30
0.0
  9
$EXTMIN
 10
-1133.871443993263
 20
-974.76195180178911
 30
-0.0015258207003583
  9
$EXTMAX
 10
2157.165540227626
 20
993.34717645932324
 30
0.0000000349246037
  9
$LIMMIN
 10
-2970.0
 20
-2100.0
  9
$LIMMAX
 10
2970.0
 20
2100.0
  9
$ORTHOMODE
 70
     1
  9
$REGENMODE
 70
     1
  9
$FILLMODE
 70
     1
  9
$QTEXTMODE
 70
     0
  9
$MIRRTEXT
 70
     0
  9
$LTSCALE
 40
20.0
  9
$ATTMODE
 70
     1
  9
$TEXTSIZE
 40
64.0
  9
$TRACEWID
 40
0.05
  9
$TEXTSTYLE
  7
STANDARD
  9
$CLAYER
  8
SIZE
  9
$CELTYPE
  6
CONTINUOUS
  9
$CECOLOR
 62
     7
  9
$DIMSCALE
 40
1.0
  9
$DIMASZ
 40
12.0
  9
$DIMEXO
 40
20.0
  9
$DIMDLI
 40
200.0
  9
$DIMRND
 40
0.0
  9
$DIMDLE
 40
0.0
  9
$DIMEXE
 40
20.0
  9
$DIMTP
 40
0.0
  9
$DIMTM
 40
0.0
  9
$DIMTXT
 40
64.0
  9
$DIMCEN
 40
0.09
  9
$DIMTSZ
 40
0.0
  9
$DIMTOL
 70
     0
  9
$DIMLIM
 70
     0
  9
$DIMTIH
 70
     0
  9
$DIMTOH
 70
     0
  9
$DIMSE1
 70
     0
  9
$DIMSE2
 70
     0
  9
$DIMTAD
 70
     1
  9
$DIMZIN
 70
     8
  9
$DIMBLK
  1

  9
$DIMASO
 70
     1
  9
$DIMSHO
 70
     0
  9
$DIMPOST
  1

  9
$DIMAPOST
  1

  9
$DIMALT
 70
     0
  9
$DIMALTD
 70
     2
  9
$DIMALTF
 40
25.399999999999999
  9
$DIMLFAC
 40
1.0
  9
$DIMTOFL
 70
     1
  9
$DIMTVP
 40
0.0
  9
$DIMTIX
 70
     1
  9
$DIMSOXD
 70
     0
  9
$DIMSAH
 70
     0
  9
$DIMBLK1
  1

  9
$DIMBLK2
  1

  9
$DIMSTYLE
  2
STANDARD
  9
$DIMCLRD
 70
     7
  9
$DIMCLRE
 70
     7
  9
$DIMCLRT
 70
     7
  9
$DIMTFAC
 40
1.0
  9
$DIMGAP
 40
25.0
  9
$LUNITS
 70
     2
  9
$LUPREC
 70
     4
  9
$SKETCHINC
 40
0.1
  9
$FILLETRAD
 40
3.0
  9
$AUNITS
 70
     1
  9
$AUPREC
 70
     3
  9
$MENU
  1
ACAD
  9
$ELEVATION
 40
0.0
  9
$PELEVATION
 40
0.0
  9
$THICKNESS
 40
0.0
  9
$LIMCHECK
 70
     0
  9
$CHAMFERA
 40
0.0
  9
$CHAMFERB
 40
0.0
  9
$SKPOLY
 70
     0
  9
$TDCREATE
 40
2453019.62301037
  9
$TDUPDATE
 40
2461125.866129699
  9
$TDINDWG
 40
1.7154557986
  9
$TDUSRTIMER
 40
1.7154557986
  9
$USRTIMER
 70
     1
  9
$ANGBASE
 50
0.0
  9
$ANGDIR
 70
     0
  9
$PDMODE
 70
     3
  9
$PDSIZE
 40
-2.0
  9
$PLINEWID
 40
0.0
  9
$SPLFRAME
 70
     0
  9
$SPLINETYPE
 70
     6
  9
$SPLINESEGS
 70
     8
  9
$SURFTAB1
 70
     6
  9
$SURFTAB2
 70
     6
  9
$SURFTYPE
 70
     6
  9
$SURFU
 70
     6
  9
$SURFV
 70
     6
  9
$UCSNAME
  2

  9
$UCSORG
 10
0.0
 20
0.0
 30
0.0
  9
$UCSXDIR
 10
1.0
 20
0.0
 30
0.0
  9
$UCSYDIR
 10
0.0
 20
1.0
 30
0.0
  9
$PUCSNAME
  2

  9
$PUCSORG
 10
0.0
 20
0.0
 30
0.0
  9
$PUCSXDIR
 10
1.0
 20
0.0
 30
0.0
  9
$PUCSYDIR
 10
0.0
 20
1.0
 30
0.0
  9
$USERI1
 70
     0
  9
$USERI2
 70
     0
  9
$USERI3
 70
     0
  9
$USERI4
 70
     0
  9
$USERI5
 70
     0
  9
$USERR1
 40
20.0
  9
$USERR2
 40
0.0
  9
$USERR3
 40
0.0
  9
$USERR4
 40
0.0
  9
$USERR5
 40
0.0
  9
$WORLDVIEW
 70
     1
  9
$SHADEDGE
 70
     3
  9
$SHADEDIF
 70
    70
  9
$TILEMODE
 70
     1
  9
$MAXACTVP
 70
    48
  9
$PINSBASE
 10
0.0
 20
0.0
 30
0.0
  9
$PLIMCHECK
 70
     0
  9
$PEXTMIN
 10
-100000000000000000000.0
 20
-100000000000000000000.0
 30
-100000000000000000000.0
  9
$PEXTMAX
 10
100000000000000000000.0
 20
100000000000000000000.0
 30
100000000000000000000.0
  9
$PLIMMIN
 10
0.0
 20
0.0
  9
$PLIMMAX
 10
12.0
 20
9.0
  9
$UNITMODE
 70
     0
  9
$VISRETAIN
 70
     0
  9
$PLINEGEN
 70
     0
  9
$PSLTSCALE
 70
     0
  9
$TREEDEPTH
 70
  3020
  9
$ATTDIA
 70
     0
  9
$ATTREQ
 70
     1
  9
$BLIPMODE
 70
     1
  9
$COORDS
 70
     1
  9
$DRAGMODE
 70
     2
  9
$OSMODE
 70
     0
  9
$HANDLING
 70
     0
  9
$HANDSEED
  5
F2A3
  0
ENDSEC
  0
SECTION
  2
TABLES
  0
TABLE
  2
LTYPE
 70
     3
  0
LTYPE
  2
CONTINUOUS
 70
     0
  3
é¿ê¸
 72
    65
 73
     0
 40
0.0
  0
LTYPE
  2
DASHDOT
 70
     0
  3
____ _ ____ _ ____ _ ____ _ ____ _ ____ _ ____
 72
    65
 73
     4
 40
5.5
 49
4.0
 49
-0.6
 49
0.3
 49
-0.6
  0
LTYPE
  2
DASHED
 70
     0
  3
-- -- -- -- -- -- -- -- -- -- -- -- -- -- --
 72
    65
 73
     2
 40
0.75
 49
0.5
 49
-0.25
  0
ENDTAB
  0
TABLE
  2
LAYER
 70
    12
  0
LAYER
  2
0
 70
     0
 62
     7
  6
CONTINUOUS
  0
LAYER
  2
BASIS
 70
     0
 62
     6
  6
DASHDOT
  0
LAYER
  2
OUTLINE
 70
     0
 62
     3
  6
CONTINUOUS
  0
LAYER
  2
DETAIL
 70
     0
 62
     5
  6
CONTINUOUS
  0
LAYER
  2
SIZE
 70
     0
 62
    30
  6
CONTINUOUS
  0
LAYER
  2
ARRANGE
 70
     0
 62
     1
  6
CONTINUOUS
  0
LAYER
  2
DEFPOINTS
 70
     0
 62
     7
  6
CONTINUOUS
  0
LAYER
  2
ETC
 70
     0
 62
    61
  6
CONTINUOUS
  0
LAYER
  2
FIX
 70
     0
 62
    11
  6
CONTINUOUS
  0
LAYER
  2
NOTE
 70
     0
 62
     4
  6
CONTINUOUS
  0
LAYER
  2
SERVICESPACE
 70
     0
 62
     2
  6
DASHDOT
  0
LAYER
  2
SYMBOLLINE
 70
    64
 62
    15
  6
CONTINUOUS
  0
ENDTAB
  0
TABLE
  2
STYLE
 70
     1
  0
STYLE
  2
STANDARD
 70
     0
 40
64.0
 41
0.9
 50
0.0
 71
     0
 42
64.0
  3
SIMPLEX.shx
  4
BIGFONT.shx
  0
ENDTAB
  0
TABLE
  2
APPID
 70
    21
  0
APPID
  2
ACAD
 70
     0
  0
APPID
  2
AUTOCAD_POSTSCRIPT_FIGURE
 70
     0
  0
APPID
  2
ACAD_EXEMPT_FROM_CAD_STANDARDS
 70
     0
  0
APPID
  2
ACAD_PSEXT
 70
     0
  0
APPID
  2
ACAUTHENVIRON
 70
     0
  0
APPID
  2
GENIUS_GENOENT_13
 70
     0
  0
APPID
  2
GENIUS_GENCFG_13
 70
     0
  0
APPID
  2
GENIUS_GENCFG0_13
 70
     0
  0
APPID
  2
GENIUS_GENCFG1_13
 70
     0
  0
APPID
  2
GENIUS_GENCFG2_13
 70
     0
  0
APPID
  2
GENIUS_GENCFG3_13
 70
     0
  0
APPID
  2
GENIUS_GENCFG4_13
 70
     0
  0
APPID
  2
GENIUS_GEVCFG0_13
 70
     0
  0
APPID
  2
CONTENTBLOCKICON
 70
     0
  0
APPID
  2
CONTENTBLOCKDESCRIPTION
 70
     0
  0
APPID
  2
ACAD_NAV_VCDISPLAY
 70
     0
  0
APPID
  2
ACAD_MLEADERVER
 70
     0
  0
APPID
  2
ACDBDYNAMICBLOCKTRUENAME
 70
     0
  0
APPID
  2
ACDBDYNAMICBLOCKGUID
 70
     0
  0
APPID
  2
ACAD_DSTYLE_DIMJAG
 70
     0
  0
APPID
  2
ACAD_DSTYLE_DIMTALN
 70
     0
  0
ENDTAB
  0
TABLE
  2
DIMSTYLE
 70
     1
  0
DIMSTYLE
  2
STANDARD
 70
     0
  3

  4

  5
_ORIGIN
  6

  7

 40
1.0
 41
12.0
 42
20.0
 43
200.0
 44
20.0
 45
0.0
 46
0.0
 47
0.0
 48
0.0
140
64.0
141
0.09
142
0.0
143
25.399999999999999
144
1.0
145
0.0
146
1.0
147
25.0
 71
     0
 72
     0
 73
     0
 74
     0
 75
     0
 76
     0
 77
     1
 78
     8
170
     0
171
     2
172
     1
173
     0
174
     1
175
     0
176
     7
177
     7
178
     7
  0
ENDTAB
  0
TABLE
  2
VIEW
 70
     1
  0
VIEW
  2
ALL
 70
     0
 40
4282.6198079999986
 10
0.0
 20
41.309904000000003
 41
5940.0
 11
0.0
 21
0.0
 31
1.0
 12
0.0
 22
0.0
 32
0.0
 42
50.0
 43
0.0
 44
0.0
 50
0.0
 71
     0
  0
ENDTAB
  0
TABLE
  2
UCS
 70
     0
  0
ENDTAB
  0
TABLE
  2
VPORT
 70
     1
  0
VPORT
  2
*ACTIVE
 70
     0
 10
0.0
 20
0.0
 11
1.0
 21
1.0
 12
511.64704811718178
 22
9.2926123287670634
 13
0.0
 23
0.0
 14
1.0
 24
1.0
 15
0.0
 25
0.0
 16
0.0
 26
0.0
 36
1.0
 17
0.0
 27
0.0
 37
0.0
 40
1983.708408009549
 41
2.0859788359788358
 42
50.0
 43
0.0
 44
0.0
 50
0.0
 51
0.0
 71
     0
 72
  1000
 73
     1
 74
     3
 75
     0
 76
     0
 77
     0
 78
     0
  0
ENDTAB
  0
ENDSEC
  0
SECTION
  2
BLOCKS
  0
BLOCK
  8
0
  2
_ORIGIN
 70
     0
 10
0.0
 20
0.0
 30
0.0
  3
_ORIGIN
  1
_ORIGIN
  0
CIRCLE
  8
SIZE
  6
CONTINUOUS
 62
    30
 10
0.0
 20
0.0
 30
0.0
 40
0.5
  0
LINE
  8
SIZE
  6
CONTINUOUS
 62
    30
 10
0.0
 20
0.0
 30
0.0
 11
-1.0
 21
0.0
 31
0.0
  0
ENDBLK
  8
0
  0
ENDSEC
  0
SECTION
  2
ENTITIES
  0
LINE
  8
DETAIL
  6
CONTINUOUS
 62
     5
 10
508.0
 20
431.00000000000267
 30
0.0
 11
503.50000000000267
 21
435.49999999998818
 31
0.0
  0
LINE
  8
DETAIL
  6
CONTINUOUS
 62
     5
 10
499.50000000000091
 20
439.50000000000267
 30
0.0
 11
494.99999999999909
 21
444.00000000000267
 31
0.0
  0
LINE
  8
DETAIL
  6
CONTINUOUS
 62
     5
 10
-494.99999999999909
 20
444.00000000000267
 30
0.0
 11
-499.5
 21
439.50000000000267
 31
0.0
  0
LINE
  8
DETAIL
  6
CONTINUOUS
 62
     5
 10
-503.49999999999818
 20
435.49999999998818
 30
0.0
 11
-508.00000000000091
 21
431.00000000000267
 31
0.0
  0
LINE
  8
DETAIL
  6
CONTINUOUS
 62
     5
 10
-537.99999999999909
 20
175.89999999999691
 30
0.0
 11
-537.99999999999909
 21
174.69999999999979
 31
0.0
  0
LINE
  8
DETAIL
  6
CONTINUOUS
 62
     5
 10
-537.99999999999909
 20
-174.69999999999979
 30
0.0
 11
-537.99999999999909
 21
-175.89999999999691
 31
0.0
  0
LINE
  8
DETAIL
  6
CONTINUOUS
 62
     5
 10
-522.09999999999945
 20
158.30000000000561
 30
0.0
 11
-522.09999999999945
 21
-158.30000000000561
 31
0.0
  0
LINE
  8
DETAIL
  6
CONTINUOUS
 62
     5
 10
-509.00000000000091
 20
175.89999999999691
 30
0.0
 11
-509.00000000000091
 21
174.69999999999979
 31
0.0
  0
LINE
  8
DETAIL
  6
CONTINUOUS
 62
     5
 10
-509.00000000000091
 20
-174.69999999999979
 30
0.0
 11
-509.00000000000091
 21
-175.89999999999691
 31
0.0
  0
LINE
  8
DETAIL
  6
CONTINUOUS
 62
     5
 10
-499.5
 20
-435.50000000000267
 30
0.0
 11
-499.5
 21
-441.50000000000267
 31
0.0
  0
LINE
  8
DETAIL
  6
CONTINUOUS
 62
     5
 10
-532.18786189799812
 20
161.8775678799893
 30
0.0
 11
-543.04089653400024
 21
143.0795604740006
 31
0.0
  0
LINE
  8
DETAIL
  6
CONTINUOUS
 62
     5
 10
-530.28260600999874
 20
160.77756787999809
 30
0.0
 11
-541.13564064600087
 21
141.97956047399481
 31
0.0
  0
LINE
  8
DETAIL
  6
CONTINUOUS
 62
     5
 10
-501.5
 20
441.50000000000267
 30
0.0
 11
-499.5
 21
441.50000000000267
 31
0.0
  0
LINE
  8
DETAIL
  6
CONTINUOUS
 62
     5
 10
-499.5
 20
435.49999999998818
 30
0.0
 11
-503.49999999999818
 21
435.49999999998818
 31
0.0
  0
LINE
  8
DETAIL
  6
CONTINUOUS
 62
     5
 10
499.50000000000091
 20
435.49999999998818
 30
0.0
 11
503.50000000000267
 21
435.49999999998818
 31
0.0
  0
LINE
  8
DETAIL
  6
CONTINUOUS
 62
     5
 10
-521.09686600999794
 20
-174.69999999999979
 30
0.0
 11
-515.53526367399991
 21
-169.14873704800539
 31
0.0
  0
LINE
  8
DETAIL
  6
CONTINUOUS
 62
     5
 10
-519.39822859200012
 20
-174.69999999999979
 30
0.0
 11
-514.68752537199998
 21
-169.99805428600209
 31
0.0
  0
LINE
  8
DETAIL
  6
CONTINUOUS
 62
     5
 10
-508.00000000000091
 20
182.0000000000027
 30
0.0
 11
-536.30000000000018
 21
182.0000000000027
 31
0.0
  0
LINE
  8
DETAIL
  6
CONTINUOUS
 62
     5
 10
-508.00000000000091
 20
179.79999999999109
 30
0.0
 11
-536.30000000000018
 21
179.79999999999109
 31
0.0
  0
LINE
  8
DETAIL
  6
CONTINUOUS
 62
     5
 10
-537.99999999999909
 20
175.89999999999691
 30
0.0
 11
-508.00000000000091
 21
175.89999999999691
 31
0.0
  0
LINE
  8
DETAIL
  6
CONTINUOUS
 62
     5
 10
-508.00000000000091
 20
175.29999999999109
 30
0.0
 11
-509.00000000000091
 21
175.29999999999109
 31
0.0
  0
LINE
  8
DETAIL
  6
CONTINUOUS
 62
     5
 10
-537.99999999999909
 20
174.69999999999979
 30
0.0
 11
-508.00000000000091
 21
174.69999999999979
 31
0.0
  0
LINE
  8
DETAIL
  6
CONTINUOUS
 62
     5
 10
-520.90000000000236
 20
159.5000000000027
 30
0.0
 11
-508.00000000000091
 21
159.5000000000027
 31
0.0
  0
LINE
  8
DETAIL
  6
CONTINUOUS
 62
     5
 10
-520.90000000000236
 20
158.89999999999691
 30
0.0
 11
-508.00000000000091
 21
158.89999999999691
 31
0.0
  0
LINE
  8
DETAIL
  6
CONTINUOUS
 62
     5
 10
-522.09999999999945
 20
158.30000000000561
 30
0.0
 11
-508.00000000000091
 21
158.30000000000561
 31
0.0
  0
LINE
  8
DETAIL
  6
CONTINUOUS
 62
     5
 10
-522.09999999999945
 20
-158.30000000000561
 30
0.0
 11
-508.00000000000091
 21
-158.30000000000561
 31
0.0
  0
LINE
  8
DETAIL
  6
CONTINUOUS
 62
     5
 10
-520.90000000000236
 20
-158.89999999999691
 30
0.0
 11
-508.00000000000091
 21
-158.89999999999691
 31
0.0
  0
LINE
  8
DETAIL
  6
CONTINUOUS
 62
     5
 10
-520.90000000000236
 20
-159.5000000000027
 30
0.0
 11
-508.00000000000091
 21
-159.5000000000027
 31
0.0
  0
LINE
  8
DETAIL
  6
CONTINUOUS
 62
     5
 10
-537.99999999999909
 20
-174.69999999999979
 30
0.0
 11
-508.00000000000091
 21
-174.69999999999979
 31
0.0
  0
LINE
  8
DETAIL
  6
CONTINUOUS
 62
     5
 10
-508.00000000000091
 20
-175.30000000000561
 30
0.0
 11
-509.00000000000091
 21
-175.30000000000561
 31
0.0
  0
LINE
  8
DETAIL
  6
CONTINUOUS
 62
     5
 10
-537.99999999999909
 20
-175.89999999999691
 30
0.0
 11
-508.00000000000091
 21
-175.89999999999691
 31
0.0
  0
LINE
  8
DETAIL
  6
CONTINUOUS
 62
     5
 10
-508.00000000000091
 20
-177.69999999999979
 30
0.0
 11
-519.50294372600001
 21
-177.69999999999979
 31
0.0
  0
LINE
  8
DETAIL
  6
CONTINUOUS
 62
     5
 10
-508.00000000000091
 20
-178.89999999999691
 30
0.0
 11
-519.50294372600001
 21
-178.89999999999691
 31
0.0
  0
LINE
  8
DETAIL
  6
CONTINUOUS
 62
     5
 10
-537.68564064599832
 20
177.39999999999691
 30
0.0
 11
-536.8196152419996
 21
175.89999999999691
 31
0.0
  0
LINE
  8
DETAIL
  6
CONTINUOUS
 62
     5
 10
-536.12679492000007
 20
174.69999999999979
 30
0.0
 11
-530.28260600999874
 21
164.577567880001
 31
0.0
  0
LINE
  8
DETAIL
  6
CONTINUOUS
 62
     5
 10
-539.59089653400042
 20
176.30000000000561
 30
0.0
 11
-532.18786189799812
 21
163.47756787999509
 31
0.0
  0
LINE
  8
DETAIL
  6
CONTINUOUS
 62
     5
 10
-503.49999999999818
 20
-435.50000000000267
 30
0.0
 11
-499.5
 21
-435.50000000000267
 31
0.0
  0
LINE
  8
DETAIL
  6
CONTINUOUS
 62
     5
 10
499.50000000000091
 20
-435.50000000000267
 30
0.0
 11
503.50000000000267
 21
-435.50000000000267
 31
0.0
  0
LINE
  8
DETAIL
  6
CONTINUOUS
 62
     5
 10
501.50000000000091
 20
-441.50000000000267
 30
0.0
 11
499.50000000000091
 21
-441.50000000000267
 31
0.0
  0
LINE
  8
DETAIL
  6
CONTINUOUS
 62
     5
 10
-501.5
 20
-441.50000000000267
 30
0.0
 11
-499.5
 21
-441.50000000000267
 31
0.0
  0
LINE
  8
DETAIL
  6
CONTINUOUS
 62
     5
 10
-515.53526367399991
 20
-169.14873704800539
 30
0.0
 11
-514.68752537199998
 21
-169.99805428600209
 31
0.0
  0
LINE
  8
DETAIL
  6
CONTINUOUS
 62
     5
 10
499.50000000000091
 20
435.49999999998818
 30
0.0
 11
499.50000000000091
 21
439.50000000000267
 31
0.0
  0
LINE
  8
DETAIL
  6
CONTINUOUS
 62
     5
 10
-508.00000000000091
 20
-431.00000000000267
 30
0.0
 11
-503.49999999999818
 21
-435.50000000000267
 31
0.0
  0
LINE
  8
DETAIL
  6
CONTINUOUS
 62
     5
 10
-499.5
 20
-439.50000000000267
 30
0.0
 11
-495.00000000000182
 21
-444.00000000000267
 31
0.0
  0
LINE
  8
DETAIL
  6
CONTINUOUS
 62
     5
 10
495.00000000000091
 20
-444.00000000000267
 30
0.0
 11
499.50000000000091
 21
-439.50000000000267
 31
0.0
  0
LINE
  8
DETAIL
  6
CONTINUOUS
 62
     5
 10
503.50000000000267
 20
-435.50000000000267
 30
0.0
 11
508.0
 21
-431.00000000000267
 31
0.0
  0
ARC
  8
DETAIL
  6
CONTINUOUS
 62
     5
 10
-519.50294372600001
 20
-176.5000000000027
 30
0.0
 40
2.3999999999993342
 50
165.4983118533641
 51
270.0
  0
ARC
  8
DETAIL
  6
CONTINUOUS
 62
     5
 10
-542.08826858999964
 20
142.52956047399769
 30
0.0
 40
1.0999999999986829
 50
149.9999999999863
 51
330.00000000000409
  0
ARC
  8
DETAIL
  6
CONTINUOUS
 62
     5
 10
-533.5735025440008
 20
162.67756787999221
 30
0.0
 40
3.7999999999993519
 50
329.99999999998641
 51
29.999999999995879
  0
ARC
  8
DETAIL
  6
CONTINUOUS
 62
     5
 10
-533.5735025440008
 20
162.67756787999221
 30
0.0
 40
1.6000000000019869
 50
329.99999999998641
 51
29.999999999939131
  0
ARC
  8
DETAIL
  6
CONTINUOUS
 62
     5
 10
-536.30000000000018
 20
178.19999999999979
 30
0.0
 40
1.60000000000006
 50
90.0
 51
210.00000000001361
  0
ARC
  8
DETAIL
  6
CONTINUOUS
 62
     5
 10
-536.30000000000018
 20
178.19999999999979
 30
0.0
 40
3.7999999999998302
 50
90.0
 51
210.00000000001361
  0
ARC
  8
DETAIL
  6
CONTINUOUS
 62
     5
 10
-520.90000000000236
 20
158.30000000000561
 30
0.0
 40
1.199999999999414
 50
90.0
 51
180.0
  0
ARC
  8
DETAIL
  6
CONTINUOUS
 62
     5
 10
-520.90000000000236
 20
-158.30000000000561
 30
0.0
 40
1.199999999999414
 50
180.0
 51
270.0
  0
ARC
  8
DETAIL
  6
CONTINUOUS
 62
     5
 10
-519.50294372600001
 20
-176.5000000000027
 30
0.0
 40
1.2000000000008291
 50
149.9721661031532
 51
270.0
  0
ARC
  8
DETAIL
  6
CONTINUOUS
 62
     5
 10
-520.90000000000236
 20
158.30000000000561
 30
0.0
 40
0.5999999999997068
 50
90.0
 51
180.0
  0
ARC
  8
DETAIL
  6
CONTINUOUS
 62
     5
 10
-520.90000000000236
 20
-158.30000000000561
 30
0.0
 40
0.5999999999984447
 50
180.0
 51
270.0
  0
LINE
  8
DETAIL
  6
CONTINUOUS
 62
     5
 10
494.99999999999909
 20
444.00000000000267
 30
0.0
 11
-494.99999999999909
 21
444.00000000000267
 31
0.0
  0
LINE
  8
DETAIL
  6
CONTINUOUS
 62
     5
 10
-495.00000000000182
 20
-444.00000000000267
 30
0.0
 11
495.00000000000091
 21
-444.00000000000267
 31
0.0
  0
LINE
  8
DETAIL
  6
CONTINUOUS
 62
     5
 10
-508.00000000000091
 20
431.00000000000267
 30
0.0
 11
-508.00000000000091
 21
-431.00000000000267
 31
0.0
  0
LINE
  8
DETAIL
  6
CONTINUOUS
 62
     5
 10
-499.5
 20
-437.00000000000267
 30
0.0
 11
499.50000000000091
 21
-437.00000000000267
 31
0.0
  0
LINE
  8
DETAIL
  6
CONTINUOUS
 62
     5
 10
508.0
 20
-431.00000000000267
 30
0.0
 11
508.0
 21
431.00000000000267
 31
0.0
  0
LINE
  8
DETAIL
  6
CONTINUOUS
 62
     5
 10
500.99999999976723
 20
435.49999999998818
 30
0.0
 11
501.00000000000267
 21
-435.50000000000267
 31
0.0
  0
LINE
  8
DETAIL
  6
CONTINUOUS
 62
     5
 10
499.50000000000091
 20
-435.50000000000267
 30
0.0
 11
499.50000000000091
 21
-441.50000000000267
 31
0.0
  0
LINE
  8
DETAIL
  6
CONTINUOUS
 62
     5
 10
-499.5
 20
435.49999999998818
 30
0.0
 11
-499.5
 21
441.50000000000267
 31
0.0
  0
LINE
  8
DETAIL
  6
CONTINUOUS
 62
     5
 10
499.50000000000091
 20
437.00000000000267
 30
0.0
 11
-499.5
 21
437.00000000000267
 31
0.0
  0
LINE
  8
DETAIL
  6
CONTINUOUS
 62
     5
 10
-501.00000000000182
 20
435.49999999998818
 30
0.0
 11
-501.00000000000182
 21
-435.50000000000267
 31
0.0
  0
LINE
  8
BASIS
  6
DASHDOT
 62
     6
 10
372.50000000000182
 20
-417.00000000000267
 30
0.0
 11
372.50000000000182
 21
-543.00000000000819
 31
0.0
  0
LINE
  8
BASIS
  6
DASHDOT
 62
     6
 10
-372.5
 20
-417.00000000000267
 30
0.0
 11
-372.5
 21
-543.00000000000819
 31
0.0
  0
LINE
  8
SERVICESPACE
  6
DASHDOT
 62
     2
 10
-658.0
 20
225.0
 30
0.0
 11
-1108.0000000000009
 21
225.0
 31
0.0
  0
LINE
  8
SERVICESPACE
  6
DASHDOT
 62
     2
 10
-1127.700000000001
 20
444.00000000000358
 30
0.0
 11
-1127.700000000001
 21
-444.00000000000267
 31
0.0
  0
LINE
  8
SERVICESPACE
  6
DASHDOT
 62
     2
 10
-1108.0000000000009
 20
225.0
 30
0.0
 11
-1108.0000000000009
 21
-225.0
 31
0.0
  0
LINE
  8
SERVICESPACE
  6
DASHDOT
 62
     2
 10
-491.49451510741068
 20
444.00000000000267
 30
0.0
 11
-1127.700000000001
 21
444.00000000000358
 31
0.0
  0
LINE
  8
SERVICESPACE
  6
DASHDOT
 62
     2
 10
-1108.0000000000009
 20
-225.0
 30
0.0
 11
-658.0
 21
-225.0
 31
0.0
  0
LINE
  8
SERVICESPACE
  6
DASHDOT
 62
     2
 10
-658.0
 20
225.0
 30
0.0
 11
-658.0
 21
-225.0
 31
0.0
  0
LINE
  8
SERVICESPACE
  6
DASHDOT
 62
     2
 10
-491.49451510741068
 20
-444.00000000000267
 30
0.0
 11
-1127.700000000001
 21
-444.00000000000267
 31
0.0
  0
LINE
  8
BASIS
  6
DASHDOT
 62
     6
 10
531.5
 20
-488.44444444443798
 30
0.0
 11
531.5
 21
-386.55555555554753
 31
0.0
  0
LINE
  8
BASIS
  6
DASHDOT
 62
     6
 10
480.88888888868678
 20
320.00000000000267
 30
0.0
 11
605.88888888888869
 21
320.00000000000267
 31
0.0
  0
LINE
  8
BASIS
  6
DASHDOT
 62
     6
 10
-664.31561909346055
 20
320.00000000000267
 30
0.0
 11
-454.1227457472678
 21
320.00000000000267
 31
0.0
  0
LINE
  8
DETAIL
  6
CONTINUOUS
 62
     5
 10
548.30000030873725
 20
-443.99999937286248
 30
0.0
 11
548.30000030873725
 21
-455.99999821508572
 31
0.0
  0
ARC
  8
DETAIL
  6
CONTINUOUS
 62
     5
 10
531.5
 20
-437.49999999999272
 30
0.0
 40
6.4999993728702607
 50
90.0
 51
270.0
  0
LINE
  8
DETAIL
  6
CONTINUOUS
 62
     5
 10
551.5
 20
-443.99999937286248
 30
0.0
 11
551.5
 21
-455.99999821508572
 31
0.0
  0
LINE
  8
DETAIL
  6
CONTINUOUS
 62
     5
 10
551.5
 20
-412.50000241202912
 30
0.0
 11
551.5
 21
-431.00000062712212
 31
0.0
  0
LINE
  8
DETAIL
  6
CONTINUOUS
 62
     5
 10
548.30000030873725
 20
-412.50000241202912
 30
0.0
 11
548.30000030873725
 21
-431.00000062712212
 31
0.0
  0
LINE
  8
DETAIL
  6
CONTINUOUS
 62
     5
 10
531.5
 20
-443.99999937286248
 30
0.0
 11
551.5
 21
-443.99999937286248
 31
0.0
  0
LINE
  8
DETAIL
  6
CONTINUOUS
 62
     5
 10
531.5
 20
-431.00000062712212
 30
0.0
 11
551.5
 21
-431.00000062712212
 31
0.0
  0
LINE
  8
DETAIL
  6
CONTINUOUS
 62
     5
 10
508.0
 20
-412.50000241202912
 30
0.0
 11
551.5
 21
-412.50000241202912
 31
0.0
  0
LINE
  8
DETAIL
  6
CONTINUOUS
 62
     5
 10
501.49429100547877
 20
-455.99999821508572
 30
0.0
 11
551.5
 21
-455.99999821508572
 31
0.0
  0
ARC
  8
DETAIL
  6
CONTINUOUS
 62
     5
 10
498.29429131421972
 20
-443.89999938252458
 30
0.0
 40
3.19999969125938
 50
0.0
 51
89.897871802932016
  0
LINE
  8
DETAIL
  6
CONTINUOUS
 62
     5
 10
501.49429100547877
 20
-455.99999821508572
 30
0.0
 11
501.49429100547877
 21
-435.50000000000267
 31
0.0
  0
ARC
  8
DETAIL
  6
CONTINUOUS
 62
     5
 10
498.29429131421972
 20
-443.89999938252458
 30
0.0
 40
6.3999993825190602
 50
59.999999999985739
 51
79.185335841317155
  0
ARC
  8
DETAIL
  6
CONTINUOUS
 62
     5
 10
-498.2866925951339
 20
-443.99865019558911
 30
0.0
 40
3.2007320979180571
 50
179.5537889353665
 51
180.0
  0
LINE
  8
BASIS
  6
DASHDOT
 62
     6
 10
582.44593151834215
 20
-437.49999999999272
 30
0.0
 11
480.55406848165791
 21
-437.49999999999272
 31
0.0
  0
ARC
  8
DETAIL
  6
CONTINUOUS
 62
     5
 10
467.39999999999958
 20
-521.90000000000236
 30
0.0
 40
1.1000000000005159
 50
270.0
 51
0.0
  0
LINE
  8
DETAIL
  6
CONTINUOUS
 62
     5
 10
468.5
 20
-514.40000000000236
 30
0.0
 11
476.50000000125419
 21
-445.50000000000267
 31
0.0
  0
LINE
  8
DETAIL
  6
CONTINUOUS
 62
     5
 10
468.5
 20
-521.90000000000236
 30
0.0
 11
468.5
 21
-514.40000000000236
 31
0.0
  0
LINE
  8
DETAIL
  6
CONTINUOUS
 62
     5
 10
277.60000000000218
 20
-522.99999999999363
 30
0.0
 11
467.39999999999958
 21
-522.99999999999363
 31
0.0
  0
LINE
  8
DETAIL
  6
CONTINUOUS
 62
     5
 10
276.5
 20
-514.40000000000236
 30
0.0
 11
468.5
 21
-514.40000000000236
 31
0.0
  0
ARC
  8
DETAIL
  6
CONTINUOUS
 62
     5
 10
277.60000000000218
 20
-521.90000000000236
 30
0.0
 40
1.100000000001778
 50
180.0
 51
270.0
  0
LINE
  8
DETAIL
  6
CONTINUOUS
 62
     5
 10
276.5
 20
-521.90000000000236
 30
0.0
 11
276.5
 21
-514.40000000000236
 31
0.0
  0
LINE
  8
DETAIL
  6
CONTINUOUS
 62
     5
 10
276.5
 20
-514.40000000000236
 30
0.0
 11
268.5
 21
-445.50000000000267
 31
0.0
  0
LINE
  8
DETAIL
  6
CONTINUOUS
 62
     5
 10
268.5
 20
-445.50000000000267
 30
0.0
 11
476.50000000125419
 21
-445.50000000000267
 31
0.0
  0
LINE
  8
DETAIL
  6
CONTINUOUS
 62
     5
 10
268.5
 20
-445.50000000000267
 30
0.0
 11
268.5
 21
-444.00000000000267
 31
0.0
  0
ARC
  8
DETAIL
  6
CONTINUOUS
 62
     5
 10
-277.59999999999849
 20
-521.90000000000236
 30
0.0
 40
1.1000000000005159
 50
270.0
 51
0.0
  0
LINE
  8
DETAIL
  6
CONTINUOUS
 62
     5
 10
-476.50000000125328
 20
-445.50000000000267
 30
0.0
 11
-268.5
 21
-445.50000000000267
 31
0.0
  0
LINE
  8
DETAIL
  6
CONTINUOUS
 62
     5
 10
-276.5
 20
-514.40000000000236
 30
0.0
 11
-268.5
 21
-445.50000000000267
 31
0.0
  0
LINE
  8
DETAIL
  6
CONTINUOUS
 62
     5
 10
-268.5
 20
-445.50000000000267
 30
0.0
 11
-268.5
 21
-444.00000000000267
 31
0.0
  0
LINE
  8
DETAIL
  6
CONTINUOUS
 62
     5
 10
-276.5
 20
-521.90000000000236
 30
0.0
 11
-276.5
 21
-514.40000000000236
 31
0.0
  0
LINE
  8
DETAIL
  6
CONTINUOUS
 62
     5
 10
-467.39999999999958
 20
-522.99999999999363
 30
0.0
 11
-277.59999999999849
 21
-522.99999999999363
 31
0.0
  0
LINE
  8
DETAIL
  6
CONTINUOUS
 62
     5
 10
-468.5
 20
-514.40000000000236
 30
0.0
 11
-276.5
 21
-514.40000000000236
 31
0.0
  0
ARC
  8
DETAIL
  6
CONTINUOUS
 62
     5
 10
-467.39999999999958
 20
-521.90000000000236
 30
0.0
 40
1.099999999999254
 50
180.0
 51
270.0
  0
LINE
  8
DETAIL
  6
CONTINUOUS
 62
     5
 10
-468.5
 20
-521.90000000000236
 30
0.0
 11
-468.5
 21
-514.40000000000236
 31
0.0
  0
LINE
  8
DETAIL
  6
CONTINUOUS
 62
     5
 10
-468.5
 20
-514.40000000000236
 30
0.0
 11
-476.50000000125328
 21
-445.50000000000267
 31
0.0
  0
LINE
  8
BASIS
  6
DASHDOT
 62
     6
 10
-372.5
 20
542.99999999999363
 30
0.0
 11
-372.5
 21
416.99999999998818
 31
0.0
  0
LINE
  8
DETAIL
  6
CONTINUOUS
 62
     5
 10
-277.59999999999849
 20
522.99999999999363
 30
0.0
 11
-467.39999999999958
 21
522.99999999999363
 31
0.0
  0
LINE
  8
DETAIL
  6
CONTINUOUS
 62
     5
 10
-276.5
 20
514.40000000000236
 30
0.0
 11
-468.5
 21
514.40000000000236
 31
0.0
  0
LINE
  8
DETAIL
  6
CONTINUOUS
 62
     5
 10
-468.5
 20
521.89999999998781
 30
0.0
 11
-468.5
 21
514.40000000000236
 31
0.0
  0
LINE
  8
DETAIL
  6
CONTINUOUS
 62
     5
 10
-468.5
 20
514.40000000000236
 30
0.0
 11
-476.50000000125328
 21
445.50000000000267
 31
0.0
  0
LINE
  8
DETAIL
  6
CONTINUOUS
 62
     5
 10
-276.5
 20
521.89999999998781
 30
0.0
 11
-276.5
 21
514.40000000000236
 31
0.0
  0
ARC
  8
DETAIL
  6
CONTINUOUS
 62
     5
 10
-277.59999999999849
 20
521.89999999998781
 30
0.0
 40
1.099999999999254
 50
0.0
 51
90.0
  0
ARC
  8
DETAIL
  6
CONTINUOUS
 62
     5
 10
-467.39999999999958
 20
521.89999999998781
 30
0.0
 40
1.099999999999254
 50
90.0
 51
180.0
  0
LINE
  8
DETAIL
  6
CONTINUOUS
 62
     5
 10
-276.5
 20
514.40000000000236
 30
0.0
 11
-268.5
 21
445.50000000000267
 31
0.0
  0
LINE
  8
DETAIL
  6
CONTINUOUS
 62
     5
 10
-268.5
 20
445.50000000000267
 30
0.0
 11
-476.50000000125328
 21
445.50000000000267
 31
0.0
  0
LINE
  8
DETAIL
  6
CONTINUOUS
 62
     5
 10
-268.5
 20
445.50000000000267
 30
0.0
 11
-268.5
 21
444.00000000000267
 31
0.0
  0
LINE
  8
BASIS
  6
DASHDOT
 62
     6
 10
372.50000000000182
 20
542.99999999999363
 30
0.0
 11
372.50000000000182
 21
416.99999999998818
 31
0.0
  0
ARC
  8
DETAIL
  6
CONTINUOUS
 62
     5
 10
277.60000000000218
 20
521.89999999998781
 30
0.0
 40
1.099999999999254
 50
90.0
 51
180.0
  0
LINE
  8
DETAIL
  6
CONTINUOUS
 62
     5
 10
276.5
 20
521.89999999998781
 30
0.0
 11
276.5
 21
514.40000000000236
 31
0.0
  0
LINE
  8
DETAIL
  6
CONTINUOUS
 62
     5
 10
468.5
 20
514.40000000000236
 30
0.0
 11
276.5
 21
514.40000000000236
 31
0.0
  0
LINE
  8
DETAIL
  6
CONTINUOUS
 62
     5
 10
467.39999999999958
 20
522.99999999999363
 30
0.0
 11
277.60000000000218
 21
522.99999999999363
 31
0.0
  0
ARC
  8
DETAIL
  6
CONTINUOUS
 62
     5
 10
467.39999999999958
 20
521.89999999998781
 30
0.0
 40
1.099999999999254
 50
0.0
 51
90.0
  0
LINE
  8
DETAIL
  6
CONTINUOUS
 62
     5
 10
468.5
 20
514.40000000000236
 30
0.0
 11
473.68056725600042
 21
469.81760742399177
 31
0.0
  0
LINE
  8
DETAIL
  6
CONTINUOUS
 62
     5
 10
468.5
 20
521.89999999998781
 30
0.0
 11
468.5
 21
514.40000000000236
 31
0.0
  0
LINE
  8
DETAIL
  6
CONTINUOUS
 62
     5
 10
276.5
 20
514.40000000000236
 30
0.0
 11
268.5
 21
445.50000000000267
 31
0.0
  0
LINE
  8
DETAIL
  6
CONTINUOUS
 62
     5
 10
268.5
 20
445.50000000000267
 30
0.0
 11
268.5
 21
444.00000000000267
 31
0.0
  0
LINE
  8
DETAIL
  6
DASHED
 62
     5
 10
508.78833389234842
 20
425.11035423302661
 30
0.0
 11
507.99999999999909
 21
425.11035423302661
 31
0.0
  0
LINE
  8
DETAIL
  6
DASHED
 62
     5
 10
508.78833389234842
 20
217.11035423302661
 30
0.0
 11
507.99999999999909
 21
217.11035423302661
 31
0.0
  0
LINE
  8
DETAIL
  6
DASHED
 62
     5
 10
587.0
 20
414.51035423302068
 30
0.0
 11
587.0
 21
227.7103542330324
 31
0.0
  0
LINE
  8
DETAIL
  6
DASHED
 62
     5
 10
584.40000000000146
 20
417.11035423302661
 30
0.0
 11
579.11520393246428
 21
417.11035423302661
 31
0.0
  0
ARC
  8
DETAIL
  6
DASHED
 62
     5
 10
582.07211439921412
 20
417.71035423301782
 30
0.0
 40
0.6000000000007046
 50
264.09802012044003
 51
270.0
  0
ARC
  8
DETAIL
  6
DASHED
 62
     5
 10
584.40000000000146
 20
414.51035423302068
 30
0.0
 40
2.5999999999991519
 50
0.0
 51
90.0
  0
LINE
  8
DETAIL
  6
DASHED
 62
     5
 10
508.78833389234842
 20
425.11035423302661
 30
0.0
 11
578.88555802954579
 21
417.12358228856738
 31
0.0
  0
ARC
  8
DETAIL
  6
DASHED
 62
     5
 10
579.11520393246428
 20
419.11035423302661
 30
0.0
 40
1.9999999999999161
 50
263.40658673101188
 51
270.0
  0
LINE
  8
DETAIL
  6
DASHED
 62
     5
 10
579.0
 20
228.1731478502652
 30
0.0
 11
579.0
 21
414.04756061577342
 31
0.0
  0
LINE
  8
DETAIL
  6
DASHED
 62
     5
 10
584.40000000000146
 20
225.11035423302661
 30
0.0
 11
579.11520393246428
 21
225.11035423302661
 31
0.0
  0
ARC
  8
DETAIL
  6
DASHED
 62
     5
 10
582.07211439921412
 20
224.51035423302071
 30
0.0
 40
0.6000000000003379
 50
90.0
 51
95.901979879559988
  0
ARC
  8
DETAIL
  6
DASHED
 62
     5
 10
584.40000000000146
 20
227.7103542330324
 30
0.0
 40
2.5999999999997829
 50
270.0
 51
0.0
  0
LINE
  8
DETAIL
  6
DASHED
 62
     5
 10
508.78833389234842
 20
217.11035423302661
 30
0.0
 11
578.88555802954579
 21
225.09712617748571
 31
0.0
  0
ARC
  8
DETAIL
  6
DASHED
 62
     5
 10
579.11520393246428
 20
223.11035423302661
 30
0.0
 40
2.0000000000000759
 50
90.0
 51
96.593413268988044
  0
LINE
  8
DETAIL
  6
CONTINUOUS
 62
     5
 10
476.475530850008
 20
445.00000000000267
 30
0.0
 11
268.5
 21
445.00000000000267
 31
0.0
  0
LINE
  8
DETAIL
  6
CONTINUOUS
 62
     5
 10
476.49999679565548
 20
444.78833389234478
 30
0.0
 11
468.51322485119999
 21
513.78555802953724
 31
0.0
  0
LINE
  8
DETAIL
  6
CONTINUOUS
 62
     5
 10
476.49999679565548
 20
444.78833389234478
 30
0.0
 11
476.49999679565548
 21
444.00000000000267
 31
0.0
  0
LINE
  8
DETAIL
  6
DASHED
 62
     5
 10
-584.40000000000327
 20
225.11035423302661
 30
0.0
 11
-579.1152039324661
 21
225.11035423302661
 31
0.0
  0
ARC
  8
DETAIL
  6
DASHED
 62
     5
 10
-582.07211439921684
 20
224.51035423302071
 30
0.0
 40
0.5999999999998158
 50
84.0980201207542
 51
90.0
  0
ARC
  8
DETAIL
  6
DASHED
 62
     5
 10
-584.40000000000327
 20
227.7103542330324
 30
0.0
 40
2.600000000000414
 50
180.0
 51
270.0
  0
LINE
  8
DETAIL
  6
DASHED
 62
     5
 10
-508.78833389234751
 20
217.11035423302661
 30
0.0
 11
-578.88555802954943
 21
225.09712617748571
 31
0.0
  0
ARC
  8
DETAIL
  6
DASHED
 62
     5
 10
-579.1152039324661
 20
223.11035423302661
 30
0.0
 40
1.9999999999999161
 50
83.40658673101197
 51
90.0
  0
LINE
  8
DETAIL
  6
DASHED
 62
     5
 10
-587.00000000000364
 20
414.51035423302068
 30
0.0
 11
-587.00000000000364
 21
227.7103542330324
 31
0.0
  0
LINE
  8
DETAIL
  6
DASHED
 62
     5
 10
-579.00000000000091
 20
228.1731478502652
 30
0.0
 11
-579.00000000000091
 21
414.04756061577342
 31
0.0
  0
LINE
  8
DETAIL
  6
DASHED
 62
     5
 10
-584.40000000000327
 20
417.11035423302661
 30
0.0
 11
-579.1152039324661
 21
417.11035423302661
 31
0.0
  0
ARC
  8
DETAIL
  6
DASHED
 62
     5
 10
-582.07211439921684
 20
417.71035423301782
 30
0.0
 40
0.6000000000003379
 50
270.0
 51
275.90197987924591
  0
ARC
  8
DETAIL
  6
DASHED
 62
     5
 10
-584.40000000000327
 20
414.51035423302068
 30
0.0
 40
2.5999999999997829
 50
90.0
 51
180.0
  0
LINE
  8
DETAIL
  6
DASHED
 62
     5
 10
-508.78833389234751
 20
425.11035423302661
 30
0.0
 11
-578.88555802954943
 21
417.12358228856738
 31
0.0
  0
ARC
  8
DETAIL
  6
DASHED
 62
     5
 10
-579.1152039324661
 20
419.11035423302661
 30
0.0
 40
2.0000000000000759
 50
270.0
 51
276.59341326898812
  0
LINE
  8
BASIS
  6
DASHDOT
 62
     6
 10
0.0
 20
559.98139426479156
 30
0.0
 11
0.0
 21
-559.98139426479156
 31
0.0
  0
LINE
  8
DETAIL
  6
CONTINUOUS
 62
     5
 10
-613.28638976150614
 20
-381.11908043652062
 30
0.0
 11
-613.40000000000691
 21
-374.61035423302661
 31
0.0
  0
LINE
  8
DETAIL
  6
CONTINUOUS
 62
     5
 10
-616.60000000000582
 20
-201.41035423302949
 30
0.0
 11
-616.60000000000582
 21
-212.81035423302359
 31
0.0
  0
LINE
  8
DETAIL
  6
CONTINUOUS
 62
     5
 10
-616.00000000000364
 20
-201.41035423302949
 30
0.0
 11
-616.00000000000364
 21
-370.61035423302661
 31
0.0
  0
LINE
  8
DETAIL
  6
CONTINUOUS
 62
     5
 10
-615.40000000000691
 20
-373.01035423302068
 30
0.0
 11
-615.40000000000691
 21
-370.61035423302661
 31
0.0
  0
LINE
  8
DETAIL
  6
CONTINUOUS
 62
     5
 10
-615.40000000000691
 20
-209.81035423302359
 30
0.0
 11
-615.40000000000691
 21
-200.2103542330178
 31
0.0
  0
LINE
  8
DETAIL
  6
CONTINUOUS
 62
     5
 10
-614.60000000000582
 20
-370.61035423302661
 30
0.0
 11
-614.60000000000582
 21
-373.01035423302068
 31
0.0
  0
LINE
  8
DETAIL
  6
CONTINUOUS
 62
     5
 10
-613.80000000000655
 20
-373.01035423302068
 30
0.0
 11
-613.80000000000655
 21
-374.61035423302661
 31
0.0
  0
LINE
  8
DETAIL
  6
CONTINUOUS
 62
     5
 10
-532.88888888889142
 20
-370.61035423302661
 30
0.0
 11
-532.88888888889142
 21
-374.61035423302661
 31
0.0
  0
LINE
  8
DETAIL
  6
CONTINUOUS
 62
     5
 10
-579.51361023850586
 20
-381.11908043652062
 30
0.0
 11
-579.40000000000327
 21
-374.61035423302661
 31
0.0
  0
LINE
  8
DETAIL
  6
CONTINUOUS
 62
     5
 10
-522.18888888889069
 20
-369.61035423302661
 30
0.0
 11
-522.18888888889069
 21
-212.81035423302359
 31
0.0
  0
LINE
  8
DETAIL
  6
CONTINUOUS
 62
     5
 10
-615.40000000000691
 20
-200.2103542330178
 30
0.0
 11
-508.00000000000091
 21
-200.2103542330178
 31
0.0
  0
LINE
  8
DETAIL
  6
CONTINUOUS
 62
     5
 10
-616.00000000000364
 20
-201.41035423302949
 30
0.0
 11
-615.40000000000691
 21
-201.41035423302949
 31
0.0
  0
LINE
  8
DETAIL
  6
CONTINUOUS
 62
     5
 10
-509.68888888889251
 20
-212.81035423302359
 30
0.0
 11
-523.83888888889305
 21
-212.81035423302359
 31
0.0
  0
LINE
  8
DETAIL
  6
CONTINUOUS
 62
     5
 10
-526.83888888889396
 20
-212.81035423302359
 30
0.0
 11
-595.650000000006
 21
-212.81035423302359
 31
0.0
  0
LINE
  8
DETAIL
  6
CONTINUOUS
 62
     5
 10
-598.65000000000691
 20
-212.81035423302359
 30
0.0
 11
-612.400000000006
 21
-212.81035423302359
 31
0.0
  0
LINE
  8
DETAIL
  6
CONTINUOUS
 62
     5
 10
-616.00000000000364
 20
-212.81035423302359
 30
0.0
 11
-616.60000000000582
 21
-212.81035423302359
 31
0.0
  0
LINE
  8
DETAIL
  6
CONTINUOUS
 62
     5
 10
-616.00000000000364
 20
-370.61035423302661
 30
0.0
 11
-523.18888888889342
 21
-370.61035423302661
 31
0.0
  0
LINE
  8
DETAIL
  6
CONTINUOUS
 62
     5
 10
-529.18888888889342
 20
-372.21035423303238
 30
0.0
 11
-508.00000000000091
 21
-372.21035423303238
 31
0.0
  0
LINE
  8
DETAIL
  6
CONTINUOUS
 62
     5
 10
-613.80000000000655
 20
-373.01035423302068
 30
0.0
 11
-615.40000000000691
 21
-373.01035423302068
 31
0.0
  0
LINE
  8
DETAIL
  6
CONTINUOUS
 62
     5
 10
-508.00000000000091
 20
-373.81035423302359
 30
0.0
 11
-532.88888888889142
 21
-373.81035423302359
 31
0.0
  0
LINE
  8
DETAIL
  6
CONTINUOUS
 62
     5
 10
-613.80000000000655
 20
-374.61035423302661
 30
0.0
 11
-508.00000000000091
 21
-374.61035423302661
 31
0.0
  0
LINE
  8
DETAIL
  6
CONTINUOUS
 62
     5
 10
-580.01353408600698
 20
-381.61035423302661
 30
0.0
 11
-612.78646591400593
 21
-381.61035423302661
 31
0.0
  0
LINE
  8
DETAIL
  6
CONTINUOUS
 62
     5
 10
-530.78888888889105
 20
-370.61035423302661
 30
0.0
 11
-529.18888888889342
 21
-372.21035423303238
 31
0.0
  0
ARC
  8
DETAIL
  6
CONTINUOUS
 62
     5
 10
-612.400000000006
 20
-209.81035423302359
 30
0.0
 40
3.0000000000000009
 50
180.0
 51
270.0
  0
CIRCLE
  8
DETAIL
  6
CONTINUOUS
 62
     5
 10
-537.18888888889342
 20
-206.81035423302359
 30
0.0
 40
2.0
  0
CIRCLE
  8
DETAIL
  6
CONTINUOUS
 62
     5
 10
-564.18888888889069
 20
-206.81035423302359
 30
0.0
 40
2.0
  0
ARC
  8
DETAIL
  6
CONTINUOUS
 62
     5
 10
-525.33888888889032
 20
-213.43535423302359
 30
0.0
 40
1.625
 50
22.61986494797679
 51
157.38013505202321
  0
ARC
  8
DETAIL
  6
CONTINUOUS
 62
     5
 10
-597.15000000000691
 20
-213.43535423302359
 30
0.0
 40
1.625
 50
22.61986494797679
 51
157.38013505202321
  0
ARC
  8
DETAIL
  6
CONTINUOUS
 62
     5
 10
-615.40000000000691
 20
-201.41035423302949
 30
0.0
 40
1.2
 50
90.0
 51
180.0
  0
ARC
  8
DETAIL
  6
CONTINUOUS
 62
     5
 10
-615.40000000000691
 20
-201.41035423302949
 30
0.0
 40
0.6000000000000002
 50
90.0
 51
180.0
  0
ARC
  8
DETAIL
  6
CONTINUOUS
 62
     5
 10
-509.68888888889251
 20
-209.81035423302359
 30
0.0
 40
3.0000000000000009
 50
270.0
 51
304.26095506377499
  0
CIRCLE
  8
DETAIL
  6
CONTINUOUS
 62
     5
 10
-515.38888888889323
 20
-273.81035423302359
 30
0.0
 40
2.5000000000000009
  0
ARC
  8
DETAIL
  6
CONTINUOUS
 62
     5
 10
-613.80000000000655
 20
-373.01035423302068
 30
0.0
 40
1.600000000000001
 50
180.0
 51
270.0
  0
ARC
  8
DETAIL
  6
CONTINUOUS
 62
     5
 10
-523.18888888889342
 20
-369.61035423302661
 30
0.0
 40
1.0
 50
270.0
 51
0.0
  0
ARC
  8
DETAIL
  6
CONTINUOUS
 62
     5
 10
-613.80000000000655
 20
-373.01035423302068
 30
0.0
 40
0.8000000000000003
 50
180.0
 51
270.0
  0
ARC
  8
DETAIL
  6
CONTINUOUS
 62
     5
 10
-612.78646591400593
 20
-381.11035423302661
 30
0.0
 40
0.5000000000000001
 50
180.9999999999757
 51
270.0
  0
ARC
  8
DETAIL
  6
CONTINUOUS
 62
     5
 10
-580.01353408600698
 20
-381.11035423302661
 30
0.0
 40
0.5000000000000001
 50
270.0
 51
359.00000000002427
  0
LINE
  8
DETAIL
  6
CONTINUOUS
 62
     5
 10
-559.38888888889323
 20
-375.81035423302359
 30
0.0
 11
-559.38888888889323
 21
-383.11035423302661
 31
0.0
  0
LINE
  8
DETAIL
  6
CONTINUOUS
 62
     5
 10
-558.78888888889105
 20
-375.81035423302359
 30
0.0
 11
-558.78888888889105
 21
-383.11035423302661
 31
0.0
  0
LINE
  8
DETAIL
  6
CONTINUOUS
 62
     5
 10
-539.98888888889087
 20
-375.81035423302359
 30
0.0
 11
-539.98888888889087
 21
-383.11035423302661
 31
0.0
  0
LINE
  8
DETAIL
  6
CONTINUOUS
 62
     5
 10
-539.38888888889051
 20
-375.81035423302359
 30
0.0
 11
-539.38888888889051
 21
-383.11035423302661
 31
0.0
  0
LINE
  8
DETAIL
  6
CONTINUOUS
 62
     5
 10
-550.91020923239194
 20
-380.35888237052399
 30
0.0
 11
-550.02528499189157
 21
-379.4739581300264
 31
0.0
  0
LINE
  8
DETAIL
  6
CONTINUOUS
 62
     5
 10
-558.18888888889069
 20
-375.21035423301782
 30
0.0
 11
-540.58888888889305
 21
-375.21035423301782
 31
0.0
  0
LINE
  8
DETAIL
  6
CONTINUOUS
 62
     5
 10
-559.38888888889323
 20
-377.61035423302661
 30
0.0
 11
-558.78888888889105
 21
-377.61035423302661
 31
0.0
  0
LINE
  8
DETAIL
  6
CONTINUOUS
 62
     5
 10
-539.98888888889087
 20
-377.61035423302661
 30
0.0
 11
-539.38888888889051
 21
-377.61035423302661
 31
0.0
  0
LINE
  8
DETAIL
  6
CONTINUOUS
 62
     5
 10
-540.58888888889305
 20
-380.71035423301782
 30
0.0
 11
-547.01904040789304
 21
-380.71035423301782
 31
0.0
  0
LINE
  8
DETAIL
  6
CONTINUOUS
 62
     5
 10
-551.75873736989433
 20
-380.71035423301782
 30
0.0
 11
-558.18888888889433
 21
-380.71035423301782
 31
0.0
  0
LINE
  8
DETAIL
  6
CONTINUOUS
 62
     5
 10
-539.38888888889051
 20
-383.11035423302661
 30
0.0
 11
-539.98888888889087
 21
-383.11035423302661
 31
0.0
  0
LINE
  8
DETAIL
  6
CONTINUOUS
 62
     5
 10
-558.78888888889105
 20
-383.11035423302661
 30
0.0
 11
-559.38888888889323
 21
-383.11035423302661
 31
0.0
  0
LINE
  8
DETAIL
  6
CONTINUOUS
 62
     5
 10
-548.75249278589126
 20
-379.4739581300264
 30
0.0
 11
-547.86756854539362
 21
-380.35888237052399
 31
0.0
  0
ARC
  8
DETAIL
  6
CONTINUOUS
 62
     5
 10
-558.18888888889069
 20
-375.81035423302359
 30
0.0
 40
1.2
 50
90.0
 51
180.0
  0
ARC
  8
DETAIL
  6
CONTINUOUS
 62
     5
 10
-540.58888888889305
 20
-375.81035423302359
 30
0.0
 40
1.2
 50
0.0
 51
90.0
  0
ARC
  8
DETAIL
  6
CONTINUOUS
 62
     5
 10
-551.75873736989433
 20
-379.51035423302068
 30
0.0
 40
1.2
 50
270.0
 51
315.00000000000688
  0
ARC
  8
DETAIL
  6
CONTINUOUS
 62
     5
 10
-547.01904040789304
 20
-379.51035423302068
 30
0.0
 40
1.2
 50
224.99999999999309
 51
270.0
  0
ARC
  8
DETAIL
  6
CONTINUOUS
 62
     5
 10
-549.38888888889323
 20
-380.110354233012
 30
0.0
 40
0.9000000000000002
 50
44.999999999993094
 51
135.00000000000691
  0
ARC
  8
DETAIL
  6
CONTINUOUS
 62
     5
 10
-558.18888888889433
 20
-381.31035423302359
 30
0.0
 40
0.6000000000000002
 50
90.0
 51
179.99999987040189
  0
ARC
  8
DETAIL
  6
CONTINUOUS
 62
     5
 10
-558.18888888889069
 20
-375.81035423302359
 30
0.0
 40
0.6000000000000002
 50
90.0
 51
180.0
  0
ARC
  8
DETAIL
  6
CONTINUOUS
 62
     5
 10
-540.58888888889305
 20
-375.81035423302359
 30
0.0
 40
0.6000000000000002
 50
0.0
 51
90.0
  0
ARC
  8
DETAIL
  6
CONTINUOUS
 62
     5
 10
-540.58888888889305
 20
-381.31035423302359
 30
0.0
 40
0.6000000000000002
 50
0.0
 51
90.0
  0
LINE
  8
DETAIL
  6
CONTINUOUS
 62
     5
 10
-476.5
 20
445.50000000000267
 30
0.0
 11
-476.5
 21
444.00000000000267
 31
0.0
  0
LINE
  8
DETAIL
  6
CONTINUOUS
 62
     5
 10
-476.5
 20
-445.50000000000267
 30
0.0
 11
-476.5
 21
-444.00000000000267
 31
0.0
  0
LINE
  8
DETAIL
  6
CONTINUOUS
 62
     5
 10
476.50000000000358
 20
-445.50000000000267
 30
0.0
 11
476.50000000000358
 21
-444.00000000000267
 31
0.0
  0
LINE
  8
SIZE
  6
CONTINUOUS
 62
    30
 10
-372.5
 20
562.99999999999363
 30
0.0
 11
-372.5
 21
731.1592013075151
 31
0.0
  0
LINE
  8
SIZE
  6
CONTINUOUS
 62
    30
 10
372.50000000000182
 20
562.99999999999363
 30
0.0
 11
372.50000000000182
 21
731.1592013075151
 31
0.0
  0
LINE
  8
SIZE
  6
CONTINUOUS
 62
    30
 10
-360.5
 20
711.1592013075151
 30
0.0
 11
360.50000000000182
 21
711.1592013075151
 31
0.0
  0
CIRCLE
  8
SIZE
  6
CONTINUOUS
 62
    30
 10
-372.5
 20
711.1592013075151
 30
0.0
 40
6.0
  0
LINE
  8
SIZE
  6
CONTINUOUS
 62
    30
 10
-372.5
 20
711.1592013075151
 30
0.0
 11
-360.5
 21
711.1592013075151
 31
0.0
  0
CIRCLE
  8
SIZE
  6
CONTINUOUS
 62
    30
 10
372.50000000000182
 20
711.1592013075151
 30
0.0
 40
6.0
  0
LINE
  8
SIZE
  6
CONTINUOUS
 62
    30
 10
372.50000000000182
 20
711.1592013075151
 30
0.0
 11
360.50000000000182
 21
711.1592013075151
 31
0.0
  0
TEXT
  8
SIZE
  6
CONTINUOUS
 62
    30
 10
-80.927999999999088
 20
736.1592013075151
 30
0.0
 40
64.0
  1
745
 50
0.0
 41
0.9
 51
0.0
  7
STANDARD
 71
     0
 72
     1
 11
0.0000000000009095
 21
736.1592013075151
 31
0.0
210
0.0
220
0.0
230
1.0
  0
POINT
  8
DEFPOINTS
  6
CONTINUOUS
 62
    30
 10
-372.5
 20
542.99999999999363
 30
0.0
  0
POINT
  8
DEFPOINTS
  6
CONTINUOUS
 62
    30
 10
372.50000000000182
 20
542.99999999999363
 30
0.0
  0
POINT
  8
DEFPOINTS
  6
CONTINUOUS
 62
    30
 10
372.50000000000182
 20
711.1592013075151
 30
0.0
  0
LINE
  8
SIZE
  6
CONTINUOUS
 62
    30
 10
508.0
 20
451.00000000000267
 30
0.0
 11
508.0
 21
857.81048956565974
 31
0.0
  0
LINE
  8
SIZE
  6
CONTINUOUS
 62
    30
 10
-508.00000000000091
 20
451.00000000000267
 30
0.0
 11
-508.00000000000091
 21
857.81048956565974
 31
0.0
  0
LINE
  8
SIZE
  6
CONTINUOUS
 62
    30
 10
496.0
 20
837.81048956565974
 30
0.0
 11
-496.00000000000091
 21
837.81048956565974
 31
0.0
  0
CIRCLE
  8
SIZE
  6
CONTINUOUS
 62
    30
 10
508.0
 20
837.81048956565974
 30
0.0
 40
6.0
  0
LINE
  8
SIZE
  6
CONTINUOUS
 62
    30
 10
508.0
 20
837.81048956565974
 30
0.0
 11
496.0
 21
837.81048956565974
 31
0.0
  0
CIRCLE
  8
SIZE
  6
CONTINUOUS
 62
    30
 10
-508.00000000000091
 20
837.81048956565974
 30
0.0
 40
6.0
  0
LINE
  8
SIZE
  6
CONTINUOUS
 62
    30
 10
-508.00000000000091
 20
837.81048956565974
 30
0.0
 11
-496.00000000000091
 21
837.81048956565974
 31
0.0
  0
TEXT
  8
SIZE
  6
CONTINUOUS
 62
    30
 10
-96.192000000000462
 20
862.81048956565974
 30
0.0
 40
64.0
  1
1016
 50
0.0
 41
0.9
 51
0.0
  7
STANDARD
 71
     0
 72
     1
 11
-0.0000000000004547
 21
862.81048956565974
 31
0.0
210
0.0
220
0.0
230
1.0
  0
POINT
  8
DEFPOINTS
  6
CONTINUOUS
 62
    30
 10
508.0
 20
431.00000000000267
 30
0.0
  0
POINT
  8
DEFPOINTS
  6
CONTINUOUS
 62
    30
 10
-508.00000000000091
 20
431.00000000000267
 30
0.0
  0
POINT
  8
DEFPOINTS
  6
CONTINUOUS
 62
    30
 10
-508.00000000000091
 20
837.81048956565974
 30
0.0
  0
LINE
  8
SIZE
  6
CONTINUOUS
 62
    30
 10
-508.00000000000091
 20
451.00000000000267
 30
0.0
 11
-508.00000000000091
 21
857.81048956565974
 31
0.0
  0
LINE
  8
SIZE
  6
CONTINUOUS
 62
    30
 10
-1127.700000000001
 20
464.00000000000358
 30
0.0
 11
-1127.700000000001
 21
857.81048956565974
 31
0.0
  0
LINE
  8
SIZE
  6
CONTINUOUS
 62
    30
 10
-520.00000000000091
 20
837.81048956565974
 30
0.0
 11
-1115.700000000001
 21
837.81048956565974
 31
0.0
  0
CIRCLE
  8
SIZE
  6
CONTINUOUS
 62
    30
 10
-508.00000000000091
 20
837.81048956565974
 30
0.0
 40
6.0
  0
LINE
  8
SIZE
  6
CONTINUOUS
 62
    30
 10
-508.00000000000091
 20
837.81048956565974
 30
0.0
 11
-520.00000000000091
 21
837.81048956565974
 31
0.0
  0
CIRCLE
  8
SIZE
  6
CONTINUOUS
 62
    30
 10
-1127.700000000001
 20
837.81048956565974
 30
0.0
 40
6.0
  0
LINE
  8
SIZE
  6
CONTINUOUS
 62
    30
 10
-1127.700000000001
 20
837.81048956565974
 30
0.0
 11
-1115.700000000001
 21
837.81048956565974
 31
0.0
  0
TEXT
  8
SIZE
  6
CONTINUOUS
 62
    30
 10
-968.47400000000084
 20
862.81048956565974
 30
0.0
 40
64.0
  1
600à»è„
 50
0.0
 41
0.9
 51
0.0
  7
STANDARD
 71
     0
 72
     1
 11
-817.85000000000082
 21
862.81048956565974
 31
0.0
210
0.0
220
0.0
230
1.0
  0
POINT
  8
DEFPOINTS
  6
CONTINUOUS
 62
    30
 10
-508.00000000000091
 20
431.00000000000267
 30
0.0
  0
POINT
  8
DEFPOINTS
  6
CONTINUOUS
 62
    30
 10
-1127.700000000001
 20
444.00000000000358
 30
0.0
  0
POINT
  8
DEFPOINTS
  6
CONTINUOUS
 62
    30
 10
-1127.700000000001
 20
837.81048956565974
 30
0.0
  0
LINE
  8
SIZE
  6
CONTINUOUS
 62
    30
 10
-508.00000000000091
 20
450.80000000000291
 30
0.0
 11
-508.00000000000091
 21
731.15920130751329
 31
0.0
  0
LINE
  8
SIZE
  6
CONTINUOUS
 62
    30
 10
-658.0
 20
245.0
 30
0.0
 11
-658.0
 21
731.15920130751329
 31
0.0
  0
LINE
  8
SIZE
  6
CONTINUOUS
 62
    30
 10
-520.00000000000091
 20
711.15920130751329
 30
0.0
 11
-646.0
 21
711.15920130751329
 31
0.0
  0
LINE
  8
SIZE
  6
CONTINUOUS
 62
    30
 10
-658.0
 20
711.15920130751329
 30
0.0
 11
-1090.8342857142859
 21
711.15920130751329
 31
0.0
  0
CIRCLE
  8
SIZE
  6
CONTINUOUS
 62
    30
 10
-508.00000000000091
 20
711.15920130751329
 30
0.0
 40
6.0
  0
LINE
  8
SIZE
  6
CONTINUOUS
 62
    30
 10
-508.00000000000091
 20
711.15920130751329
 30
0.0
 11
-520.00000000000091
 21
711.15920130751329
 31
0.0
  0
CIRCLE
  8
SIZE
  6
CONTINUOUS
 62
    30
 10
-658.0
 20
711.15920130751329
 30
0.0
 40
6.0
  0
LINE
  8
SIZE
  6
CONTINUOUS
 62
    30
 10
-658.0
 20
711.15920130751329
 30
0.0
 11
-646.0
 21
711.15920130751329
 31
0.0
  0
TEXT
  8
SIZE
  6
CONTINUOUS
 62
    30
 10
-1071.0731428571428
 20
736.15920130751329
 30
0.0
 40
64.0
  1
150Å`250
 50
0.0
 41
0.9
 51
0.0
  7
STANDARD
 71
     0
 72
     1
 11
-880.41714285714284
 21
736.15920130751329
 31
0.0
210
0.0
220
0.0
230
1.0
  0
POINT
  8
DEFPOINTS
  6
CONTINUOUS
 62
    30
 10
-508.00000000000091
 20
430.80000000000291
 30
0.0
  0
POINT
  8
DEFPOINTS
  6
CONTINUOUS
 62
    30
 10
-658.0
 20
225.0
 30
0.0
  0
POINT
  8
DEFPOINTS
  6
CONTINUOUS
 62
    30
 10
-658.0
 20
711.15920130751329
 30
0.0
  0
LINE
  8
SIZE
  6
CONTINUOUS
 62
    30
 10
-684.31561909346078
 20
320.00000000000279
 30
0.0
 11
-883.79090659809424
 21
320.00000000000279
 31
0.0
  0
LINE
  8
SIZE
  6
CONTINUOUS
 62
    30
 10
-514.99999999999932
 20
444.00000000000301
 30
0.0
 11
-883.79090659809424
 21
444.0000000000029
 31
0.0
  0
LINE
  8
SIZE
  6
CONTINUOUS
 62
    30
 10
-863.79090659809424
 20
332.00000000000279
 30
0.0
 11
-863.79090659809424
 21
432.0000000000029
 31
0.0
  0
LINE
  8
SIZE
  6
CONTINUOUS
 62
    30
 10
-863.79090659809424
 20
444.0000000000029
 30
0.0
 11
-863.79090659809424
 21
645.8857142857172
 31
0.0
  0
CIRCLE
  8
SIZE
  6
CONTINUOUS
 62
    30
 10
-863.79090659809424
 20
320.00000000000279
 30
0.0
 40
6.0
  0
LINE
  8
SIZE
  6
CONTINUOUS
 62
    30
 10
-863.79090659809424
 20
320.00000000000279
 30
0.0
 11
-863.79090659809424
 21
332.00000000000279
 31
0.0
  0
CIRCLE
  8
SIZE
  6
CONTINUOUS
 62
    30
 10
-863.79090659809424
 20
444.0000000000029
 30
0.0
 40
6.0
  0
LINE
  8
SIZE
  6
CONTINUOUS
 62
    30
 10
-863.79090659809424
 20
444.0000000000029
 30
0.0
 11
-863.79090659809424
 21
432.0000000000029
 31
0.0
  0
TEXT
  8
SIZE
  6
CONTINUOUS
 62
    30
 10
-888.7909065980939
 20
475.77485714286013
 30
0.0
 40
64.0
  1
124
 50
90.0
 41
0.9
 51
0.0
  7
STANDARD
 71
     0
 72
     1
 11
-888.7909065980939
 21
550.94285714286013
 31
0.0
210
0.0
220
0.0
230
1.0
  0
POINT
  8
DEFPOINTS
  6
CONTINUOUS
 62
    30
 10
-664.31561909346078
 20
320.00000000000279
 30
0.0
  0
POINT
  8
DEFPOINTS
  6
CONTINUOUS
 62
    30
 10
-494.99999999999932
 20
444.00000000000301
 30
0.0
  0
POINT
  8
DEFPOINTS
  6
CONTINUOUS
 62
    30
 10
-863.79090659809424
 20
444.0000000000029
 30
0.0
  0
LINE
  8
SIZE
  6
CONTINUOUS
 62
    30
 10
625.88888888888891
 20
320.00000000000279
 30
0.0
 11
803.27834258257383
 21
320.0000000000029
 31
0.0
  0
LINE
  8
SIZE
  6
CONTINUOUS
 62
    30
 10
514.99999999999932
 20
444.00000000000301
 30
0.0
 11
803.27834258257383
 21
444.00000000000301
 31
0.0
  0
LINE
  8
SIZE
  6
CONTINUOUS
 62
    30
 10
783.27834258257383
 20
332.0000000000029
 30
0.0
 11
783.27834258257383
 21
432.00000000000301
 31
0.0
  0
LINE
  8
SIZE
  6
CONTINUOUS
 62
    30
 10
783.27834258257383
 20
444.00000000000301
 30
0.0
 11
783.27834258257383
 21
713.74231585793439
 31
0.0
  0
CIRCLE
  8
SIZE
  6
CONTINUOUS
 62
    30
 10
783.27834258257383
 20
320.0000000000029
 30
0.0
 40
6.0
  0
LINE
  8
SIZE
  6
CONTINUOUS
 62
    30
 10
783.27834258257383
 20
320.0000000000029
 30
0.0
 11
783.27834258257383
 21
332.0000000000029
 31
0.0
  0
CIRCLE
  8
SIZE
  6
CONTINUOUS
 62
    30
 10
783.27834258257383
 20
444.00000000000301
 30
0.0
 40
6.0
  0
LINE
  8
SIZE
  6
CONTINUOUS
 62
    30
 10
783.27834258257383
 20
444.00000000000301
 30
0.0
 11
783.27834258257383
 21
432.00000000000301
 31
0.0
  0
TEXT
  8
SIZE
  6
CONTINUOUS
 62
    30
 10
758.27834258257371
 20
543.63145871507697
 30
0.0
 40
64.0
  1
124
 50
90.0
 41
0.9
 51
0.0
  7
STANDARD
 71
     0
 72
     1
 11
758.27834258257371
 21
618.79945871507698
 31
0.0
210
0.0
220
0.0
230
1.0
  0
POINT
  8
DEFPOINTS
  6
CONTINUOUS
 62
    30
 10
605.88888888888891
 20
320.00000000000279
 30
0.0
  0
POINT
  8
DEFPOINTS
  6
CONTINUOUS
 62
    30
 10
494.99999999999932
 20
444.00000000000301
 30
0.0
  0
POINT
  8
DEFPOINTS
  6
CONTINUOUS
 62
    30
 10
783.27834258257383
 20
444.00000000000301
 30
0.0
  0
LINE
  8
SIZE
  6
CONTINUOUS
 62
    30
 10
514.99999999999932
 20
444.00000000000301
 30
0.0
 11
1057.1927888467881
 21
444.00000000000301
 31
0.0
  0
LINE
  8
SIZE
  6
CONTINUOUS
 62
    30
 10
515.00000000000114
 20
-444.00000000000301
 30
0.0
 11
1057.1927888467881
 21
-444.0000000000029
 31
0.0
  0
LINE
  8
SIZE
  6
CONTINUOUS
 62
    30
 10
1037.1927888467881
 20
432.00000000000301
 30
0.0
 11
1037.1927888467881
 21
-432.0000000000029
 31
0.0
  0
CIRCLE
  8
SIZE
  6
CONTINUOUS
 62
    30
 10
1037.1927888467881
 20
444.00000000000301
 30
0.0
 40
6.0
  0
LINE
  8
SIZE
  6
CONTINUOUS
 62
    30
 10
1037.1927888467881
 20
444.00000000000301
 30
0.0
 11
1037.1927888467881
 21
432.00000000000301
 31
0.0
  0
CIRCLE
  8
SIZE
  6
CONTINUOUS
 62
    30
 10
1037.1927888467881
 20
-444.0000000000029
 30
0.0
 40
6.0
  0
LINE
  8
SIZE
  6
CONTINUOUS
 62
    30
 10
1037.1927888467881
 20
-444.0000000000029
 30
0.0
 11
1037.1927888467881
 21
-432.0000000000029
 31
0.0
  0
TEXT
  8
SIZE
  6
CONTINUOUS
 62
    30
 10
1012.1927888467874
 20
-80.352000000000203
 30
0.0
 40
64.0
  1
888
 50
90.0
 41
0.9
 51
0.0
  7
STANDARD
 71
     0
 72
     1
 11
1012.1927888467874
 21
-0.0000000000002291
 31
0.0
210
0.0
220
0.0
230
1.0
  0
POINT
  8
DEFPOINTS
  6
CONTINUOUS
 62
    30
 10
494.99999999999932
 20
444.00000000000301
 30
0.0
  0
POINT
  8
DEFPOINTS
  6
CONTINUOUS
 62
    30
 10
495.00000000000108
 20
-444.00000000000301
 30
0.0
  0
POINT
  8
DEFPOINTS
  6
CONTINUOUS
 62
    30
 10
1037.1927888467881
 20
-444.0000000000029
 30
0.0
  0
LINE
  8
SIZE
  6
CONTINUOUS
 62
    30
 10
602.44593151834238
 20
437.49999999999301
 30
0.0
 11
919.03849809936241
 21
437.49999999999312
 31
0.0
  0
LINE
  8
SIZE
  6
CONTINUOUS
 62
    30
 10
602.44593151834238
 20
-437.49999999999301
 30
0.0
 11
919.03849809936264
 21
-437.49999999999278
 31
0.0
  0
LINE
  8
SIZE
  6
CONTINUOUS
 62
    30
 10
899.03849809936241
 20
425.49999999999312
 30
0.0
 11
899.03849809936264
 21
-425.49999999999278
 31
0.0
  0
CIRCLE
  8
SIZE
  6
CONTINUOUS
 62
    30
 10
899.03849809936241
 20
437.49999999999312
 30
0.0
 40
6.0
  0
LINE
  8
SIZE
  6
CONTINUOUS
 62
    30
 10
899.03849809936241
 20
437.49999999999312
 30
0.0
 11
899.03849809936241
 21
425.49999999999312
 31
0.0
  0
CIRCLE
  8
SIZE
  6
CONTINUOUS
 62
    30
 10
899.03849809936264
 20
-437.49999999999278
 30
0.0
 40
6.0
  0
LINE
  8
SIZE
  6
CONTINUOUS
 62
    30
 10
899.03849809936264
 20
-437.49999999999278
 30
0.0
 11
899.03849809936264
 21
-425.49999999999278
 31
0.0
  0
TEXT
  8
SIZE
  6
CONTINUOUS
 62
    30
 10
874.0384980993623
 20
-80.352000000000132
 30
0.0
 40
64.0
  1
875
 50
90.0
 41
0.9
 51
0.0
  7
STANDARD
 71
     0
 72
     1
 11
874.0384980993623
 21
-0.0000000000001638
 31
0.0
210
0.0
220
0.0
230
1.0
  0
POINT
  8
DEFPOINTS
  6
CONTINUOUS
 62
    30
 10
582.44593151834238
 20
437.49999999999301
 30
0.0
  0
POINT
  8
DEFPOINTS
  6
CONTINUOUS
 62
    30
 10
582.44593151834238
 20
-437.49999999999301
 30
0.0
  0
POINT
  8
DEFPOINTS
  6
CONTINUOUS
 62
    30
 10
899.03849809936264
 20
-437.49999999999278
 30
0.0
  0
LINE
  8
SIZE
  6
CONTINUOUS
 62
    30
 10
487.39999999999992
 20
522.99999999999386
 30
0.0
 11
1057.192788846784
 21
522.99999999999397
 31
0.0
  0
LINE
  8
SIZE
  6
CONTINUOUS
 62
    30
 10
514.99999999999932
 20
444.00000000000301
 30
0.0
 11
1057.192788846784
 21
444.00000000000301
 31
0.0
  0
LINE
  8
SIZE
  6
CONTINUOUS
 62
    30
 10
1037.192788846784
 20
456.00000000000301
 30
0.0
 11
1037.192788846784
 21
510.99999999999397
 31
0.0
  0
LINE
  8
SIZE
  6
CONTINUOUS
 62
    30
 10
1037.192788846784
 20
522.99999999999397
 30
0.0
 11
1037.192788846784
 21
675.51428571427971
 31
0.0
  0
CIRCLE
  8
SIZE
  6
CONTINUOUS
 62
    30
 10
1037.192788846784
 20
444.00000000000301
 30
0.0
 40
6.0
  0
LINE
  8
SIZE
  6
CONTINUOUS
 62
    30
 10
1037.192788846784
 20
444.00000000000301
 30
0.0
 11
1037.192788846784
 21
456.00000000000301
 31
0.0
  0
CIRCLE
  8
SIZE
  6
CONTINUOUS
 62
    30
 10
1037.192788846784
 20
522.99999999999397
 30
0.0
 40
6.0
  0
LINE
  8
SIZE
  6
CONTINUOUS
 62
    30
 10
1037.192788846784
 20
522.99999999999397
 30
0.0
 11
1037.192788846784
 21
510.99999999999397
 31
0.0
  0
TEXT
  8
SIZE
  6
CONTINUOUS
 62
    30
 10
1012.1927888467835
 20
551.6891428571364
 30
0.0
 40
64.0
  1
79
 50
90.0
 41
0.9
 51
0.0
  7
STANDARD
 71
     0
 72
     1
 11
1012.1927888467835
 21
605.25714285713639
 31
0.0
210
0.0
220
0.0
230
1.0
  0
POINT
  8
DEFPOINTS
  6
CONTINUOUS
 62
    30
 10
467.39999999999992
 20
522.99999999999386
 30
0.0
  0
POINT
  8
DEFPOINTS
  6
CONTINUOUS
 62
    30
 10
494.99999999999932
 20
444.00000000000301
 30
0.0
  0
POINT
  8
DEFPOINTS
  6
CONTINUOUS
 62
    30
 10
1037.192788846784
 20
444.00000000000301
 30
0.0
  0
LINE
  8
SIZE
  6
CONTINUOUS
 62
    30
 10
515.00000000000114
 20
-444.00000000000301
 30
0.0
 11
1057.192788846784
 21
-444.0000000000029
 31
0.0
  0
LINE
  8
SIZE
  6
CONTINUOUS
 62
    30
 10
487.39999999999992
 20
-522.99999999999386
 30
0.0
 11
1057.192788846784
 21
-522.99999999999375
 31
0.0
  0
LINE
  8
SIZE
  6
CONTINUOUS
 62
    30
 10
1037.192788846784
 20
-456.0000000000029
 30
0.0
 11
1037.192788846784
 21
-510.99999999999369
 31
0.0
  0
LINE
  8
SIZE
  6
CONTINUOUS
 62
    30
 10
1037.192788846784
 20
-522.99999999999375
 30
0.0
 11
1037.192788846784
 21
-675.51428571428085
 31
0.0
  0
CIRCLE
  8
SIZE
  6
CONTINUOUS
 62
    30
 10
1037.192788846784
 20
-444.0000000000029
 30
0.0
 40
6.0
  0
LINE
  8
SIZE
  6
CONTINUOUS
 62
    30
 10
1037.192788846784
 20
-444.0000000000029
 30
0.0
 11
1037.192788846784
 21
-456.0000000000029
 31
0.0
  0
CIRCLE
  8
SIZE
  6
CONTINUOUS
 62
    30
 10
1037.192788846784
 20
-522.99999999999375
 30
0.0
 40
6.0
  0
LINE
  8
SIZE
  6
CONTINUOUS
 62
    30
 10
1037.192788846784
 20
-522.99999999999375
 30
0.0
 11
1037.192788846784
 21
-510.99999999999375
 31
0.0
  0
TEXT
  8
SIZE
  6
CONTINUOUS
 62
    30
 10
1012.1927888467835
 20
-658.82514285713819
 30
0.0
 40
64.0
  1
79
 50
90.0
 41
0.9
 51
0.0
  7
STANDARD
 71
     0
 72
     1
 11
1012.1927888467835
 21
-605.25714285713821
 31
0.0
210
0.0
220
0.0
230
1.0
  0
POINT
  8
DEFPOINTS
  6
CONTINUOUS
 62
    30
 10
495.00000000000108
 20
-444.00000000000301
 30
0.0
  0
POINT
  8
DEFPOINTS
  6
CONTINUOUS
 62
    30
 10
467.39999999999992
 20
-522.99999999999386
 30
0.0
  0
POINT
  8
DEFPOINTS
  6
CONTINUOUS
 62
    30
 10
1037.192788846784
 20
-522.99999999999375
 30
0.0
  0
LINE
  8
SIZE
  6
CONTINUOUS
 62
    30
 10
276.5
 20
-541.90000000000236
 30
0.0
 11
276.5
 21
-708.03919388059057
 31
0.0
  0
LINE
  8
SIZE
  6
CONTINUOUS
 62
    30
 10
468.5
 20
-541.90000000000236
 30
0.0
 11
468.5
 21
-708.03919388059057
 31
0.0
  0
LINE
  8
SIZE
  6
CONTINUOUS
 62
    30
 10
288.5
 20
-688.03919388059057
 30
0.0
 11
456.5
 21
-688.03919388059057
 31
0.0
  0
LINE
  8
SIZE
  6
CONTINUOUS
 62
    30
 10
468.5
 20
-688.03919388059057
 30
0.0
 11
773.58628471002532
 21
-688.03919388059057
 31
0.0
  0
CIRCLE
  8
SIZE
  6
CONTINUOUS
 62
    30
 10
276.5
 20
-688.03919388059057
 30
0.0
 40
6.0
  0
LINE
  8
SIZE
  6
CONTINUOUS
 62
    30
 10
276.5
 20
-688.03919388059057
 30
0.0
 11
288.5
 21
-688.03919388059057
 31
0.0
  0
CIRCLE
  8
SIZE
  6
CONTINUOUS
 62
    30
 10
468.5
 20
-688.03919388059057
 30
0.0
 40
6.0
  0
LINE
  8
SIZE
  6
CONTINUOUS
 62
    30
 10
468.5
 20
-688.03919388059057
 30
0.0
 11
456.5
 21
-688.03919388059057
 31
0.0
  0
TEXT
  8
SIZE
  6
CONTINUOUS
 62
    30
 10
544.80571328145379
 20
-663.03919388059057
 30
0.0
 40
64.0
  1
É”192
 50
0.0
 41
0.9
 51
0.0
  7
STANDARD
 71
     0
 72
     1
 11
653.95771328145383
 21
-663.03919388059057
 31
0.0
210
0.0
220
0.0
230
1.0
  0
POINT
  8
DEFPOINTS
  6
CONTINUOUS
 62
    30
 10
276.5
 20
-521.90000000000236
 30
0.0
  0
POINT
  8
DEFPOINTS
  6
CONTINUOUS
 62
    30
 10
468.5
 20
-521.90000000000236
 30
0.0
  0
POINT
  8
DEFPOINTS
  6
CONTINUOUS
 62
    30
 10
468.5
 20
-688.03919388059057
 30
0.0
  0
LINE
  8
SIZE
  6
CONTINUOUS
 62
    30
 10
476.50000000125419
 20
-465.50000000000267
 30
0.0
 11
476.50000000125419
 21
-834.65594712816983
 31
0.0
  0
LINE
  8
SIZE
  6
CONTINUOUS
 62
    30
 10
268.5
 20
-465.50000000000267
 30
0.0
 11
268.5
 21
-834.65594712816983
 31
0.0
  0
LINE
  8
SIZE
  6
CONTINUOUS
 62
    30
 10
280.5
 20
-814.65594712816983
 30
0.0
 11
464.50000000125419
 21
-814.65594712816983
 31
0.0
  0
LINE
  8
SIZE
  6
CONTINUOUS
 62
    30
 10
476.50000000125419
 20
-814.65594712816983
 30
0.0
 11
792.55771328270816
 21
-814.65594712816983
 31
0.0
  0
CIRCLE
  8
SIZE
  6
CONTINUOUS
 62
    30
 10
268.5
 20
-814.65594712816983
 30
0.0
 40
6.0
  0
LINE
  8
SIZE
  6
CONTINUOUS
 62
    30
 10
268.5
 20
-814.65594712816983
 30
0.0
 11
280.5
 21
-814.65594712816983
 31
0.0
  0
CIRCLE
  8
SIZE
  6
CONTINUOUS
 62
    30
 10
476.50000000125419
 20
-814.65594712816983
 30
0.0
 40
6.0
  0
LINE
  8
SIZE
  6
CONTINUOUS
 62
    30
 10
476.50000000125419
 20
-814.65594712816983
 30
0.0
 11
464.50000000125419
 21
-814.65594712816983
 31
0.0
  0
TEXT
  8
SIZE
  6
CONTINUOUS
 62
    30
 10
551.95542756842246
 20
-789.65594712816983
 30
0.0
 40
64.0
  1
É”208
 50
0.0
 41
0.9
 51
0.0
  7
STANDARD
 71
     0
 72
     1
 11
667.44342756842252
 21
-789.65594712816983
 31
0.0
210
0.0
220
0.0
230
1.0
  0
POINT
  8
DEFPOINTS
  6
CONTINUOUS
 62
    30
 10
476.50000000125419
 20
-445.50000000000267
 30
0.0
  0
POINT
  8
DEFPOINTS
  6
CONTINUOUS
 62
    30
 10
268.5
 20
-445.50000000000267
 30
0.0
  0
POINT
  8
DEFPOINTS
  6
CONTINUOUS
 62
    30
 10
268.5
 20
-814.65594712816983
 30
0.0
  0
LINE
  8
SIZE
  6
CONTINUOUS
 62
    30
 10
531.5
 20
-508.44444444443798
 30
0.0
 11
531.5
 21
-974.65620429947921
 31
0.0
  0
LINE
  8
SIZE
  6
CONTINUOUS
 62
    30
 10
-531.5
 20
-508.44444444443798
 30
0.0
 11
-531.5
 21
-974.65620429947921
 31
0.0
  0
LINE
  8
SIZE
  6
CONTINUOUS
 62
    30
 10
519.5
 20
-954.65620429947921
 30
0.0
 11
-519.5
 21
-954.65620429947921
 31
0.0
  0
CIRCLE
  8
SIZE
  6
CONTINUOUS
 62
    30
 10
531.5
 20
-954.65620429947921
 30
0.0
 40
6.0
  0
LINE
  8
SIZE
  6
CONTINUOUS
 62
    30
 10
531.5
 20
-954.65620429947921
 30
0.0
 11
519.5
 21
-954.65620429947921
 31
0.0
  0
CIRCLE
  8
SIZE
  6
CONTINUOUS
 62
    30
 10
-531.5
 20
-954.65620429947921
 30
0.0
 40
6.0
  0
LINE
  8
SIZE
  6
CONTINUOUS
 62
    30
 10
-531.5
 20
-954.65620429947921
 30
0.0
 11
-519.5
 21
-954.65620429947921
 31
0.0
  0
TEXT
  8
SIZE
  6
CONTINUOUS
 62
    30
 10
-101.952
 20
-929.65620429947921
 30
0.0
 40
64.0
  1
1063
 50
0.0
 41
0.9
 51
0.0
  7
STANDARD
 71
     0
 72
     1
 11
0.0
 21
-929.65620429947921
 31
0.0
210
0.0
220
0.0
230
1.0
  0
POINT
  8
DEFPOINTS
  6
CONTINUOUS
 62
    30
 10
531.5
 20
-488.44444444443798
 30
0.0
  0
POINT
  8
DEFPOINTS
  6
CONTINUOUS
 62
    30
 10
-531.5
 20
-488.44444444443798
 30
0.0
  0
POINT
  8
DEFPOINTS
  6
CONTINUOUS
 62
    30
 10
-531.5
 20
-954.65620429947921
 30
0.0
  0
LINE
  8
SIZE
  6
CONTINUOUS
 62
    30
 10
-531.5
 20
-508.44444444443798
 30
0.0
 11
-531.5
 21
-974.65620429949377
 31
0.0
  0
LINE
  8
SIZE
  6
CONTINUOUS
 62
    30
 10
-551.5
 20
-475.99999821508572
 30
0.0
 11
-551.5
 21
-974.65620429949377
 31
0.0
  0
LINE
  8
SIZE
  6
CONTINUOUS
 62
    30
 10
-519.5
 20
-954.65620429949377
 30
0.0
 11
-507.5
 21
-954.65620429949377
 31
0.0
  0
LINE
  8
SIZE
  6
CONTINUOUS
 62
    30
 10
-563.5
 20
-954.65620429949377
 30
0.0
 11
-718.75714285714287
 21
-954.65620429949377
 31
0.0
  0
LINE
  8
SIZE
  6
CONTINUOUS
 62
    30
 10
-531.5
 20
-954.65620429949377
 30
0.0
 11
-551.5
 21
-954.65620429949377
 31
0.0
  0
CIRCLE
  8
SIZE
  6
CONTINUOUS
 62
    30
 10
-531.5
 20
-954.65620429949377
 30
0.0
 40
6.0
  0
LINE
  8
SIZE
  6
CONTINUOUS
 62
    30
 10
-531.5
 20
-954.65620429949377
 30
0.0
 11
-519.5
 21
-954.65620429949377
 31
0.0
  0
CIRCLE
  8
SIZE
  6
CONTINUOUS
 62
    30
 10
-551.5
 20
-954.65620429949377
 30
0.0
 40
6.0
  0
LINE
  8
SIZE
  6
CONTINUOUS
 62
    30
 10
-551.5
 20
-954.65620429949377
 30
0.0
 11
-563.5
 21
-954.65620429949377
 31
0.0
  0
TEXT
  8
SIZE
  6
CONTINUOUS
 62
    30
 10
-701.27257142857138
 20
-929.65620429949377
 30
0.0
 40
64.0
  1
20
 50
0.0
 41
0.9
 51
0.0
  7
STANDARD
 71
     0
 72
     1
 11
-647.12857142857138
 21
-929.65620429949377
 31
0.0
210
0.0
220
0.0
230
1.0
  0
POINT
  8
DEFPOINTS
  6
CONTINUOUS
 62
    30
 10
-531.5
 20
-488.44444444443798
 30
0.0
  0
POINT
  8
DEFPOINTS
  6
CONTINUOUS
 62
    30
 10
-551.5
 20
-455.99999821508572
 30
0.0
  0
POINT
  8
DEFPOINTS
  6
CONTINUOUS
 62
    30
 10
-551.5
 20
-954.65620429949377
 30
0.0
  0
LINE
  8
SIZE
  6
CONTINUOUS
 62
    30
 10
-616.00000000000364
 20
-390.61035423302661
 30
0.0
 11
-616.00000000000364
 21
-834.65594712816983
 31
0.0
  0
LINE
  8
SIZE
  6
CONTINUOUS
 62
    30
 10
-501.00000000000182
 20
-455.50000000000267
 30
0.0
 11
-501.00000000000182
 21
-834.65594712816983
 31
0.0
  0
LINE
  8
SIZE
  6
CONTINUOUS
 62
    30
 10
-513.00000000000182
 20
-814.65594712816983
 30
0.0
 11
-604.00000000000364
 21
-814.65594712816983
 31
0.0
  0
LINE
  8
SIZE
  6
CONTINUOUS
 62
    30
 10
-616.00000000000364
 20
-814.65594712816983
 30
0.0
 11
-804.17142857143551
 21
-814.65594712816983
 31
0.0
  0
CIRCLE
  8
SIZE
  6
CONTINUOUS
 62
    30
 10
-501.00000000000182
 20
-814.65594712816983
 30
0.0
 40
6.0
  0
LINE
  8
SIZE
  6
CONTINUOUS
 62
    30
 10
-501.00000000000182
 20
-814.65594712816983
 30
0.0
 11
-513.00000000000182
 21
-814.65594712816983
 31
0.0
  0
CIRCLE
  8
SIZE
  6
CONTINUOUS
 62
    30
 10
-616.00000000000364
 20
-814.65594712816983
 30
0.0
 40
6.0
  0
LINE
  8
SIZE
  6
CONTINUOUS
 62
    30
 10
-616.00000000000364
 20
-814.65594712816983
 30
0.0
 11
-604.00000000000364
 21
-814.65594712816983
 31
0.0
  0
TEXT
  8
SIZE
  6
CONTINUOUS
 62
    30
 10
-784.91771428572122
 20
-789.65594712816983
 30
0.0
 40
64.0
  1
115
 50
0.0
 41
0.9
 51
0.0
  7
STANDARD
 71
     0
 72
     1
 11
-716.08571428572122
 21
-789.65594712816983
 31
0.0
210
0.0
220
0.0
230
1.0
  0
POINT
  8
DEFPOINTS
  6
CONTINUOUS
 62
    30
 10
-616.00000000000364
 20
-370.61035423302661
 30
0.0
  0
POINT
  8
DEFPOINTS
  6
CONTINUOUS
 62
    30
 10
-501.00000000000182
 20
-435.50000000000267
 30
0.0
  0
POINT
  8
DEFPOINTS
  6
CONTINUOUS
 62
    30
 10
-501.00000000000182
 20
-814.65594712816983
 30
0.0
  0
LINE
  8
BASIS
  6
DASHDOT
 62
     6
 10
-564.26549777180207
 20
0.0
 30
0.0
 11
564.26549777180207
 21
0.0
 31
0.0
  0
LINE
  8
BASIS
  6
DASHDOT
 62
     6
 10
-531.5
 20
-488.44444444443798
 30
0.0
 11
-531.5
 21
-386.55555555554753
 31
0.0
  0
LINE
  8
DETAIL
  6
CONTINUOUS
 62
     5
 10
-548.30000030873725
 20
-443.99999937286248
 30
0.0
 11
-548.30000030873725
 21
-455.99999821508572
 31
0.0
  0
ARC
  8
DETAIL
  6
CONTINUOUS
 62
     5
 10
-531.5
 20
-437.49999999999272
 30
0.0
 40
6.4999993728702607
 50
270.0
 51
90.0
  0
LINE
  8
DETAIL
  6
CONTINUOUS
 62
     5
 10
-551.5
 20
-443.99999937286248
 30
0.0
 11
-551.5
 21
-455.99999821508572
 31
0.0
  0
LINE
  8
DETAIL
  6
CONTINUOUS
 62
     5
 10
-551.5
 20
-412.50000241202912
 30
0.0
 11
-551.5
 21
-431.00000062712212
 31
0.0
  0
LINE
  8
DETAIL
  6
CONTINUOUS
 62
     5
 10
-548.30000030873725
 20
-412.50000241202912
 30
0.0
 11
-548.30000030873725
 21
-431.00000062712212
 31
0.0
  0
LINE
  8
DETAIL
  6
CONTINUOUS
 62
     5
 10
-531.5
 20
-443.99999937286248
 30
0.0
 11
-551.5
 21
-443.99999937286248
 31
0.0
  0
LINE
  8
DETAIL
  6
CONTINUOUS
 62
     5
 10
-531.5
 20
-431.00000062712212
 30
0.0
 11
-551.5
 21
-431.00000062712212
 31
0.0
  0
LINE
  8
DETAIL
  6
CONTINUOUS
 62
     5
 10
-508.0
 20
-412.50000241202912
 30
0.0
 11
-551.5
 21
-412.50000241202912
 31
0.0
  0
LINE
  8
DETAIL
  6
CONTINUOUS
 62
     5
 10
-501.49429100547877
 20
-455.99999821508572
 30
0.0
 11
-551.5
 21
-455.99999821508572
 31
0.0
  0
ARC
  8
DETAIL
  6
CONTINUOUS
 62
     5
 10
-498.29429131421972
 20
-443.89999938252458
 30
0.0
 40
3.199999691259265
 50
90.102128197094046
 51
180.00005841965981
  0
LINE
  8
DETAIL
  6
CONTINUOUS
 62
     5
 10
-501.49429100547877
 20
-455.99999821508572
 30
0.0
 11
-501.49429100547877
 21
-435.50000000000267
 31
0.0
  0
ARC
  8
DETAIL
  6
CONTINUOUS
 62
     5
 10
-498.29429131421972
 20
-443.89999938252458
 30
0.0
 40
6.3999993825190602
 50
100.8146641586828
 51
120.0000000000143
  0
LINE
  8
BASIS
  6
DASHDOT
 62
     6
 10
-582.44593151834215
 20
-437.49999999999272
 30
0.0
 11
-480.55406848165791
 21
-437.49999999999272
 31
0.0
  0
LINE
  8
BASIS
  6
DASHDOT
 62
     6
 10
531.5
 20
488.44444444443798
 30
0.0
 11
531.5
 21
386.55555555554753
 31
0.0
  0
LINE
  8
DETAIL
  6
CONTINUOUS
 62
     5
 10
548.30000030873725
 20
443.99999937286248
 30
0.0
 11
548.30000030873725
 21
455.99999821508572
 31
0.0
  0
ARC
  8
DETAIL
  6
CONTINUOUS
 62
     5
 10
531.5
 20
437.49999999999272
 30
0.0
 40
6.4999993728702607
 50
90.0
 51
270.0
  0
LINE
  8
DETAIL
  6
CONTINUOUS
 62
     5
 10
551.5
 20
443.99999937286248
 30
0.0
 11
551.5
 21
455.99999821508572
 31
0.0
  0
LINE
  8
DETAIL
  6
CONTINUOUS
 62
     5
 10
551.5
 20
412.50000241202912
 30
0.0
 11
551.5
 21
431.00000062712212
 31
0.0
  0
LINE
  8
DETAIL
  6
CONTINUOUS
 62
     5
 10
548.30000030873725
 20
412.50000241202912
 30
0.0
 11
548.30000030873725
 21
431.00000062712212
 31
0.0
  0
LINE
  8
DETAIL
  6
CONTINUOUS
 62
     5
 10
531.5
 20
443.99999937286248
 30
0.0
 11
551.5
 21
443.99999937286248
 31
0.0
  0
LINE
  8
DETAIL
  6
CONTINUOUS
 62
     5
 10
531.5
 20
431.00000062712212
 30
0.0
 11
551.5
 21
431.00000062712212
 31
0.0
  0
LINE
  8
DETAIL
  6
CONTINUOUS
 62
     5
 10
508.0
 20
412.50000241202912
 30
0.0
 11
551.5
 21
412.50000241202912
 31
0.0
  0
LINE
  8
DETAIL
  6
CONTINUOUS
 62
     5
 10
501.49429100547877
 20
455.99999821508572
 30
0.0
 11
551.5
 21
455.99999821508572
 31
0.0
  0
ARC
  8
DETAIL
  6
CONTINUOUS
 62
     5
 10
498.29429131421972
 20
443.89999938252458
 30
0.0
 40
3.199999691259265
 50
270.10212819709398
 51
0.0002104591641773
  0
LINE
  8
DETAIL
  6
CONTINUOUS
 62
     5
 10
501.49429100547877
 20
455.99999821508572
 30
0.0
 11
501.49429100547877
 21
435.50000000000267
 31
0.0
  0
ARC
  8
DETAIL
  6
CONTINUOUS
 62
     5
 10
498.29429131421972
 20
443.89999938252458
 30
0.0
 40
6.3999993825190602
 50
280.81466415868277
 51
300.00000000001432
  0
ARC
  8
DETAIL
  6
CONTINUOUS
 62
     5
 10
-498.2866925951339
 20
443.99865019558911
 30
0.0
 40
3.2007320979180571
 50
180.0
 51
180.4462110646335
  0
LINE
  8
BASIS
  6
DASHDOT
 62
     6
 10
582.44593151834215
 20
437.49999999999272
 30
0.0
 11
480.55406848165791
 21
437.49999999999272
 31
0.0
  0
LINE
  8
BASIS
  6
DASHDOT
 62
     6
 10
-531.5
 20
488.44444444443798
 30
0.0
 11
-531.5
 21
386.55555555554753
 31
0.0
  0
LINE
  8
DETAIL
  6
CONTINUOUS
 62
     5
 10
-548.30000030873725
 20
443.99999937286248
 30
0.0
 11
-548.30000030873725
 21
455.99999821508572
 31
0.0
  0
ARC
  8
DETAIL
  6
CONTINUOUS
 62
     5
 10
-531.5
 20
437.49999999999272
 30
0.0
 40
6.4999993728702607
 50
270.0
 51
90.0
  0
LINE
  8
DETAIL
  6
CONTINUOUS
 62
     5
 10
-551.5
 20
443.99999937286248
 30
0.0
 11
-551.5
 21
455.99999821508572
 31
0.0
  0
LINE
  8
DETAIL
  6
CONTINUOUS
 62
     5
 10
-551.5
 20
412.50000241202912
 30
0.0
 11
-551.5
 21
431.00000062712212
 31
0.0
  0
LINE
  8
DETAIL
  6
CONTINUOUS
 62
     5
 10
-548.30000030873725
 20
412.50000241202912
 30
0.0
 11
-548.30000030873725
 21
431.00000062712212
 31
0.0
  0
LINE
  8
DETAIL
  6
CONTINUOUS
 62
     5
 10
-531.5
 20
443.99999937286248
 30
0.0
 11
-551.5
 21
443.99999937286248
 31
0.0
  0
LINE
  8
DETAIL
  6
CONTINUOUS
 62
     5
 10
-531.5
 20
431.00000062712212
 30
0.0
 11
-551.5
 21
431.00000062712212
 31
0.0
  0
LINE
  8
DETAIL
  6
CONTINUOUS
 62
     5
 10
-508.0
 20
412.50000241202912
 30
0.0
 11
-551.5
 21
412.50000241202912
 31
0.0
  0
LINE
  8
DETAIL
  6
CONTINUOUS
 62
     5
 10
-501.49429100547877
 20
455.99999821508572
 30
0.0
 11
-551.5
 21
455.99999821508572
 31
0.0
  0
ARC
  8
DETAIL
  6
CONTINUOUS
 62
     5
 10
-498.29429131421972
 20
443.89999938252458
 30
0.0
 40
3.19999969125938
 50
180.0
 51
269.89787180295809
  0
LINE
  8
DETAIL
  6
CONTINUOUS
 62
     5
 10
-501.49429100547877
 20
455.99999821508572
 30
0.0
 11
-501.49429100547877
 21
435.50000000000267
 31
0.0
  0
ARC
  8
DETAIL
  6
CONTINUOUS
 62
     5
 10
-498.29429131421972
 20
443.89999938252458
 30
0.0
 40
6.3999993825190602
 50
239.9999999999857
 51
259.18533584131711
  0
LINE
  8
BASIS
  6
DASHDOT
 62
     6
 10
-582.44593151834215
 20
437.49999999999272
 30
0.0
 11
-480.55406848165791
 21
437.49999999999272
 31
0.0
  0
LINE
  8
DETAIL
  6
DASHED
 62
     5
 10
-508.78833389234842
 20
425.11035423302661
 30
0.0
 11
-507.99999999999909
 21
425.11035423302661
 31
0.0
  0
LINE
  8
DETAIL
  6
DASHED
 62
     5
 10
-508.78833389234842
 20
217.11035423302661
 30
0.0
 11
-507.99999999999909
 21
217.11035423302661
 31
0.0
  0
POINT
  8
ARRANGE
  6
CONTINUOUS
 62
     1
 10
0.0
 20
0.0
 30
0.0
 50
270.0
  0
CIRCLE
  8
ARRANGE
  6
CONTINUOUS
 62
     1
 10
0.0
 20
0.0
 30
0.0
 40
40.0
  0
CIRCLE
  8
FIX
  6
CONTINUOUS
 62
    11
 10
531.5
 20
-437.49999999999272
 30
0.0
 40
6.5
  0
CIRCLE
  8
FIX
  6
CONTINUOUS
 62
    11
 10
531.5
 20
437.49999999999272
 30
0.0
 40
6.5
  0
CIRCLE
  8
FIX
  6
CONTINUOUS
 62
    11
 10
-531.5
 20
437.49999999999272
 30
0.0
 40
6.5
  0
CIRCLE
  8
FIX
  6
CONTINUOUS
 62
    11
 10
-531.5
 20
-437.49999999999272
 30
0.0
 40
6.5
  0
TEXT
  8
SERVICESPACE
  6
DASHDOT
 62
     2
 10
-982.67337644692725
 20
-29.478045344358179
 30
0.0
 40
64.0
  1
ì_åüå˚
 41
0.9
  0
TEXT
  8
NOTE
  6
CONTINUOUS
 62
     4
 10
-424.51144963023489
 20
-610.63789134151921
 30
0.0
 40
64.0
  1
SA
 41
0.9
  0
TEXT
  8
NOTE
  6
CONTINUOUS
 62
     4
 10
319.74643401785488
 20
-608.26931058714945
 30
0.0
 40
64.0
  1
RA
 41
0.9
  0
TEXT
  8
NOTE
  6
CONTINUOUS
 62
     4
 10
-426.07721806166319
 20
542.55545120751958
 30
0.0
 40
64.0
  1
OA
 41
0.9
  0
TEXT
  8
NOTE
  6
CONTINUOUS
 62
     4
 10
329.34826307071398
 20
538.79510521904922
 30
0.0
 40
64.0
  1
EA
 41
0.9
  0
ARC
  8
OUTLINE
  6
CONTINUOUS
 62
     3
 10
-498.28669259861493
 20
-443.99865019538663
 30
0.0
 40
3.2007320944344428
 50
179.55378893852458
 51
180.0
  0
ARC
  8
OUTLINE
  6
CONTINUOUS
 62
     3
 10
-519.50294372600081
 20
-176.50000000000071
 30
0.0
 40
2.3999999999961945
 50
165.49831185344271
 51
270.0
  0
LINE
  8
OUTLINE
  6
CONTINUOUS
 62
     3
 10
-519.5029437259991
 20
-178.89999999999691
 30
0.0
 11
-508.00000000000091
 21
-178.89999999999691
 31
0.0
  0
LINE
  8
OUTLINE
  6
CONTINUOUS
 62
     3
 10
-508.00000000000091
 20
-178.89999999999691
 30
0.0
 11
-508.00000000000091
 21
-200.2103542330178
 31
0.0
  0
LINE
  8
OUTLINE
  6
CONTINUOUS
 62
     3
 10
-508.00000000000091
 20
-200.2103542330178
 30
0.0
 11
-615.400000000006
 21
-200.21035423302959
 31
0.0
  0
ARC
  8
OUTLINE
  6
CONTINUOUS
 62
     3
 10
-615.40000000000646
 20
-201.41035423302989
 30
0.0
 40
1.2000000000003066
 50
90.0
 51
180.0
  0
LINE
  8
OUTLINE
  6
CONTINUOUS
 62
     3
 10
-616.60000000000673
 20
-201.41035423302949
 30
0.0
 11
-616.60000000000673
 21
-212.81035423302359
 31
0.0
  0
LINE
  8
OUTLINE
  6
CONTINUOUS
 62
     3
 10
-616.60000000000673
 20
-212.81035423302359
 30
0.0
 11
-616.00000000000455
 21
-212.81035423302359
 31
0.0
  0
LINE
  8
OUTLINE
  6
CONTINUOUS
 62
     3
 10
-616.00000000000455
 20
-212.81035423302359
 30
0.0
 11
-616.00000000000455
 21
-370.61035423302661
 31
0.0
  0
LINE
  8
OUTLINE
  6
CONTINUOUS
 62
     3
 10
-616.00000000000455
 20
-370.61035423302661
 30
0.0
 11
-615.400000000006
 21
-370.61035423302661
 31
0.0
  0
LINE
  8
OUTLINE
  6
CONTINUOUS
 62
     3
 10
-615.400000000006
 20
-370.61035423302661
 30
0.0
 11
-615.400000000006
 21
-373.01035423302068
 31
0.0
  0
ARC
  8
OUTLINE
  6
CONTINUOUS
 62
     3
 10
-613.80000000000371
 20
-373.01035423302432
 30
0.0
 40
1.6000000000023173
 50
180.0
 51
270.0
  0
LINE
  8
OUTLINE
  6
CONTINUOUS
 62
     3
 10
-613.80000000000746
 20
-374.61035423302661
 30
0.0
 11
-613.400000000006
 21
-374.61035423302661
 31
0.0
  0
LINE
  8
OUTLINE
  6
CONTINUOUS
 62
     3
 10
-613.400000000006
 20
-374.61035423302661
 30
0.0
 11
-613.28638976158345
 21
-381.11908043624499
 31
0.0
  0
ARC
  8
OUTLINE
  6
CONTINUOUS
 62
     3
 10
-612.78646591400445
 20
-381.11035423302587
 30
0.0
 40
0.5000000000007623
 50
181.0000000000523
 51
270.0
  0
LINE
  8
OUTLINE
  6
CONTINUOUS
 62
     3
 10
-612.78646591400411
 20
-381.61035423302661
 30
0.0
 11
-580.01353408600789
 21
-381.61035423302661
 31
0.0
  0
ARC
  8
OUTLINE
  6
CONTINUOUS
 62
     3
 10
-580.01353408590535
 20
-381.11035423320266
 30
0.0
 40
0.4999999998239416
 50
270.0
 51
358.99999998826479
  0
LINE
  8
OUTLINE
  6
CONTINUOUS
 62
     3
 10
-579.51361023850495
 20
-381.11908043652062
 30
0.0
 11
-579.40000000000236
 21
-374.61035423302661
 31
0.0
  0
LINE
  8
OUTLINE
  6
CONTINUOUS
 62
     3
 10
-579.40000000000236
 20
-374.61035423302661
 30
0.0
 11
-558.18888888889069
 21
-374.61035423302383
 31
0.0
  0
ARC
  8
OUTLINE
  6
CONTINUOUS
 62
     3
 10
-558.18888888889126
 20
-375.81035423302404
 30
0.0
 40
1.2000000000002096
 50
90.0
 51
180.0
  0
LINE
  8
OUTLINE
  6
CONTINUOUS
 62
     3
 10
-559.38888888889142
 20
-375.81035423302359
 30
0.0
 11
-559.38888888889142
 21
-383.11035423302661
 31
0.0
  0
LINE
  8
OUTLINE
  6
CONTINUOUS
 62
     3
 10
-559.38888888889142
 20
-383.11035423302661
 30
0.0
 11
-558.78888888889287
 21
-383.11035423302661
 31
0.0
  0
LINE
  8
OUTLINE
  6
CONTINUOUS
 62
     3
 10
-558.78888888889287
 20
-383.11035423302661
 30
0.0
 11
-558.78888888889287
 21
-381.31035423166668
 31
0.0
  0
ARC
  8
OUTLINE
  6
CONTINUOUS
 62
     3
 10
-558.18888888889046
 20
-381.31035423302023
 30
0.0
 40
0.6000000000024337
 50
90.0
 51
180.0
  0
LINE
  8
OUTLINE
  6
CONTINUOUS
 62
     3
 10
-558.18888888889433
 20
-380.71035423301782
 30
0.0
 11
-551.75873736989251
 21
-380.71035423302061
 31
0.0
  0
ARC
  8
OUTLINE
  6
CONTINUOUS
 62
     3
 10
-551.75873736975916
 20
-379.51035423296753
 30
0.0
 40
1.2000000000530917
 50
270.0
 51
314.99999999358045
  0
LINE
  8
OUTLINE
  6
CONTINUOUS
 62
     3
 10
-550.91020923239284
 20
-380.35888237052399
 30
0.0
 11
-550.02528499195705
 21
-379.47395812994358
 31
0.0
  0
ARC
  8
OUTLINE
  6
CONTINUOUS
 62
     3
 10
-549.38888888896554
 20
-380.11035423301945
 30
0.0
 40
0.8999999999516227
 50
44.999999996343377
 51
134.99999999620263
  0
LINE
  8
OUTLINE
  6
CONTINUOUS
 62
     3
 10
-548.75249278589126
 20
-379.4739581300264
 30
0.0
 11
-547.86756854531723
 21
-380.35888237044583
 31
0.0
  0
ARC
  8
OUTLINE
  6
CONTINUOUS
 62
     3
 10
-547.01904040789782
 20
-379.51035423301857
 30
0.0
 40
1.1999999999992657
 50
225.00000000026489
 51
270.0
  0
LINE
  8
OUTLINE
  6
CONTINUOUS
 62
     3
 10
-547.01904040789395
 20
-380.71035423301782
 30
0.0
 11
-540.58888888889214
 21
-380.71035423302328
 31
0.0
  0
ARC
  8
OUTLINE
  6
CONTINUOUS
 62
     3
 10
-540.58888888889146
 20
-381.31035423302473
 30
0.0
 40
0.6000000000014633
 50
0.0
 51
90.0
  0
LINE
  8
OUTLINE
  6
CONTINUOUS
 62
     3
 10
-539.98888888888996
 20
-381.31035423302359
 30
0.0
 11
-539.98888888888996
 21
-383.11035423302661
 31
0.0
  0
LINE
  8
OUTLINE
  6
CONTINUOUS
 62
     3
 10
-539.98888888888996
 20
-383.11035423302661
 30
0.0
 11
-539.38888888889142
 21
-383.11035423302661
 31
0.0
  0
LINE
  8
OUTLINE
  6
CONTINUOUS
 62
     3
 10
-539.38888888889142
 20
-383.11035423302661
 30
0.0
 11
-539.38888888889142
 21
-375.81035423302359
 31
0.0
  0
ARC
  8
OUTLINE
  6
CONTINUOUS
 62
     3
 10
-540.58888888889021
 20
-375.81035423302535
 30
0.0
 40
1.1999999999987541
 50
0.0
 51
90.0
  0
LINE
  8
OUTLINE
  6
CONTINUOUS
 62
     3
 10
-540.58888888889214
 20
-374.61035423302661
 30
0.0
 11
-508.00000000000091
 21
-374.61035423302661
 31
0.0
  0
LINE
  8
OUTLINE
  6
CONTINUOUS
 62
     3
 10
-508.00000000000091
 20
-374.61035423302661
 30
0.0
 11
-508.00000000000091
 21
-412.50000241202912
 31
0.0
  0
LINE
  8
OUTLINE
  6
CONTINUOUS
 62
     3
 10
-508.00000000000091
 20
-412.50000241202912
 30
0.0
 11
-551.50000000000091
 21
-412.50000241202912
 31
0.0
  0
LINE
  8
OUTLINE
  6
CONTINUOUS
 62
     3
 10
-551.50000000000091
 20
-412.50000241202912
 30
0.0
 11
-551.50000000000091
 21
-431.00000062712212
 31
0.0
  0
LINE
  8
OUTLINE
  6
CONTINUOUS
 62
     3
 10
-551.50000000000091
 20
-431.00000062712212
 30
0.0
 11
-531.50000000000091
 21
-431.00000062712212
 31
0.0
  0
ARC
  8
OUTLINE
  6
CONTINUOUS
 62
     3
 10
-531.50000000000091
 20
-437.49999999999227
 30
0.0
 40
6.4999993728701781
 50
270.0
 51
90.0
  0
LINE
  8
OUTLINE
  6
CONTINUOUS
 62
     3
 10
-531.50000000000091
 20
-443.99999937286248
 30
0.0
 11
-551.50000000000091
 21
-443.99999937286248
 31
0.0
  0
LINE
  8
OUTLINE
  6
CONTINUOUS
 62
     3
 10
-551.50000000000091
 20
-443.99999937286248
 30
0.0
 11
-551.50000000000091
 21
-455.99999821508572
 31
0.0
  0
LINE
  8
OUTLINE
  6
CONTINUOUS
 62
     3
 10
-551.50000000000091
 20
-455.99999821508572
 30
0.0
 11
-501.49429100547877
 21
-455.99999821508572
 31
0.0
  0
LINE
  8
OUTLINE
  6
CONTINUOUS
 62
     3
 10
-501.49429100547877
 20
-455.99999821508572
 30
0.0
 11
-501.49429100547877
 21
-443.89999938252458
 31
0.0
  0
LINE
  8
OUTLINE
  6
CONTINUOUS
 62
     3
 10
468.5132248512009
 20
513.78555802953724
 30
0.0
 11
476.49999679565639
 21
444.78833389234478
 31
0.0
  0
LINE
  8
OUTLINE
  6
CONTINUOUS
 62
     3
 10
476.49999679565639
 20
444.78833389234478
 30
0.0
 11
476.49999679565639
 21
444.00000000000267
 31
0.0
  0
LINE
  8
OUTLINE
  6
CONTINUOUS
 62
     3
 10
476.49999679565639
 20
444.00000000000267
 30
0.0
 11
494.99999999999909
 21
444.00000000000267
 31
0.0
  0
LINE
  8
OUTLINE
  6
CONTINUOUS
 62
     3
 10
494.99999999999909
 20
444.00000000000267
 30
0.0
 11
498.29999522520569
 21
440.70000477480153
 31
0.0
  0
ARC
  8
OUTLINE
  6
CONTINUOUS
 62
     3
 10
498.29429131422171
 20
443.89999938252436
 30
0.0
 40
3.1999996912587094
 50
270.10212819709034
 51
0.000210459148434
  0
ARC
  8
OUTLINE
  6
CONTINUOUS
 62
     3
 10
-498.29429131421909
 20
-443.89999938252413
 30
0.0
 40
3.1999996912576383
 50
131.40963255606209
 51
180.0
  0
LINE
  8
OUTLINE
  6
CONTINUOUS
 62
     3
 10
-500.41089259645099
 20
-441.50000000000267
 30
0.0
 11
-499.50000000000091
 21
-441.50000000000267
 31
0.0
  0
LINE
  8
OUTLINE
  6
CONTINUOUS
 62
     3
 10
-499.50000000000091
 20
-441.50000000000267
 30
0.0
 11
-499.50000000000091
 21
-440.93583599480638
 31
0.0
  0
ARC
  8
OUTLINE
  6
CONTINUOUS
 62
     3
 10
-498.29429131422006
 20
-443.89999938252299
 30
0.0
 40
3.1999996912573287
 50
90.102128197087325
 51
112.13461796320826
  0
LINE
  8
OUTLINE
  6
CONTINUOUS
 62
     3
 10
-498.29999522520387
 20
-440.70000477480153
 30
0.0
 11
-495.00000000000091
 21
-444.00000000000267
 31
0.0
  0
LINE
  8
OUTLINE
  6
CONTINUOUS
 62
     3
 10
-495.00000000000091
 20
-444.00000000000267
 30
0.0
 11
-476.50000000000091
 21
-444.00000000000267
 31
0.0
  0
LINE
  8
OUTLINE
  6
CONTINUOUS
 62
     3
 10
-476.50000000000091
 20
-444.00000000000267
 30
0.0
 11
-476.50000000125237
 21
-445.50000000000267
 31
0.0
  0
LINE
  8
OUTLINE
  6
CONTINUOUS
 62
     3
 10
-476.50000000125237
 20
-445.50000000000267
 30
0.0
 11
-468.50000000000091
 21
-514.40000000000236
 31
0.0
  0
LINE
  8
OUTLINE
  6
CONTINUOUS
 62
     3
 10
-468.50000000000091
 20
-514.40000000000236
 30
0.0
 11
-468.49999999999733
 21
-521.90000000000236
 31
0.0
  0
ARC
  8
OUTLINE
  6
CONTINUOUS
 62
     3
 10
-467.40000000000236
 20
-521.89999999999873
 30
0.0
 40
1.0999999999949521
 50
180.0
 51
270.0
  0
LINE
  8
OUTLINE
  6
CONTINUOUS
 62
     3
 10
-467.39999999999873
 20
-522.99999999999363
 30
0.0
 11
-277.59999999999951
 21
-523.00000000000273
 31
0.0
  0
ARC
  8
OUTLINE
  6
CONTINUOUS
 62
     3
 10
-277.60000000000042
 20
-521.90000000000316
 30
0.0
 40
1.0999999999995127
 50
270.0
 51
0.0
  0
LINE
  8
OUTLINE
  6
CONTINUOUS
 62
     3
 10
-276.50000000000091
 20
-521.90000000000236
 30
0.0
 11
-276.50000000000091
 21
-514.40000000000236
 31
0.0
  0
LINE
  8
OUTLINE
  6
CONTINUOUS
 62
     3
 10
-276.50000000000091
 20
-514.40000000000236
 30
0.0
 11
-268.50000000000091
 21
-445.50000000000267
 31
0.0
  0
LINE
  8
OUTLINE
  6
CONTINUOUS
 62
     3
 10
-268.50000000000091
 20
-445.50000000000267
 30
0.0
 11
-268.50000000000091
 21
-444.00000000000267
 31
0.0
  0
LINE
  8
OUTLINE
  6
CONTINUOUS
 62
     3
 10
-268.50000000000091
 20
-444.00000000000267
 30
0.0
 11
268.49999999999909
 21
-444.00000000000267
 31
0.0
  0
LINE
  8
OUTLINE
  6
CONTINUOUS
 62
     3
 10
268.49999999999909
 20
-444.00000000000267
 30
0.0
 11
268.49999999999909
 21
-445.50000000000267
 31
0.0
  0
LINE
  8
OUTLINE
  6
CONTINUOUS
 62
     3
 10
268.49999999999909
 20
-445.50000000000267
 30
0.0
 11
276.49999999999909
 21
-514.40000000000236
 31
0.0
  0
LINE
  8
OUTLINE
  6
CONTINUOUS
 62
     3
 10
276.49999999999909
 20
-514.40000000000236
 30
0.0
 11
276.49999999999909
 21
-521.90000000000236
 31
0.0
  0
ARC
  8
OUTLINE
  6
CONTINUOUS
 62
     3
 10
277.5999999999957
 20
-521.89999999999702
 30
0.0
 40
1.0999999999966017
 50
180.0
 51
270.0
  0
LINE
  8
OUTLINE
  6
CONTINUOUS
 62
     3
 10
277.60000000000127
 20
-522.99999999999363
 30
0.0
 11
467.40000000000049
 21
-523.00000000000273
 31
0.0
  0
ARC
  8
OUTLINE
  6
CONTINUOUS
 62
     3
 10
467.39999999999958
 20
-521.90000000000316
 30
0.0
 40
1.0999999999995127
 50
270.0
 51
0.0
  0
LINE
  8
OUTLINE
  6
CONTINUOUS
 62
     3
 10
468.49999999999909
 20
-521.90000000000236
 30
0.0
 11
468.49999999999909
 21
-514.40000000000236
 31
0.0
  0
LINE
  8
OUTLINE
  6
CONTINUOUS
 62
     3
 10
468.49999999999909
 20
-514.40000000000236
 30
0.0
 11
476.50000000000267
 21
-445.50000000000267
 31
0.0
  0
LINE
  8
OUTLINE
  6
CONTINUOUS
 62
     3
 10
476.50000000000267
 20
-445.50000000000267
 30
0.0
 11
476.50000000000267
 21
-444.00000000000267
 31
0.0
  0
LINE
  8
OUTLINE
  6
CONTINUOUS
 62
     3
 10
476.50000000000267
 20
-444.00000000000267
 30
0.0
 11
494.99999999999909
 21
-444.00000000000267
 31
0.0
  0
LINE
  8
OUTLINE
  6
CONTINUOUS
 62
     3
 10
494.99999999999909
 20
-444.00000000000267
 30
0.0
 11
498.29999522520211
 21
-440.70000477480062
 31
0.0
  0
ARC
  8
OUTLINE
  6
CONTINUOUS
 62
     3
 10
498.29429131422012
 20
-443.89999938252333
 30
0.0
 40
3.1999996912585482
 50
67.865382036836991
 51
89.897871802945247
  0
LINE
  8
OUTLINE
  6
CONTINUOUS
 62
     3
 10
499.49999999999909
 20
-440.93583599480462
 30
0.0
 11
499.49999999999909
 21
-441.50000000000267
 31
0.0
  0
LINE
  8
OUTLINE
  6
CONTINUOUS
 62
     3
 10
499.49999999999909
 20
-441.50000000000267
 30
0.0
 11
500.41089259645292
 21
-441.50000000000182
 31
0.0
  0
ARC
  8
OUTLINE
  6
CONTINUOUS
 62
     3
 10
498.29429131422006
 20
-443.89999938252623
 30
0.0
 40
3.1999996912605102
 50
0.0
 51
48.590367443959906
  0
LINE
  8
OUTLINE
  6
CONTINUOUS
 62
     3
 10
501.49429100548059
 20
-443.89999938252458
 30
0.0
 11
501.49429100548059
 21
-455.99999821508572
 31
0.0
  0
LINE
  8
OUTLINE
  6
CONTINUOUS
 62
     3
 10
501.49429100548059
 20
-455.99999821508572
 30
0.0
 11
551.49999999999909
 21
-455.99999821508572
 31
0.0
  0
LINE
  8
OUTLINE
  6
CONTINUOUS
 62
     3
 10
551.49999999999909
 20
-455.99999821508572
 30
0.0
 11
551.49999999999909
 21
-443.99999937286248
 31
0.0
  0
LINE
  8
OUTLINE
  6
CONTINUOUS
 62
     3
 10
551.49999999999909
 20
-443.99999937286248
 30
0.0
 11
531.49999999999909
 21
-443.99999937286339
 31
0.0
  0
ARC
  8
OUTLINE
  6
CONTINUOUS
 62
     3
 10
531.49999999999909
 20
-437.49999999999278
 30
0.0
 40
6.499999372870632
 50
90.0
 51
270.0
  0
LINE
  8
OUTLINE
  6
CONTINUOUS
 62
     3
 10
531.49999999999909
 20
-431.00000062712212
 30
0.0
 11
551.49999999999909
 21
-431.00000062712212
 31
0.0
  0
LINE
  8
OUTLINE
  6
CONTINUOUS
 62
     3
 10
551.49999999999909
 20
-431.00000062712212
 30
0.0
 11
551.49999999999909
 21
-412.50000241202912
 31
0.0
  0
LINE
  8
OUTLINE
  6
CONTINUOUS
 62
     3
 10
551.49999999999909
 20
-412.50000241202912
 30
0.0
 11
507.99999999999909
 21
-412.50000241202912
 31
0.0
  0
LINE
  8
OUTLINE
  6
CONTINUOUS
 62
     3
 10
507.99999999999909
 20
-412.50000241202912
 30
0.0
 11
507.99999999999909
 21
412.50000241202912
 31
0.0
  0
LINE
  8
OUTLINE
  6
CONTINUOUS
 62
     3
 10
507.99999999999909
 20
412.50000241202912
 30
0.0
 11
551.49999999999909
 21
412.50000241202912
 31
0.0
  0
LINE
  8
OUTLINE
  6
CONTINUOUS
 62
     3
 10
551.49999999999909
 20
412.50000241202912
 30
0.0
 11
551.49999999999909
 21
431.00000062712212
 31
0.0
  0
LINE
  8
OUTLINE
  6
CONTINUOUS
 62
     3
 10
551.49999999999909
 20
431.00000062712212
 30
0.0
 11
531.49999999999909
 21
431.00000062712212
 31
0.0
  0
ARC
  8
OUTLINE
  6
CONTINUOUS
 62
     3
 10
531.49999999999909
 20
437.49999999999227
 30
0.0
 40
6.4999993728701781
 50
90.0
 51
270.0
  0
LINE
  8
OUTLINE
  6
CONTINUOUS
 62
     3
 10
531.49999999999909
 20
443.99999937286248
 30
0.0
 11
551.49999999999909
 21
443.99999937286248
 31
0.0
  0
LINE
  8
OUTLINE
  6
CONTINUOUS
 62
     3
 10
551.49999999999909
 20
443.99999937286248
 30
0.0
 11
551.49999999999909
 21
455.99999821508572
 31
0.0
  0
LINE
  8
OUTLINE
  6
CONTINUOUS
 62
     3
 10
551.49999999999909
 20
455.99999821508572
 30
0.0
 11
501.49429100548059
 21
455.99999821508572
 31
0.0
  0
LINE
  8
OUTLINE
  6
CONTINUOUS
 62
     3
 10
501.49429100548059
 20
455.99999821508572
 30
0.0
 11
501.49429100548059
 21
443.89999938252458
 31
0.0
  0
ARC
  8
OUTLINE
  6
CONTINUOUS
 62
     3
 10
-498.28669259841058
 20
443.99865019538657
 30
0.0
 40
3.2007320946388136
 50
180.0
 51
180.4462110614611
  0
LINE
  8
OUTLINE
  6
CONTINUOUS
 62
     3
 10
-521.82673373372108
 20
-175.89999999999691
 30
0.0
 11
-538.00000000000091
 21
-175.89999999999691
 31
0.0
  0
LINE
  8
OUTLINE
  6
CONTINUOUS
 62
     3
 10
-538.00000000000091
 20
-175.89999999999691
 30
0.0
 11
-538.00000000000091
 21
-174.69999999999979
 31
0.0
  0
LINE
  8
OUTLINE
  6
CONTINUOUS
 62
     3
 10
-538.00000000000091
 20
-174.69999999999979
 30
0.0
 11
-521.09686600999794
 21
-174.69999999999979
 31
0.0
  0
LINE
  8
OUTLINE
  6
CONTINUOUS
 62
     3
 10
-521.09686600999794
 20
-174.69999999999979
 30
0.0
 11
-515.53526367399991
 21
-169.14873704800539
 31
0.0
  0
LINE
  8
OUTLINE
  6
CONTINUOUS
 62
     3
 10
-515.53526367399991
 20
-169.14873704800539
 30
0.0
 11
-514.68752537199998
 21
-169.99805428600209
 31
0.0
  0
LINE
  8
OUTLINE
  6
CONTINUOUS
 62
     3
 10
-514.68752537199998
 20
-169.99805428600209
 30
0.0
 11
-519.39822859200012
 21
-174.69999999999979
 31
0.0
  0
LINE
  8
OUTLINE
  6
CONTINUOUS
 62
     3
 10
-519.39822859200012
 20
-174.69999999999979
 30
0.0
 11
-508.00000000000091
 21
-174.69999999999979
 31
0.0
  0
LINE
  8
OUTLINE
  6
CONTINUOUS
 62
     3
 10
-508.00000000000091
 20
-174.69999999999979
 30
0.0
 11
-508.00000000000091
 21
-159.5000000000027
 31
0.0
  0
LINE
  8
OUTLINE
  6
CONTINUOUS
 62
     3
 10
-508.00000000000091
 20
-159.5000000000027
 30
0.0
 11
-520.90000000000236
 21
-159.50000000000551
 31
0.0
  0
ARC
  8
OUTLINE
  6
CONTINUOUS
 62
     3
 10
-520.90000000000089
 20
-158.30000000000695
 30
0.0
 40
1.19999999999856
 50
180.0
 51
270.0
  0
LINE
  8
OUTLINE
  6
CONTINUOUS
 62
     3
 10
-522.09999999999945
 20
-158.30000000000561
 30
0.0
 11
-522.10000000000309
 21
158.30000000000561
 31
0.0
  0
ARC
  8
OUTLINE
  6
CONTINUOUS
 62
     3
 10
-520.9000000000043
 20
158.30000000000385
 30
0.0
 40
1.1999999999988513
 50
90.0
 51
180.0
  0
LINE
  8
OUTLINE
  6
CONTINUOUS
 62
     3
 10
-520.90000000000236
 20
159.5000000000027
 30
0.0
 11
-508.00000000000091
 21
159.5000000000027
 31
0.0
  0
LINE
  8
OUTLINE
  6
CONTINUOUS
 62
     3
 10
-508.00000000000091
 20
159.5000000000027
 30
0.0
 11
-508.00000000000091
 21
174.69999999999979
 31
0.0
  0
LINE
  8
OUTLINE
  6
CONTINUOUS
 62
     3
 10
-508.00000000000091
 20
174.69999999999979
 30
0.0
 11
-536.12679491999825
 21
174.69999999999979
 31
0.0
  0
LINE
  8
OUTLINE
  6
CONTINUOUS
 62
     3
 10
-536.12679491999825
 20
174.69999999999979
 30
0.0
 11
-530.28260600962039
 21
164.57756787999011
 31
0.0
  0
ARC
  8
OUTLINE
  6
CONTINUOUS
 62
     3
 10
-533.5735025441877
 20
162.67756788032176
 30
0.0
 40
3.7999999999956762
 50
329.9999999943268
 51
29.999999994263817
  0
LINE
  8
OUTLINE
  6
CONTINUOUS
 62
     3
 10
-530.28260600999874
 20
160.77756787999809
 30
0.0
 11
-541.13564064583716
 21
141.9795604739993
 31
0.0
  0
ARC
  8
OUTLINE
  6
CONTINUOUS
 62
     3
 10
-542.0882685899187
 20
142.52956047399985
 30
0.0
 40
1.0999999999298822
 50
149.99999999784774
 51
329.99999999785678
  0
LINE
  8
OUTLINE
  6
CONTINUOUS
 62
     3
 10
-543.04089653400024
 20
143.0795604740006
 30
0.0
 11
-532.18786189794355
 21
161.87756787999211
 31
0.0
  0
ARC
  8
OUTLINE
  6
CONTINUOUS
 62
     3
 10
-533.57350254403207
 20
162.67756787994634
 30
0.0
 40
1.6000000000060977
 50
330.00000000201794
 51
30.000000001890726
  0
LINE
  8
OUTLINE
  6
CONTINUOUS
 62
     3
 10
-532.18786189799812
 20
163.47756787999509
 30
0.0
 11
-539.5908965343815
 21
176.30000000000109
 31
0.0
  0
ARC
  8
OUTLINE
  6
CONTINUOUS
 62
     3
 10
-536.29999999999905
 20
178.20000000000127
 30
0.0
 40
3.8000000000014307
 50
90.0
 51
209.99999999999034
  0
LINE
  8
OUTLINE
  6
CONTINUOUS
 62
     3
 10
-536.30000000000018
 20
182.0000000000027
 30
0.0
 11
-508.00000000000091
 21
182.0000000000027
 31
0.0
  0
LINE
  8
OUTLINE
  6
CONTINUOUS
 62
     3
 10
-508.00000000000091
 20
182.0000000000027
 30
0.0
 11
-508.00000000000091
 21
412.50000241202912
 31
0.0
  0
LINE
  8
OUTLINE
  6
CONTINUOUS
 62
     3
 10
-508.00000000000091
 20
412.50000241202912
 30
0.0
 11
-551.50000000000091
 21
412.50000241202912
 31
0.0
  0
LINE
  8
OUTLINE
  6
CONTINUOUS
 62
     3
 10
-551.50000000000091
 20
412.50000241202912
 30
0.0
 11
-551.50000000000091
 21
431.00000062712212
 31
0.0
  0
LINE
  8
OUTLINE
  6
CONTINUOUS
 62
     3
 10
-551.50000000000091
 20
431.00000062712212
 30
0.0
 11
-531.50000000000091
 21
431.00000062712212
 31
0.0
  0
ARC
  8
OUTLINE
  6
CONTINUOUS
 62
     3
 10
-531.50000000000091
 20
437.49999999999227
 30
0.0
 40
6.4999993728701781
 50
270.0
 51
90.0
  0
LINE
  8
OUTLINE
  6
CONTINUOUS
 62
     3
 10
-531.50000000000091
 20
443.99999937286248
 30
0.0
 11
-551.50000000000091
 21
443.99999937286248
 31
0.0
  0
LINE
  8
OUTLINE
  6
CONTINUOUS
 62
     3
 10
-551.50000000000091
 20
443.99999937286248
 30
0.0
 11
-551.50000000000091
 21
455.99999821508572
 31
0.0
  0
LINE
  8
OUTLINE
  6
CONTINUOUS
 62
     3
 10
-551.50000000000091
 20
455.99999821508572
 30
0.0
 11
-501.49429100547877
 21
455.99999821508572
 31
0.0
  0
LINE
  8
OUTLINE
  6
CONTINUOUS
 62
     3
 10
-501.49429100547877
 20
455.99999821508572
 30
0.0
 11
-501.49429100547877
 21
443.89999938252458
 31
0.0
  0
ARC
  8
OUTLINE
  6
CONTINUOUS
 62
     3
 10
-498.29429131421983
 20
443.89999938252652
 30
0.0
 40
3.1999996912589341
 50
180.0
 51
228.59036744397611
  0
LINE
  8
OUTLINE
  6
CONTINUOUS
 62
     3
 10
-500.41089259645099
 20
441.50000000000267
 30
0.0
 11
-499.50000000000091
 21
441.50000000000267
 31
0.0
  0
LINE
  8
OUTLINE
  6
CONTINUOUS
 62
     3
 10
-499.50000000000091
 20
441.50000000000267
 30
0.0
 11
-499.50000000000091
 21
440.93583599480638
 31
0.0
  0
ARC
  8
OUTLINE
  6
CONTINUOUS
 62
     3
 10
-498.29429131421705
 20
443.89999938252595
 30
0.0
 40
3.1999996912612079
 50
247.86538203676173
 51
269.89787180285884
  0
LINE
  8
OUTLINE
  6
CONTINUOUS
 62
     3
 10
-498.29999522520387
 20
440.70000477480062
 30
0.0
 11
-495.00000000000091
 21
444.00000000000267
 31
0.0
  0
LINE
  8
OUTLINE
  6
CONTINUOUS
 62
     3
 10
-495.00000000000091
 20
444.00000000000267
 30
0.0
 11
-476.50000000000091
 21
444.00000000000267
 31
0.0
  0
LINE
  8
OUTLINE
  6
CONTINUOUS
 62
     3
 10
-476.50000000000091
 20
444.00000000000267
 30
0.0
 11
-476.50000000125237
 21
445.50000000000267
 31
0.0
  0
LINE
  8
OUTLINE
  6
CONTINUOUS
 62
     3
 10
-476.50000000125237
 20
445.50000000000267
 30
0.0
 11
-468.50000000000091
 21
514.40000000000236
 31
0.0
  0
LINE
  8
OUTLINE
  6
CONTINUOUS
 62
     3
 10
-468.50000000000091
 20
514.40000000000236
 30
0.0
 11
-468.49999999999733
 21
521.89999999998781
 31
0.0
  0
ARC
  8
OUTLINE
  6
CONTINUOUS
 62
     3
 10
-467.39999999999498
 20
521.89999999999134
 30
0.0
 40
1.1000000000023267
 50
90.0
 51
180.0
  0
LINE
  8
OUTLINE
  6
CONTINUOUS
 62
     3
 10
-467.39999999999873
 20
522.99999999999363
 30
0.0
 11
-277.59999999999951
 21
522.99999999998727
 31
0.0
  0
ARC
  8
OUTLINE
  6
CONTINUOUS
 62
     3
 10
-277.59999999999985
 20
521.89999999998838
 30
0.0
 40
1.0999999999989303
 50
0.0
 51
90.0
  0
LINE
  8
OUTLINE
  6
CONTINUOUS
 62
     3
 10
-276.50000000000091
 20
521.89999999998781
 30
0.0
 11
-276.50000000000091
 21
514.40000000000236
 31
0.0
  0
LINE
  8
OUTLINE
  6
CONTINUOUS
 62
     3
 10
-276.50000000000091
 20
514.40000000000236
 30
0.0
 11
-268.50000000000091
 21
445.50000000000267
 31
0.0
  0
LINE
  8
OUTLINE
  6
CONTINUOUS
 62
     3
 10
-268.50000000000091
 20
445.50000000000267
 30
0.0
 11
-268.50000000000091
 21
444.00000000000267
 31
0.0
  0
LINE
  8
OUTLINE
  6
CONTINUOUS
 62
     3
 10
-268.50000000000091
 20
444.00000000000267
 30
0.0
 11
268.49999999999909
 21
444.00000000000267
 31
0.0
  0
LINE
  8
OUTLINE
  6
CONTINUOUS
 62
     3
 10
268.49999999999909
 20
444.00000000000267
 30
0.0
 11
268.49999999999909
 21
445.50000000000267
 31
0.0
  0
LINE
  8
OUTLINE
  6
CONTINUOUS
 62
     3
 10
268.49999999999909
 20
445.50000000000267
 30
0.0
 11
276.49999999999909
 21
514.40000000000236
 31
0.0
  0
LINE
  8
OUTLINE
  6
CONTINUOUS
 62
     3
 10
276.49999999999909
 20
514.40000000000236
 30
0.0
 11
276.50000000000267
 21
521.89999999998781
 31
0.0
  0
ARC
  8
OUTLINE
  6
CONTINUOUS
 62
     3
 10
277.60000000000502
 20
521.89999999999134
 30
0.0
 40
1.1000000000023267
 50
90.0
 51
180.0
  0
LINE
  8
OUTLINE
  6
CONTINUOUS
 62
     3
 10
277.60000000000127
 20
522.99999999999363
 30
0.0
 11
467.40000000000049
 21
522.99999999998727
 31
0.0
  0
ARC
  8
OUTLINE
  6
CONTINUOUS
 62
     3
 10
467.40000000000015
 20
521.89999999998838
 30
0.0
 40
1.0999999999989303
 50
0.0
 51
90.0
  0
LINE
  8
OUTLINE
  6
CONTINUOUS
 62
     3
 10
468.49999999999909
 20
521.89999999998781
 30
0.0
 11
468.49999999999909
 21
514.40000000000236
 31
0.0
  0
LINE
  8
OUTLINE
  6
CONTINUOUS
 62
     3
 10
468.49999999999909
 20
514.40000000000236
 30
0.0
 11
473.68056725599939
 21
469.81760742399177
 31
0.0
  0
TEXT
  8
ETC
  6
CONTINUOUS
 62
    61
 10
1438.128306908402
 20
929.21856208817474
 30
0.0
 40
64.0
  1
LGH-N50RXW3_1
 41
0.9
  0
TEXT
  8
ETC
  6
CONTINUOUS
 62
    61
 10
1433.942312908403
 20
811.26325207334378
 30
0.0
 40
64.0
  1
ÉçÉXÉiÉC
 41
0.9
  0
TEXT
  8
ETC
  6
CONTINUOUS
 62
    61
 10
1484.643711156958
 20
703.11447918711895
 30
0.0
 40
40.0
  1
LGH-N50RXW3
 50
0.0
 41
0.9
 51
0.0
  7
STANDARD
 71
     0
 11
0.0
 21
0.0
 31
0.0
210
0.0
220
0.0
230
1.0
  0
TEXT
  8
ETC
  6
CONTINUOUS
 62
    61
 10
1484.643711156958
 20
637.11447918711895
 30
0.0
 40
40.0
  1
LGH-N50RXW3-C
 50
0.0
 41
0.9
 51
0.0
  7
STANDARD
 71
     0
 11
0.0
 21
0.0
 31
0.0
210
0.0
220
0.0
230
1.0
  0
TEXT
  8
NOTE
  6
CONTINUOUS
 62
     4
 10
661.24103615687272
 20
775.80699902978449
 30
0.0
 40
69.0
  1
%%uAH 4-É”13Å~20
 50
0.0
 41
0.9
 51
0.0
  7
STANDARD
 71
     0
 11
0.0
 21
0.0
 31
0.0
210
0.0
220
0.0
230
1.0
  0
LINE
  8
NOTE
  6
CONTINUOUS
 62
     4
 10
661.24103615687272
 20
762.0069990297834
 30
0.0
 11
1311.8124647283009
 21
762.0069990297834
 31
0.0
  0
LINE
  8
NOTE
  6
CONTINUOUS
 62
     4
 10
551.59641630753049
 20
467.65104682521797
 30
0.0
 11
531.5
 21
437.49999999999272
 31
0.0
  0
LINE
  8
NOTE
  6
CONTINUOUS
 62
     4
 10
531.5
 20
437.49999999999272
 30
0.0
 11
533.82842914397895
 21
473.65978416394989
 31
0.0
  0
LINE
  8
NOTE
  6
CONTINUOUS
 62
     4
 10
531.5
 20
437.49999999999272
 30
0.0
 11
553.92484545150944
 21
503.81083098917514
 31
0.0
  0
LINE
  8
NOTE
  6
CONTINUOUS
 62
     4
 10
553.92484545150933
 20
503.8108309891752
 30
0.0
 11
641.24103615687272
 21
762.0069990297834
 31
0.0
  0
LINE
  8
NOTE
  6
CONTINUOUS
 62
     4
 10
641.24103615687272
 20
762.0069990297834
 30
0.0
 11
661.24103615687272
 21
762.0069990297834
 31
0.0
  0
TEXT
  8
NOTE
  6
CONTINUOUS
 62
     4
 10
-906.92635605775763
 20
-546.15722760884
 30
0.0
 40
69.0
  1
%%uEL
 50
0.0
 41
0.9
 51
0.0
  7
STANDARD
 71
     0
 72
     2
 11
-797.63035605775758
 21
-546.15722760884
 31
0.0
210
0.0
220
0.0
230
1.0
  0
LINE
  8
NOTE
  6
CONTINUOUS
 62
     4
 10
-797.63035605775758
 20
-559.95722760884018
 30
0.0
 11
-889.30178462918616
 21
-559.95722760884018
 31
0.0
  0
LINE
  8
NOTE
  6
CONTINUOUS
 62
     4
 10
-627.92443231706704
 20
-399.47545261364644
 30
0.0
 11
-596.400000000001
 21
-381.61035423302661
 31
0.0
  0
LINE
  8
NOTE
  6
CONTINUOUS
 62
     4
 10
-596.400000000001
 20
-381.61035423302661
 30
0.0
 11
-614.76836296848512
 21
-412.84422711040958
 31
0.0
  0
LINE
  8
NOTE
  6
CONTINUOUS
 62
     4
 10
-596.400000000001
 20
-381.61035423302661
 30
0.0
 11
-646.29279528555116
 21
-430.7093254910294
 31
0.0
  0
LINE
  8
NOTE
  6
CONTINUOUS
 62
     4
 10
-646.29279528555116
 20
-430.70932549102929
 30
0.0
 11
-777.63035605775758
 21
-559.95722760884018
 31
0.0
  0
LINE
  8
NOTE
  6
CONTINUOUS
 62
     4
 10
-777.63035605775758
 20
-559.95722760884018
 30
0.0
 11
-797.63035605775758
 21
-559.95722760884018
 31
0.0
  0
ENDSEC
  0
EOF
