  0
SECTION
  2
HEADER
  9
$ACADVER
  1
AC1012
  9
$DWGCODEPAGE
  3
dos932
  9
$ANGBASE
 50
0.0
  9
$ANGDIR
 70
     0
  9
$ATTMODE
 70
     1
  9
$AUNITS
 70
     0
  9
$AUPREC
 70
     0
  9
$CECOLOR
 62
   256
  9
$CELTSCALE
 40
1.0
  9
$CELTYPE
  6
ByLayer
  9
$CHAMFERA
 40
0.0
  9
$CHAMFERB
 40
0.0
  9
$CHAMFERC
 40
0.0
  9
$CHAMFERD
 40
0.0
  9
$CLAYER
  8
SIZE
  9
$CMLJUST
 70
     0
  9
$CMLSCALE
 40
1.0
  9
$CMLSTYLE
  2
STANDARD
  9
$DIMALT
 70
     0
  9
$DIMALTD
 70
     2
  9
$DIMALTF
 40
0.0394
  9
$DIMALTTD
 70
     2
  9
$DIMALTTZ
 70
     8
  9
$DIMALTU
 70
     2
  9
$DIMALTZ
 70
     8
  9
$DIMAPOST
  1

  9
$DIMASO
 70
     0
  9
$DIMASZ
 40
20.0
  9
$DIMAUNIT
 70
     0
  9
$DIMBLK
  1

  9
$DIMBLK1
  1

  9
$DIMBLK2
  1

  9
$DIMCEN
 40
0.0
  9
$DIMCLRD
 70
   256
  9
$DIMCLRE
 70
   256
  9
$DIMCLRT
 70
   256
  9
$DIMDEC
 70
     2
  9
$DIMDLE
 40
0.0
  9
$DIMDLI
 40
80.0
  9
$DIMEXE
 40
5.0
  9
$DIMEXO
 40
10.0
  9
$DIMGAP
 40
5.0
  9
$DIMJUST
 70
     0
  9
$DIMLFAC
 40
1.0
  9
$DIMLIM
 70
     0
  9
$DIMPOST
  1

  9
$DIMRND
 40
0.0
  9
$DIMSAH
 70
     0
  9
$DIMSCALE
 40
1.0
  9
$DIMSD1
 70
     0
  9
$DIMSD2
 70
     0
  9
$DIMSE1
 70
     0
  9
$DIMSE2
 70
     0
  9
$DIMSHO
 70
     1
  9
$DIMSOXD
 70
     0
  9
$DIMSTYLE
  2
STEM_JIS30
  9
$DIMTAD
 70
     1
  9
$DIMTDEC
 70
     2
  9
$DIMTFAC
 40
1.0
  9
$DIMTIH
 70
     0
  9
$DIMTIX
 70
     0
  9
$DIMTM
 40
0.0
  9
$DIMTOFL
 70
     1
  9
$DIMTOH
 70
     0
  9
$DIMTOL
 70
     0
  9
$DIMTOLJ
 70
     1
  9
$DIMTP
 40
0.0
  9
$DIMTSZ
 40
0.0
  9
$DIMTVP
 40
0.0
  9
$DIMTXSTY
  7
STEM_DIM30_0_7
  9
$DIMTXT
 40
30.0
  9
$DIMTZIN
 70
     8
  9
$DIMUPT
 70
     0
  9
$DIMZIN
 70
     8
  9
$DISPSILH
 70
     0
  9
$ELEVATION
 40
0.0
  9
$EXTMAX
 10
1787.145563
 20
1019.715371
 30
0.0
  9
$EXTMIN
 10
-845.024444
 20
-525.493122
 30
-0.001526
  9
$FILLETRAD
 40
20.0
  9
$FILLMODE
 70
     1
  9
$INSBASE
 10
0.0
 20
0.0
 30
0.0
  9
$LIMCHECK
 70
     0
  9
$LIMMAX
 10
12600.0
 20
8910.0
  9
$LIMMIN
 10
0.0
 20
0.0
  9
$LTSCALE
 40
50.0
  9
$LUNITS
 70
     2
  9
$LUPREC
 70
     8
  9
$MAXACTVP
 70
    48
  9
$MENU
  1
.
  9
$MIRRTEXT
 70
     0
  9
$ORTHOMODE
 70
     1
  9
$PDMODE
 70
     3
  9
$PDSIZE
 40
-50.0
  9
$PELEVATION
 40
0.0
  9
$PEXTMAX
 10
407.379241
 20
284.660648
 30
0.0
  9
$PEXTMIN
 10
0.819916
 20
0.51785
 30
0.0
  9
$PINSBASE
 10
0.0
 20
0.0
 30
0.0
  9
$PLIMCHECK
 70
     0
  9
$PLIMMAX
 10
414.072906
 20
291.052246
  9
$PLIMMIN
 10
-5.87375
 20
-5.873749
  9
$PLINEGEN
 70
     0
  9
$PLINEWID
 40
0.0
  9
$PSLTSCALE
 70
     0
  9
$PUCSNAME
  2

  9
$PUCSORG
 10
0.0
 20
0.0
 30
0.0
  9
$PUCSXDIR
 10
1.0
 20
0.0
 30
0.0
  9
$PUCSYDIR
 10
0.0
 20
1.0
 30
0.0
  9
$QTEXTMODE
 70
     0
  9
$REGENMODE
 70
     1
  9
$SHADEDGE
 70
     3
  9
$SHADEDIF
 70
    70
  9
$SKETCHINC
 40
1.0
  9
$SKPOLY
 70
     0
  9
$SPLFRAME
 70
     0
  9
$SPLINESEGS
 70
     8
  9
$SPLINETYPE
 70
     6
  9
$SURFTAB1
 70
     6
  9
$SURFTAB2
 70
     6
  9
$SURFTYPE
 70
     6
  9
$SURFU
 70
     6
  9
$SURFV
 70
     6
  9
$TDCREATE
 40
2451954.83445989
  9
$TDINDWG
 40
4.47888665
  9
$TDUPDATE
 40
2461064.2608
  9
$TDUSRTIMER
 40
1.49369837
  9
$TEXTSIZE
 40
40.0
  9
$TEXTSTYLE
  7
STEM_DIM30_0_7
  9
$THICKNESS
 40
0.0
  9
$TILEMODE
 70
     1
  9
$TRACEWID
 40
1.0
  9
$TREEDEPTH
 70
  3020
  9
$UCSNAME
  2

  9
$UCSORG
 10
0.0
 20
0.0
 30
0.0
  9
$UCSXDIR
 10
1.0
 20
0.0
 30
0.0
  9
$UCSYDIR
 10
0.0
 20
1.0
 30
0.0
  9
$UNITMODE
 70
     0
  9
$USERI1
 70
     0
  9
$USERI2
 70
     0
  9
$USERI3
 70
     0
  9
$USERI4
 70
     0
  9
$USERI5
 70
     0
  9
$USERR1
 40
0.0
  9
$USERR2
 40
0.0
  9
$USERR3
 40
0.0
  9
$USERR4
 40
0.0
  9
$USERR5
 40
1.0
  9
$USRTIMER
 70
     1
  9
$VISRETAIN
 70
     0
  9
$WORLDVIEW
 70
     1
  9
$ATTDIA
 70
     0
  9
$ATTREQ
 70
     1
  9
$BLIPMODE
 70
     1
  9
$COORDS
 70
     1
  9
$DRAGMODE
 70
     2
  9
$OSMODE
 70
     0
  9
$DELOBJ
 70
     1
  9
$PICKSTYLE
 70
     1
  9
$HANDLING
 70
     1
  9
$SAVEIMAGES
 70
     0
  9
$HANDSEED
  5
B2B68
  9
$DIMFIT
 70
     3
  9
$DIMUNIT
 70
     3
  0
ENDSEC
  0
SECTION
  2
CLASSES
  0
CLASS
  1
OLE2FRAME
  2
AcDbOle2Frame
  3
ObjectDBX Classes
 90
     0
280
     0
281
     1
  0
ENDSEC
  0
SECTION
  2
TABLES
  0
TABLE
  2
LTYPE
  5
B2B5E
100
AcDbSymbolTable
 70
     5
  0
LTYPE
  5
D5E
100
AcDbSymbolTableRecord
100
AcDbLinetypeTableRecord
  2
BYBLOCK
 70
    64
  3

 72
    65
 73
     0
 40
0.0
  0
LTYPE
  5
D5F
100
AcDbSymbolTableRecord
100
AcDbLinetypeTableRecord
  2
BYLAYER
 70
    64
  3

 72
    65
 73
     0
 40
0.0
  0
LTYPE
  5
D60
100
AcDbSymbolTableRecord
100
AcDbLinetypeTableRecord
  2
CONTINUOUS
 70
    64
  3
Solid line
 72
    65
 73
     0
 40
0.0
  0
LTYPE
  5
188E4
100
AcDbSymbolTableRecord
100
AcDbLinetypeTableRecord
  2
DASHDOT2
 70
    64
  3
Dash dot (.5x) _._._._._._._._._._._._._._._.
 72
    65
 73
     4
 40
0.5
 49
0.25
 74
     0
 46
1.0
 50
0.0
 44
0.0
 45
0.0
 49
-0.125
 74
     0
 46
1.0
 50
0.0
 44
0.0
 45
0.0
 49
0.0
 74
     0
 46
1.0
 50
0.0
 44
0.0
 45
0.0
 49
-0.125
 74
     0
 46
1.0
 50
0.0
 44
0.0
 45
0.0
  0
LTYPE
  5
1890D
100
AcDbSymbolTableRecord
100
AcDbLinetypeTableRecord
  2
DASHDOTX2
 70
    64
  3
Dash dot (2x) ____  .  ____  .  ____  .  ___
 72
    65
 73
     4
 40
2.0
 49
1.0
 74
     0
 46
1.0
 50
0.0
 44
0.0
 45
0.0
 49
-0.5
 74
     0
 46
1.0
 50
0.0
 44
0.0
 45
0.0
 49
0.0
 74
     0
 46
1.0
 50
0.0
 44
0.0
 45
0.0
 49
-0.5
 74
     0
 46
1.0
 50
0.0
 44
0.0
 45
0.0
  0
ENDTAB
  0
TABLE
  2
LAYER
  5
B2B5F
100
AcDbSymbolTable
 70
    10
  0
LAYER
  5
D5B
100
AcDbSymbolTableRecord
100
AcDbLayerTableRecord
  2
0
 70
    64
 62
     1
  6
CONTINUOUS
  0
LAYER
  5
D73
100
AcDbSymbolTableRecord
100
AcDbLayerTableRecord
  2
OUTLINE
 70
    64
 62
     3
  6
CONTINUOUS
  0
LAYER
  5
D74
100
AcDbSymbolTableRecord
100
AcDbLayerTableRecord
  2
BASIS
 70
    64
 62
     6
  6
DASHDOTX2
  0
LAYER
  5
D75
100
AcDbSymbolTableRecord
100
AcDbLayerTableRecord
  2
SIZE
 70
    64
 62
    30
  6
CONTINUOUS
  0
LAYER
  5
D76
100
AcDbSymbolTableRecord
100
AcDbLayerTableRecord
  2
NOTE
 70
    64
 62
     4
  6
CONTINUOUS
  0
LAYER
  5
D78
100
AcDbSymbolTableRecord
100
AcDbLayerTableRecord
  2
FIX
 70
    64
 62
    11
  6
CONTINUOUS
  0
LAYER
  5
D79
100
AcDbSymbolTableRecord
100
AcDbLayerTableRecord
  2
SERVICESPACE
 70
    64
 62
     2
  6
CONTINUOUS
  0
LAYER
  5
D7A
100
AcDbSymbolTableRecord
100
AcDbLayerTableRecord
  2
ETC
 70
    64
 62
    61
  6
CONTINUOUS
  0
LAYER
  5
D7C
100
AcDbSymbolTableRecord
100
AcDbLayerTableRecord
  2
DETAIL
 70
    64
 62
     5
  6
CONTINUOUS
  0
LAYER
  5
14119
100
AcDbSymbolTableRecord
100
AcDbLayerTableRecord
  2
ARRANGE
 70
    64
 62
     1
  6
CONTINUOUS
  0
ENDTAB
  0
TABLE
  2
STYLE
  5
B2B60
100
AcDbSymbolTable
 70
     2
  0
STYLE
  5
D5C
100
AcDbSymbolTableRecord
100
AcDbTextStyleTableRecord
  2
STANDARD
 70
    64
 40
30.0
 41
0.7
 50
0.0
 71
     0
 42
40.0
  3
romans.shx
  4
extfont.shx
  0
STYLE
  5
2EDC0
100
AcDbSymbolTableRecord
100
AcDbTextStyleTableRecord
  2
STEM_DIM30_0_7
 70
    64
 40
30.0
 41
0.7
 50
0.0
 71
     0
 42
2.5
  3
romans.shx
  4
extfont.shx
  0
ENDTAB
  0
TABLE
  2
APPID
  5
B2B61
100
AcDbSymbolTable
 70
    11
  0
APPID
  5
D5D
100
AcDbSymbolTableRecord
100
AcDbRegAppTableRecord
  2
ACAD
 70
    64
  0
APPID
  5
28806
100
AcDbSymbolTableRecord
100
AcDbRegAppTableRecord
  2
DCO15
 70
    64
  0
APPID
  5
28EC9
100
AcDbSymbolTableRecord
100
AcDbRegAppTableRecord
  2
ACAD_MLEADERVER
 70
    64
  0
APPID
  5
28ED1
100
AcDbSymbolTableRecord
100
AcDbRegAppTableRecord
  2
ACAD_EXEMPT_FROM_CAD_STANDARDS
 70
    64
  0
APPID
  5
2EDC1
100
AcDbSymbolTableRecord
100
AcDbRegAppTableRecord
  2
ACAD_DSTYLE_DIMJAG
 70
    64
  0
APPID
  5
2EDC2
100
AcDbSymbolTableRecord
100
AcDbRegAppTableRecord
  2
ACAD_DSTYLE_DIMTALN
 70
    64
  0
APPID
  5
2EDC3
100
AcDbSymbolTableRecord
100
AcDbRegAppTableRecord
  2
ACAD_PSEXT
 70
    64
  0
APPID
  5
2FAC5
100
AcDbSymbolTableRecord
100
AcDbRegAppTableRecord
  2
ACAD_NAV_VCDISPLAY
 70
    64
  0
APPID
  5
3252D
100
AcDbSymbolTableRecord
100
AcDbRegAppTableRecord
  2
ACAECLAYERSTANDARD
 70
    64
  0
APPID
  5
3252E
100
AcDbSymbolTableRecord
100
AcDbRegAppTableRecord
  2
ACCMTRANSPARENCY
 70
    64
  0
APPID
  5
B2A12
100
AcDbSymbolTableRecord
100
AcDbRegAppTableRecord
  2
MY_RECT_ID
 70
    64
  0
ENDTAB
  0
TABLE
  2
DIMSTYLE
  5
B2B62
100
AcDbSymbolTable
 70
     1
  0
DIMSTYLE
105
23A2B
100
AcDbSymbolTableRecord
100
AcDbDimStyleTableRecord
  2
STEM_JIS30
 70
    64
  3

  4

  5
_OPEN30
  6

  7

 40
1.0
 41
20.0
 42
10.0
 43
80.0
 44
5.0
 45
0.0
 46
0.0
 47
0.0
 48
0.0
140
30.0
141
0.0
142
0.0
143
0.0394
144
1.0
145
0.0
146
1.0
147
5.0
 71
     0
 72
     0
 73
     0
 74
     0
 75
     0
 76
     0
 77
     1
 78
     8
170
     0
171
     2
172
     1
173
     0
174
     0
175
     0
176
   256
177
   256
178
   256
270
     2
271
     2
272
     2
273
     2
274
     2
340
2EDC0
275
     0
280
     0
281
     0
282
     0
283
     1
284
     8
285
     8
286
     8
287
     2
288
     0
  0
ENDTAB
  0
TABLE
  2
VIEW
  5
B2B63
100
AcDbSymbolTable
 70
     9
  0
VIEW
  5
188AD
100
AcDbSymbolTableRecord
100
AcDbViewTableRecord
  2
V1
 70
    64
 40
2970.0
 10
2100.0
 20
1485.0
 41
4200.0
 11
0.0
 21
0.0
 31
1.0
 12
0.0
 22
0.0
 32
0.0
 42
50.0
 43
0.0
 44
0.0
 50
0.0
 71
     0
  0
VIEW
  5
188AE
100
AcDbSymbolTableRecord
100
AcDbViewTableRecord
  2
V2
 70
    64
 40
2970.0
 10
6300.0
 20
1485.0
 41
4200.0
 11
0.0
 21
0.0
 31
1.0
 12
0.0
 22
0.0
 32
0.0
 42
50.0
 43
0.0
 44
0.0
 50
0.0
 71
     0
  0
VIEW
  5
188AF
100
AcDbSymbolTableRecord
100
AcDbViewTableRecord
  2
V3
 70
    64
 40
2970.0
 10
10500.0
 20
1485.0
 41
4200.0
 11
0.0
 21
0.0
 31
1.0
 12
0.0
 22
0.0
 32
0.0
 42
50.0
 43
0.0
 44
0.0
 50
0.0
 71
     0
  0
VIEW
  5
188B0
100
AcDbSymbolTableRecord
100
AcDbViewTableRecord
  2
V4
 70
    64
 40
2970.0
 10
2100.0
 20
4455.0
 41
4200.0
 11
0.0
 21
0.0
 31
1.0
 12
0.0
 22
0.0
 32
0.0
 42
50.0
 43
0.0
 44
0.0
 50
0.0
 71
     0
  0
VIEW
  5
188B1
100
AcDbSymbolTableRecord
100
AcDbViewTableRecord
  2
V5
 70
    64
 40
2970.0
 10
6300.0
 20
4455.0
 41
4200.0
 11
0.0
 21
0.0
 31
1.0
 12
0.0
 22
0.0
 32
0.0
 42
50.0
 43
0.0
 44
0.0
 50
0.0
 71
     0
  0
VIEW
  5
188B2
100
AcDbSymbolTableRecord
100
AcDbViewTableRecord
  2
V6
 70
    64
 40
2970.0
 10
10500.0
 20
4455.0
 41
4200.0
 11
0.0
 21
0.0
 31
1.0
 12
0.0
 22
0.0
 32
0.0
 42
50.0
 43
0.0
 44
0.0
 50
0.0
 71
     0
  0
VIEW
  5
188B3
100
AcDbSymbolTableRecord
100
AcDbViewTableRecord
  2
V7
 70
    64
 40
2970.0
 10
2100.0
 20
7425.0
 41
4200.0
 11
0.0
 21
0.0
 31
1.0
 12
0.0
 22
0.0
 32
0.0
 42
50.0
 43
0.0
 44
0.0
 50
0.0
 71
     0
  0
VIEW
  5
188B4
100
AcDbSymbolTableRecord
100
AcDbViewTableRecord
  2
V8
 70
    64
 40
2970.0
 10
6300.0
 20
7425.0
 41
4200.0
 11
0.0
 21
0.0
 31
1.0
 12
0.0
 22
0.0
 32
0.0
 42
50.0
 43
0.0
 44
0.0
 50
0.0
 71
     0
  0
VIEW
  5
188B5
100
AcDbSymbolTableRecord
100
AcDbViewTableRecord
  2
V9
 70
    64
 40
2970.0
 10
10500.0
 20
7425.0
 41
4200.0
 11
0.0
 21
0.0
 31
1.0
 12
0.0
 22
0.0
 32
0.0
 42
50.0
 43
0.0
 44
0.0
 50
0.0
 71
     0
  0
ENDTAB
  0
TABLE
  2
UCS
  5
B2B64
100
AcDbSymbolTable
 70
     0
  0
ENDTAB
  0
TABLE
  2
VPORT
  5
B2B65
100
AcDbSymbolTable
 70
     1
  0
VPORT
  5
284C3
100
AcDbSymbolTableRecord
100
AcDbViewportTableRecord
  2
*ACTIVE
 70
    64
 10
0.0
 20
0.0
 11
1.0
 21
1.0
 12
471.06056
 22
247.111124
 13
0.0
 23
0.0
 14
10.0
 24
10.0
 15
10.0
 25
10.0
 16
0.0
 26
0.0
 36
1.0
 17
0.0
 27
0.0
 37
0.0
 40
1725.650568
 41
1.841837
 42
50.0
 43
0.0
 44
0.0
 50
0.0
 51
0.0
 71
     0
 72
  5000
 73
     1
 74
     2
 75
     0
 76
     0
 77
     0
 78
     1
  0
ENDTAB
  0
TABLE
  2
BLOCK_RECORD
  5
B2B67
100
AcDbSymbolTable
 70
     3
  0
BLOCK_RECORD
  5
D99
100
AcDbSymbolTableRecord
100
AcDbBlockTableRecord
  2
_OPEN30
  0
BLOCK_RECORD
  5
D69
100
AcDbSymbolTableRecord
100
AcDbBlockTableRecord
  2
*MODEL_SPACE
  0
BLOCK_RECORD
  5
2FB66
100
AcDbSymbolTableRecord
100
AcDbBlockTableRecord
  2
*PAPER_SPACE
  0
ENDTAB
  0
ENDSEC
  0
SECTION
  2
BLOCKS
  0
BLOCK
  5
B2B3C
100
AcDbEntity
  8
0
100
AcDbBlockBegin
  2
*PAPER_SPACE
 70
     0
 10
0.0
 20
0.0
  3
*PAPER_SPACE
  0
ENDBLK
  5
B2B3D
100
AcDbEntity
  8
0
100
AcDbBlockEnd
  0
BLOCK
  5
B2B3E
100
AcDbEntity
  8
0
100
AcDbBlockBegin
  2
*MODEL_SPACE
 70
     0
 10
0.0
 20
0.0
  3
*MODEL_SPACE
  0
ENDBLK
  5
B2B3F
100
AcDbEntity
  8
0
100
AcDbBlockEnd
  0
BLOCK
  5
D9A
100
AcDbEntity
  8
0
100
AcDbBlockBegin
  2
_OPEN30
 70
    64
 10
0.0
 20
0.0
 30
0.0
  3
_OPEN30
  1

  0
LINE
  5
D9B
100
AcDbEntity
  8
0
 62
     0
100
AcDbLine
 39
0.0
 10
-1.0
 20
0.267949
 30
0.0
 11
0.0
 21
0.0
 31
0.0
  0
LINE
  5
D9C
100
AcDbEntity
  8
0
 62
     0
100
AcDbLine
 39
0.0
 10
0.0
 20
0.0
 30
0.0
 11
-1.0
 21
-0.267949
 31
0.0
  0
LINE
  5
D9D
100
AcDbEntity
  8
0
 62
     0
100
AcDbLine
 39
0.0
 10
0.0
 20
0.0
 30
0.0
 11
-1.0
 21
0.0
 31
0.0
  0
ENDBLK
  5
D9E
100
AcDbEntity
  8
0
100
AcDbBlockEnd
  0
ENDSEC
  0
SECTION
  2
ENTITIES
  0
TEXT
  5
2ED46
100
AcDbEntity
  8
ETC
100
AcDbText
 39
0.0
 10
1130.0
 20
-524.998614
 30
0.0
 40
30.0
  1
3D08965901.dxf
 50
0.0
 41
0.7
 51
0.0
  7
STEM_DIM30_0_7
 71
     0
 72
     0
 11
0.0
 21
0.0
100
AcDbText
 73
     0
  0
ARC
  5
2FEBD
100
AcDbEntity
  8
DETAIL
100
AcDbCircle
 39
0.0
 10
-79.55
 20
157.0
 30
0.0
 40
7.0
100
AcDbArc
 50
0.0
 51
90.0
  0
LINE
  5
2FEBE
100
AcDbEntity
  8
DETAIL
100
AcDbLine
 39
0.0
 10
-108.557779
 20
-94.08506
 30
0.0
 11
-108.606892
 21
-94.112647
 31
0.0
  0
LINE
  5
2FEBF
100
AcDbEntity
  8
DETAIL
100
AcDbLine
 39
0.0
 10
-108.687463
 20
-94.260186
 30
0.0
 11
-108.692728
 21
-94.330625
 31
0.0
  0
LINE
  5
2FEC0
100
AcDbEntity
  8
DETAIL
100
AcDbLine
 39
0.0
 10
-108.424973
 20
-94.06287
 30
0.0
 11
-108.497206
 21
-94.068434
 31
0.0
  0
LINE
  5
2FEC1
100
AcDbEntity
  8
DETAIL
100
AcDbLine
 39
0.0
 10
-108.497206
 20
-94.068434
 30
0.0
 11
-108.557779
 21
-94.08506
 31
0.0
  0
LINE
  5
2FEC2
100
AcDbEntity
  8
DETAIL
100
AcDbLine
 39
0.0
 10
-108.644744
 20
-94.151097
 30
0.0
 11
-108.671535
 21
-94.20031
 31
0.0
  0
LINE
  5
2FEC3
100
AcDbEntity
  8
DETAIL
100
AcDbLine
 39
0.0
 10
-108.606892
 20
-94.112647
 30
0.0
 11
-108.644744
 21
-94.151097
 31
0.0
  0
LINE
  5
2FEC4
100
AcDbEntity
  8
DETAIL
100
AcDbLine
 39
0.0
 10
-108.671535
 20
-94.20031
 30
0.0
 11
-108.687463
 21
-94.260186
 31
0.0
  0
LINE
  5
2FEC5
100
AcDbEntity
  8
DETAIL
100
AcDbLine
 39
0.0
 10
-101.759572
 20
-96.398608
 30
0.0
 11
-101.759572
 21
-95.196558
 31
0.0
  0
ARC
  5
2FEC9
100
AcDbEntity
  8
DETAIL
100
AcDbCircle
 39
0.0
 10
-178.55
 20
157.0
 30
0.0
 40
7.0
100
AcDbArc
 50
90.0
 51
180.0
  0
ARC
  5
2FED0
100
AcDbEntity
  8
DETAIL
100
AcDbCircle
 39
0.0
 10
-407.4
 20
-121.5
 30
0.0
 40
16.0
100
AcDbArc
 50
180.0
 51
270.0
  0
LINE
  5
2FED1
100
AcDbEntity
  8
DETAIL
100
AcDbLine
 39
0.0
 10
-88.707629
 20
-104.256503
 30
0.0
 11
-89.573561
 21
-103.060149
 31
0.0
  0
ARC
  5
2FED2
100
AcDbEntity
  8
DETAIL
100
AcDbCircle
 39
0.0
 10
-79.55
 20
140.0
 30
0.0
 40
7.0
100
AcDbArc
 50
270.0
 51
0.0
  0
LINE
  5
2FED3
100
AcDbEntity
  8
DETAIL
100
AcDbLine
 39
0.0
 10
-104.357369
 20
-107.000583
 30
0.0
 11
-104.420168
 21
-106.928749
 31
0.0
  0
LINE
  5
2FED4
100
AcDbEntity
  8
DETAIL
100
AcDbLine
 39
0.0
 10
-104.4254
 20
-106.760283
 30
0.0
 11
-104.366421
 21
-106.720139
 31
0.0
  0
LINE
  5
2FED5
100
AcDbEntity
  8
DETAIL
100
AcDbLine
 39
0.0
 10
-104.277247
 20
-106.688166
 30
0.0
 11
-104.157977
 21
-106.664465
 31
0.0
  0
LINE
  5
2FED6
100
AcDbEntity
  8
DETAIL
100
AcDbLine
 39
0.0
 10
-104.366421
 20
-106.720139
 30
0.0
 11
-104.277247
 21
-106.688166
 31
0.0
  0
LINE
  5
2FED7
100
AcDbEntity
  8
DETAIL
100
AcDbLine
 39
0.0
 10
-104.454084
 20
-106.808499
 30
0.0
 11
-104.4254
 21
-106.760283
 31
0.0
  0
LINE
  5
2FED8
100
AcDbEntity
  8
DETAIL
100
AcDbLine
 39
0.0
 10
-104.452373
 20
-106.864688
 30
0.0
 11
-104.454084
 21
-106.808499
 31
0.0
  0
LINE
  5
2FED9
100
AcDbEntity
  8
DETAIL
100
AcDbLine
 39
0.0
 10
-104.420168
 20
-106.928749
 30
0.0
 11
-104.452373
 21
-106.864688
 31
0.0
  0
ARC
  5
2FEDB
100
AcDbEntity
  8
DETAIL
100
AcDbCircle
 39
0.0
 10
-103.126672
 20
-99.159194
 30
0.0
 40
11.433395
100
AcDbArc
 50
357.494108
 51
18.87492
  0
LINE
  5
2FEDC
100
AcDbEntity
  8
DETAIL
100
AcDbLine
 39
0.0
 10
-147.287164
 20
-94.633559
 30
0.0
 11
-147.287164
 21
-106.033103
 31
0.0
  0
LINE
  5
2FEE1
100
AcDbEntity
  8
DETAIL
100
AcDbLine
 39
0.0
 10
-105.291665
 20
-100.466212
 30
0.0
 11
-101.759572
 21
-100.466212
 31
0.0
  0
LINE
  5
2FEE4
100
AcDbEntity
  8
DETAIL
100
AcDbLine
 39
0.0
 10
-109.483106
 20
-92.685393
 30
0.0
 11
-109.243719
 21
-92.620402
 31
0.0
  0
LINE
  5
2FEE5
100
AcDbEntity
  8
DETAIL
100
AcDbLine
 39
0.0
 10
-109.939175
 20
-93.141463
 30
0.0
 11
-109.830734
 21
-92.945824
 31
0.0
  0
LINE
  5
2FEE6
100
AcDbEntity
  8
DETAIL
100
AcDbLine
 39
0.0
 10
-110.004166
 20
-93.38085
 30
0.0
 11
-109.939175
 21
-93.141463
 31
0.0
  0
LINE
  5
2FEE7
100
AcDbEntity
  8
DETAIL
100
AcDbLine
 39
0.0
 10
-110.025808
 20
-93.664085
 30
0.0
 11
-110.004166
 21
-93.38085
 31
0.0
  0
LINE
  5
2FEE8
100
AcDbEntity
  8
DETAIL
100
AcDbLine
 39
0.0
 10
-109.830734
 20
-92.945824
 30
0.0
 11
-109.678744
 21
-92.793834
 31
0.0
  0
LINE
  5
2FEE9
100
AcDbEntity
  8
DETAIL
100
AcDbLine
 39
0.0
 10
-109.243719
 20
-92.620402
 30
0.0
 11
-108.960483
 21
-92.59876
 31
0.0
  0
LINE
  5
2FEEA
100
AcDbEntity
  8
DETAIL
100
AcDbLine
 39
0.0
 10
-109.678744
 20
-92.793834
 30
0.0
 11
-109.483106
 21
-92.685393
 31
0.0
  0
LINE
  5
2FEED
100
AcDbEntity
  8
DETAIL
100
AcDbLine
 39
0.0
 10
-135.698909
 20
-104.508829
 30
0.0
 11
-135.698909
 21
-105.972939
 31
0.0
  0
LINE
  5
2FEEE
100
AcDbEntity
  8
DETAIL
100
AcDbLine
 39
0.0
 10
-185.55
 20
157.0
 30
0.0
 11
-185.55
 21
140.0
 31
0.0
  0
LINE
  5
2FEF5
100
AcDbEntity
  8
DETAIL
100
AcDbLine
 39
0.0
 10
416.9
 20
-160.0
 30
0.0
 11
416.5
 21
-160.4
 31
0.0
  0
LINE
  5
2FEF7
100
AcDbEntity
  8
DETAIL
100
AcDbLine
 39
0.0
 10
-158.356287
 20
-94.633559
 30
0.0
 11
-156.157274
 21
-94.633559
 31
0.0
  0
LINE
  5
2FEFC
100
AcDbEntity
  8
DETAIL
100
AcDbLine
 39
0.0
 10
-123.684698
 20
-105.929171
 30
0.0
 11
-128.754961
 21
-94.392901
 31
0.0
  0
LINE
  5
2FEFD
100
AcDbEntity
  8
DETAIL
100
AcDbLine
 39
0.0
 10
-80.373029
 20
-98.257643
 30
0.0
 11
-80.373029
 21
-106.461213
 31
0.0
  0
LINE
  5
2FEFE
100
AcDbEntity
  8
DETAIL
100
AcDbLine
 39
0.0
 10
407.5
 20
-80.5
 30
0.0
 11
-407.4
 21
-80.5
 31
0.0
  0
LINE
  5
2FF04
100
AcDbEntity
  8
DETAIL
100
AcDbLine
 39
0.0
 10
-135.698909
 20
-96.043201
 30
0.0
 11
-136.633204
 21
-96.043201
 31
0.0
  0
LINE
  5
2FF05
100
AcDbEntity
  8
DETAIL
100
AcDbLine
 39
0.0
 10
-90.37113
 20
-105.190799
 30
0.0
 11
-81.706109
 21
-105.190799
 31
0.0
  0
LINE
  5
2FF09
100
AcDbEntity
  8
DETAIL
100
AcDbLine
 39
0.0
 10
-97.025428
 20
-92.667123
 30
0.0
 11
-97.025428
 21
-105.131992
 31
0.0
  0
LINE
  5
2FF0C
100
AcDbEntity
  8
DETAIL
100
AcDbLine
 39
0.0
 10
423.5
 20
-121.5
 30
0.0
 11
423.5
 21
-96.5
 31
0.0
  0
ARC
  5
2FF0F
100
AcDbEntity
  8
DETAIL
100
AcDbCircle
 39
0.0
 10
-407.4
 20
32.0
 30
0.0
 40
16.0
100
AcDbArc
 50
180.0
 51
270.0
  0
LINE
  5
2FF14
100
AcDbEntity
  8
DETAIL
100
AcDbLine
 39
0.0
 10
-85.369231
 20
-101.328285
 30
0.0
 11
-85.369231
 21
-102.593002
 31
0.0
  0
LINE
  5
2FF15
100
AcDbEntity
  8
DETAIL
100
AcDbLine
 39
0.0
 10
-82.640405
 20
-102.524639
 30
0.0
 11
-82.235923
 21
-103.795053
 31
0.0
  0
LINE
  5
2FF16
100
AcDbEntity
  8
DETAIL
100
AcDbLine
 39
0.0
 10
-148.825334
 20
-104.568994
 30
0.0
 11
-148.825334
 21
-100.63242
 31
0.0
  0
LINE
  5
2FF19
100
AcDbEntity
  8
DETAIL
100
AcDbLine
 39
0.0
 10
-128.754961
 20
-94.392901
 30
0.0
 11
-127.023096
 21
-94.392901
 31
0.0
  0
LINE
  5
2FF1D
100
AcDbEntity
  8
DETAIL
100
AcDbLine
 39
0.0
 10
-86.502919
 20
-102.661365
 30
0.0
 11
-86.502919
 21
-101.328285
 31
0.0
  0
LINE
  5
2FF1E
100
AcDbEntity
  8
DETAIL
100
AcDbLine
 39
0.0
 10
-136.633204
 20
-96.043201
 30
0.0
 11
-136.633204
 21
-104.508829
 31
0.0
  0
LINE
  5
2FF1F
100
AcDbEntity
  8
DETAIL
100
AcDbLine
 39
0.0
 10
-414.4
 20
-200.0
 30
0.0
 11
158.5
 21
-200.0
 31
0.0
  0
LINE
  5
2FF21
100
AcDbEntity
  8
DETAIL
100
AcDbLine
 39
0.0
 10
407.5
 20
-4.0
 30
0.0
 11
-407.4
 21
-4.0
 31
0.0
  0
LINE
  5
2FF23
100
AcDbEntity
  8
DETAIL
100
AcDbLine
 39
0.0
 10
-118.5
 20
-127.5
 30
0.0
 11
-138.5
 21
-112.5
 31
0.0
  0
ARC
  5
2FF28
100
AcDbEntity
  8
DETAIL
100
AcDbCircle
 39
0.0
 10
-102.70614
 20
-99.006181
 30
0.0
 40
12.348852
100
AcDbArc
 50
357.28685
 51
20.959871
  0
LINE
  5
2FF29
100
AcDbEntity
  8
DETAIL
100
AcDbLine
 39
0.0
 10
-73.05
 20
53.6
 30
0.0
 11
-185.05
 21
53.6
 31
0.0
  0
ARC
  5
2FF2B
100
AcDbEntity
  8
DETAIL
100
AcDbCircle
 39
0.0
 10
-265.05
 20
129.0
 30
0.0
 40
16.0
100
AcDbArc
 50
270.0
 51
0.0
  0
LINE
  5
2FF2C
100
AcDbEntity
  8
DETAIL
100
AcDbLine
 39
0.0
 10
423.5
 20
-45.0
 30
0.0
 11
423.5
 21
-20.0
 31
0.0
  0
LINE
  5
2FF30
100
AcDbEntity
  8
DETAIL
100
AcDbLine
 39
0.0
 10
-103.161015
 20
-105.131992
 30
0.0
 11
-110.025808
 21
-105.131992
 31
0.0
  0
LINE
  5
2FF31
100
AcDbEntity
  8
DETAIL
100
AcDbLine
 39
0.0
 10
-423.4
 20
-96.5
 30
0.0
 11
-423.4
 21
-121.5
 31
0.0
  0
LINE
  5
2FF34
100
AcDbEntity
  8
DETAIL
100
AcDbLine
 39
0.0
 10
-5.05
 20
160.0
 30
0.0
 11
-5.05
 21
93.35
 31
0.0
  0
LINE
  5
2FF39
100
AcDbEntity
  8
DETAIL
100
AcDbLine
 39
0.0
 10
297.5
 20
-160.4
 30
0.0
 11
430.116297
 21
-160.4
 31
0.0
  0
LINE
  5
2FF3A
100
AcDbEntity
  8
DETAIL
100
AcDbLine
 39
0.0
 10
-90.37113
 20
-99.590723
 30
0.0
 11
-90.37113
 21
-105.190799
 31
0.0
  0
LINE
  5
2FF3D
100
AcDbEntity
  8
DETAIL
100
AcDbLine
 39
0.0
 10
-21.55
 20
160.0
 30
0.0
 11
447.0
 21
160.0
 31
0.0
  0
LINE
  5
2FF3F
100
AcDbEntity
  8
DETAIL
100
AcDbLine
 39
0.0
 10
-107.029226
 20
-92.59876
 30
0.0
 11
-106.8925
 21
-94.06287
 31
0.0
  0
LINE
  5
2FF45
100
AcDbEntity
  8
DETAIL
100
AcDbLine
 39
0.0
 10
-108.692728
 20
-94.330625
 30
0.0
 11
-108.692728
 21
-103.867275
 31
0.0
  0
ARC
  5
2FF49
100
AcDbEntity
  8
DETAIL
100
AcDbCircle
 39
0.0
 10
-83.312443
 20
-134.309761
 30
0.0
 40
30.533691
100
AcDbArc
 50
87.979517
 51
100.177379
  0
LINE
  5
2FF53
100
AcDbEntity
  8
DETAIL
100
AcDbLine
 39
0.0
 10
-86.502919
 20
-97.260681
 30
0.0
 11
-86.502919
 21
-94.657187
 31
0.0
  0
LINE
  5
2FF54
100
AcDbEntity
  8
DETAIL
100
AcDbLine
 39
0.0
 10
-138.165677
 20
-96.043201
 30
0.0
 11
-139.099972
 21
-96.043201
 31
0.0
  0
ARC
  5
2FF55
100
AcDbEntity
  8
DETAIL
100
AcDbCircle
 39
0.0
 10
-73.05
 20
65.6
 30
0.0
 40
12.0
100
AcDbArc
 50
270.0
 51
0.0
  0
LINE
  5
2FF58
100
AcDbEntity
  8
DETAIL
100
AcDbLine
 39
0.0
 10
-136.633204
 20
-104.508829
 30
0.0
 11
-135.698909
 21
-104.508829
 31
0.0
  0
ARC
  5
2FF59
100
AcDbEntity
  8
DETAIL
100
AcDbCircle
 39
0.0
 10
407.5
 20
-20.0
 30
0.0
 40
16.0
100
AcDbArc
 50
0.0
 51
90.0
  0
LINE
  5
2FF5B
100
AcDbEntity
  8
DETAIL
100
AcDbLine
 39
0.0
 10
-147.287164
 20
-106.033103
 30
0.0
 11
-154.020928
 21
-106.033103
 31
0.0
  0
LINE
  5
2FF5E
100
AcDbEntity
  8
DETAIL
100
AcDbLine
 39
0.0
 10
-122.08956
 20
-105.929171
 30
0.0
 11
-123.684698
 21
-105.929171
 31
0.0
  0
LINE
  5
2FF60
100
AcDbEntity
  8
DETAIL
100
AcDbLine
 39
0.0
 10
-105.291665
 20
-97.663325
 30
0.0
 11
-105.291665
 21
-100.466212
 31
0.0
  0
LINE
  5
2FF65
100
AcDbEntity
  8
DETAIL
100
AcDbLine
 39
0.0
 10
-138.165677
 20
-104.508829
 30
0.0
 11
-138.165677
 21
-96.043201
 31
0.0
  0
ARC
  5
2FF66
100
AcDbEntity
  8
DETAIL
100
AcDbCircle
 39
0.0
 10
-74.378656
 20
-98.015571
 30
0.0
 40
5.999259
100
AcDbArc
 50
133.449527
 51
182.312533
  0
ARC
  5
2FF6C
100
AcDbEntity
  8
DETAIL
100
AcDbCircle
 39
0.0
 10
-153.98727
 20
-102.403939
 30
0.0
 40
2.171389
100
AcDbArc
 50
228.630379
 51
274.377427
  0
LINE
  5
2FF6D
100
AcDbEntity
  8
DETAIL
100
AcDbLine
 39
0.0
 10
-423.4
 20
97.0
 30
0.0
 11
-423.4
 21
32.0
 31
0.0
  0
LINE
  5
2FF6E
100
AcDbEntity
  8
DETAIL
100
AcDbLine
 39
0.0
 10
-88.570902
 20
-94.856579
 30
0.0
 11
-87.573941
 21
-96.126993
 31
0.0
  0
ARC
  5
2FF70
100
AcDbEntity
  8
DETAIL
100
AcDbCircle
 39
0.0
 10
310.0
 20
-174.0
 30
0.0
 40
7.5
100
AcDbArc
 50
0.0
 51
180.0
  0
LINE
  5
2FF73
100
AcDbEntity
  8
DETAIL
100
AcDbLine
 39
0.0
 10
-80.373029
 20
-106.461213
 30
0.0
 11
-91.70421
 21
-106.461213
 31
0.0
  0
LINE
  5
2FF75
100
AcDbEntity
  8
DETAIL
100
AcDbLine
 39
0.0
 10
-85.369231
 20
-100.257263
 30
0.0
 11
-83.905122
 21
-100.257263
 31
0.0
  0
LINE
  5
2FF76
100
AcDbEntity
  8
DETAIL
100
AcDbLine
 39
0.0
 10
-97.025428
 20
-105.131992
 30
0.0
 11
-101.759572
 21
-105.131992
 31
0.0
  0
LINE
  5
2FF77
100
AcDbEntity
  8
DETAIL
100
AcDbLine
 39
0.0
 10
-122.955492
 20
-104.128943
 30
0.0
 11
-122.818766
 21
-104.128943
 31
0.0
  0
ARC
  5
2FF78
100
AcDbEntity
  8
DETAIL
100
AcDbCircle
 39
0.0
 10
10.95
 20
93.35
 30
0.0
 40
16.0
100
AcDbArc
 50
180.0
 51
270.0
  0
LINE
  5
2FF79
100
AcDbEntity
  8
DETAIL
100
AcDbLine
 39
0.0
 10
-85.369231
 20
-102.593002
 30
0.0
 11
-82.640405
 21
-102.524639
 31
0.0
  0
LINE
  5
2FF7E
100
AcDbEntity
  8
DETAIL
100
AcDbLine
 39
0.0
 10
-153.821536
 20
-104.568994
 30
0.0
 11
-148.825334
 21
-104.568994
 31
0.0
  0
ARC
  5
2FF7F
100
AcDbEntity
  8
DETAIL
100
AcDbCircle
 39
0.0
 10
364.5
 20
129.0
 30
0.0
 40
16.0
100
AcDbArc
 50
180.0
 51
270.0
  0
ARC
  5
2FF81
100
AcDbEntity
  8
DETAIL
100
AcDbCircle
 39
0.0
 10
407.5
 20
32.0
 30
0.0
 40
16.0
100
AcDbArc
 50
270.0
 51
0.0
  0
LINE
  5
2FF82
100
AcDbEntity
  8
DETAIL
100
AcDbLine
 39
0.0
 10
-104.157977
 20
-106.664465
 30
0.0
 11
-103.161015
 21
-105.131992
 31
0.0
  0
LINE
  5
2FF86
100
AcDbEntity
  8
DETAIL
100
AcDbLine
 39
0.0
 10
-152.625182
 20
-99.16831
 30
0.0
 11
-148.825334
 21
-99.16831
 31
0.0
  0
LINE
  5
2FF89
100
AcDbEntity
  8
DETAIL
100
AcDbLine
 39
0.0
 10
-106.624745
 20
-101.730929
 30
0.0
 11
-106.624745
 21
-95.601039
 31
0.0
  0
ARC
  5
2FF8E
100
AcDbEntity
  8
DETAIL
100
AcDbCircle
 39
0.0
 10
173.5
 20
-180.026334
 30
0.0
 40
20.0
100
AcDbArc
 50
273.016961
 51
283.960999
  0
LINE
  5
2FF91
100
AcDbEntity
  8
DETAIL
100
AcDbLine
 39
0.0
 10
348.5
 20
160.0
 30
0.0
 11
348.5
 21
129.0
 31
0.0
  0
LINE
  5
2FF92
100
AcDbEntity
  8
DETAIL
100
AcDbLine
 39
0.0
 10
-135.698909
 20
-105.972939
 30
0.0
 11
-139.099972
 21
-105.972939
 31
0.0
  0
ARC
  5
2FF95
100
AcDbEntity
  8
DETAIL
100
AcDbCircle
 39
0.0
 10
-407.4
 20
-20.0
 30
0.0
 40
16.0
100
AcDbArc
 50
90.0
 51
180.0
  0
ARC
  5
2FF97
100
AcDbEntity
  8
DETAIL
100
AcDbCircle
 39
0.0
 10
-73.979395
 20
-97.85813
 30
0.0
 40
7.727024
100
AcDbArc
 50
134.952918
 51
180.512316
  0
LINE
  5
2FF98
100
AcDbEntity
  8
DETAIL
100
AcDbLine
 39
0.0
 10
-131.5
 20
-108.5
 30
0.0
 11
-105.5
 21
-108.5
 31
0.0
  0
LINE
  5
2FF99
100
AcDbEntity
  8
DETAIL
100
AcDbLine
 39
0.0
 10
-85.369231
 20
-98.326006
 30
0.0
 11
-85.369231
 21
-100.257263
 31
0.0
  0
LINE
  5
2FF9C
100
AcDbEntity
  8
DETAIL
100
AcDbLine
 39
0.0
 10
-135.698909
 20
-94.573395
 30
0.0
 11
-135.698909
 21
-96.043201
 31
0.0
  0
LINE
  5
2FF9D
100
AcDbEntity
  8
DETAIL
100
AcDbLine
 39
0.0
 10
-423.4
 20
-20.0
 30
0.0
 11
-423.4
 21
-45.0
 31
0.0
  0
LINE
  5
2FFA0
100
AcDbEntity
  8
DETAIL
100
AcDbLine
 39
0.0
 10
-89.174776
 20
-101.328285
 30
0.0
 11
-89.174776
 21
-97.260681
 31
0.0
  0
LINE
  5
2FFA3
100
AcDbEntity
  8
DETAIL
100
AcDbLine
 39
0.0
 10
-79.55
 20
164.0
 30
0.0
 11
-178.55
 21
164.0
 31
0.0
  0
LINE
  5
2FFA7
100
AcDbEntity
  8
DETAIL
100
AcDbLine
 39
0.0
 10
-105.291665
 20
-96.398608
 30
0.0
 11
-101.759572
 21
-96.398608
 31
0.0
  0
LINE
  5
2FFAA
100
AcDbEntity
  8
DETAIL
100
AcDbLine
 39
0.0
 10
-154.020928
 20
-106.033103
 30
0.0
 11
-154.916257
 21
-105.958587
 31
0.0
  0
LINE
  5
2FFAB
100
AcDbEntity
  8
DETAIL
100
AcDbLine
 39
0.0
 10
-157.335877
 20
-104.191247
 30
0.0
 11
-157.562716
 21
-103.42741
 31
0.0
  0
LINE
  5
2FFAC
100
AcDbEntity
  8
DETAIL
100
AcDbLine
 39
0.0
 10
-157.506402
 20
-101.694496
 30
0.0
 11
-157.224388
 21
-100.950137
 31
0.0
  0
LINE
  5
2FFAD
100
AcDbEntity
  8
DETAIL
100
AcDbLine
 39
0.0
 10
-156.936375
 20
-104.837454
 30
0.0
 11
-157.335877
 21
-104.191247
 31
0.0
  0
LINE
  5
2FFAE
100
AcDbEntity
  8
DETAIL
100
AcDbLine
 39
0.0
 10
-155.70127
 20
-105.734571
 30
0.0
 11
-156.375968
 21
-105.360351
 31
0.0
  0
LINE
  5
2FFAF
100
AcDbEntity
  8
DETAIL
100
AcDbLine
 39
0.0
 10
-156.772034
 20
-100.315825
 30
0.0
 11
-156.151573
 21
-99.807256
 31
0.0
  0
LINE
  5
2FFB0
100
AcDbEntity
  8
DETAIL
100
AcDbLine
 39
0.0
 10
-155.368848
 20
-99.447893
 30
0.0
 11
-154.42541
 21
-99.236674
 31
0.0
  0
LINE
  5
2FFB1
100
AcDbEntity
  8
DETAIL
100
AcDbLine
 39
0.0
 10
-157.619018
 20
-102.54702
 30
0.0
 11
-157.506402
 21
-101.694496
 31
0.0
  0
LINE
  5
2FFB2
100
AcDbEntity
  8
DETAIL
100
AcDbLine
 39
0.0
 10
-157.562716
 20
-103.42741
 30
0.0
 11
-157.619018
 21
-102.54702
 31
0.0
  0
LINE
  5
2FFB3
100
AcDbEntity
  8
DETAIL
100
AcDbLine
 39
0.0
 10
-156.151573
 20
-99.807256
 30
0.0
 11
-155.368848
 21
-99.447893
 31
0.0
  0
LINE
  5
2FFB4
100
AcDbEntity
  8
DETAIL
100
AcDbLine
 39
0.0
 10
-156.375968
 20
-105.360351
 30
0.0
 11
-156.936375
 21
-104.837454
 31
0.0
  0
LINE
  5
2FFB5
100
AcDbEntity
  8
DETAIL
100
AcDbLine
 39
0.0
 10
-154.916257
 20
-105.958587
 30
0.0
 11
-155.70127
 21
-105.734571
 31
0.0
  0
LINE
  5
2FFB6
100
AcDbEntity
  8
DETAIL
100
AcDbLine
 39
0.0
 10
-157.224388
 20
-100.950137
 30
0.0
 11
-156.772034
 21
-100.315825
 31
0.0
  0
LINE
  5
2FFB7
100
AcDbEntity
  8
DETAIL
100
AcDbLine
 39
0.0
 10
-88.041088
 20
-100.257263
 30
0.0
 11
-86.502919
 21
-100.257263
 31
0.0
  0
LINE
  5
2FFB9
100
AcDbEntity
  8
DETAIL
100
AcDbLine
 39
0.0
 10
-86.502919
 20
-100.257263
 30
0.0
 11
-86.502919
 21
-98.326006
 31
0.0
  0
LINE
  5
2FFBB
100
AcDbEntity
  8
DETAIL
100
AcDbLine
 39
0.0
 10
423.5
 20
32.0
 30
0.0
 11
423.5
 21
97.0
 31
0.0
  0
LINE
  5
2FFBD
100
AcDbEntity
  8
DETAIL
100
AcDbLine
 39
0.0
 10
-82.235923
 20
-92.856959
 30
0.0
 11
-81.768776
 21
-94.457795
 31
0.0
  0
ARC
  5
2FFD0
100
AcDbEntity
  8
DETAIL
100
AcDbCircle
 39
0.0
 10
297.5
 20
-157.9
 30
0.0
 40
2.5
100
AcDbArc
 50
237.14012
 51
270.0
  0
LINE
  5
2FFE1
100
AcDbEntity
  8
DETAIL
100
AcDbLine
 39
0.0
 10
-83.905122
 20
-96.18966
 30
0.0
 11
-82.771434
 21
-96.18966
 31
0.0
  0
LINE
  5
2FFE2
100
AcDbEntity
  8
DETAIL
100
AcDbLine
 39
0.0
 10
-139.099972
 20
-94.573395
 30
0.0
 11
-135.698909
 21
-94.573395
 31
0.0
  0
LINE
  5
2FFE7
100
AcDbEntity
  8
DETAIL
100
AcDbLine
 39
0.0
 10
-82.771434
 20
-96.18966
 30
0.0
 11
-82.771434
 21
-101.328285
 31
0.0
  0
LINE
  5
2FFE8
100
AcDbEntity
  8
DETAIL
100
AcDbLine
 39
0.0
 10
-83.905122
 20
-98.326006
 30
0.0
 11
-85.369231
 21
-98.326006
 31
0.0
  0
LINE
  5
2FFEB
100
AcDbEntity
  8
DETAIL
100
AcDbLine
 39
0.0
 10
-87.573941
 20
-96.126993
 30
0.0
 11
-88.639265
 21
-96.8562
 31
0.0
  0
LINE
  5
2FFF2
100
AcDbEntity
  8
DETAIL
100
AcDbLine
 39
0.0
 10
-148.825334
 20
-94.633559
 30
0.0
 11
-147.287164
 21
-94.633559
 31
0.0
  0
ARC
  5
2FFF7
100
AcDbEntity
  8
DETAIL
100
AcDbCircle
 39
0.0
 10
-178.55
 20
140.0
 30
0.0
 40
7.0
100
AcDbArc
 50
180.0
 51
270.0
  0
LINE
  5
2FFF9
100
AcDbEntity
  8
DETAIL
100
AcDbLine
 39
0.0
 10
278.5
 20
93.35
 30
0.0
 11
278.5
 21
160.0
 31
0.0
  0
ARC
  5
2FFFB
100
AcDbEntity
  8
DETAIL
100
AcDbCircle
 39
0.0
 10
-407.4
 20
-96.5
 30
0.0
 40
16.0
100
AcDbArc
 50
90.0
 51
180.0
  0
LINE
  5
30002
100
AcDbEntity
  8
DETAIL
100
AcDbLine
 39
0.0
 10
-105.291665
 20
-95.601039
 30
0.0
 11
-105.291665
 21
-96.398608
 31
0.0
  0
LINE
  5
30003
100
AcDbEntity
  8
DETAIL
100
AcDbLine
 39
0.0
 10
-105.5
 20
-112.5
 30
0.0
 11
-98.5
 21
-112.5
 31
0.0
  0
ARC
  5
30005
100
AcDbEntity
  8
DETAIL
100
AcDbCircle
 39
0.0
 10
407.5
 20
97.0
 30
0.0
 40
16.0
100
AcDbArc
 50
0.0
 51
90.0
  0
LINE
  5
3000A
100
AcDbEntity
  8
DETAIL
100
AcDbLine
 39
0.0
 10
-89.532603
 20
-102.792726
 30
0.0
 11
-89.475235
 21
-102.764042
 31
0.0
  0
LINE
  5
3000B
100
AcDbEntity
  8
DETAIL
100
AcDbLine
 39
0.0
 10
-89.396342
 20
-102.765753
 30
0.0
 11
-89.296122
 21
-102.797958
 31
0.0
  0
LINE
  5
3000C
100
AcDbEntity
  8
DETAIL
100
AcDbLine
 39
0.0
 10
-89.475235
 20
-102.764042
 30
0.0
 11
-89.396342
 21
-102.765753
 31
0.0
  0
LINE
  5
3000D
100
AcDbEntity
  8
DETAIL
100
AcDbLine
 39
0.0
 10
-89.296122
 20
-102.797958
 30
0.0
 11
-89.174776
 21
-102.860757
 31
0.0
  0
LINE
  5
3000E
100
AcDbEntity
  8
DETAIL
100
AcDbLine
 39
0.0
 10
-89.568246
 20
-102.851705
 30
0.0
 11
-89.532603
 21
-102.792726
 31
0.0
  0
LINE
  5
3000F
100
AcDbEntity
  8
DETAIL
100
AcDbLine
 39
0.0
 10
-89.573561
 20
-103.060149
 30
0.0
 11
-89.581965
 21
-102.940879
 31
0.0
  0
LINE
  5
30010
100
AcDbEntity
  8
DETAIL
100
AcDbLine
 39
0.0
 10
-89.581965
 20
-102.940879
 30
0.0
 11
-89.568246
 21
-102.851705
 31
0.0
  0
ARC
  5
30013
100
AcDbEntity
  8
DETAIL
100
AcDbCircle
 39
0.0
 10
262.5
 20
93.35
 30
0.0
 40
16.0
100
AcDbArc
 50
270.0
 51
0.0
  0
LINE
  5
30014
100
AcDbEntity
  8
DETAIL
100
AcDbLine
 39
0.0
 10
333.6
 20
-160.0
 30
0.0
 11
334.0
 21
-160.4
 31
0.0
  0
LINE
  5
30019
100
AcDbEntity
  8
DETAIL
100
AcDbLine
 39
0.0
 10
-178.55
 20
133.0
 30
0.0
 11
-79.55
 21
133.0
 31
0.0
  0
LINE
  5
3001B
100
AcDbEntity
  8
DETAIL
100
AcDbLine
 39
0.0
 10
-106.624745
 20
-95.601039
 30
0.0
 11
-105.291665
 21
-95.601039
 31
0.0
  0
ARC
  5
30023
100
AcDbEntity
  8
DETAIL
100
AcDbCircle
 39
0.0
 10
430.116297
 20
-157.9
 30
0.0
 40
2.5
100
AcDbArc
 50
270.0
 51
302.85988
  0
LINE
  5
30026
100
AcDbEntity
  8
DETAIL
100
AcDbLine
 39
0.0
 10
-249.05
 20
129.0
 30
0.0
 11
-249.05
 21
160.0
 31
0.0
  0
ARC
  5
30027
100
AcDbEntity
  8
DETAIL
100
AcDbCircle
 39
0.0
 10
407.5
 20
-121.5
 30
0.0
 40
16.0
100
AcDbArc
 50
270.0
 51
0.0
  0
LINE
  5
30028
100
AcDbEntity
  8
DETAIL
100
AcDbLine
 39
0.0
 10
470.0
 20
137.0
 30
0.0
 11
470.0
 21
-137.0
 31
0.0
  0
LINE
  5
3002A
100
AcDbEntity
  8
DETAIL
100
AcDbLine
 39
0.0
 10
-407.4
 20
-137.5
 30
0.0
 11
407.5
 21
-137.5
 31
0.0
  0
LINE
  5
30030
100
AcDbEntity
  8
DETAIL
100
AcDbLine
 39
0.0
 10
-98.358508
 20
-92.667123
 30
0.0
 11
-97.025428
 21
-92.667123
 31
0.0
  0
ARC
  5
30032
100
AcDbEntity
  8
DETAIL
100
AcDbCircle
 39
0.0
 10
407.5
 20
-96.5
 30
0.0
 40
16.0
100
AcDbArc
 50
0.0
 51
90.0
  0
LINE
  5
30033
100
AcDbEntity
  8
DETAIL
100
AcDbLine
 39
0.0
 10
-82.54864
 20
-92.939174
 30
0.0
 11
-82.517365
 21
-92.851395
 31
0.0
  0
LINE
  5
30034
100
AcDbEntity
  8
DETAIL
100
AcDbLine
 39
0.0
 10
-82.37431
 20
-92.765443
 30
0.0
 11
-82.309551
 21
-92.796253
 31
0.0
  0
LINE
  5
30035
100
AcDbEntity
  8
DETAIL
100
AcDbLine
 39
0.0
 10
-82.517365
 20
-92.851395
 30
0.0
 11
-82.478018
 21
-92.793114
 31
0.0
  0
LINE
  5
30036
100
AcDbEntity
  8
DETAIL
100
AcDbLine
 39
0.0
 10
-82.478018
 20
-92.793114
 30
0.0
 11
-82.430399
 21
-92.76443
 31
0.0
  0
LINE
  5
30037
100
AcDbEntity
  8
DETAIL
100
AcDbLine
 39
0.0
 10
-82.309551
 20
-92.796253
 30
0.0
 11
-82.235923
 21
-92.856959
 31
0.0
  0
LINE
  5
30038
100
AcDbEntity
  8
DETAIL
100
AcDbLine
 39
0.0
 10
-82.572042
 20
-93.056352
 30
0.0
 11
-82.54864
 21
-92.939174
 31
0.0
  0
LINE
  5
30039
100
AcDbEntity
  8
DETAIL
100
AcDbLine
 39
0.0
 10
-82.430399
 20
-92.76443
 30
0.0
 11
-82.37431
 21
-92.765443
 31
0.0
  0
LINE
  5
3003E
100
AcDbEntity
  8
DETAIL
100
AcDbLine
 39
0.0
 10
-98.358508
 20
-103.867275
 30
0.0
 11
-98.358508
 21
-92.667123
 31
0.0
  0
LINE
  5
3003F
100
AcDbEntity
  8
DETAIL
100
AcDbLine
 39
0.0
 10
317.5
 20
-179.0
 30
0.0
 11
317.5
 21
-174.0
 31
0.0
  0
LINE
  5
30042
100
AcDbEntity
  8
DETAIL
100
AcDbLine
 39
0.0
 10
-88.041088
 20
-98.326006
 30
0.0
 11
-88.041088
 21
-100.257263
 31
0.0
  0
LINE
  5
3004A
100
AcDbEntity
  8
DETAIL
100
AcDbLine
 39
0.0
 10
-122.818766
 20
-104.128943
 30
0.0
 11
-120.619754
 21
-98.859289
 31
0.0
  0
LINE
  5
3004B
100
AcDbEntity
  8
DETAIL
100
AcDbLine
 39
0.0
 10
-101.759572
 20
-97.663325
 30
0.0
 11
-105.291665
 21
-97.663325
 31
0.0
  0
LINE
  5
3005F
100
AcDbEntity
  8
DETAIL
100
AcDbLine
 39
0.0
 10
-93.041144
 20
-95.88259
 30
0.0
 11
-93.105654
 21
-96.525778
 31
0.0
  0
LINE
  5
30060
100
AcDbEntity
  8
DETAIL
100
AcDbLine
 39
0.0
 10
-92.470953
 20
-95.122142
 30
0.0
 11
-92.617678
 21
-94.947165
 31
0.0
  0
LINE
  5
30061
100
AcDbEntity
  8
DETAIL
100
AcDbLine
 39
0.0
 10
-92.748159
 20
-94.935622
 30
0.0
 11
-92.862297
 21
-95.087612
 31
0.0
  0
LINE
  5
30062
100
AcDbEntity
  8
DETAIL
100
AcDbLine
 39
0.0
 10
-92.959992
 20
-95.403235
 30
0.0
 11
-93.041144
 21
-95.88259
 31
0.0
  0
LINE
  5
30063
100
AcDbEntity
  8
DETAIL
100
AcDbLine
 39
0.0
 10
-92.308084
 20
-95.460453
 30
0.0
 11
-92.470953
 21
-95.122142
 31
0.0
  0
LINE
  5
30064
100
AcDbEntity
  8
DETAIL
100
AcDbLine
 39
0.0
 10
-92.862297
 20
-95.087612
 30
0.0
 11
-92.959992
 21
-95.403235
 31
0.0
  0
LINE
  5
30065
100
AcDbEntity
  8
DETAIL
100
AcDbLine
 39
0.0
 10
-92.617678
 20
-94.947165
 30
0.0
 11
-92.748159
 21
-94.935622
 31
0.0
  0
LINE
  5
30066
100
AcDbEntity
  8
DETAIL
100
AcDbLine
 39
0.0
 10
-127.023096
 20
-94.392901
 30
0.0
 11
-125.821045
 21
-97.326816
 31
0.0
  0
ARC
  5
30067
100
AcDbEntity
  8
DETAIL
100
AcDbCircle
 39
0.0
 10
-429.4
 20
-180.026334
 30
0.0
 40
20.0
100
AcDbArc
 50
256.039001
 51
266.983039
  0
ARC
  5
30069
100
AcDbEntity
  8
DETAIL
100
AcDbCircle
 39
0.0
 10
-139.4
 20
-160.026334
 30
0.0
 40
300.0
100
AcDbArc
 50
179.994971
 51
186.893538
  0
LINE
  5
3006A
100
AcDbEntity
  8
DETAIL
100
AcDbLine
 39
0.0
 10
-139.099972
 20
-105.972939
 30
0.0
 11
-139.099972
 21
-104.508829
 31
0.0
  0
LINE
  5
3006B
100
AcDbEntity
  8
DETAIL
100
AcDbLine
 39
0.0
 10
-139.099972
 20
-104.508829
 30
0.0
 11
-138.165677
 21
-104.508829
 31
0.0
  0
CIRCLE
  5
3006C
100
AcDbEntity
  8
DETAIL
100
AcDbCircle
 39
0.0
 10
-114.12172
 20
-98.843118
 30
0.0
 40
1.0
  0
LINE
  5
3006D
100
AcDbEntity
  8
DETAIL
100
AcDbLine
 39
0.0
 10
-117.019298
 20
-94.392901
 30
0.0
 11
-122.08956
 21
-105.929171
 31
0.0
  0
LINE
  5
3006E
100
AcDbEntity
  8
DETAIL
100
AcDbLine
 39
0.0
 10
-89.70459
 20
-92.925322
 30
0.0
 11
-89.106413
 21
-93.922284
 31
0.0
  0
LINE
  5
3006F
100
AcDbEntity
  8
DETAIL
100
AcDbLine
 39
0.0
 10
-93.105654
 20
-96.525778
 30
0.0
 11
-94.307704
 21
-95.523119
 31
0.0
  0
LINE
  5
30073
100
AcDbEntity
  8
DETAIL
100
AcDbLine
 39
0.0
 10
-108.960483
 20
-92.59876
 30
0.0
 11
-107.029226
 21
-92.59876
 31
0.0
  0
LINE
  5
30075
100
AcDbEntity
  8
DETAIL
100
AcDbLine
 39
0.0
 10
-125.821045
 20
-97.326816
 30
0.0
 11
-119.953213
 21
-97.326816
 31
0.0
  0
LINE
  5
3007A
100
AcDbEntity
  8
DETAIL
100
AcDbLine
 39
0.0
 10
-101.759572
 20
-100.466212
 30
0.0
 11
-101.759572
 21
-97.663325
 31
0.0
  0
LINE
  5
3008D
100
AcDbEntity
  8
DETAIL
100
AcDbLine
 39
0.0
 10
-110.025808
 20
-105.131992
 30
0.0
 11
-110.025808
 21
-93.664085
 31
0.0
  0
LINE
  5
3008E
100
AcDbEntity
  8
DETAIL
100
AcDbLine
 39
0.0
 10
-98.5
 20
-112.5
 30
0.0
 11
-118.5
 21
-127.5
 31
0.0
  0
LINE
  5
30092
100
AcDbEntity
  8
DETAIL
100
AcDbLine
 39
0.0
 10
-119.953213
 20
-97.326816
 30
0.0
 11
-118.751163
 21
-94.392901
 31
0.0
  0
LINE
  5
30095
100
AcDbEntity
  8
DETAIL
100
AcDbLine
 39
0.0
 10
-101.759572
 20
-105.131992
 30
0.0
 11
-102.76223
 21
-107.59876
 31
0.0
  0
LINE
  5
30097
100
AcDbEntity
  8
DETAIL
100
AcDbLine
 39
0.0
 10
-85.369231
 20
-97.260681
 30
0.0
 11
-83.905122
 21
-97.260681
 31
0.0
  0
LINE
  5
30098
100
AcDbEntity
  8
DETAIL
100
AcDbLine
 39
0.0
 10
158.5
 20
-199.998614
 30
0.0
 11
174.552632
 21
-199.998614
 31
0.0
  0
LINE
  5
3009A
100
AcDbEntity
  8
DETAIL
100
AcDbLine
 39
0.0
 10
-89.174776
 20
-97.260681
 30
0.0
 11
-86.502919
 21
-97.260681
 31
0.0
  0
LINE
  5
300A0
100
AcDbEntity
  8
DETAIL
100
AcDbLine
 39
0.0
 10
-139.099972
 20
-96.043201
 30
0.0
 11
-139.099972
 21
-94.573395
 31
0.0
  0
LINE
  5
300A1
100
AcDbEntity
  8
DETAIL
100
AcDbLine
 39
0.0
 10
-102.76223
 20
-107.59876
 30
0.0
 11
-104.357369
 21
-107.000583
 31
0.0
  0
LINE
  5
300A2
100
AcDbEntity
  8
DETAIL
100
AcDbLine
 39
0.0
 10
-153.758869
 20
-100.63242
 30
0.0
 11
-154.173039
 21
-100.66323
 31
0.0
  0
LINE
  5
300A3
100
AcDbEntity
  8
DETAIL
100
AcDbLine
 39
0.0
 10
-154.173039
 20
-100.66323
 30
0.0
 11
-154.555949
 21
-100.75566
 31
0.0
  0
LINE
  5
300A4
100
AcDbEntity
  8
DETAIL
100
AcDbLine
 39
0.0
 10
-155.516931
 20
-101.404143
 30
0.0
 11
-155.728406
 21
-101.763578
 31
0.0
  0
LINE
  5
300A5
100
AcDbEntity
  8
DETAIL
100
AcDbLine
 39
0.0
 10
-155.833286
 20
-103.257877
 30
0.0
 11
-155.678042
 21
-103.689227
 31
0.0
  0
LINE
  5
300A6
100
AcDbEntity
  8
DETAIL
100
AcDbLine
 39
0.0
 10
-155.229346
 20
-101.125382
 30
0.0
 11
-155.516931
 21
-101.404143
 31
0.0
  0
LINE
  5
300A7
100
AcDbEntity
  8
DETAIL
100
AcDbLine
 39
0.0
 10
-155.889285
 20
-102.739433
 30
0.0
 11
-155.833286
 21
-103.257877
 31
0.0
  0
LINE
  5
300A8
100
AcDbEntity
  8
DETAIL
100
AcDbLine
 39
0.0
 10
-154.907938
 20
-100.909711
 30
0.0
 11
-155.229346
 21
-101.125382
 31
0.0
  0
LINE
  5
300A9
100
AcDbEntity
  8
DETAIL
100
AcDbLine
 39
0.0
 10
-155.852211
 20
-102.208812
 30
0.0
 11
-155.889285
 21
-102.739433
 31
0.0
  0
LINE
  5
300AA
100
AcDbEntity
  8
DETAIL
100
AcDbLine
 39
0.0
 10
-154.555949
 20
-100.75566
 30
0.0
 11
-154.907938
 21
-100.909711
 31
0.0
  0
LINE
  5
300AB
100
AcDbEntity
  8
DETAIL
100
AcDbLine
 39
0.0
 10
-155.728406
 20
-101.763578
 30
0.0
 11
-155.852211
 21
-102.208812
 31
0.0
  0
LINE
  5
300AC
100
AcDbEntity
  8
DETAIL
100
AcDbLine
 39
0.0
 10
-155.678042
 20
-103.689227
 30
0.0
 11
-155.422371
 21
-104.033483
 31
0.0
  0
LINE
  5
300AD
100
AcDbEntity
  8
DETAIL
100
AcDbLine
 39
0.0
 10
-61.05
 20
169.4
 30
0.0
 11
-61.05
 21
65.6
 31
0.0
  0
LINE
  5
300B1
100
AcDbEntity
  8
DETAIL
100
AcDbLine
 39
0.0
 10
-86.502919
 20
-94.657187
 30
0.0
 11
-88.570902
 21
-94.856579
 31
0.0
  0
ARC
  5
300B3
100
AcDbEntity
  8
DETAIL
100
AcDbCircle
 39
0.0
 10
407.5
 20
-45.0
 30
0.0
 40
16.0
100
AcDbArc
 50
270.0
 51
0.0
  0
LINE
  5
300B4
100
AcDbEntity
  8
DETAIL
100
AcDbLine
 39
0.0
 10
-131.5
 20
-112.5
 30
0.0
 11
-131.5
 21
-108.5
 31
0.0
  0
LINE
  5
300B5
100
AcDbEntity
  8
DETAIL
100
AcDbLine
 39
0.0
 10
-197.05
 20
65.6
 30
0.0
 11
-197.05
 21
169.4
 31
0.0
  0
LINE
  5
300B9
100
AcDbEntity
  8
DETAIL
100
AcDbLine
 39
0.0
 10
407.5
 20
113.0
 30
0.0
 11
364.5
 21
113.0
 31
0.0
  0
LINE
  5
300BB
100
AcDbEntity
  8
DETAIL
100
AcDbLine
 39
0.0
 10
-61.05
 20
168.344624
 30
0.0
 11
-61.05
 21
168.4
 31
0.0
  0
LINE
  5
300BD
100
AcDbEntity
  8
DETAIL
100
AcDbLine
 39
0.0
 10
-430.452632
 20
-199.998614
 30
0.0
 11
-414.4
 21
-199.998614
 31
0.0
  0
LINE
  5
300BF
100
AcDbEntity
  8
DETAIL
100
AcDbLine
 39
0.0
 10
-447.0
 20
160.0
 30
0.0
 11
-235.55
 21
160.0
 31
0.0
  0
ARC
  5
300C2
100
AcDbEntity
  8
DETAIL
100
AcDbCircle
 39
0.0
 10
-77.419779
 20
-86.055335
 30
0.0
 40
15.573553
100
AcDbArc
 50
209.49481
 51
223.9109
  0
ARC
  5
300C3
100
AcDbEntity
  8
DETAIL
100
AcDbCircle
 39
0.0
 10
-185.05
 20
65.6
 30
0.0
 40
12.0
100
AcDbArc
 50
180.0
 51
270.0
  0
LINE
  5
300C4
100
AcDbEntity
  8
DETAIL
100
AcDbLine
 39
0.0
 10
-79.438734
 20
-92.389811
 30
0.0
 11
-78.504438
 21
-93.660225
 31
0.0
  0
ARC
  5
300C8
100
AcDbEntity
  8
DETAIL
100
AcDbCircle
 39
0.0
 10
-116.5
 20
-160.026334
 30
0.0
 40
300.0
100
AcDbArc
 50
353.106462
 51
0.005029
  0
LINE
  5
300CA
100
AcDbEntity
  8
DETAIL
100
AcDbLine
 39
0.0
 10
-81.706109
 20
-105.190799
 30
0.0
 11
-81.706109
 21
-97.927221
 31
0.0
  0
LINE
  5
300CC
100
AcDbEntity
  8
DETAIL
100
AcDbLine
 39
0.0
 10
-108.692728
 20
-103.867275
 30
0.0
 11
-98.358508
 21
-103.867275
 31
0.0
  0
LINE
  5
300CF
100
AcDbEntity
  8
DETAIL
100
AcDbLine
 39
0.0
 10
-148.825334
 20
-99.16831
 30
0.0
 11
-148.825334
 21
-94.633559
 31
0.0
  0
LINE
  5
300D3
100
AcDbEntity
  8
DETAIL
100
AcDbLine
 39
0.0
 10
447.0
 20
-160.0
 30
0.0
 11
-447.0
 21
-160.0
 31
0.0
  0
LINE
  5
300D4
100
AcDbEntity
  8
DETAIL
100
AcDbLine
 39
0.0
 10
-106.8925
 20
-94.06287
 30
0.0
 11
-108.424973
 21
-94.06287
 31
0.0
  0
LINE
  5
300D5
100
AcDbEntity
  8
DETAIL
100
AcDbLine
 39
0.0
 10
-89.174776
 20
-102.860757
 30
0.0
 11
-86.502919
 21
-102.661365
 31
0.0
  0
LINE
  5
300D7
100
AcDbEntity
  8
DETAIL
100
AcDbLine
 39
0.0
 10
-253.55
 20
160.0
 30
0.0
 11
-253.65
 21
160.0
 31
0.0
  0
LINE
  5
300F2
100
AcDbEntity
  8
DETAIL
100
AcDbLine
 39
0.0
 10
-253.55
 20
159.998913
 30
0.0
 11
-253.55
 21
160.0
 31
0.0
  0
LINE
  5
300F3
100
AcDbEntity
  8
DETAIL
100
AcDbLine
 39
0.0
 10
-407.4
 20
-61.0
 30
0.0
 11
407.5
 21
-61.0
 31
0.0
  0
LINE
  5
300F5
100
AcDbEntity
  8
DETAIL
100
AcDbLine
 39
0.0
 10
-81.768776
 20
-94.457795
 30
0.0
 11
-85.369231
 21
-94.588824
 31
0.0
  0
LINE
  5
300F6
100
AcDbEntity
  8
DETAIL
100
AcDbLine
 39
0.0
 10
-90.975004
 20
-93.722892
 30
0.0
 11
-89.70459
 21
-92.925322
 31
0.0
  0
LINE
  5
300F7
100
AcDbEntity
  8
DETAIL
100
AcDbLine
 39
0.0
 10
-91.70421
 20
-106.461213
 30
0.0
 11
-91.70421
 21
-99.659086
 31
0.0
  0
LINE
  5
300F8
100
AcDbEntity
  8
DETAIL
100
AcDbLine
 39
0.0
 10
-94.224642
 20
-94.91413
 30
0.0
 11
-94.131515
 21
-94.381177
 31
0.0
  0
LINE
  5
300F9
100
AcDbEntity
  8
DETAIL
100
AcDbLine
 39
0.0
 10
-93.913869
 20
-93.54338
 30
0.0
 11
-93.788753
 21
-93.238537
 31
0.0
  0
LINE
  5
300FA
100
AcDbEntity
  8
DETAIL
100
AcDbLine
 39
0.0
 10
-93.788753
 20
-93.238537
 30
0.0
 11
-93.652376
 21
-93.00973
 31
0.0
  0
LINE
  5
300FB
100
AcDbEntity
  8
DETAIL
100
AcDbLine
 39
0.0
 10
-94.028024
 20
-93.92426
 30
0.0
 11
-93.913869
 21
-93.54338
 31
0.0
  0
LINE
  5
300FC
100
AcDbEntity
  8
DETAIL
100
AcDbLine
 39
0.0
 10
-94.131515
 20
-94.381177
 30
0.0
 11
-94.028024
 21
-93.92426
 31
0.0
  0
LINE
  5
300FD
100
AcDbEntity
  8
DETAIL
100
AcDbLine
 39
0.0
 10
-93.652376
 20
-93.00973
 30
0.0
 11
-93.504438
 21
-92.856959
 31
0.0
  0
LINE
  5
300FE
100
AcDbEntity
  8
DETAIL
100
AcDbLine
 39
0.0
 10
-94.307704
 20
-95.523119
 30
0.0
 11
-94.224642
 21
-94.91413
 31
0.0
  0
LINE
  5
300FF
100
AcDbEntity
  8
DETAIL
100
AcDbLine
 39
0.0
 10
-82.771434
 20
-101.328285
 30
0.0
 11
-85.369231
 21
-101.328285
 31
0.0
  0
LINE
  5
30117
100
AcDbEntity
  8
DETAIL
100
AcDbLine
 39
0.0
 10
302.5
 20
-174.0
 30
0.0
 11
302.5
 21
-179.0
 31
0.0
  0
ARC
  5
3011A
100
AcDbEntity
  8
DETAIL
100
AcDbCircle
 39
0.0
 10
310.0
 20
-179.0
 30
0.0
 40
7.5
100
AcDbArc
 50
180.0
 51
0.0
  0
LINE
  5
3011E
100
AcDbEntity
  8
DETAIL
100
AcDbLine
 39
0.0
 10
-156.157274
 20
-94.633559
 30
0.0
 11
-152.625182
 21
-99.16831
 31
0.0
  0
LINE
  5
30120
100
AcDbEntity
  8
DETAIL
100
AcDbLine
 39
0.0
 10
-85.369231
 20
-94.588824
 30
0.0
 11
-85.369231
 21
-97.260681
 31
0.0
  0
ARC
  5
30122
100
AcDbEntity
  8
DETAIL
100
AcDbCircle
 39
0.0
 10
-433.260182
 20
-195.553697
 30
0.0
 40
4.0
100
AcDbArc
 50
186.893538
 51
256.039001
  0
LINE
  5
30123
100
AcDbEntity
  8
DETAIL
100
AcDbLine
 39
0.0
 10
-83.905122
 20
-97.260681
 30
0.0
 11
-83.905122
 21
-96.18966
 31
0.0
  0
LINE
  5
30124
100
AcDbEntity
  8
DETAIL
100
AcDbLine
 39
0.0
 10
-148.825334
 20
-100.63242
 30
0.0
 11
-153.758869
 21
-100.63242
 31
0.0
  0
LINE
  5
3012A
100
AcDbEntity
  8
DETAIL
100
AcDbLine
 39
0.0
 10
-407.4
 20
16.0
 30
0.0
 11
407.5
 21
16.0
 31
0.0
  0
LINE
  5
3012D
100
AcDbEntity
  8
DETAIL
100
AcDbLine
 39
0.0
 10
-235.55
 20
160.0
 30
0.0
 11
-223.406727
 21
172.593024
 31
0.0
  0
LINE
  5
3012E
100
AcDbEntity
  8
DETAIL
100
AcDbLine
 39
0.0
 10
-33.693273
 20
172.593024
 30
0.0
 11
-21.55
 21
160.0
 31
0.0
  0
LINE
  5
3012F
100
AcDbEntity
  8
DETAIL
100
AcDbLine
 39
0.0
 10
-101.759572
 20
-95.196558
 30
0.0
 11
-100.426492
 21
-95.196558
 31
0.0
  0
LINE
  5
30130
100
AcDbEntity
  8
DETAIL
100
AcDbLine
 39
0.0
 10
-100.426492
 20
-95.196558
 30
0.0
 11
-100.426492
 21
-101.730929
 31
0.0
  0
LINE
  5
30132
100
AcDbEntity
  8
DETAIL
100
AcDbLine
 39
0.0
 10
-138.5
 20
-112.5
 30
0.0
 11
-131.5
 21
-112.5
 31
0.0
  0
LINE
  5
30134
100
AcDbEntity
  8
DETAIL
100
AcDbLine
 39
0.0
 10
-125.154505
 20
-98.859289
 30
0.0
 11
-122.955492
 21
-104.128943
 31
0.0
  0
LINE
  5
3013A
100
AcDbEntity
  8
DETAIL
100
AcDbLine
 39
0.0
 10
-100.426492
 20
-101.730929
 30
0.0
 11
-106.624745
 21
-101.730929
 31
0.0
  0
LINE
  5
3013C
100
AcDbEntity
  8
DETAIL
100
AcDbLine
 39
0.0
 10
-72.55
 20
140.0
 30
0.0
 11
-72.55
 21
157.0
 31
0.0
  0
LINE
  5
3013F
100
AcDbEntity
  8
DETAIL
100
AcDbLine
 39
0.0
 10
-89.106413
 20
-93.922284
 30
0.0
 11
-82.572042
 21
-93.056352
 31
0.0
  0
LINE
  5
30142
100
AcDbEntity
  8
DETAIL
100
AcDbLine
 39
0.0
 10
-220.095443
 20
174.0
 30
0.0
 11
-37.004557
 21
174.0
 31
0.0
  0
LINE
  5
30144
100
AcDbEntity
  8
DETAIL
100
AcDbLine
 39
0.0
 10
-118.751163
 20
-94.392901
 30
0.0
 11
-117.019298
 21
-94.392901
 31
0.0
  0
LINE
  5
30145
100
AcDbEntity
  8
DETAIL
100
AcDbLine
 39
0.0
 10
-120.619754
 20
-98.859289
 30
0.0
 11
-125.154505
 21
-98.859289
 31
0.0
  0
ARC
  5
30146
100
AcDbEntity
  8
DETAIL
100
AcDbCircle
 39
0.0
 10
177.360182
 20
-195.553697
 30
0.0
 40
4.0
100
AcDbArc
 50
283.960999
 51
353.106462
  0
LINE
  5
30147
100
AcDbEntity
  8
DETAIL
100
AcDbLine
 39
0.0
 10
-265.05
 20
113.0
 30
0.0
 11
-407.4
 21
113.0
 31
0.0
  0
ARC
  5
30149
100
AcDbEntity
  8
DETAIL
100
AcDbCircle
 39
0.0
 10
-253.65
 20
155.4
 30
0.0
 40
4.6
100
AcDbArc
 50
88.754341
 51
90.0
  0
ARC
  5
3014A
100
AcDbEntity
  8
DETAIL
100
AcDbCircle
 39
0.0
 10
-407.4
 20
-45.0
 30
0.0
 40
16.0
100
AcDbArc
 50
180.0
 51
270.0
  0
LINE
  5
3014C
100
AcDbEntity
  8
DETAIL
100
AcDbLine
 39
0.0
 10
-105.5
 20
-108.5
 30
0.0
 11
-105.5
 21
-112.5
 31
0.0
  0
LINE
  5
3014F
100
AcDbEntity
  8
DETAIL
100
AcDbLine
 39
0.0
 10
-83.905122
 20
-100.257263
 30
0.0
 11
-83.905122
 21
-98.326006
 31
0.0
  0
LINE
  5
30153
100
AcDbEntity
  8
DETAIL
100
AcDbLine
 39
0.0
 10
-470.0
 20
-137.0
 30
0.0
 11
-470.0
 21
137.0
 31
0.0
  0
LINE
  5
30158
100
AcDbEntity
  8
DETAIL
100
AcDbLine
 39
0.0
 10
-154.42541
 20
-99.236674
 30
0.0
 11
-158.356287
 21
-94.633559
 31
0.0
  0
LINE
  5
30159
100
AcDbEntity
  8
DETAIL
100
AcDbLine
 39
0.0
 10
262.5
 20
77.35
 30
0.0
 11
10.95
 21
77.35
 31
0.0
  0
LINE
  5
3015D
100
AcDbEntity
  8
DETAIL
100
AcDbLine
 39
0.0
 10
-86.502919
 20
-98.326006
 30
0.0
 11
-88.041088
 21
-98.326006
 31
0.0
  0
ARC
  5
3015E
100
AcDbEntity
  8
DETAIL
100
AcDbCircle
 39
0.0
 10
-407.4
 20
97.0
 30
0.0
 40
16.0
100
AcDbArc
 50
90.0
 51
180.0
  0
LINE
  5
3015F
100
AcDbEntity
  8
DETAIL
100
AcDbLine
 39
0.0
 10
-92.52279
 20
-92.751724
 30
0.0
 11
-92.189528
 21
-92.998934
 31
0.0
  0
LINE
  5
30160
100
AcDbEntity
  8
DETAIL
100
AcDbLine
 39
0.0
 10
-93.504438
 20
-92.856959
 30
0.0
 11
-93.180444
 21
-92.680836
 31
0.0
  0
LINE
  5
30161
100
AcDbEntity
  8
DETAIL
100
AcDbLine
 39
0.0
 10
-92.189528
 20
-92.998934
 30
0.0
 11
-91.853576
 21
-93.387454
 31
0.0
  0
LINE
  5
30162
100
AcDbEntity
  8
DETAIL
100
AcDbLine
 39
0.0
 10
-91.515132
 20
-93.917384
 30
0.0
 11
-91.174396
 21
-94.588824
 31
0.0
  0
LINE
  5
30163
100
AcDbEntity
  8
DETAIL
100
AcDbLine
 39
0.0
 10
-91.853576
 20
-93.387454
 30
0.0
 11
-91.515132
 21
-93.917384
 31
0.0
  0
LINE
  5
30164
100
AcDbEntity
  8
DETAIL
100
AcDbLine
 39
0.0
 10
-92.853162
 20
-92.645725
 30
0.0
 11
-92.52279
 21
-92.751724
 31
0.0
  0
LINE
  5
30165
100
AcDbEntity
  8
DETAIL
100
AcDbLine
 39
0.0
 10
-93.180444
 20
-92.680836
 30
0.0
 11
-92.853162
 21
-92.645725
 31
0.0
  0
LINE
  5
30168
100
AcDbEntity
  8
DETAIL
100
AcDbLine
 39
0.0
 10
-86.502919
 20
-101.328285
 30
0.0
 11
-89.174776
 21
-101.328285
 31
0.0
  0
LINE
  5
3016B
100
AcDbEntity
  8
NOTE
  6
DASHDOT2
100
AcDbLine
 39
0.0
 10
425.0
 20
-134.0
 30
0.0
 11
425.0
 21
-94.0
 31
0.0
  0
LINE
  5
3016C
100
AcDbEntity
  8
NOTE
  6
DASHDOT2
100
AcDbLine
 39
0.0
 10
445.0
 20
-114.0
 30
0.0
 11
405.0
 21
-114.0
 31
0.0
  0
CIRCLE
  5
3016D
100
AcDbEntity
  8
FIX
100
AcDbCircle
 39
0.0
 10
-310.0
 20
175.0
 30
0.0
 40
10.0
  0
CIRCLE
  5
3016E
100
AcDbEntity
  8
FIX
100
AcDbCircle
 39
0.0
 10
310.0
 20
175.0
 30
0.0
 40
10.0
  0
CIRCLE
  5
3016F
100
AcDbEntity
  8
FIX
100
AcDbCircle
 39
0.0
 10
-310.0
 20
-175.0
 30
0.0
 40
10.0
  0
CIRCLE
  5
30170
100
AcDbEntity
  8
FIX
100
AcDbCircle
 39
0.0
 10
310.0
 20
-175.0
 30
0.0
 40
10.0
  0
ARC
  5
30177
100
AcDbEntity
  8
DETAIL
100
AcDbCircle
 39
0.0
 10
-65.65
 20
169.4
 30
0.0
 40
4.6
100
AcDbArc
 50
0.0
 51
90.0
  0
ARC
  5
30178
100
AcDbEntity
  8
DETAIL
100
AcDbCircle
 39
0.0
 10
-192.45
 20
169.4
 30
0.0
 40
4.6
100
AcDbArc
 50
90.0
 51
180.0
  0
ARC
  5
30191
100
AcDbEntity
  8
DETAIL
100
AcDbCircle
 39
0.0
 10
-220.095443
 20
169.4
 30
0.0
 40
4.6
100
AcDbArc
 50
90.0
 51
136.041627
  0
ARC
  5
30192
100
AcDbEntity
  8
DETAIL
100
AcDbCircle
 39
0.0
 10
-37.004557
 20
169.4
 30
0.0
 40
4.6
100
AcDbArc
 50
43.958373
 51
90.0
  0
LINE
  5
30197
100
AcDbEntity
  8
NOTE
  6
DASHDOT2
100
AcDbLine
 39
0.0
 10
372.0
 20
-139.0
 30
0.0
 11
372.0
 21
-99.0
 31
0.0
  0
LINE
  5
30198
100
AcDbEntity
  8
NOTE
  6
DASHDOT2
100
AcDbLine
 39
0.0
 10
392.0
 20
-119.0
 30
0.0
 11
352.0
 21
-119.0
 31
0.0
  0
CIRCLE
  5
30199
100
AcDbEntity
  8
ARRANGE
100
AcDbCircle
 39
0.0
 10
0.0
 20
0.0
 30
0.0
 40
25.0
  0
LINE
  5
3019A
100
AcDbEntity
  8
BASIS
100
AcDbLine
 39
0.0
 10
490.0
 20
0.0
 30
0.0
 11
-490.0
 21
0.0
 31
0.0
  0
LINE
  5
3019B
100
AcDbEntity
  8
BASIS
100
AcDbLine
 39
0.0
 10
0.0
 20
-210.0
 30
0.0
 11
0.0
 21
180.0
 31
0.0
  0
LINE
  5
301A6
100
AcDbEntity
  8
SERVICESPACE
100
AcDbLine
 39
0.0
 10
-570.0
 20
260.0
 30
0.0
 11
570.0
 21
260.0
 31
0.0
  0
LINE
  5
301A7
100
AcDbEntity
  8
SERVICESPACE
100
AcDbLine
 39
0.0
 10
-570.0
 20
-220.0
 30
0.0
 11
-570.0
 21
260.0
 31
0.0
  0
LINE
  5
301A8
100
AcDbEntity
  8
SERVICESPACE
100
AcDbLine
 39
0.0
 10
570.0
 20
260.0
 30
0.0
 11
570.0
 21
-220.0
 31
0.0
  0
LINE
  5
30202
100
AcDbEntity
  8
SIZE
100
AcDbLine
 39
0.0
 10
330.0
 20
175.0
 30
0.0
 11
975.0
 21
175.0
 31
0.0
  0
LINE
  5
30203
100
AcDbEntity
  8
SIZE
100
AcDbLine
 39
0.0
 10
330.0
 20
-175.0
 30
0.0
 11
710.0
 21
-175.0
 31
0.0
  0
LINE
  5
30204
100
AcDbEntity
  8
SIZE
100
AcDbLine
 39
0.0
 10
970.0
 20
175.0
 30
0.0
 11
970.0
 21
-175.0
 31
0.0
  0
MTEXT
  5
30207
100
AcDbEntity
  8
SIZE
100
AcDbMText
 10
950.0
 20
0.0
 30
0.0
 40
30.0
 41
0.0
 71
     5
 72
     1
  1
\A1;350
  7
STEM_DIM30_0_7
 11
0.0
 21
1.0
 31
0.0
1001
ACAD
1000
MTEXTBEGIN
1070
    73
1070
     1
1070
    44
1040
1.0
1070
    74
1070
     0
1000
MTEXTEND
  0
LINE
  5
30208
100
AcDbEntity
  8
SIZE
100
AcDbLine
 39
0.0
 10
347.037395
 20
190.0
 30
0.0
 11
895.0
 21
190.0
 31
0.0
  0
LINE
  5
3020B
100
AcDbEntity
  8
SIZE
100
AcDbLine
 39
0.0
 10
890.0
 20
190.0
 30
0.0
 11
890.0
 21
274.0
 31
0.0
  0
LINE
  5
3020C
100
AcDbEntity
  8
SIZE
100
AcDbLine
 39
0.0
 10
890.0
 20
190.0
 30
0.0
 11
890.0
 21
160.0
 31
0.0
  0
MTEXT
  5
3020F
100
AcDbEntity
  8
SIZE
100
AcDbMText
 10
870.0
 20
252.0
 30
0.0
 40
30.0
 41
0.0
 71
     5
 72
     1
  1
\A1;30
  7
STEM_DIM30_0_7
 11
-0.0
 21
1.0
 31
0.0
1001
ACAD
1000
MTEXTBEGIN
1070
    73
1070
     1
1070
    44
1040
1.0
1070
    74
1070
     0
1000
MTEXTEND
  0
LINE
  5
30210
100
AcDbEntity
  8
SIZE
100
AcDbLine
 39
0.0
 10
457.0
 20
160.0
 30
0.0
 11
895.0
 21
160.0
 31
0.0
  0
LINE
  5
30212
100
AcDbEntity
  8
SIZE
100
AcDbLine
 39
0.0
 10
890.0
 20
160.0
 30
0.0
 11
890.0
 21
-160.0
 31
0.0
  0
MTEXT
  5
30215
100
AcDbEntity
  8
SIZE
100
AcDbMText
 10
870.0
 20
0.0
 30
0.0
 40
30.0
 41
0.0
 71
     5
 72
     1
  1
\A1;320
  7
STEM_DIM30_0_7
 11
0.0
 21
1.0
 31
0.0
1001
ACAD
1000
MTEXTBEGIN
1070
    73
1070
     1
1070
    44
1040
1.0
1070
    74
1070
     0
1000
MTEXTEND
  0
LINE
  5
30216
100
AcDbEntity
  8
SIZE
100
AcDbLine
 39
0.0
 10
457.0
 20
-160.0
 30
0.0
 11
895.0
 21
-160.0
 31
0.0
  0
LINE
  5
30217
100
AcDbEntity
  8
SIZE
100
AcDbLine
 39
0.0
 10
346.82263
 20
-191.0
 30
0.0
 11
710.0
 21
-191.0
 31
0.0
  0
LINE
  5
30219
100
AcDbEntity
  8
SIZE
100
AcDbLine
 39
0.0
 10
890.0
 20
-191.0
 30
0.0
 11
890.0
 21
-276.0
 31
0.0
  0
LINE
  5
3021A
100
AcDbEntity
  8
SIZE
100
AcDbLine
 39
0.0
 10
890.0
 20
-160.0
 30
0.0
 11
890.0
 21
-191.0
 31
0.0
  0
MTEXT
  5
3021D
100
AcDbEntity
  8
SIZE
100
AcDbMText
 10
870.0
 20
-253.5
 30
0.0
 40
30.0
 41
0.0
 71
     5
 72
     1
  1
\A1;31
  7
STEM_DIM30_0_7
 11
0.0
 21
1.0
 31
0.0
1001
ACAD
1000
MTEXTBEGIN
1070
    73
1070
     1
1070
    44
1040
1.0
1070
    74
1070
     0
1000
MTEXTEND
  0
LINE
  5
3021E
100
AcDbEntity
  8
SIZE
100
AcDbLine
 39
0.0
 10
884.641016
 20
210.0
 30
0.0
 11
890.0
 21
190.0
 31
0.0
  0
LINE
  5
3021F
100
AcDbEntity
  8
SIZE
100
AcDbLine
 39
0.0
 10
890.0
 20
190.0
 30
0.0
 11
895.358984
 21
210.0
 31
0.0
  0
LINE
  5
30221
100
AcDbEntity
  8
SIZE
100
AcDbLine
 39
0.0
 10
895.358984
 20
140.0
 30
0.0
 11
890.0
 21
160.0
 31
0.0
  0
LINE
  5
30222
100
AcDbEntity
  8
SIZE
100
AcDbLine
 39
0.0
 10
890.0
 20
160.0
 30
0.0
 11
884.641016
 21
140.0
 31
0.0
  0
LINE
  5
30224
100
AcDbEntity
  8
SIZE
100
AcDbLine
 39
0.0
 10
895.358984
 20
-140.0
 30
0.0
 11
890.0
 21
-160.0
 31
0.0
  0
LINE
  5
30225
100
AcDbEntity
  8
SIZE
100
AcDbLine
 39
0.0
 10
890.0
 20
-160.0
 30
0.0
 11
884.641016
 21
-140.0
 31
0.0
  0
LINE
  5
30227
100
AcDbEntity
  8
SIZE
100
AcDbLine
 39
0.0
 10
884.641016
 20
-211.0
 30
0.0
 11
890.0
 21
-191.0
 31
0.0
  0
LINE
  5
30228
100
AcDbEntity
  8
SIZE
100
AcDbLine
 39
0.0
 10
890.0
 20
-191.0
 30
0.0
 11
895.358984
 21
-211.0
 31
0.0
  0
LINE
  5
3022A
100
AcDbEntity
  8
SIZE
100
AcDbLine
 39
0.0
 10
975.358984
 20
-155.0
 30
0.0
 11
970.0
 21
-175.0
 31
0.0
  0
LINE
  5
3022B
100
AcDbEntity
  8
SIZE
100
AcDbLine
 39
0.0
 10
970.0
 20
-175.0
 30
0.0
 11
964.641016
 21
-155.0
 31
0.0
  0
LINE
  5
3022D
100
AcDbEntity
  8
SIZE
100
AcDbLine
 39
0.0
 10
964.641016
 20
155.0
 30
0.0
 11
970.0
 21
175.0
 31
0.0
  0
LINE
  5
3022E
100
AcDbEntity
  8
SIZE
100
AcDbLine
 39
0.0
 10
970.0
 20
175.0
 30
0.0
 11
975.358984
 21
155.0
 31
0.0
  0
MTEXT
  5
30230
100
AcDbEntity
  8
SIZE
100
AcDbMText
 10
990.0
 20
0.0
 30
0.0
 40
30.0
 41
0.0
 71
     5
 72
     1
  1
\A1;Åi345Å`355Åj
  7
STEM_DIM30_0_7
 11
-0.0
 21
1.0
 31
0.0
1001
ACAD
1000
MTEXTBEGIN
1070
    73
1070
     1
1070
    44
1040
1.0
1070
    74
1070
     0
1000
MTEXTEND
  0
LINE
  5
3028C
100
AcDbEntity
  8
SIZE
100
AcDbLine
 39
0.0
 10
455.0
 20
-114.0
 30
0.0
 11
710.0
 21
-114.0
 31
0.0
  0
LINE
  5
3028D
100
AcDbEntity
  8
SIZE
100
AcDbLine
 39
0.0
 10
810.0
 20
-160.0
 30
0.0
 11
810.0
 21
-200.0
 31
0.0
  0
LINE
  5
3028E
100
AcDbEntity
  8
SIZE
100
AcDbLine
 39
0.0
 10
810.0
 20
-114.0
 30
0.0
 11
810.0
 21
-30.0
 31
0.0
  0
LINE
  5
3028F
100
AcDbEntity
  8
SIZE
100
AcDbLine
 39
0.0
 10
810.0
 20
-160.0
 30
0.0
 11
810.0
 21
-114.0
 31
0.0
  0
MTEXT
  5
30292
100
AcDbEntity
  8
SIZE
100
AcDbMText
 10
790.0
 20
-52.0
 30
0.0
 40
30.0
 41
0.0
 71
     5
 72
     1
  1
\A1;46
  7
STEM_DIM30_0_7
 11
0.0
 21
1.0
 31
0.0
1001
ACAD
1000
MTEXTBEGIN
1070
    73
1070
     1
1070
    44
1040
1.0
1070
    74
1070
     0
1000
MTEXTEND
  0
LINE
  5
30294
100
AcDbEntity
  8
SIZE
100
AcDbLine
 39
0.0
 10
402.0
 20
-119.0
 30
0.0
 11
735.0
 21
-119.0
 31
0.0
  0
LINE
  5
30295
100
AcDbEntity
  8
SIZE
100
AcDbLine
 39
0.0
 10
730.0
 20
-160.0
 30
0.0
 11
730.0
 21
-200.0
 31
0.0
  0
LINE
  5
30296
100
AcDbEntity
  8
SIZE
100
AcDbLine
 39
0.0
 10
730.0
 20
-119.0
 30
0.0
 11
730.0
 21
-35.0
 31
0.0
  0
LINE
  5
30297
100
AcDbEntity
  8
SIZE
100
AcDbLine
 39
0.0
 10
730.0
 20
-160.0
 30
0.0
 11
730.0
 21
-119.0
 31
0.0
  0
MTEXT
  5
3029A
100
AcDbEntity
  8
SIZE
100
AcDbMText
 10
710.0
 20
-57.0
 30
0.0
 40
30.0
 41
0.0
 71
     5
 72
     1
  1
\A1;41
  7
STEM_DIM30_0_7
 11
0.0
 21
1.0
 31
0.0
1001
ACAD
1000
MTEXTBEGIN
1070
    73
1070
     1
1070
    44
1040
1.0
1070
    74
1070
     0
1000
MTEXTEND
  0
LINE
  5
3029B
100
AcDbEntity
  8
SIZE
100
AcDbLine
 39
0.0
 10
815.358984
 20
-94.0
 30
0.0
 11
810.0
 21
-114.0
 31
0.0
  0
LINE
  5
3029C
100
AcDbEntity
  8
SIZE
100
AcDbLine
 39
0.0
 10
810.0
 20
-114.0
 30
0.0
 11
804.641016
 21
-94.0
 31
0.0
  0
LINE
  5
3029E
100
AcDbEntity
  8
SIZE
100
AcDbLine
 39
0.0
 10
735.358984
 20
-99.0
 30
0.0
 11
730.0
 21
-119.0
 31
0.0
  0
LINE
  5
3029F
100
AcDbEntity
  8
SIZE
100
AcDbLine
 39
0.0
 10
730.0
 20
-119.0
 30
0.0
 11
724.641016
 21
-99.0
 31
0.0
  0
LINE
  5
302A1
100
AcDbEntity
  8
SIZE
100
AcDbLine
 39
0.0
 10
724.641016
 20
-180.0
 30
0.0
 11
730.0
 21
-160.0
 31
0.0
  0
LINE
  5
302A2
100
AcDbEntity
  8
SIZE
100
AcDbLine
 39
0.0
 10
730.0
 20
-160.0
 30
0.0
 11
735.358984
 21
-180.0
 31
0.0
  0
LINE
  5
302A4
100
AcDbEntity
  8
SIZE
100
AcDbLine
 39
0.0
 10
804.641016
 20
-180.0
 30
0.0
 11
810.0
 21
-160.0
 31
0.0
  0
LINE
  5
302A5
100
AcDbEntity
  8
SIZE
100
AcDbLine
 39
0.0
 10
810.0
 20
-160.0
 30
0.0
 11
815.358984
 21
-180.0
 31
0.0
  0
LINE
  5
302A7
100
AcDbEntity
  8
SIZE
100
AcDbLine
 39
0.0
 10
750.0
 20
-114.0
 30
0.0
 11
815.0
 21
-114.0
 31
0.0
  0
LINE
  5
302A8
100
AcDbEntity
  8
SIZE
100
AcDbLine
 39
0.0
 10
750.0
 20
-175.0
 30
0.0
 11
790.0
 21
-175.0
 31
0.0
  0
LINE
  5
302A9
100
AcDbEntity
  8
SIZE
100
AcDbLine
 39
0.0
 10
750.0
 20
-191.0
 30
0.0
 11
790.0
 21
-191.0
 31
0.0
  0
LINE
  5
302AA
100
AcDbEntity
  8
SIZE
100
AcDbLine
 39
0.0
 10
830.0
 20
-175.0
 30
0.0
 11
975.0
 21
-175.0
 31
0.0
  0
LINE
  5
302AB
100
AcDbEntity
  8
SIZE
100
AcDbLine
 39
0.0
 10
830.0
 20
-191.0
 30
0.0
 11
895.0
 21
-191.0
 31
0.0
  0
LINE
  5
302AC
100
AcDbEntity
  8
SIZE
100
AcDbLine
 39
0.0
 10
425.0
 20
-144.0
 30
0.0
 11
425.0
 21
-364.998614
 31
0.0
  0
LINE
  5
302AE
100
AcDbEntity
  8
SIZE
100
AcDbLine
 39
0.0
 10
425.0
 20
-359.998614
 30
0.0
 11
385.0
 21
-359.998614
 31
0.0
  0
LINE
  5
302AF
100
AcDbEntity
  8
SIZE
100
AcDbLine
 39
0.0
 10
470.0
 20
-359.998614
 30
0.0
 11
540.0
 21
-359.998614
 31
0.0
  0
LINE
  5
302B0
100
AcDbEntity
  8
SIZE
100
AcDbLine
 39
0.0
 10
425.0
 20
-359.998614
 30
0.0
 11
470.0
 21
-359.998614
 31
0.0
  0
MTEXT
  5
302B3
100
AcDbEntity
  8
SIZE
100
AcDbMText
 10
518.0
 20
-339.998614
 30
0.0
 40
30.0
 41
0.0
 71
     5
 72
     1
  1
\A1;45
  7
STEM_DIM30_0_7
 11
1.0
 21
0.0
 31
0.0
1001
ACAD
1000
MTEXTBEGIN
1070
    73
1070
     1
1070
    44
1040
1.0
1070
    74
1070
     0
1000
MTEXTEND
  0
LINE
  5
302B4
100
AcDbEntity
  8
SIZE
100
AcDbLine
 39
0.0
 10
372.0
 20
-149.0
 30
0.0
 11
372.0
 21
-444.998614
 31
0.0
  0
LINE
  5
302B6
100
AcDbEntity
  8
SIZE
100
AcDbLine
 39
0.0
 10
372.0
 20
-439.998614
 30
0.0
 11
470.0
 21
-439.998614
 31
0.0
  0
MTEXT
  5
302B9
100
AcDbEntity
  8
SIZE
100
AcDbMText
 10
421.0
 20
-419.998614
 30
0.0
 40
30.0
 41
0.0
 71
     5
 72
     1
  1
\A1;98
  7
STEM_DIM30_0_7
 11
1.0
 21
0.0
 31
0.0
1001
ACAD
1000
MTEXTBEGIN
1070
    73
1070
     1
1070
    44
1040
1.0
1070
    74
1070
     0
1000
MTEXTEND
  0
LINE
  5
302BA
100
AcDbEntity
  8
SIZE
100
AcDbLine
 39
0.0
 10
-470.0
 20
-143.901
 30
0.0
 11
-470.0
 21
-524.998614
 31
0.0
  0
LINE
  5
302BB
100
AcDbEntity
  8
SIZE
100
AcDbLine
 39
0.0
 10
-310.0
 20
-189.0
 30
0.0
 11
-310.0
 21
-524.998614
 31
0.0
  0
LINE
  5
302BC
100
AcDbEntity
  8
SIZE
100
AcDbLine
 39
0.0
 10
-470.0
 20
-519.998614
 30
0.0
 11
-310.0
 21
-519.998614
 31
0.0
  0
MTEXT
  5
302BF
100
AcDbEntity
  8
SIZE
100
AcDbMText
 10
-390.0
 20
-499.998614
 30
0.0
 40
30.0
 41
0.0
 71
     5
 72
     1
  1
\A1;160
  7
STEM_DIM30_0_7
 11
1.0
 21
0.0
 31
0.0
1001
ACAD
1000
MTEXTBEGIN
1070
    73
1070
     1
1070
    44
1040
1.0
1070
    74
1070
     0
1000
MTEXTEND
  0
LINE
  5
302C5
100
AcDbEntity
  8
SIZE
100
AcDbLine
 39
0.0
 10
310.0
 20
-189.0
 30
0.0
 11
310.0
 21
-524.998614
 31
0.0
  0
LINE
  5
302C6
100
AcDbEntity
  8
SIZE
100
AcDbLine
 39
0.0
 10
-310.0
 20
-519.998614
 30
0.0
 11
310.0
 21
-519.998614
 31
0.0
  0
MTEXT
  5
302C9
100
AcDbEntity
  8
SIZE
100
AcDbMText
 10
0.0
 20
-499.998614
 30
0.0
 40
30.0
 41
0.0
 71
     5
 72
     1
  1
\A1;620
  7
STEM_DIM30_0_7
 11
1.0
 21
0.0
 31
0.0
1001
ACAD
1000
MTEXTBEGIN
1070
    73
1070
     1
1070
    44
1040
1.0
1070
    74
1070
     0
1000
MTEXTEND
  0
LINE
  5
302CB
100
AcDbEntity
  8
SIZE
100
AcDbLine
 39
0.0
 10
470.0
 20
-143.9
 30
0.0
 11
470.0
 21
-524.998614
 31
0.0
  0
LINE
  5
302CC
100
AcDbEntity
  8
SIZE
100
AcDbLine
 39
0.0
 10
310.0
 20
-519.998614
 30
0.0
 11
470.0
 21
-519.998614
 31
0.0
  0
MTEXT
  5
302CF
100
AcDbEntity
  8
SIZE
100
AcDbMText
 10
390.0
 20
-499.998614
 30
0.0
 40
30.0
 41
0.0
 71
     5
 72
     1
  1
\A1;160
  7
STEM_DIM30_0_7
 11
1.0
 21
0.0
 31
0.0
1001
ACAD
1000
MTEXTBEGIN
1070
    73
1070
     1
1070
    44
1040
1.0
1070
    74
1070
     0
1000
MTEXTEND
  0
LINE
  5
302D0
100
AcDbEntity
  8
SIZE
100
AcDbLine
 39
0.0
 10
-450.0
 20
-525.357598
 30
0.0
 11
-470.0
 21
-519.998614
 31
0.0
  0
LINE
  5
302D1
100
AcDbEntity
  8
SIZE
100
AcDbLine
 39
0.0
 10
-470.0
 20
-519.998614
 30
0.0
 11
-450.0
 21
-514.63963
 31
0.0
  0
LINE
  5
302D3
100
AcDbEntity
  8
SIZE
100
AcDbLine
 39
0.0
 10
-330.0
 20
-514.63963
 30
0.0
 11
-310.0
 21
-519.998614
 31
0.0
  0
LINE
  5
302D4
100
AcDbEntity
  8
SIZE
100
AcDbLine
 39
0.0
 10
-310.0
 20
-519.998614
 30
0.0
 11
-330.0
 21
-525.357598
 31
0.0
  0
LINE
  5
302D6
100
AcDbEntity
  8
SIZE
100
AcDbLine
 39
0.0
 10
-290.0
 20
-525.357598
 30
0.0
 11
-310.0
 21
-519.998614
 31
0.0
  0
LINE
  5
302D7
100
AcDbEntity
  8
SIZE
100
AcDbLine
 39
0.0
 10
-310.0
 20
-519.998614
 30
0.0
 11
-290.0
 21
-514.63963
 31
0.0
  0
LINE
  5
302D9
100
AcDbEntity
  8
SIZE
100
AcDbLine
 39
0.0
 10
290.0
 20
-514.63963
 30
0.0
 11
310.0
 21
-519.998614
 31
0.0
  0
LINE
  5
302DA
100
AcDbEntity
  8
SIZE
100
AcDbLine
 39
0.0
 10
310.0
 20
-519.998614
 30
0.0
 11
290.0
 21
-525.357598
 31
0.0
  0
LINE
  5
302DC
100
AcDbEntity
  8
SIZE
100
AcDbLine
 39
0.0
 10
330.0
 20
-525.357598
 30
0.0
 11
310.0
 21
-519.998614
 31
0.0
  0
LINE
  5
302DD
100
AcDbEntity
  8
SIZE
100
AcDbLine
 39
0.0
 10
310.0
 20
-519.998614
 30
0.0
 11
330.0
 21
-514.63963
 31
0.0
  0
LINE
  5
302DF
100
AcDbEntity
  8
SIZE
100
AcDbLine
 39
0.0
 10
450.0
 20
-514.63963
 30
0.0
 11
470.0
 21
-519.998614
 31
0.0
  0
LINE
  5
302E0
100
AcDbEntity
  8
SIZE
100
AcDbLine
 39
0.0
 10
470.0
 20
-519.998614
 30
0.0
 11
450.0
 21
-525.357598
 31
0.0
  0
LINE
  5
302E2
100
AcDbEntity
  8
SIZE
100
AcDbLine
 39
0.0
 10
392.0
 20
-445.357598
 30
0.0
 11
372.0
 21
-439.998614
 31
0.0
  0
LINE
  5
302E3
100
AcDbEntity
  8
SIZE
100
AcDbLine
 39
0.0
 10
372.0
 20
-439.998614
 30
0.0
 11
392.0
 21
-434.63963
 31
0.0
  0
LINE
  5
302E5
100
AcDbEntity
  8
SIZE
100
AcDbLine
 39
0.0
 10
450.0
 20
-434.63963
 30
0.0
 11
470.0
 21
-439.998614
 31
0.0
  0
LINE
  5
302E6
100
AcDbEntity
  8
SIZE
100
AcDbLine
 39
0.0
 10
470.0
 20
-439.998614
 30
0.0
 11
450.0
 21
-445.357598
 31
0.0
  0
LINE
  5
302E8
100
AcDbEntity
  8
SIZE
100
AcDbLine
 39
0.0
 10
405.0
 20
-354.63963
 30
0.0
 11
425.0
 21
-359.998614
 31
0.0
  0
LINE
  5
302E9
100
AcDbEntity
  8
SIZE
100
AcDbLine
 39
0.0
 10
425.0
 20
-359.998614
 30
0.0
 11
405.0
 21
-365.357598
 31
0.0
  0
LINE
  5
302EB
100
AcDbEntity
  8
SIZE
100
AcDbLine
 39
0.0
 10
490.0
 20
-365.357598
 30
0.0
 11
470.0
 21
-359.998614
 31
0.0
  0
LINE
  5
302EC
100
AcDbEntity
  8
SIZE
100
AcDbLine
 39
0.0
 10
470.0
 20
-359.998614
 30
0.0
 11
490.0
 21
-354.63963
 31
0.0
  0
LINE
  5
302F4
100
AcDbEntity
  8
SERVICESPACE
100
AcDbLine
 39
0.0
 10
-334.834957
 20
310.0
 30
0.0
 11
-384.834957
 21
260.0
 31
0.0
  0
LINE
  5
302F5
100
AcDbEntity
  8
SERVICESPACE
100
AcDbLine
 39
0.0
 10
-246.446609
 20
310.0
 30
0.0
 11
-296.446609
 21
260.0
 31
0.0
  0
LINE
  5
302F6
100
AcDbEntity
  8
SERVICESPACE
100
AcDbLine
 39
0.0
 10
-158.058262
 20
310.0
 30
0.0
 11
-208.058262
 21
260.0
 31
0.0
  0
LINE
  5
302F7
100
AcDbEntity
  8
SERVICESPACE
100
AcDbLine
 39
0.0
 10
-69.669914
 20
310.0
 30
0.0
 11
-119.669914
 21
260.0
 31
0.0
  0
LINE
  5
302F8
100
AcDbEntity
  8
SERVICESPACE
100
AcDbLine
 39
0.0
 10
18.718434
 20
310.0
 30
0.0
 11
-31.281566
 21
260.0
 31
0.0
  0
LINE
  5
302F9
100
AcDbEntity
  8
SERVICESPACE
100
AcDbLine
 39
0.0
 10
107.106781
 20
310.0
 30
0.0
 11
57.106781
 21
260.0
 31
0.0
  0
LINE
  5
302FA
100
AcDbEntity
  8
SERVICESPACE
100
AcDbLine
 39
0.0
 10
195.495129
 20
310.0
 30
0.0
 11
145.495129
 21
260.0
 31
0.0
  0
LINE
  5
302FB
100
AcDbEntity
  8
SERVICESPACE
100
AcDbLine
 39
0.0
 10
283.883476
 20
310.0
 30
0.0
 11
233.883476
 21
260.0
 31
0.0
  0
LINE
  5
302FC
100
AcDbEntity
  8
SERVICESPACE
100
AcDbLine
 39
0.0
 10
372.271824
 20
310.0
 30
0.0
 11
322.271824
 21
260.0
 31
0.0
  0
LINE
  5
302FD
100
AcDbEntity
  8
SERVICESPACE
100
AcDbLine
 39
0.0
 10
460.660172
 20
310.0
 30
0.0
 11
410.660172
 21
260.0
 31
0.0
  0
LINE
  5
302FE
100
AcDbEntity
  8
SERVICESPACE
100
AcDbLine
 39
0.0
 10
549.048519
 20
310.0
 30
0.0
 11
499.048519
 21
260.0
 31
0.0
  0
LINE
  5
302FF
100
AcDbEntity
  8
SERVICESPACE
100
AcDbLine
 39
0.0
 10
620.0
 20
272.563133
 30
0.0
 11
570.0
 21
222.563133
 31
0.0
  0
LINE
  5
30300
100
AcDbEntity
  8
SERVICESPACE
100
AcDbLine
 39
0.0
 10
-423.223305
 20
310.0
 30
0.0
 11
-473.223305
 21
260.0
 31
0.0
  0
LINE
  5
30301
100
AcDbEntity
  8
SERVICESPACE
100
AcDbLine
 39
0.0
 10
-511.611652
 20
310.0
 30
0.0
 11
-561.611652
 21
260.0
 31
0.0
  0
LINE
  5
30302
100
AcDbEntity
  8
SERVICESPACE
100
AcDbLine
 39
0.0
 10
620.0
 20
184.174785
 30
0.0
 11
570.0
 21
134.174785
 31
0.0
  0
LINE
  5
30303
100
AcDbEntity
  8
SERVICESPACE
100
AcDbLine
 39
0.0
 10
620.0
 20
95.786438
 30
0.0
 11
570.0
 21
45.786438
 31
0.0
  0
LINE
  5
30304
100
AcDbEntity
  8
SERVICESPACE
100
AcDbLine
 39
0.0
 10
620.0
 20
7.39809
 30
0.0
 11
570.0
 21
-42.60191
 31
0.0
  0
LINE
  5
30305
100
AcDbEntity
  8
SERVICESPACE
100
AcDbLine
 39
0.0
 10
620.0
 20
-80.990258
 30
0.0
 11
570.0
 21
-130.990258
 31
0.0
  0
LINE
  5
30306
100
AcDbEntity
  8
SERVICESPACE
100
AcDbLine
 39
0.0
 10
620.0
 20
-169.378605
 30
0.0
 11
570.0
 21
-219.378605
 31
0.0
  0
LINE
  5
30307
100
AcDbEntity
  8
SERVICESPACE
100
AcDbLine
 39
0.0
 10
-570.0
 20
-170.330086
 30
0.0
 11
-619.669914
 21
-220.0
 31
0.0
  0
LINE
  5
30308
100
AcDbEntity
  8
SERVICESPACE
100
AcDbLine
 39
0.0
 10
-570.0
 20
-81.941738
 30
0.0
 11
-620.0
 21
-131.941738
 31
0.0
  0
LINE
  5
30309
100
AcDbEntity
  8
SERVICESPACE
100
AcDbLine
 39
0.0
 10
-570.0
 20
6.446609
 30
0.0
 11
-620.0
 21
-43.553391
 31
0.0
  0
LINE
  5
3030A
100
AcDbEntity
  8
SERVICESPACE
100
AcDbLine
 39
0.0
 10
-570.0
 20
94.834957
 30
0.0
 11
-620.0
 21
44.834957
 31
0.0
  0
LINE
  5
3030B
100
AcDbEntity
  8
SERVICESPACE
100
AcDbLine
 39
0.0
 10
-570.0
 20
183.223305
 30
0.0
 11
-620.0
 21
133.223305
 31
0.0
  0
LINE
  5
3030C
100
AcDbEntity
  8
SERVICESPACE
100
AcDbLine
 39
0.0
 10
-570.0
 20
251.611652
 30
0.0
 11
-620.0
 21
201.611652
 31
0.0
  0
ARC
  5
306E5
100
AcDbEntity
  8
DETAIL
100
AcDbCircle
 39
0.0
 10
447.0
 20
137.0
 30
0.0
 40
23.0
100
AcDbArc
 50
0.0
 51
90.0
  0
ARC
  5
306E6
100
AcDbEntity
  8
DETAIL
100
AcDbCircle
 39
0.0
 10
447.0
 20
-137.0
 30
0.0
 40
23.0
100
AcDbArc
 50
270.0
 51
0.0
  0
ARC
  5
306E7
100
AcDbEntity
  8
DETAIL
100
AcDbCircle
 39
0.0
 10
-447.0
 20
-137.0
 30
0.0
 40
23.0
100
AcDbArc
 50
180.0
 51
270.0
  0
ARC
  5
306E8
100
AcDbEntity
  8
DETAIL
100
AcDbCircle
 39
0.0
 10
-447.0
 20
137.0
 30
0.0
 40
23.0
100
AcDbArc
 50
90.0
 51
180.0
  0
LINE
  5
30714
100
AcDbEntity
  8
NOTE
  6
DASHDOT2
100
AcDbLine
 39
0.0
 10
24.0
 20
105.0
 30
0.0
 11
24.0
 21
145.0
 31
0.0
  0
LINE
  5
30715
100
AcDbEntity
  8
NOTE
  6
DASHDOT2
100
AcDbLine
 39
0.0
 10
44.0
 20
125.0
 30
0.0
 11
4.0
 21
125.0
 31
0.0
  0
LINE
  5
3071F
100
AcDbEntity
  8
SIZE
100
AcDbLine
 39
0.0
 10
24.0
 20
156.0
 30
0.0
 11
24.0
 21
505.0
 31
0.0
  0
LINE
  5
30720
100
AcDbEntity
  8
SIZE
100
AcDbLine
 39
0.0
 10
-470.0
 20
500.0
 30
0.0
 11
24.0
 21
500.0
 31
0.0
  0
MTEXT
  5
30723
100
AcDbEntity
  8
SIZE
100
AcDbMText
 10
-223.0
 20
520.0
 30
0.0
 40
30.0
 41
0.0
 71
     5
 72
     1
  1
\A1;494
  7
STEM_DIM30_0_7
 11
1.0
 21
0.0
 31
0.0
1001
ACAD
1000
MTEXTBEGIN
1070
    73
1070
     1
1070
    44
1040
1.0
1070
    74
1070
     0
1000
MTEXTEND
  0
LINE
  5
30724
100
AcDbEntity
  8
SIZE
100
AcDbLine
 39
0.0
 10
-470.0
 20
147.0
 30
0.0
 11
-470.0
 21
585.0
 31
0.0
  0
LINE
  5
30725
100
AcDbEntity
  8
SIZE
100
AcDbLine
 39
0.0
 10
470.0
 20
147.0
 30
0.0
 11
470.0
 21
585.0
 31
0.0
  0
LINE
  5
30726
100
AcDbEntity
  8
SIZE
100
AcDbLine
 39
0.0
 10
-470.0
 20
580.0
 30
0.0
 11
470.0
 21
580.0
 31
0.0
  0
MTEXT
  5
30729
100
AcDbEntity
  8
SIZE
100
AcDbMText
 10
0.0
 20
600.0
 30
0.0
 40
30.0
 41
0.0
 71
     5
 72
     1
  1
\A1;940
  7
STEM_DIM30_0_7
 11
1.0
 21
0.0
 31
0.0
1001
ACAD
1000
MTEXTBEGIN
1070
    73
1070
     1
1070
    44
1040
1.0
1070
    74
1070
     0
1000
MTEXTEND
  0
LINE
  5
3072A
100
AcDbEntity
  8
SIZE
100
AcDbLine
 39
0.0
 10
-6.0
 20
125.0
 30
0.0
 11
-735.0
 21
125.0
 31
0.0
  0
LINE
  5
3072C
100
AcDbEntity
  8
SIZE
100
AcDbLine
 39
0.0
 10
-730.0
 20
125.0
 30
0.0
 11
-730.0
 21
-160.0
 31
0.0
  0
MTEXT
  5
3072F
100
AcDbEntity
  8
SIZE
100
AcDbMText
 10
-750.0
 20
-17.5
 30
0.0
 40
30.0
 41
0.0
 71
     5
 72
     1
  1
\A1;285
  7
STEM_DIM30_0_7
 11
0.0
 21
1.0
 31
0.0
1001
ACAD
1000
MTEXTBEGIN
1070
    73
1070
     1
1070
    44
1040
1.0
1070
    74
1070
     0
1000
MTEXTEND
  0
LINE
  5
3073A
100
AcDbEntity
  8
SIZE
100
AcDbLine
 39
0.0
 10
-810.0
 20
160.0
 30
0.0
 11
-810.0
 21
-160.0
 31
0.0
  0
MTEXT
  5
3073D
100
AcDbEntity
  8
SIZE
100
AcDbMText
 10
-830.0
 20
0.0
 30
0.0
 40
30.0
 41
0.0
 71
     5
 72
     1
  1
\A1;320
  7
STEM_DIM30_0_7
 11
0.0
 21
1.0
 31
0.0
1001
ACAD
1000
MTEXTBEGIN
1070
    73
1070
     1
1070
    44
1040
1.0
1070
    74
1070
     0
1000
MTEXTEND
  0
LINE
  5
3073E
100
AcDbEntity
  8
SIZE
100
AcDbLine
 39
0.0
 10
-457.0
 20
160.0
 30
0.0
 11
-815.0
 21
160.0
 31
0.0
  0
LINE
  5
30746
100
AcDbEntity
  8
SIZE
100
AcDbLine
 39
0.0
 10
-457.0
 20
-160.0
 30
0.0
 11
-815.0
 21
-160.0
 31
0.0
  0
LINE
  5
30757
100
AcDbEntity
  8
SIZE
100
AcDbLine
 39
0.0
 10
-815.358984
 20
140.0
 30
0.0
 11
-810.0
 21
160.0
 31
0.0
  0
LINE
  5
30758
100
AcDbEntity
  8
SIZE
100
AcDbLine
 39
0.0
 10
-810.0
 20
160.0
 30
0.0
 11
-804.641016
 21
140.0
 31
0.0
  0
LINE
  5
3075A
100
AcDbEntity
  8
SIZE
100
AcDbLine
 39
0.0
 10
-804.641016
 20
-140.0
 30
0.0
 11
-810.0
 21
-160.0
 31
0.0
  0
LINE
  5
3075B
100
AcDbEntity
  8
SIZE
100
AcDbLine
 39
0.0
 10
-810.0
 20
-160.0
 30
0.0
 11
-815.358984
 21
-140.0
 31
0.0
  0
LINE
  5
30760
100
AcDbEntity
  8
SIZE
100
AcDbLine
 39
0.0
 10
-724.641016
 20
-140.0
 30
0.0
 11
-730.0
 21
-160.0
 31
0.0
  0
LINE
  5
30761
100
AcDbEntity
  8
SIZE
100
AcDbLine
 39
0.0
 10
-730.0
 20
-160.0
 30
0.0
 11
-735.358984
 21
-140.0
 31
0.0
  0
LINE
  5
30763
100
AcDbEntity
  8
SIZE
100
AcDbLine
 39
0.0
 10
-735.358984
 20
105.0
 30
0.0
 11
-730.0
 21
125.0
 31
0.0
  0
LINE
  5
30764
100
AcDbEntity
  8
SIZE
100
AcDbLine
 39
0.0
 10
-730.0
 20
125.0
 30
0.0
 11
-724.641016
 21
105.0
 31
0.0
  0
LINE
  5
30766
100
AcDbEntity
  8
SIZE
100
AcDbLine
 39
0.0
 10
450.0
 20
585.358984
 30
0.0
 11
470.0
 21
580.0
 31
0.0
  0
LINE
  5
30767
100
AcDbEntity
  8
SIZE
100
AcDbLine
 39
0.0
 10
470.0
 20
580.0
 30
0.0
 11
450.0
 21
574.641016
 31
0.0
  0
LINE
  5
30769
100
AcDbEntity
  8
SIZE
100
AcDbLine
 39
0.0
 10
-450.0
 20
574.641016
 30
0.0
 11
-470.0
 21
580.0
 31
0.0
  0
LINE
  5
3076A
100
AcDbEntity
  8
SIZE
100
AcDbLine
 39
0.0
 10
-470.0
 20
580.0
 30
0.0
 11
-450.0
 21
585.358984
 31
0.0
  0
LINE
  5
3076C
100
AcDbEntity
  8
SIZE
100
AcDbLine
 39
0.0
 10
-450.0
 20
494.641016
 30
0.0
 11
-470.0
 21
500.0
 31
0.0
  0
LINE
  5
3076D
100
AcDbEntity
  8
SIZE
100
AcDbLine
 39
0.0
 10
-470.0
 20
500.0
 30
0.0
 11
-450.0
 21
505.358984
 31
0.0
  0
LINE
  5
3076F
100
AcDbEntity
  8
SIZE
100
AcDbLine
 39
0.0
 10
4.0
 20
505.358984
 30
0.0
 11
24.0
 21
500.0
 31
0.0
  0
LINE
  5
30770
100
AcDbEntity
  8
SIZE
100
AcDbLine
 39
0.0
 10
24.0
 20
500.0
 30
0.0
 11
4.0
 21
494.641016
 31
0.0
  0
LINE
  5
30772
100
AcDbEntity
  8
SERVICESPACE
100
AcDbLine
 39
0.0
 10
570.0
 20
580.0
 30
0.0
 11
470.0
 21
580.0
 31
0.0
  0
LINE
  5
30773
100
AcDbEntity
  8
SERVICESPACE
100
AcDbLine
 39
0.0
 10
570.0
 20
590.0
 30
0.0
 11
570.0
 21
330.0
 31
0.0
  0
LINE
  5
30774
100
AcDbEntity
  8
SERVICESPACE
100
AcDbLine
 39
0.0
 10
700.0
 20
580.0
 30
0.0
 11
570.0
 21
580.0
 31
0.0
  0
MTEXT
  5
30775
100
AcDbEntity
  8
SERVICESPACE
100
AcDbMText
 10
650.0
 20
600.0
 30
0.0
 40
30.0
 41
0.0
 71
     5
 72
     1
  1
100à»è„
  7
STEM_DIM30_0_7
 11
1.0
 21
0.0
 31
0.0
1001
ACAD
1000
MTEXTBEGIN
1070
    73
1070
     1
1070
    44
1040
1.0
1070
    74
1070
     0
1000
MTEXTEND
  0
LINE
  5
30776
100
AcDbEntity
  8
SERVICESPACE
100
AcDbLine
 39
0.0
 10
590.0
 20
574.641016
 30
0.0
 11
570.0
 21
580.0
 31
0.0
  0
LINE
  5
30777
100
AcDbEntity
  8
SERVICESPACE
100
AcDbLine
 39
0.0
 10
570.0
 20
580.0
 30
0.0
 11
590.0
 21
585.358984
 31
0.0
  0
LINE
  5
30779
100
AcDbEntity
  8
SERVICESPACE
100
AcDbLine
 39
0.0
 10
-570.0
 20
580.0
 30
0.0
 11
-470.0
 21
580.0
 31
0.0
  0
LINE
  5
3077A
100
AcDbEntity
  8
SERVICESPACE
100
AcDbLine
 39
0.0
 10
-570.0
 20
590.0
 30
0.0
 11
-570.0
 21
330.0
 31
0.0
  0
LINE
  5
3077B
100
AcDbEntity
  8
SERVICESPACE
100
AcDbLine
 39
0.0
 10
-700.0
 20
580.0
 30
0.0
 11
-570.0
 21
580.0
 31
0.0
  0
MTEXT
  5
3077C
100
AcDbEntity
  8
SERVICESPACE
100
AcDbMText
 10
-650.0
 20
600.0
 30
0.0
 40
30.0
 41
0.0
 71
     5
 72
     1
  1
100à»è„
  7
STEM_DIM30_0_7
 11
1.0
 21
0.0
 31
0.0
1001
ACAD
1000
MTEXTBEGIN
1070
    73
1070
     1
1070
    44
1040
1.0
1070
    74
1070
     0
1000
MTEXTEND
  0
LINE
  5
3077D
100
AcDbEntity
  8
SERVICESPACE
100
AcDbLine
 39
0.0
 10
-590.0
 20
574.641016
 30
0.0
 11
-570.0
 21
580.0
 31
0.0
  0
LINE
  5
3077E
100
AcDbEntity
  8
SERVICESPACE
100
AcDbLine
 39
0.0
 10
-570.0
 20
580.0
 30
0.0
 11
-590.0
 21
585.358984
 31
0.0
  0
LINE
  5
3077F
100
AcDbEntity
  8
SERVICESPACE
100
AcDbLine
 39
0.0
 10
-810.0
 20
260.0
 30
0.0
 11
-810.0
 21
160.0
 31
0.0
  0
LINE
  5
30780
100
AcDbEntity
  8
SERVICESPACE
100
AcDbLine
 39
0.0
 10
-820.0
 20
260.0
 30
0.0
 11
-640.0
 21
260.0
 31
0.0
  0
LINE
  5
30781
100
AcDbEntity
  8
SERVICESPACE
100
AcDbLine
 39
0.0
 10
-810.0
 20
390.0
 30
0.0
 11
-810.0
 21
260.0
 31
0.0
  0
MTEXT
  5
30782
100
AcDbEntity
  8
SERVICESPACE
100
AcDbMText
 10
-830.0
 20
340.0
 30
0.0
 40
30.0
 41
0.0
 71
     5
 72
     1
  1
100à»è„
  7
STEM_DIM30_0_7
 11
0.0
 21
1.0
 31
0.0
1001
ACAD
1000
MTEXTBEGIN
1070
    73
1070
     1
1070
    44
1040
1.0
1070
    74
1070
     0
1000
MTEXTEND
  0
LINE
  5
30783
100
AcDbEntity
  8
SERVICESPACE
100
AcDbLine
 39
0.0
 10
-804.641016
 20
280.0
 30
0.0
 11
-810.0
 21
260.0
 31
0.0
  0
LINE
  5
30784
100
AcDbEntity
  8
SERVICESPACE
100
AcDbLine
 39
0.0
 10
-810.0
 20
260.0
 30
0.0
 11
-815.358984
 21
280.0
 31
0.0
  0
LINE
  5
3078E
100
AcDbEntity
  8
NOTE
100
AcDbLine
 39
0.0
 10
364.929584
 20
380.0
 30
0.0
 11
312.58819
 21
184.659258
 31
0.0
  0
LINE
  5
3078F
100
AcDbEntity
  8
NOTE
100
AcDbLine
 39
0.0
 10
312.58819
 20
205.364782
 30
0.0
 11
312.58819
 21
184.659258
 31
0.0
  0
LINE
  5
30790
100
AcDbEntity
  8
NOTE
100
AcDbLine
 39
0.0
 10
312.58819
 20
184.659258
 30
0.0
 11
322.940952
 21
202.590768
 31
0.0
  0
LINE
  5
30791
100
AcDbEntity
  8
NOTE
100
AcDbLine
 39
0.0
 10
124.212997
 20
499.0
 30
0.0
 11
24.0
 21
125.0
 31
0.0
  0
LINE
  5
30792
100
AcDbEntity
  8
NOTE
100
AcDbLine
 39
0.0
 10
24.0
 20
145.705524
 30
0.0
 11
24.0
 21
125.0
 31
0.0
  0
LINE
  5
30793
100
AcDbEntity
  8
NOTE
100
AcDbLine
 39
0.0
 10
24.0
 20
125.0
 30
0.0
 11
34.352762
 21
142.931509
 31
0.0
  0
LINE
  5
30794
100
AcDbEntity
  8
NOTE
100
AcDbLine
 39
0.0
 10
1014.929584
 20
380.0
 30
0.0
 11
364.929584
 21
380.0
 31
0.0
  0
MTEXT
  5
30795
100
AcDbEntity
  8
NOTE
100
AcDbMText
 10
770.0
 20
390.0
 30
0.0
 40
30.0
 41
303.320671
 71
     7
 72
     1
  1
2 - Uêÿåáåä\PM12 äÓëbÉ{ÉãÉgóp
  7
STEM_DIM30_0_7
 11
1.0
 21
0.0
 31
0.0
1001
ACAD
1000
MTEXTBEGIN
1070
    73
1070
     1
1070
    44
1040
1.0
1070
    74
1070
     0
1000
MTEXTEND
  0
LINE
  5
30797
100
AcDbEntity
  8
NOTE
100
AcDbLine
 39
0.0
 10
238.993836
 20
-439.998614
 30
0.0
 11
-161.006164
 21
-439.998614
 31
0.0
  0
MTEXT
  5
30798
100
AcDbEntity
  8
NOTE
100
AcDbMText
 10
-151.006164
 20
-429.998614
 30
0.0
 40
30.0
 41
303.320671
 71
     7
 72
     1
  1
2 - í∑â~åä\PM12 äÓëbÉ{ÉãÉgóp
  7
STEM_DIM30_0_7
 11
1.0
 21
0.0
 31
0.0
1001
ACAD
1000
MTEXTBEGIN
1070
    73
1070
     1
1070
    44
1040
1.0
1070
    74
1070
     0
1000
MTEXTEND
  0
LINE
  5
30799
100
AcDbEntity
  8
NOTE
100
AcDbLine
 39
0.0
 10
772.998612
 20
-519.998614
 30
0.0
 11
372.0
 21
-119.0
 31
0.0
  0
LINE
  5
3079A
100
AcDbEntity
  8
NOTE
100
AcDbLine
 39
0.0
 10
382.352762
 20
-136.931509
 30
0.0
 11
372.0
 21
-119.0
 31
0.0
  0
LINE
  5
3079B
100
AcDbEntity
  8
NOTE
100
AcDbLine
 39
0.0
 10
372.0
 20
-119.0
 30
0.0
 11
389.931509
 21
-129.352762
 31
0.0
  0
LINE
  5
3079C
100
AcDbEntity
  8
NOTE
100
AcDbLine
 39
0.0
 10
238.993836
 20
-439.998614
 30
0.0
 11
307.41181
 21
-184.659258
 31
0.0
  0
LINE
  5
3079D
100
AcDbEntity
  8
NOTE
100
AcDbLine
 39
0.0
 10
307.41181
 20
-205.364782
 30
0.0
 11
307.41181
 21
-184.659258
 31
0.0
  0
LINE
  5
3079E
100
AcDbEntity
  8
NOTE
100
AcDbLine
 39
0.0
 10
307.41181
 20
-184.659258
 30
0.0
 11
297.059048
 21
-202.590768
 31
0.0
  0
LINE
  5
307A3
100
AcDbEntity
  8
NOTE
100
AcDbLine
 39
0.0
 10
934.929584
 20
499.0
 30
0.0
 11
124.212997
 21
499.0
 31
0.0
  0
MTEXT
  5
307A4
100
AcDbEntity
  8
NOTE
100
AcDbMText
 10
770.0
 20
509.0
 30
0.0
 40
30.0
 41
233.600122
 71
     7
 72
     1
  1
äOåaÉ”26.3\PÉhÉåÉìèoå˚
  7
STEM_DIM30_0_7
 11
1.0
 21
0.0
 31
0.0
1001
ACAD
1000
MTEXTBEGIN
1070
    73
1070
     1
1070
    44
1040
1.0
1070
    74
1070
     0
1000
MTEXTEND
  0
LINE
  5
307A5
100
AcDbEntity
  8
NOTE
100
AcDbLine
 39
0.0
 10
709.998613
 20
-398.998614
 30
0.0
 11
425.0
 21
-114.0
 31
0.0
  0
LINE
  5
307A6
100
AcDbEntity
  8
NOTE
100
AcDbLine
 39
0.0
 10
435.352762
 20
-131.931509
 30
0.0
 11
425.0
 21
-114.0
 31
0.0
  0
LINE
  5
307A7
100
AcDbEntity
  8
NOTE
100
AcDbLine
 39
0.0
 10
425.0
 20
-114.0
 30
0.0
 11
442.931509
 21
-124.352762
 31
0.0
  0
LINE
  5
307A8
100
AcDbEntity
  8
NOTE
100
AcDbLine
 39
0.0
 10
1040.0
 20
-398.998614
 30
0.0
 11
709.998613
 21
-398.998614
 31
0.0
  0
LINE
  5
307A9
100
AcDbEntity
  8
NOTE
100
AcDbLine
 39
0.0
 10
1040.0
 20
-519.998614
 30
0.0
 11
772.998612
 21
-519.998614
 31
0.0
  0
MTEXT
  5
307AA
100
AcDbEntity
  8
NOTE
100
AcDbMText
 10
810.0
 20
-388.998614
 30
0.0
 40
30.0
 41
259.692727
 71
     7
 72
     1
  1
É”15.9 ÉtÉåÉAê⁄ë±\Pó‚î}ÉKÉXîzä«
  7
STEM_DIM30_0_7
 11
1.0
 21
0.0
 31
0.0
1001
ACAD
1000
MTEXTBEGIN
1070
    73
1070
     1
1070
    44
1040
1.0
1070
    74
1070
     0
1000
MTEXTEND
  0
MTEXT
  5
307AB
100
AcDbEntity
  8
NOTE
100
AcDbMText
 10
810.0
 20
-509.998614
 30
0.0
 40
30.0
 41
300.0
 71
     7
 72
     1
  1
É”9.5 ÉtÉåÉAê⁄ë±\Pó‚î}âtîzä«
  7
STEM_DIM30_0_7
 11
1.0
 21
0.0
 31
0.0
1001
ACAD
1000
MTEXTBEGIN
1070
    73
1070
     1
1070
    44
1040
1.0
1070
    74
1070
     0
1000
MTEXTEND
  0
LINE
  5
491C7
100
AcDbEntity
  8
DETAIL
100
AcDbLine
 39
0.0
 10
317.499999
 20
171.0
 30
0.0
 11
317.499999
 21
183.959732
 31
0.0
  0
LINE
  5
491C8
100
AcDbEntity
  8
DETAIL
100
AcDbLine
 39
0.0
 10
-317.499999
 20
183.959732
 30
0.0
 11
-317.499999
 21
171.0
 31
0.0
  0
ARC
  5
491C9
100
AcDbEntity
  8
DETAIL
100
AcDbCircle
 39
0.0
 10
310.0
 20
171.0
 30
0.0
 40
7.499999
100
AcDbArc
 50
180.0
 51
0.0
  0
LINE
  5
491CA
100
AcDbEntity
  8
DETAIL
100
AcDbLine
 39
0.0
 10
-302.500001
 20
171.0
 30
0.0
 11
-302.500001
 21
183.959732
 31
0.0
  0
ARC
  5
491CB
100
AcDbEntity
  8
DETAIL
100
AcDbCircle
 39
0.0
 10
-310.0
 20
171.0
 30
0.0
 40
7.499999
100
AcDbArc
 50
180.0
 51
0.0
  0
LINE
  5
491CC
100
AcDbEntity
  8
DETAIL
100
AcDbLine
 39
0.0
 10
302.500001
 20
183.959732
 30
0.0
 11
302.500001
 21
171.0
 31
0.0
  0
LINE
  5
491CD
100
AcDbEntity
  8
DETAIL
100
AcDbLine
 39
0.0
 10
-281.285235
 20
188.32263
 30
0.0
 11
-281.285235
 21
160.0
 31
0.0
  0
LINE
  5
491CE
100
AcDbEntity
  8
DETAIL
100
AcDbLine
 39
0.0
 10
-338.714765
 20
160.0
 30
0.0
 11
-338.714765
 21
188.32263
 31
0.0
  0
ARC
  5
491CF
100
AcDbEntity
  8
DETAIL
100
AcDbCircle
 39
0.0
 10
-296.459733
 20
183.959732
 30
0.0
 40
6.040268
100
AcDbArc
 50
90.0
 51
180.0
  0
ARC
  5
491D0
100
AcDbEntity
  8
DETAIL
100
AcDbCircle
 39
0.0
 10
-323.540267
 20
183.959732
 30
0.0
 40
6.040268
100
AcDbArc
 50
0.0
 51
90.0
  0
LINE
  5
491D1
100
AcDbEntity
  8
DETAIL
100
AcDbLine
 39
0.0
 10
-337.037395
 20
190.0
 30
0.0
 11
-323.540267
 21
190.0
 31
0.0
  0
LINE
  5
491D2
100
AcDbEntity
  8
DETAIL
100
AcDbLine
 39
0.0
 10
-296.459733
 20
190.0
 30
0.0
 11
-282.962605
 21
190.0
 31
0.0
  0
ARC
  5
491D3
100
AcDbEntity
  8
DETAIL
100
AcDbCircle
 39
0.0
 10
-337.037395
 20
188.32263
 30
0.0
 40
1.67737
100
AcDbArc
 50
90.0
 51
180.0
  0
ARC
  5
491D4
100
AcDbEntity
  8
DETAIL
100
AcDbCircle
 39
0.0
 10
-282.962605
 20
188.32263
 30
0.0
 40
1.67737
100
AcDbArc
 50
0.0
 51
90.0
  0
LINE
  5
491D5
100
AcDbEntity
  8
DETAIL
100
AcDbLine
 39
0.0
 10
338.714765
 20
188.32263
 30
0.0
 11
338.714765
 21
160.0
 31
0.0
  0
LINE
  5
491D6
100
AcDbEntity
  8
DETAIL
100
AcDbLine
 39
0.0
 10
281.285235
 20
160.0
 30
0.0
 11
281.285235
 21
188.32263
 31
0.0
  0
ARC
  5
491D7
100
AcDbEntity
  8
DETAIL
100
AcDbCircle
 39
0.0
 10
323.540267
 20
183.959732
 30
0.0
 40
6.040268
100
AcDbArc
 50
90.0
 51
180.0
  0
ARC
  5
491D8
100
AcDbEntity
  8
DETAIL
100
AcDbCircle
 39
0.0
 10
296.459733
 20
183.959732
 30
0.0
 40
6.040268
100
AcDbArc
 50
0.0
 51
90.0
  0
LINE
  5
491D9
100
AcDbEntity
  8
DETAIL
100
AcDbLine
 39
0.0
 10
282.962605
 20
190.0
 30
0.0
 11
296.459733
 21
190.0
 31
0.0
  0
LINE
  5
491DA
100
AcDbEntity
  8
DETAIL
100
AcDbLine
 39
0.0
 10
323.540267
 20
190.0
 30
0.0
 11
337.037395
 21
190.0
 31
0.0
  0
ARC
  5
491DB
100
AcDbEntity
  8
DETAIL
100
AcDbCircle
 39
0.0
 10
282.962605
 20
188.32263
 30
0.0
 40
1.67737
100
AcDbArc
 50
90.0
 51
180.0
  0
ARC
  5
491DC
100
AcDbEntity
  8
DETAIL
100
AcDbCircle
 39
0.0
 10
337.037395
 20
188.32263
 30
0.0
 40
1.67737
100
AcDbArc
 50
0.0
 51
90.0
  0
LINE
  5
491E8
100
AcDbEntity
  8
DETAIL
100
AcDbLine
 39
0.0
 10
281.5
 20
-189.32263
 30
0.0
 11
281.5
 21
-160.0
 31
0.0
  0
LINE
  5
491E9
100
AcDbEntity
  8
DETAIL
100
AcDbLine
 39
0.0
 10
283.17737
 20
-191.0
 30
0.0
 11
336.82263
 21
-191.0
 31
0.0
  0
ARC
  5
491EA
100
AcDbEntity
  8
DETAIL
100
AcDbCircle
 39
0.0
 10
283.17737
 20
-189.32263
 30
0.0
 40
1.67737
100
AcDbArc
 50
180.0
 51
270.0
  0
LINE
  5
491EB
100
AcDbEntity
  8
DETAIL
100
AcDbLine
 39
0.0
 10
338.5
 20
-189.32263
 30
0.0
 11
338.5
 21
-160.4
 31
0.0
  0
ARC
  5
491EC
100
AcDbEntity
  8
DETAIL
100
AcDbCircle
 39
0.0
 10
336.82263
 20
-189.32263
 30
0.0
 40
1.67737
100
AcDbArc
 50
270.0
 51
0.0
  0
POLYLINE
  5
5FC49
100
AcDbEntity
  8
OUTLINE
100
AcDb2dPolyline
 66
     1
 10
0.0
 20
0.0
 30
0.0
 39
0.0
 70
     0
  0
VERTEX
  5
B2B40
100
AcDbEntity
  8
OUTLINE
100
AcDbVertex
100
AcDb2dVertex
 10
-253.55
 20
159.998913
 42
0.0
  0
VERTEX
  5
B2B41
100
AcDbEntity
  8
OUTLINE
100
AcDbVertex
100
AcDb2dVertex
 10
-253.55
 20
160.0
 42
0.0
  0
VERTEX
  5
B2B42
100
AcDbEntity
  8
OUTLINE
100
AcDbVertex
100
AcDb2dVertex
 10
-253.65
 20
160.0
 42
-0.005435
  0
VERTEX
  5
B2B43
100
AcDbEntity
  8
OUTLINE
100
AcDbVertex
100
AcDb2dVertex
 10
-253.55
 20
159.998913
 42
0.0
  0
SEQEND
  5
B2B44
100
AcDbEntity
  8
OUTLINE
  0
POLYLINE
  5
5FC57
100
AcDbEntity
  8
OUTLINE
100
AcDb2dPolyline
 66
     1
 10
0.0
 20
0.0
 30
0.0
 39
0.0
 70
     1
  0
VERTEX
  5
B2B45
100
AcDbEntity
  8
OUTLINE
100
AcDbVertex
100
AcDb2dVertex
 10
158.5
 20
-200.0
 42
0.0
  0
VERTEX
  5
B2B46
100
AcDbEntity
  8
OUTLINE
100
AcDbVertex
100
AcDb2dVertex
 10
174.552632
 20
-199.998614
 42
0.047789
  0
VERTEX
  5
B2B47
100
AcDbEntity
  8
OUTLINE
100
AcDbVertex
100
AcDb2dVertex
 10
178.325227
 20
-199.435538
 42
0.311204
  0
VERTEX
  5
B2B48
100
AcDbEntity
  8
OUTLINE
100
AcDbVertex
100
AcDb2dVertex
 10
181.331266
 20
-196.033796
 42
0.03011
  0
VERTEX
  5
B2B49
100
AcDbEntity
  8
OUTLINE
100
AcDbVertex
100
AcDb2dVertex
 10
183.499999
 20
-160.0
 42
0.0
  0
VERTEX
  5
B2B4A
100
AcDbEntity
  8
OUTLINE
100
AcDbVertex
100
AcDb2dVertex
 10
447.0
 20
-160.0
 42
0.414214
  0
VERTEX
  5
B2B4B
100
AcDbEntity
  8
OUTLINE
100
AcDbVertex
100
AcDb2dVertex
 10
470.0
 20
-137.0
 42
0.0
  0
VERTEX
  5
B2B4C
100
AcDbEntity
  8
OUTLINE
100
AcDbVertex
100
AcDb2dVertex
 10
470.0
 20
137.0
 42
0.414214
  0
VERTEX
  5
B2B4D
100
AcDbEntity
  8
OUTLINE
100
AcDbVertex
100
AcDb2dVertex
 10
447.0
 20
160.0
 42
0.0
  0
VERTEX
  5
B2B4E
100
AcDbEntity
  8
OUTLINE
100
AcDbVertex
100
AcDb2dVertex
 10
-21.55
 20
160.0
 42
0.0
  0
VERTEX
  5
B2B4F
100
AcDbEntity
  8
OUTLINE
100
AcDbVertex
100
AcDb2dVertex
 10
-33.693273
 20
172.593024
 42
0.203641
  0
VERTEX
  5
B2B50
100
AcDbEntity
  8
OUTLINE
100
AcDbVertex
100
AcDb2dVertex
 10
-37.004557
 20
174.0
 42
0.0
  0
VERTEX
  5
B2B51
100
AcDbEntity
  8
OUTLINE
100
AcDbVertex
100
AcDb2dVertex
 10
-220.095443
 20
174.0
 42
0.203641
  0
VERTEX
  5
B2B52
100
AcDbEntity
  8
OUTLINE
100
AcDbVertex
100
AcDb2dVertex
 10
-223.406727
 20
172.593024
 42
0.0
  0
VERTEX
  5
B2B53
100
AcDbEntity
  8
OUTLINE
100
AcDbVertex
100
AcDb2dVertex
 10
-235.55
 20
160.0
 42
0.0
  0
VERTEX
  5
B2B54
100
AcDbEntity
  8
OUTLINE
100
AcDbVertex
100
AcDb2dVertex
 10
-447.0
 20
160.0
 42
0.414214
  0
VERTEX
  5
B2B55
100
AcDbEntity
  8
OUTLINE
100
AcDbVertex
100
AcDb2dVertex
 10
-470.0
 20
137.0
 42
0.0
  0
VERTEX
  5
B2B56
100
AcDbEntity
  8
OUTLINE
100
AcDbVertex
100
AcDb2dVertex
 10
-470.0
 20
-137.0
 42
0.414214
  0
VERTEX
  5
B2B57
100
AcDbEntity
  8
OUTLINE
100
AcDbVertex
100
AcDb2dVertex
 10
-447.0
 20
-160.0
 42
0.0
  0
VERTEX
  5
B2B58
100
AcDbEntity
  8
OUTLINE
100
AcDbVertex
100
AcDb2dVertex
 10
-439.399999
 20
-160.0
 42
0.03011
  0
VERTEX
  5
B2B59
100
AcDbEntity
  8
OUTLINE
100
AcDbVertex
100
AcDb2dVertex
 10
-437.231266
 20
-196.033796
 42
0.311204
  0
VERTEX
  5
B2B5A
100
AcDbEntity
  8
OUTLINE
100
AcDbVertex
100
AcDb2dVertex
 10
-434.225227
 20
-199.435538
 42
0.047789
  0
VERTEX
  5
B2B5B
100
AcDbEntity
  8
OUTLINE
100
AcDbVertex
100
AcDb2dVertex
 10
-430.452631
 20
-199.998614
 42
0.0
  0
VERTEX
  5
B2B5C
100
AcDbEntity
  8
OUTLINE
100
AcDbVertex
100
AcDb2dVertex
 10
-414.4
 20
-200.0
 42
0.0
  0
SEQEND
  5
B2B5D
100
AcDbEntity
  8
OUTLINE
  0
MTEXT
  5
B28DC
100
AcDbEntity
  8
NOTE
100
AcDbMText
 10
1130.0
 20
-474.998614
 30
0.0
 40
30.0
 41
0.0
 71
     7
 72
     1
  3
RSRP112D/RSRP112DE/RSRP112DH\PRSRP140D/RSRP140DE/RSRP140DH\PRSRP160D/RSRP160DE/RSRP160DH\PRSRP112C/RSRP112CE/RSRP112CH\PRSRP140C/RSRP140CE/RSRP140CH\PRSRP160C/RSRP160CE/RSRP160CH\PRSRP112BY/RSRP112BYE/RSRP112BYH\PRSRP140BY/RSRP140BYE/RSRP140BYH\PRSRP
  3
160BY/RSRP160BYE/RSRP160BYH\PRSRP112BF/RSRP112BFE/RSRP112BFH\PRSRP140BF/RSRP140BFE/RSRP140BFH\PRSRP160BF/RSRP160BFE/RSRP160BFH\PRSRP112BD/RSRP112BDE/RSRP112BDH\PRSRP140BD/RSRP140BDE/RSRP140BDH\PRSRP160BD/RSRP160BDE/RSRP160BDH\PRSRP112BC/RSRP140BC/RSR
  3
P160BC\PRSRP112BCE/RSRP140BCE/RSRP160BCE\PRSRP112BCH/RSRP140BCH/RSRP160BCH\PRSRP112BB/RSRP140BB/RSRP160BB\PRSRP112BBE/RSRP140BBE/RSRP160BBE\PRSRP112BBH/RSRP140BBH/RSRP160BBH\PRSRP112BA/RSRP140BA/RSRP160BA\PRSRP112BAE/RSRP140BAE/RSRP160BAE\PRSRP112BAH
  1
/RSRP140BAH/RSRP160BAH\PRSRP112B/RSRP140B/RSRP160B\PRSRP112BE/RSRP140BE/RSRP160BE\PRSRP112BH/RSRP140BH/RSRP160BH
  7
STEM_DIM30_0_7
 11
1.0
 21
0.0
 31
0.0
1001
ACAD
1000
MTEXTBEGIN
1070
    73
1070
     1
1070
    44
1040
1.0
1070
    74
1070
     0
1000
MTEXTEND
  0
VIEWPORT
  5
2FB67
100
AcDbEntity
 67
     1
  8
0
  6
CONTINUOUS
 62
     7
100
AcDbViewport
 10
277.924639
 20
154.230699
 30
0.0
 40
750.820841
 41
344.960691
 68
     2
 69
     1
1001
ACAD
1000
MVIEW
1002
{
1070
    16
1010
0.0
1020
0.0
1030
0.0
1010
0.0
1020
0.0
1030
1.0
1040
0.0
1040
344.960691
1040
277.924639
1040
154.230699
1040
50.0
1040
0.0
1040
0.0
1070
     0
1070
   100
1070
     0
1070
     1
1070
     0
1070
     0
1070
     0
1070
     0
1040
0.0
1040
0.0
1040
0.0
1040
10.0
1040
10.0
1040
10.0
1040
10.0
1070
     0
1002
{
1002
}
1002
}
  0
VIEWPORT
  5
2FB68
100
AcDbEntity
 67
     1
  8
0
100
AcDbViewport
 10
204.099578
 20
142.589249
 30
0.0
 40
406.559325
 41
284.142799
 68
     1
 69
     2
1001
ACAD
1000
MVIEW
1002
{
1070
    16
1010
0.0
1020
0.0
1030
0.0
1010
0.0
1020
0.0
1030
1.0
1040
0.0
1040
8987.305942
1040
6299.807754
1040
4454.864055
1040
50.0
1040
0.0
1040
0.0
1070
     0
1070
   100
1070
     0
1070
     3
1070
     0
1070
     0
1070
     0
1070
     0
1040
0.0
1040
0.0
1040
0.0
1040
1.0
1040
1.0
1040
0.0
1040
0.0
1070
     0
1002
{
1002
}
1002
}
  0
ENDSEC
  0
SECTION
  2
OBJECTS
  0
DICTIONARY
  5
D57
100
AcDbDictionary
  3
ACAD_GROUP
350
D58
  3
ACAD_MLINESTYLE
350
D61
  0
DICTIONARY
  5
D58
100
AcDbDictionary
  0
DICTIONARY
  5
D61
100
AcDbDictionary
  3
STANDARD
350
D62
  0
MLINESTYLE
  5
D62
100
AcDbMlineStyle
  2
STANDARD
 70
     0
  3

 62
   256
 51
90.0
 52
90.0
 71
     2
 49
0.5
 62
   256
  6
BYLAYER
 49
-0.5
 62
   256
  6
BYLAYER
  0
ENDSEC
  0
EOF
