  0
SECTION
  2
HEADER
  9
$ACADVER
  1
AC1009
  9
$DWGCODEPAGE
  3
ANSI_1252
  9
$INSBASE
 10
0.0
 20
0.0
 30
0.0
  9
$EXTMIN
 10
1e+20
 20
1e+20
 30
1e+20
  9
$EXTMAX
 10
-1e+20
 20
-1e+20
 30
-1e+20
  9
$LIMMIN
 10
0.0
 20
0.0
  9
$LIMMAX
 10
420.0
 20
297.0
  9
$ORTHOMODE
 70
0
  9
$REGENMODE
 70
1
  9
$FILLMODE
 70
1
  9
$DRAGMODE
 70
2
  9
$QTEXTMODE
 70
0
  9
$MIRRTEXT
 70
1
  9
$OSMODE
 70
20583
  9
$LTSCALE
 40
1.0
  9
$ATTMODE
 70
1
  9
$TEXTSIZE
 40
2.5
  9
$TRACEWID
 40
1.0
  9
$TEXTSTYLE
  7
Standard
  9
$CLAYER
  8
0
  9
$CELTYPE
  6
ByLayer
  9
$CECOLOR
 62
256
  9
$DIMSCALE
 40
1.0
  9
$DIMASZ
 40
2.5
  9
$DIMEXO
 40
0.625
  9
$DIMDLI
 40
3.75
  9
$DIMRND
 40
0.0
  9
$DIMDLE
 40
0.0
  9
$DIMEXE
 40
1.25
  9
$DIMTP
 40
0.0
  9
$DIMTM
 40
0.0
  9
$DIMTXT
 40
2.5
  9
$DIMCEN
 40
2.5
  9
$DIMTSZ
 40
0.0
  9
$DIMTOL
 70
0
  9
$DIMLIM
 70
0
  9
$DIMTIH
 70
0
  9
$DIMTOH
 70
0
  9
$DIMSE1
 70
0
  9
$DIMSE2
 70
0
  9
$DIMTAD
 70
1
  9
$DIMZIN
 70
8
  9
$DIMBLK
  1

  9
$DIMASO
 70
1
  9
$DIMSHO
 70
1
  9
$DIMPOST
  1

  9
$DIMAPOST
  1

  9
$DIMALT
 70
0
  9
$DIMALTD
 70
3
  9
$DIMALTF
 40
0.03937007874
  9
$DIMLFAC
 40
1.0
  9
$DIMTOFL
 70
1
  9
$DIMTVP
 40
0.0
  9
$DIMTIX
 70
0
  9
$DIMSOXD
 70
0
  9
$DIMSAH
 70
0
  9
$DIMBLK1
  1

  9
$DIMBLK2
  1

  9
$DIMSTYLE
  2
ISO-25
  9
$DIMCLRD
 70
0
  9
$DIMCLRE
 70
0
  9
$DIMCLRT
 70
0
  9
$DIMTFAC
 40
1.0
  9
$DIMGAP
 40
0.625
  9
$COORDS
 70
1
  9
$ATTDIA
 70
0
  9
$ATTREQ
 70
1
  9
$HANDLING
 70
1
  9
$LUNITS
 70
2
  9
$LUPREC
 70
4
  9
$SKETCHINC
 40
1.0
  9
$FILLETRAD
 40
10.0
  9
$AUNITS
 70
0
  9
$AUPREC
 70
2
  9
$MENU
  1
.
  9
$ELEVATION
 40
0.0
  9
$PELEVATION
 40
0.0
  9
$THICKNESS
 40
0.0
  9
$LIMCHECK
 70
0
  9
$CHAMFERA
 40
0.0
  9
$CHAMFERB
 40
0.0
  9
$SKPOLY
 70
0
  9
$TDCREATE
 40
2461272.4405324073
  9
$TDUPDATE
 40
2461272.4405324073
  9
$TDINDWG
 40
0.0
  9
$TDUSRTIMER
 40
0.0
  9
$USRTIMER
 70
1
  9
$ANGBASE
 50
0.0
  9
$ANGDIR
 70
0
  9
$PDMODE
 70
0
  9
$PDSIZE
 40
0.0
  9
$PLINEWID
 40
0.0
  9
$SPLFRAME
 70
0
  9
$SPLINETYPE
 70
6
  9
$SPLINESEGS
 70
8
  9
$HANDSEED
  5
39F
  9
$SURFTAB1
 70
6
  9
$SURFTAB2
 70
6
  9
$SURFTYPE
 70
6
  9
$SURFU
 70
6
  9
$SURFV
 70
6
  9
$UCSNAME
  2

  9
$UCSORG
 10
0.0
 20
0.0
 30
0.0
  9
$UCSXDIR
 10
1.0
 20
0.0
 30
0.0
  9
$UCSYDIR
 10
0.0
 20
1.0
 30
0.0
  9
$PUCSNAME
  2

  9
$PUCSORG
 10
0.0
 20
0.0
 30
0.0
  9
$PUCSXDIR
 10
1.0
 20
0.0
 30
0.0
  9
$PUCSYDIR
 10
0.0
 20
1.0
 30
0.0
  9
$USERI1
 70
0
  9
$USERI2
 70
0
  9
$USERI3
 70
0
  9
$USERI4
 70
0
  9
$USERI5
 70
0
  9
$USERR1
 40
0.0
  9
$USERR2
 40
0.0
  9
$USERR3
 40
0.0
  9
$USERR4
 40
0.0
  9
$USERR5
 40
0.0
  9
$WORLDVIEW
 70
1
  9
$SHADEDGE
 70
3
  9
$SHADEDIF
 70
70
  9
$TILEMODE
 70
1
  9
$MAXACTVP
 70
64
  9
$PLIMCHECK
 70
0
  9
$PEXTMIN
 10
1e+20
 20
1e+20
 30
1e+20
  9
$PEXTMAX
 10
-1e+20
 20
-1e+20
 30
-1e+20
  9
$PLIMMIN
 10
0.0
 20
0.0
  9
$PLIMMAX
 10
420.0
 20
297.0
  9
$UNITMODE
 70
0
  9
$VISRETAIN
 70
1
  9
$PLINEGEN
 70
0
  9
$PSLTSCALE
 70
1
  0
ENDSEC
  0
SECTION
  2
TABLES
  0
TABLE
  2
VPORT
 70
1
  0
VPORT
  5
23
  2
*Active
 70
0
 10
0.0
 20
0.0
 11
1.0
 21
1.0
 12
0.0
 22
0.0
 13
0.0
 23
0.0
 14
0.5
 24
0.5
 15
0.5
 25
0.5
 16
0.0
 26
0.0
 36
1.0
 17
0.0
 27
0.0
 37
0.0
 40
1000.0
 41
1.34
 42
50.0
 43
0.0
 44
0.0
 50
0.0
 51
0.0
 71
0
 72
1000
 73
1
 74
3
 75
0
 76
0
 77
0
 78
0
  0
ENDTAB
  0
TABLE
  2
LTYPE
 70
3
  0
LTYPE
  5
24
  2
ByBlock
 70
0
  3

 72
65
 73
0
 40
0.0
  0
LTYPE
  5
25
  2
ByLayer
 70
0
  3

 72
65
 73
0
 40
0.0
  0
LTYPE
  5
26
  2
Continuous
 70
0
  3

 72
65
 73
0
 40
0.0
  0
ENDTAB
  0
TABLE
  2
LAYER
 70
7
  0
LAYER
  5
27
  2
0
 70
0
 62
7
  6
Continuous
  0
LAYER
  5
28
  2
Defpoints
 70
0
 62
7
  6
Continuous
  0
LAYER
  5
2D
  2
\U+5916\U+5f62
 70
0
 62
7
  6
Continuous
  0
LAYER
  5
2E
  2
\U+4e2d\U+5fc3\U+7dda
 70
0
 62
1
  6
Continuous
  0
LAYER
  5
2F
  2
\U+7d99\U+624b
 70
0
 62
3
  6
Continuous
  0
LAYER
  5
30
  2
\U+7d99\U+624b_\U+6955\U+5186\U+5f27
 70
0
 62
3
  6
Continuous
  0
LAYER
  5
31
  2
\U+6587\U+5b57
 70
0
 62
7
  6
Continuous
  0
ENDTAB
  0
TABLE
  2
STYLE
 70
1
  0
STYLE
  5
29
  2
Standard
 70
0
 40
0.0
 41
1.0
 50
0.0
 71
0
 42
2.5
  3
txt
  4

  0
ENDTAB
  0
TABLE
  2
VIEW
 70
0
  0
ENDTAB
  0
TABLE
  2
UCS
 70
0
  0
ENDTAB
  0
TABLE
  2
APPID
 70
3
  0
APPID
  5
2A
  2
ACAD
 70
0
  0
APPID
  5
39D
  2
HATCHBACKGROUNDCOLOR
 70
0
  0
APPID
  5
39E
  2
EZDXF
 70
0
  0
ENDTAB
  0
TABLE
  2
DIMSTYLE
 70
1
  0
DIMSTYLE
105
2B
  2
Standard
 70
0
  3

  4

  5

  6

  7

 40
1.0
 41
2.5
 42
0.625
 43
3.75
 44
1.25
 45
0.0
 46
0.0
 47
0.0
 48
0.0
140
2.5
141
2.5
142
0.0
143
0.03937007874
144
1.0
145
0.0
146
1.0
147
0.625
 71
0
 72
0
 73
0
 74
0
 75
0
 76
0
 77
1
 78
8
170
0
171
3
172
1
173
0
174
0
175
0
176
0
177
0
178
0
  0
ENDTAB
  0
ENDSEC
  0
SECTION
  2
BLOCKS
  0
BLOCK
  5
18
  8
0
  2
$Model_Space
 70
0
 10
0.0
 20
0.0
 30
0.0
  3
$Model_Space
  1

1001
EZDXF
1000
CREATED_BY_EZDXF
1000
1.4.4 @ 2026-08-19T10:34:22.032391+00:00
1000
WRITTEN_BY_EZDXF
1000
1.4.4 @ 2026-08-19T10:34:22.057511+00:00
  0
ENDBLK
  5
19
  8
0
  0
BLOCK
  5
1C
  8
0
  2
$Paper_Space
 70
0
 10
0.0
 20
0.0
 30
0.0
  3
$Paper_Space
  1

  0
ENDBLK
  5
1D
  8
0
  0
BLOCK
  5
33
  8
0
  2
DV100_DL
 70
0
 10
0.0
 20
0.0
 30
0.0
  3
DV100_DL
  1

  0
POLYLINE
  5
35
  8
\U+7d99\U+624b
 66
1
 10
0.0
 20
0.0
 30
0.0
 70
1
  0
VERTEX
  5
37
  8
\U+7d99\U+624b
 10
-112.0
 20
-62.0
 30
0.0
 70
0
  0
VERTEX
  5
38
  8
\U+7d99\U+624b
 10
-62.0
 20
-62.0
 30
0.0
 70
0
  0
VERTEX
  5
39
  8
\U+7d99\U+624b
 10
-62.000000000000014
 20
-57.00000000000001
 30
0.0
 70
0
  0
VERTEX
  5
3A
  8
\U+7d99\U+624b
 10
-43.384298660212536
 20
-55.53491253082141
 30
0.0
 70
0
  0
VERTEX
  5
3B
  8
\U+7d99\U+624b
 10
-25.226977669381263
 20
-51.17572543912329
 30
0.0
 70
0
  0
VERTEX
  5
3C
  8
\U+7d99\U+624b
 10
-7.975130530993923
 20
-44.02977637841577
 30
0.0
 70
0
  0
VERTEX
  5
3D
  8
\U+7d99\U+624b
 10
7.946445022804291
 20
-34.27302233061875
 30
0.0
 70
0
  0
VERTEX
  5
3E
  8
\U+7d99\U+624b
 10
22.14570696119916
 20
-22.145706961199174
 30
0.0
 70
0
  0
VERTEX
  5
3F
  8
\U+7d99\U+624b
 10
34.27302233061875
 20
-7.946445022804305
 30
0.0
 70
0
  0
VERTEX
  5
40
  8
\U+7d99\U+624b
 10
44.02977637841578
 20
7.97513053099393
 30
0.0
 70
0
  0
VERTEX
  5
41
  8
\U+7d99\U+624b
 10
51.175725439123276
 20
25.226977669381256
 30
0.0
 70
0
  0
VERTEX
  5
42
  8
\U+7d99\U+624b
 10
55.53491253082141
 20
43.38429866021252
 30
0.0
 70
0
  0
VERTEX
  5
43
  8
\U+7d99\U+624b
 10
57.00000000000001
 20
61.99999999999999
 30
0.0
 70
0
  0
VERTEX
  5
44
  8
\U+7d99\U+624b
 10
62.0
 20
62.0
 30
0.0
 70
0
  0
VERTEX
  5
45
  8
\U+7d99\U+624b
 10
62.0
 20
112.0
 30
0.0
 70
0
  0
VERTEX
  5
46
  8
\U+7d99\U+624b
 10
-62.0
 20
112.0
 30
0.0
 70
0
  0
VERTEX
  5
47
  8
\U+7d99\U+624b
 10
-62.0
 20
62.0
 30
0.0
 70
0
  0
VERTEX
  5
48
  8
\U+7d99\U+624b
 10
-57.0
 20
61.99999999999999
 30
0.0
 70
0
  0
VERTEX
  5
49
  8
\U+7d99\U+624b
 10
-57.06155829702431
 20
61.21782767479884
 30
0.0
 70
0
  0
VERTEX
  5
4A
  8
\U+7d99\U+624b
 10
-57.24471741852423
 20
60.45491502812526
 30
0.0
 70
0
  0
VERTEX
  5
4B
  8
\U+7d99\U+624b
 10
-57.54496737905816
 20
59.73004750130226
 30
0.0
 70
0
  0
VERTEX
  5
4C
  8
\U+7d99\U+624b
 10
-57.954915028125264
 20
59.06107373853763
 30
0.0
 70
0
  0
VERTEX
  5
4D
  8
\U+7d99\U+624b
 10
-58.46446609406726
 20
58.46446609406726
 30
0.0
 70
0
  0
VERTEX
  5
4E
  8
\U+7d99\U+624b
 10
-59.06107373853763
 20
57.954915028125264
 30
0.0
 70
0
  0
VERTEX
  5
4F
  8
\U+7d99\U+624b
 10
-59.730047501302266
 20
57.54496737905816
 30
0.0
 70
0
  0
VERTEX
  5
50
  8
\U+7d99\U+624b
 10
-60.45491502812526
 20
57.24471741852423
 30
0.0
 70
0
  0
VERTEX
  5
51
  8
\U+7d99\U+624b
 10
-61.21782767479884
 20
57.06155829702431
 30
0.0
 70
0
  0
VERTEX
  5
52
  8
\U+7d99\U+624b
 10
-61.99999999999999
 20
57.0
 30
0.0
 70
0
  0
VERTEX
  5
53
  8
\U+7d99\U+624b
 10
-62.0
 20
62.0
 30
0.0
 70
0
  0
VERTEX
  5
54
  8
\U+7d99\U+624b
 10
-112.0
 20
62.0
 30
0.0
 70
0
  0
SEQEND
  5
36
  8
\U+7d99\U+624b
  0
POLYLINE
  5
55
  8
\U+7d99\U+624b_\U+6955\U+5186\U+5f27
 66
1
 10
0.0
 20
0.0
 30
0.0
 70
0
  0
VERTEX
  5
57
  8
\U+7d99\U+624b_\U+6955\U+5186\U+5f27
 10
-62.0
 20
-62.0
 30
0.0
 70
0
  0
VERTEX
  5
58
  8
\U+7d99\U+624b_\U+6955\U+5186\U+5f27
 10
-62.0
 20
62.0
 30
0.0
 70
0
  0
SEQEND
  5
56
  8
\U+7d99\U+624b_\U+6955\U+5186\U+5f27
  0
POLYLINE
  5
59
  8
\U+7d99\U+624b_\U+6955\U+5186\U+5f27
 66
1
 10
0.0
 20
0.0
 30
0.0
 70
0
  0
VERTEX
  5
5B
  8
\U+7d99\U+624b_\U+6955\U+5186\U+5f27
 10
62.0
 20
62.0
 30
0.0
 70
0
  0
VERTEX
  5
5C
  8
\U+7d99\U+624b_\U+6955\U+5186\U+5f27
 10
-62.0
 20
62.0
 30
0.0
 70
0
  0
SEQEND
  5
5A
  8
\U+7d99\U+624b_\U+6955\U+5186\U+5f27
  0
ENDBLK
  5
34
  8
0
  0
BLOCK
  5
60
  8
0
  2
PIPE_01
 70
0
 10
0.0
 20
0.0
 30
0.0
  3
PIPE_01
  1

  0
LINE
  5
62
  8
\U+5916\U+5f62
 10
-400.0
 20
57.0
 30
0.0
 11
-112.0
 21
57.0
 31
0.0
  0
LINE
  5
63
  8
\U+5916\U+5f62
 10
-400.0
 20
-57.0
 30
0.0
 11
-112.0
 21
-57.0
 31
0.0
  0
LINE
  5
64
  8
\U+4e2d\U+5fc3\U+7dda
 10
-400.0
 20
0.0
 30
0.0
 11
-112.0
 21
0.0
 31
0.0
  0
ENDBLK
  5
61
  8
0
  0
BLOCK
  5
68
  8
0
  2
PIPE_02
 70
0
 10
0.0
 20
0.0
 30
0.0
  3
PIPE_02
  1

  0
LINE
  5
6A
  8
\U+5916\U+5f62
 10
-57.0
 20
112.0
 30
0.0
 11
-57.0
 21
400.0
 31
0.0
  0
LINE
  5
6B
  8
\U+5916\U+5f62
 10
57.0
 20
112.0
 30
0.0
 11
57.0
 21
400.0
 31
0.0
  0
LINE
  5
6C
  8
\U+4e2d\U+5fc3\U+7dda
 10
0.0
 20
112.0
 30
0.0
 11
0.0
 21
400.0
 31
0.0
  0
ENDBLK
  5
69
  8
0
  0
BLOCK
  5
71
  8
0
  2
DV100_LL
 70
0
 10
0.0
 20
0.0
 30
0.0
  3
DV100_LL
  1

  0
POLYLINE
  5
73
  8
\U+7d99\U+624b
 66
1
 10
0.0
 20
0.0
 30
0.0
 70
1
  0
VERTEX
  5
75
  8
\U+7d99\U+624b
 10
-178.0
 20
-62.0
 30
0.0
 70
0
  0
VERTEX
  5
76
  8
\U+7d99\U+624b
 10
-128.0
 20
-62.0
 30
0.0
 70
0
  0
VERTEX
  5
77
  8
\U+7d99\U+624b
 10
-128.0
 20
-57.00000000000003
 30
0.0
 70
0
  0
VERTEX
  5
78
  8
\U+7d99\U+624b
 10
-99.05962396755729
 20
-54.7223430101005
 30
0.0
 70
0
  0
VERTEX
  5
79
  8
\U+7d99\U+624b
 10
-70.83185604063469
 20
-47.945455514603424
 30
0.0
 70
0
  0
VERTEX
  5
7A
  8
\U+7d99\U+624b
 10
-44.01175754818381
 20
-36.83620697484807
 30
0.0
 70
0
  0
VERTEX
  5
7B
  8
\U+7d99\U+624b
 10
-19.25972832589244
 20
-21.668143959365295
 30
0.0
 70
0
  0
VERTEX
  5
7C
  8
\U+7d99\U+624b
 10
2.8147545195113253
 20
-2.814754519511297
 30
0.0
 70
0
  0
VERTEX
  5
7D
  8
\U+7d99\U+624b
 10
21.668143959365295
 20
19.259728325892468
 30
0.0
 70
0
  0
VERTEX
  5
7E
  8
\U+7d99\U+624b
 10
36.836206974848096
 20
44.01175754818385
 30
0.0
 70
0
  0
VERTEX
  5
7F
  8
\U+7d99\U+624b
 10
47.94545551460345
 20
70.83185604063475
 30
0.0
 70
0
  0
VERTEX
  5
80
  8
\U+7d99\U+624b
 10
54.7223430101005
 20
99.0596239675573
 30
0.0
 70
0
  0
VERTEX
  5
81
  8
\U+7d99\U+624b
 10
57.00000000000003
 20
128.0
 30
0.0
 70
0
  0
VERTEX
  5
82
  8
\U+7d99\U+624b
 10
62.0
 20
128.0
 30
0.0
 70
0
  0
VERTEX
  5
83
  8
\U+7d99\U+624b
 10
62.0
 20
178.0
 30
0.0
 70
0
  0
VERTEX
  5
84
  8
\U+7d99\U+624b
 10
-62.0
 20
178.0
 30
0.0
 70
0
  0
VERTEX
  5
85
  8
\U+7d99\U+624b
 10
-62.0
 20
128.0
 30
0.0
 70
0
  0
VERTEX
  5
86
  8
\U+7d99\U+624b
 10
-56.999999999999986
 20
127.99999999999999
 30
0.0
 70
0
  0
VERTEX
  5
87
  8
\U+7d99\U+624b
 10
-57.874127817745205
 20
116.89315298214359
 30
0.0
 70
0
  0
VERTEX
  5
88
  8
\U+7d99\U+624b
 10
-60.47498734304408
 20
106.05979339937872
 30
0.0
 70
0
  0
VERTEX
  5
89
  8
\U+7d99\U+624b
 10
-64.73853678262586
 20
95.76667451849215
 30
0.0
 70
0
  0
VERTEX
  5
8A
  8
\U+7d99\U+624b
 10
-70.55979339937872
 20
86.26724708723438
 30
0.0
 70
0
  0
VERTEX
  5
8B
  8
\U+7d99\U+624b
 10
-77.79541853575512
 20
77.7954185357551
 30
0.0
 70
0
  0
VERTEX
  5
8C
  8
\U+7d99\U+624b
 10
-86.2672470872344
 20
70.5597933993787
 30
0.0
 70
0
  0
VERTEX
  5
8D
  8
\U+7d99\U+624b
 10
-95.76667451849217
 20
64.73853678262586
 30
0.0
 70
0
  0
VERTEX
  5
8E
  8
\U+7d99\U+624b
 10
-106.05979339937872
 20
60.47498734304408
 30
0.0
 70
0
  0
VERTEX
  5
8F
  8
\U+7d99\U+624b
 10
-116.89315298214359
 20
57.874127817745205
 30
0.0
 70
0
  0
VERTEX
  5
90
  8
\U+7d99\U+624b
 10
-127.99999999999999
 20
56.999999999999986
 30
0.0
 70
0
  0
VERTEX
  5
91
  8
\U+7d99\U+624b
 10
-128.0
 20
62.0
 30
0.0
 70
0
  0
VERTEX
  5
92
  8
\U+7d99\U+624b
 10
-178.0
 20
62.0
 30
0.0
 70
0
  0
SEQEND
  5
74
  8
\U+7d99\U+624b
  0
POLYLINE
  5
93
  8
\U+7d99\U+624b_\U+6955\U+5186\U+5f27
 66
1
 10
0.0
 20
0.0
 30
0.0
 70
0
  0
VERTEX
  5
95
  8
\U+7d99\U+624b_\U+6955\U+5186\U+5f27
 10
-128.0
 20
-62.0
 30
0.0
 70
0
  0
VERTEX
  5
96
  8
\U+7d99\U+624b_\U+6955\U+5186\U+5f27
 10
-128.0
 20
62.0
 30
0.0
 70
0
  0
SEQEND
  5
94
  8
\U+7d99\U+624b_\U+6955\U+5186\U+5f27
  0
POLYLINE
  5
97
  8
\U+7d99\U+624b_\U+6955\U+5186\U+5f27
 66
1
 10
0.0
 20
0.0
 30
0.0
 70
0
  0
VERTEX
  5
99
  8
\U+7d99\U+624b_\U+6955\U+5186\U+5f27
 10
62.0
 20
128.0
 30
0.0
 70
0
  0
VERTEX
  5
9A
  8
\U+7d99\U+624b_\U+6955\U+5186\U+5f27
 10
-62.0
 20
128.0
 30
0.0
 70
0
  0
SEQEND
  5
98
  8
\U+7d99\U+624b_\U+6955\U+5186\U+5f27
  0
ENDBLK
  5
72
  8
0
  0
BLOCK
  5
9E
  8
0
  2
PIPE_03
 70
0
 10
0.0
 20
0.0
 30
0.0
  3
PIPE_03
  1

  0
LINE
  5
A0
  8
\U+5916\U+5f62
 10
-400.0
 20
57.0
 30
0.0
 11
-178.0
 21
57.0
 31
0.0
  0
LINE
  5
A1
  8
\U+5916\U+5f62
 10
-400.0
 20
-57.0
 30
0.0
 11
-178.0
 21
-57.0
 31
0.0
  0
LINE
  5
A2
  8
\U+4e2d\U+5fc3\U+7dda
 10
-400.0
 20
0.0
 30
0.0
 11
-178.0
 21
0.0
 31
0.0
  0
ENDBLK
  5
9F
  8
0
  0
BLOCK
  5
A6
  8
0
  2
PIPE_04
 70
0
 10
0.0
 20
0.0
 30
0.0
  3
PIPE_04
  1

  0
LINE
  5
A8
  8
\U+5916\U+5f62
 10
-57.0
 20
178.0
 30
0.0
 11
-57.0
 21
400.0
 31
0.0
  0
LINE
  5
A9
  8
\U+5916\U+5f62
 10
57.0
 20
178.0
 30
0.0
 11
57.0
 21
400.0
 31
0.0
  0
LINE
  5
AA
  8
\U+4e2d\U+5fc3\U+7dda
 10
0.0
 20
178.0
 30
0.0
 11
0.0
 21
400.0
 31
0.0
  0
ENDBLK
  5
A7
  8
0
  0
BLOCK
  5
AF
  8
0
  2
DV100_45L
 70
0
 10
0.0
 20
0.0
 30
0.0
  3
DV100_45L
  1

  0
POLYLINE
  5
B1
  8
\U+7d99\U+624b
 66
1
 10
0.0
 20
0.0
 30
0.0
 70
1
  0
VERTEX
  5
B3
  8
\U+7d99\U+624b
 10
-80.0
 20
-62.0
 30
0.0
 70
0
  0
VERTEX
  5
B4
  8
\U+7d99\U+624b
 10
-30.0
 20
-62.0
 30
0.0
 70
0
  0
VERTEX
  5
B5
  8
\U+7d99\U+624b
 10
-29.999999999228017
 20
-57.00020343868482
 30
0.0
 70
0
  0
VERTEX
  5
B6
  8
\U+7d99\U+624b
 10
-9.753328613414599
 20
-55.40667213211496
 30
0.0
 70
0
  0
VERTEX
  5
B7
  8
\U+7d99\U+624b
 10
9.994786451854502
 20
-50.66547021709114
 30
0.0
 70
0
  0
VERTEX
  5
B8
  8
\U+7d99\U+624b
 10
28.75807717882722
 20
-42.893342752539766
 30
0.0
 70
0
  0
VERTEX
  5
B9
  8
\U+7d99\U+624b
 10
46.07452538712759
 20
-32.281666839688626
 30
0.0
 70
0
  0
VERTEX
  5
BA
  8
\U+7d99\U+624b
 10
61.51773924558964
 20
-19.091739245045062
 30
0.0
 70
0
  0
VERTEX
  5
BB
  8
\U+7d99\U+624b
 10
65.05319999999999
 20
-22.6272
 30
0.0
 70
0
  0
VERTEX
  5
BC
  8
\U+7d99\U+624b
 10
100.4082
 20
12.727800000000002
 30
0.0
 70
0
  0
VERTEX
  5
BD
  8
\U+7d99\U+624b
 10
12.727800000000002
 20
100.4082
 30
0.0
 70
0
  0
VERTEX
  5
BE
  8
\U+7d99\U+624b
 10
-22.6272
 20
65.05319999999999
 30
0.0
 70
0
  0
VERTEX
  5
BF
  8
\U+7d99\U+624b
 10
-19.092993109301702
 20
61.51787450671581
 30
0.0
 70
0
  0
VERTEX
  5
C0
  8
\U+7d99\U+624b
 10
-20.933575296865108
 20
59.945847724696634
 30
0.0
 70
0
  0
VERTEX
  5
C1
  8
\U+7d99\U+624b
 10
-22.997416827272822
 20
58.68110698844845
 30
0.0
 70
0
  0
VERTEX
  5
C2
  8
\U+7d99\U+624b
 10
-25.23369866657508
 20
57.754794661115945
 30
0.0
 70
0
  0
VERTEX
  5
C3
  8
\U+7d99\U+624b
 10
-27.587355694200202
 20
57.18971980866529
 30
0.0
 70
0
  0
VERTEX
  5
C4
  8
\U+7d99\U+624b
 10
-30.00043259980546
 20
56.99979656049438
 30
0.0
 70
0
  0
VERTEX
  5
C5
  8
\U+7d99\U+624b
 10
-30.0
 20
62.0
 30
0.0
 70
0
  0
VERTEX
  5
C6
  8
\U+7d99\U+624b
 10
-80.0
 20
62.0
 30
0.0
 70
0
  0
SEQEND
  5
B2
  8
\U+7d99\U+624b
  0
POLYLINE
  5
C7
  8
\U+7d99\U+624b_\U+6955\U+5186\U+5f27
 66
1
 10
0.0
 20
0.0
 30
0.0
 70
0
  0
VERTEX
  5
C9
  8
\U+7d99\U+624b_\U+6955\U+5186\U+5f27
 10
-30.0
 20
-62.0
 30
0.0
 70
0
  0
VERTEX
  5
CA
  8
\U+7d99\U+624b_\U+6955\U+5186\U+5f27
 10
-30.0
 20
62.0
 30
0.0
 70
0
  0
SEQEND
  5
C8
  8
\U+7d99\U+624b_\U+6955\U+5186\U+5f27
  0
POLYLINE
  5
CB
  8
\U+7d99\U+624b_\U+6955\U+5186\U+5f27
 66
1
 10
0.0
 20
0.0
 30
0.0
 70
0
  0
VERTEX
  5
CD
  8
\U+7d99\U+624b_\U+6955\U+5186\U+5f27
 10
65.05319999999999
 20
-22.6272
 30
0.0
 70
0
  0
VERTEX
  5
CE
  8
\U+7d99\U+624b_\U+6955\U+5186\U+5f27
 10
-22.6272
 20
65.05319999999999
 30
0.0
 70
0
  0
SEQEND
  5
CC
  8
\U+7d99\U+624b_\U+6955\U+5186\U+5f27
  0
ENDBLK
  5
B0
  8
0
  0
BLOCK
  5
D2
  8
0
  2
PIPE_05
 70
0
 10
0.0
 20
0.0
 30
0.0
  3
PIPE_05
  1

  0
LINE
  5
D4
  8
\U+5916\U+5f62
 10
-400.0
 20
57.0
 30
0.0
 11
-80.0
 21
57.0
 31
0.0
  0
LINE
  5
D5
  8
\U+5916\U+5f62
 10
-400.0
 20
-57.0
 30
0.0
 11
-80.0
 21
-57.0
 31
0.0
  0
LINE
  5
D6
  8
\U+4e2d\U+5fc3\U+7dda
 10
-400.0
 20
0.0
 30
0.0
 11
-80.0
 21
0.0
 31
0.0
  0
ENDBLK
  5
D3
  8
0
  0
BLOCK
  5
DA
  8
0
  2
PIPE_06
 70
0
 10
0.0
 20
0.0
 30
0.0
  3
PIPE_06
  1

  0
LINE
  5
DC
  8
\U+5916\U+5f62
 10
16.26291347236679
 20
96.8730865276332
 30
0.0
 11
242.53491347236678
 21
323.14508652763317
 31
0.0
  0
LINE
  5
DD
  8
\U+5916\U+5f62
 10
96.8730865276332
 20
16.26291347236679
 30
0.0
 11
323.14508652763317
 21
242.53491347236678
 31
0.0
  0
LINE
  5
DE
  8
\U+4e2d\U+5fc3\U+7dda
 10
56.568
 20
56.568
 30
0.0
 11
282.84
 21
282.84
 31
0.0
  0
ENDBLK
  5
DB
  8
0
  0
BLOCK
  5
E3
  8
0
  2
DV100_DT
 70
0
 10
0.0
 20
0.0
 30
0.0
  3
DV100_DT
  1

  0
POLYLINE
  5
E5
  8
\U+7d99\U+624b
 66
1
 10
0.0
 20
0.0
 30
0.0
 70
1
  0
VERTEX
  5
E7
  8
\U+7d99\U+624b
 10
-113.0
 20
-62.0
 30
0.0
 70
0
  0
VERTEX
  5
E8
  8
\U+7d99\U+624b
 10
-63.0
 20
-62.0
 30
0.0
 70
0
  0
VERTEX
  5
E9
  8
\U+7d99\U+624b
 10
-63.0
 20
-57.0
 30
0.0
 70
0
  0
VERTEX
  5
EA
  8
\U+7d99\U+624b
 10
63.0
 20
-57.0
 30
0.0
 70
0
  0
VERTEX
  5
EB
  8
\U+7d99\U+624b
 10
63.0
 20
-62.0
 30
0.0
 70
0
  0
VERTEX
  5
EC
  8
\U+7d99\U+624b
 10
113.0
 20
-62.0
 30
0.0
 70
0
  0
VERTEX
  5
ED
  8
\U+7d99\U+624b
 10
113.0
 20
62.0
 30
0.0
 70
0
  0
VERTEX
  5
EE
  8
\U+7d99\U+624b
 10
63.0
 20
62.0
 30
0.0
 70
0
  0
VERTEX
  5
EF
  8
\U+7d99\U+624b
 10
63.0
 20
57.0
 30
0.0
 70
0
  0
VERTEX
  5
F0
  8
\U+7d99\U+624b
 10
57.0
 20
57.0
 30
0.0
 70
0
  0
VERTEX
  5
F1
  8
\U+7d99\U+624b
 10
57.0
 20
63.0
 30
0.0
 70
0
  0
VERTEX
  5
F2
  8
\U+7d99\U+624b
 10
62.0
 20
63.0
 30
0.0
 70
0
  0
VERTEX
  5
F3
  8
\U+7d99\U+624b
 10
62.0
 20
113.0
 30
0.0
 70
0
  0
VERTEX
  5
F4
  8
\U+7d99\U+624b
 10
-62.0
 20
113.0
 30
0.0
 70
0
  0
VERTEX
  5
F5
  8
\U+7d99\U+624b
 10
-62.0
 20
63.0
 30
0.0
 70
0
  0
VERTEX
  5
F6
  8
\U+7d99\U+624b
 10
-57.0
 20
63.0
 30
0.0
 70
0
  0
VERTEX
  5
F7
  8
\U+7d99\U+624b
 10
-57.0
 20
57.0
 30
0.0
 70
0
  0
VERTEX
  5
F8
  8
\U+7d99\U+624b
 10
-63.0
 20
57.0
 30
0.0
 70
0
  0
VERTEX
  5
F9
  8
\U+7d99\U+624b
 10
-63.0
 20
62.0
 30
0.0
 70
0
  0
VERTEX
  5
FA
  8
\U+7d99\U+624b
 10
-113.0
 20
62.0
 30
0.0
 70
0
  0
SEQEND
  5
E6
  8
\U+7d99\U+624b
  0
POLYLINE
  5
FB
  8
\U+7d99\U+624b_\U+6955\U+5186\U+5f27
 66
1
 10
0.0
 20
0.0
 30
0.0
 70
0
  0
VERTEX
  5
FD
  8
\U+7d99\U+624b_\U+6955\U+5186\U+5f27
 10
-63.0
 20
-62.0
 30
0.0
 70
0
  0
VERTEX
  5
FE
  8
\U+7d99\U+624b_\U+6955\U+5186\U+5f27
 10
-63.0
 20
62.0
 30
0.0
 70
0
  0
SEQEND
  5
FC
  8
\U+7d99\U+624b_\U+6955\U+5186\U+5f27
  0
POLYLINE
  5
FF
  8
\U+7d99\U+624b_\U+6955\U+5186\U+5f27
 66
1
 10
0.0
 20
0.0
 30
0.0
 70
0
  0
VERTEX
  5
101
  8
\U+7d99\U+624b_\U+6955\U+5186\U+5f27
 10
63.0
 20
-62.0
 30
0.0
 70
0
  0
VERTEX
  5
102
  8
\U+7d99\U+624b_\U+6955\U+5186\U+5f27
 10
63.0
 20
62.0
 30
0.0
 70
0
  0
SEQEND
  5
100
  8
\U+7d99\U+624b_\U+6955\U+5186\U+5f27
  0
POLYLINE
  5
103
  8
\U+7d99\U+624b_\U+6955\U+5186\U+5f27
 66
1
 10
0.0
 20
0.0
 30
0.0
 70
0
  0
VERTEX
  5
105
  8
\U+7d99\U+624b_\U+6955\U+5186\U+5f27
 10
62.0
 20
63.0
 30
0.0
 70
0
  0
VERTEX
  5
106
  8
\U+7d99\U+624b_\U+6955\U+5186\U+5f27
 10
-62.0
 20
63.0
 30
0.0
 70
0
  0
SEQEND
  5
104
  8
\U+7d99\U+624b_\U+6955\U+5186\U+5f27
  0
ENDBLK
  5
E4
  8
0
  0
BLOCK
  5
10A
  8
0
  2
PIPE_07
 70
0
 10
0.0
 20
0.0
 30
0.0
  3
PIPE_07
  1

  0
LINE
  5
10C
  8
\U+5916\U+5f62
 10
-400.0
 20
57.0
 30
0.0
 11
-113.0
 21
57.0
 31
0.0
  0
LINE
  5
10D
  8
\U+5916\U+5f62
 10
-400.0
 20
-57.0
 30
0.0
 11
-113.0
 21
-57.0
 31
0.0
  0
LINE
  5
10E
  8
\U+4e2d\U+5fc3\U+7dda
 10
-400.0
 20
0.0
 30
0.0
 11
-113.0
 21
0.0
 31
0.0
  0
ENDBLK
  5
10B
  8
0
  0
BLOCK
  5
112
  8
0
  2
PIPE_08
 70
0
 10
0.0
 20
0.0
 30
0.0
  3
PIPE_08
  1

  0
LINE
  5
114
  8
\U+5916\U+5f62
 10
113.0
 20
57.0
 30
0.0
 11
400.0
 21
57.0
 31
0.0
  0
LINE
  5
115
  8
\U+5916\U+5f62
 10
113.0
 20
-57.0
 30
0.0
 11
400.0
 21
-57.0
 31
0.0
  0
LINE
  5
116
  8
\U+4e2d\U+5fc3\U+7dda
 10
113.0
 20
0.0
 30
0.0
 11
400.0
 21
0.0
 31
0.0
  0
ENDBLK
  5
113
  8
0
  0
BLOCK
  5
11A
  8
0
  2
PIPE_09
 70
0
 10
0.0
 20
0.0
 30
0.0
  3
PIPE_09
  1

  0
LINE
  5
11C
  8
\U+5916\U+5f62
 10
-57.0
 20
113.0
 30
0.0
 11
-57.0
 21
400.0
 31
0.0
  0
LINE
  5
11D
  8
\U+5916\U+5f62
 10
57.0
 20
113.0
 30
0.0
 11
57.0
 21
400.0
 31
0.0
  0
LINE
  5
11E
  8
\U+4e2d\U+5fc3\U+7dda
 10
0.0
 20
113.0
 30
0.0
 11
0.0
 21
400.0
 31
0.0
  0
ENDBLK
  5
11B
  8
0
  0
BLOCK
  5
123
  8
0
  2
DV100_LT
 70
0
 10
0.0
 20
0.0
 30
0.0
  3
DV100_LT
  1

  0
POLYLINE
  5
125
  8
\U+7d99\U+624b
 66
1
 10
0.0
 20
0.0
 30
0.0
 70
1
  0
VERTEX
  5
127
  8
\U+7d99\U+624b
 10
-94.34
 20
-62.0
 30
0.0
 70
0
  0
VERTEX
  5
128
  8
\U+7d99\U+624b
 10
-44.34
 20
-62.0
 30
0.0
 70
0
  0
VERTEX
  5
129
  8
\U+7d99\U+624b
 10
-44.34
 20
-57.0
 30
0.0
 70
0
  0
VERTEX
  5
12A
  8
\U+7d99\U+624b
 10
128.0
 20
-57.0
 30
0.0
 70
0
  0
VERTEX
  5
12B
  8
\U+7d99\U+624b
 10
128.0
 20
-62.0
 30
0.0
 70
0
  0
VERTEX
  5
12C
  8
\U+7d99\U+624b
 10
178.0
 20
-62.0
 30
0.0
 70
0
  0
VERTEX
  5
12D
  8
\U+7d99\U+624b
 10
178.0
 20
62.0
 30
0.0
 70
0
  0
VERTEX
  5
12E
  8
\U+7d99\U+624b
 10
128.0
 20
62.0
 30
0.0
 70
0
  0
VERTEX
  5
12F
  8
\U+7d99\U+624b
 10
128.0
 20
57.0
 30
0.0
 70
0
  0
VERTEX
  5
130
  8
\U+7d99\U+624b
 10
112.64
 20
57.0
 30
0.0
 70
0
  0
VERTEX
  5
131
  8
\U+7d99\U+624b
 10
101.78517448302263
 20
58.06910699836426
 30
0.0
 70
0
  0
VERTEX
  5
132
  8
\U+7d99\U+624b
 10
91.3474938232064
 20
61.23534281107201
 30
0.0
 70
0
  0
VERTEX
  5
133
  8
\U+7d99\U+624b
 10
81.72807223478935
 20
66.37703077148637
 30
0.0
 70
0
  0
VERTEX
  5
134
  8
\U+7d99\U+624b
 10
73.2965786947805
 20
73.2965786947805
 30
0.0
 70
0
  0
VERTEX
  5
135
  8
\U+7d99\U+624b
 10
66.37703077148637
 20
81.72807223478934
 30
0.0
 70
0
  0
VERTEX
  5
136
  8
\U+7d99\U+624b
 10
61.23534281107201
 20
91.3474938232064
 30
0.0
 70
0
  0
VERTEX
  5
137
  8
\U+7d99\U+624b
 10
58.06910699836426
 20
101.7851744830226
 30
0.0
 70
0
  0
VERTEX
  5
138
  8
\U+7d99\U+624b
 10
57.0
 20
112.64
 30
0.0
 70
0
  0
VERTEX
  5
139
  8
\U+7d99\U+624b
 10
57.0
 20
128.0
 30
0.0
 70
0
  0
VERTEX
  5
13A
  8
\U+7d99\U+624b
 10
62.0
 20
128.0
 30
0.0
 70
0
  0
VERTEX
  5
13B
  8
\U+7d99\U+624b
 10
62.0
 20
178.0
 30
0.0
 70
0
  0
VERTEX
  5
13C
  8
\U+7d99\U+624b
 10
-62.0
 20
178.0
 30
0.0
 70
0
  0
VERTEX
  5
13D
  8
\U+7d99\U+624b
 10
-62.0
 20
128.0
 30
0.0
 70
0
  0
VERTEX
  5
13E
  8
\U+7d99\U+624b
 10
-57.0
 20
128.0
 30
0.0
 70
0
  0
VERTEX
  5
13F
  8
\U+7d99\U+624b
 10
-57.0
 20
112.64
 30
0.0
 70
0
  0
VERTEX
  5
140
  8
\U+7d99\U+624b
 10
-56.83228822538965
 20
105.52026708427776
 30
0.0
 70
0
  0
VERTEX
  5
141
  8
\U+7d99\U+624b
 10
-56.32952493530476
 20
98.41632781759594
 30
0.0
 70
0
  0
VERTEX
  5
142
  8
\U+7d99\U+624b
 10
-55.49282540570411
 20
91.34394081406397
 30
0.0
 70
0
  0
VERTEX
  5
143
  8
\U+7d99\U+624b
 10
-54.324045680751084
 20
84.31879469564767
 30
0.0
 70
0
  0
VERTEX
  5
144
  8
\U+7d99\U+624b
 10
-52.825778455564915
 20
77.35647329021867
 30
0.0
 70
0
  0
VERTEX
  5
145
  8
\U+7d99\U+624b
 10
-51.00134732486521
 20
70.47242106206878
 30
0.0
 70
0
  0
VERTEX
  5
146
  8
\U+7d99\U+624b
 10
-48.85479941026699
 20
63.681908851572786
 30
0.0
 70
0
  0
VERTEX
  5
147
  8
\U+7d99\U+624b
 10
-46.3908963825819
 20
57.00000000000005
 30
0.0
 70
0
  0
VERTEX
  5
148
  8
\U+7d99\U+624b
 10
-44.34
 20
57.0
 30
0.0
 70
0
  0
VERTEX
  5
149
  8
\U+7d99\U+624b
 10
-44.34
 20
62.0
 30
0.0
 70
0
  0
VERTEX
  5
14A
  8
\U+7d99\U+624b
 10
-94.34
 20
62.0
 30
0.0
 70
0
  0
SEQEND
  5
126
  8
\U+7d99\U+624b
  0
POLYLINE
  5
14B
  8
\U+7d99\U+624b_\U+6955\U+5186\U+5f27
 66
1
 10
0.0
 20
0.0
 30
0.0
 70
0
  0
VERTEX
  5
14D
  8
\U+7d99\U+624b_\U+6955\U+5186\U+5f27
 10
-44.34
 20
-62.0
 30
0.0
 70
0
  0
VERTEX
  5
14E
  8
\U+7d99\U+624b_\U+6955\U+5186\U+5f27
 10
-44.34
 20
62.0
 30
0.0
 70
0
  0
SEQEND
  5
14C
  8
\U+7d99\U+624b_\U+6955\U+5186\U+5f27
  0
POLYLINE
  5
14F
  8
\U+7d99\U+624b_\U+6955\U+5186\U+5f27
 66
1
 10
0.0
 20
0.0
 30
0.0
 70
0
  0
VERTEX
  5
151
  8
\U+7d99\U+624b_\U+6955\U+5186\U+5f27
 10
128.0
 20
-62.0
 30
0.0
 70
0
  0
VERTEX
  5
152
  8
\U+7d99\U+624b_\U+6955\U+5186\U+5f27
 10
128.0
 20
62.0
 30
0.0
 70
0
  0
SEQEND
  5
150
  8
\U+7d99\U+624b_\U+6955\U+5186\U+5f27
  0
POLYLINE
  5
153
  8
\U+7d99\U+624b_\U+6955\U+5186\U+5f27
 66
1
 10
0.0
 20
0.0
 30
0.0
 70
0
  0
VERTEX
  5
155
  8
\U+7d99\U+624b_\U+6955\U+5186\U+5f27
 10
-62.0
 20
128.0
 30
0.0
 70
0
  0
VERTEX
  5
156
  8
\U+7d99\U+624b_\U+6955\U+5186\U+5f27
 10
62.0
 20
128.0
 30
0.0
 70
0
  0
SEQEND
  5
154
  8
\U+7d99\U+624b_\U+6955\U+5186\U+5f27
  0
ENDBLK
  5
124
  8
0
  0
BLOCK
  5
15A
  8
0
  2
PIPE_10
 70
0
 10
0.0
 20
0.0
 30
0.0
  3
PIPE_10
  1

  0
LINE
  5
15C
  8
\U+5916\U+5f62
 10
-400.0
 20
57.0
 30
0.0
 11
-95.0
 21
57.0
 31
0.0
  0
LINE
  5
15D
  8
\U+5916\U+5f62
 10
-400.0
 20
-57.0
 30
0.0
 11
-95.0
 21
-57.0
 31
0.0
  0
LINE
  5
15E
  8
\U+4e2d\U+5fc3\U+7dda
 10
-400.0
 20
0.0
 30
0.0
 11
-95.0
 21
0.0
 31
0.0
  0
ENDBLK
  5
15B
  8
0
  0
BLOCK
  5
162
  8
0
  2
PIPE_11
 70
0
 10
0.0
 20
0.0
 30
0.0
  3
PIPE_11
  1

  0
LINE
  5
164
  8
\U+5916\U+5f62
 10
178.0
 20
57.0
 30
0.0
 11
400.0
 21
57.0
 31
0.0
  0
LINE
  5
165
  8
\U+5916\U+5f62
 10
178.0
 20
-57.0
 30
0.0
 11
400.0
 21
-57.0
 31
0.0
  0
LINE
  5
166
  8
\U+4e2d\U+5fc3\U+7dda
 10
178.0
 20
0.0
 30
0.0
 11
400.0
 21
0.0
 31
0.0
  0
ENDBLK
  5
163
  8
0
  0
BLOCK
  5
16A
  8
0
  2
PIPE_12
 70
0
 10
0.0
 20
0.0
 30
0.0
  3
PIPE_12
  1

  0
LINE
  5
16C
  8
\U+5916\U+5f62
 10
-57.0
 20
178.0
 30
0.0
 11
-57.0
 21
400.0
 31
0.0
  0
LINE
  5
16D
  8
\U+5916\U+5f62
 10
57.0
 20
178.0
 30
0.0
 11
57.0
 21
400.0
 31
0.0
  0
LINE
  5
16E
  8
\U+4e2d\U+5fc3\U+7dda
 10
0.0
 20
178.0
 30
0.0
 11
0.0
 21
400.0
 31
0.0
  0
ENDBLK
  5
16B
  8
0
  0
BLOCK
  5
173
  8
0
  2
DV100_Y
 70
0
 10
0.0
 20
0.0
 30
0.0
  3
DV100_Y
  1

  0
POLYLINE
  5
175
  8
\U+7d99\U+624b
 66
1
 10
0.0
 20
0.0
 30
0.0
 70
1
  0
VERTEX
  5
177
  8
\U+7d99\U+624b
 10
-184.29999999999998
 20
-62.0
 30
0.0
 70
0
  0
VERTEX
  5
178
  8
\U+7d99\U+624b
 10
-134.29999999999998
 20
-62.0
 30
0.0
 70
0
  0
VERTEX
  5
179
  8
\U+7d99\U+624b
 10
-134.29999999999998
 20
-57.0
 30
0.0
 70
0
  0
VERTEX
  5
17A
  8
\U+7d99\U+624b
 10
31.480000000000004
 20
-57.0
 30
0.0
 70
0
  0
VERTEX
  5
17B
  8
\U+7d99\U+624b
 10
31.480000000000004
 20
-62.0
 30
0.0
 70
0
  0
VERTEX
  5
17C
  8
\U+7d99\U+624b
 10
81.48
 20
-62.0
 30
0.0
 70
0
  0
VERTEX
  5
17D
  8
\U+7d99\U+624b
 10
81.48
 20
62.0
 30
0.0
 70
0
  0
VERTEX
  5
17E
  8
\U+7d99\U+624b
 10
31.480000000000004
 20
62.0
 30
0.0
 70
0
  0
VERTEX
  5
17F
  8
\U+7d99\U+624b
 10
31.480000000000004
 20
57.0
 30
0.0
 70
0
  0
VERTEX
  5
180
  8
\U+7d99\U+624b
 10
-134.29999999999998
 20
57.0
 30
0.0
 70
0
  0
VERTEX
  5
181
  8
\U+7d99\U+624b
 10
-134.29999999999998
 20
62.0
 30
0.0
 70
0
  0
VERTEX
  5
182
  8
\U+7d99\U+624b
 10
-184.29999999999998
 20
62.0
 30
0.0
 70
0
  0
SEQEND
  5
176
  8
\U+7d99\U+624b
  0
POLYLINE
  5
183
  8
\U+7d99\U+624b_\U+6955\U+5186\U+5f27
 66
1
 10
0.0
 20
0.0
 30
0.0
 70
0
  0
VERTEX
  5
185
  8
\U+7d99\U+624b_\U+6955\U+5186\U+5f27
 10
-134.29999999999998
 20
-62.0
 30
0.0
 70
0
  0
VERTEX
  5
186
  8
\U+7d99\U+624b_\U+6955\U+5186\U+5f27
 10
-134.29999999999998
 20
62.0
 30
0.0
 70
0
  0
SEQEND
  5
184
  8
\U+7d99\U+624b_\U+6955\U+5186\U+5f27
  0
POLYLINE
  5
187
  8
\U+7d99\U+624b_\U+6955\U+5186\U+5f27
 66
1
 10
0.0
 20
0.0
 30
0.0
 70
0
  0
VERTEX
  5
189
  8
\U+7d99\U+624b_\U+6955\U+5186\U+5f27
 10
31.480000000000004
 20
-62.0
 30
0.0
 70
0
  0
VERTEX
  5
18A
  8
\U+7d99\U+624b_\U+6955\U+5186\U+5f27
 10
31.480000000000004
 20
62.0
 30
0.0
 70
0
  0
SEQEND
  5
188
  8
\U+7d99\U+624b_\U+6955\U+5186\U+5f27
  0
POLYLINE
  5
18B
  8
\U+7d99\U+624b
 66
1
 10
0.0
 20
0.0
 30
0.0
 70
1
  0
VERTEX
  5
18D
  8
\U+7d99\U+624b
 10
23.609399999999994
 20
57.0
 30
0.0
 70
0
  0
VERTEX
  5
18E
  8
\U+7d99\U+624b
 10
-61.51769999999999
 20
142.12709999999998
 30
0.0
 70
0
  0
VERTEX
  5
18F
  8
\U+7d99\U+624b
 10
-57.98219999999999
 20
145.6626
 30
0.0
 70
0
  0
VERTEX
  5
190
  8
\U+7d99\U+624b
 10
-93.33719999999998
 20
181.01759999999996
 30
0.0
 70
0
  0
VERTEX
  5
191
  8
\U+7d99\U+624b
 10
-181.01759999999996
 20
93.33719999999998
 30
0.0
 70
0
  0
VERTEX
  5
192
  8
\U+7d99\U+624b
 10
-145.6626
 20
57.98219999999999
 30
0.0
 70
0
  0
VERTEX
  5
193
  8
\U+7d99\U+624b
 10
-142.12709999999998
 20
61.51769999999999
 30
0.0
 70
0
  0
VERTEX
  5
194
  8
\U+7d99\U+624b
 10
-137.6094
 20
57.0
 30
0.0
 70
0
  0
SEQEND
  5
18C
  8
\U+7d99\U+624b
  0
POLYLINE
  5
195
  8
\U+7d99\U+624b_\U+6955\U+5186\U+5f27
 66
1
 10
0.0
 20
0.0
 30
0.0
 70
0
  0
VERTEX
  5
197
  8
\U+7d99\U+624b_\U+6955\U+5186\U+5f27
 10
-57.98219999999999
 20
145.6626
 30
0.0
 70
0
  0
VERTEX
  5
198
  8
\U+7d99\U+624b_\U+6955\U+5186\U+5f27
 10
-145.6626
 20
57.98219999999999
 30
0.0
 70
0
  0
SEQEND
  5
196
  8
\U+7d99\U+624b_\U+6955\U+5186\U+5f27
  0
ENDBLK
  5
174
  8
0
  0
BLOCK
  5
19C
  8
0
  2
PIPE_13
 70
0
 10
0.0
 20
0.0
 30
0.0
  3
PIPE_13
  1

  0
LINE
  5
19E
  8
\U+5916\U+5f62
 10
-400.0
 20
57.0
 30
0.0
 11
-184.3
 21
57.0
 31
0.0
  0
LINE
  5
19F
  8
\U+5916\U+5f62
 10
-400.0
 20
-57.0
 30
0.0
 11
-184.3
 21
-57.0
 31
0.0
  0
LINE
  5
1A0
  8
\U+4e2d\U+5fc3\U+7dda
 10
-400.0
 20
0.0
 30
0.0
 11
-184.3
 21
0.0
 31
0.0
  0
ENDBLK
  5
19D
  8
0
  0
BLOCK
  5
1A4
  8
0
  2
PIPE_14
 70
0
 10
0.0
 20
0.0
 30
0.0
  3
PIPE_14
  1

  0
LINE
  5
1A6
  8
\U+5916\U+5f62
 10
81.5
 20
57.0
 30
0.0
 11
400.0
 21
57.0
 31
0.0
  0
LINE
  5
1A7
  8
\U+5916\U+5f62
 10
81.5
 20
-57.0
 30
0.0
 11
400.0
 21
-57.0
 31
0.0
  0
LINE
  5
1A8
  8
\U+4e2d\U+5fc3\U+7dda
 10
81.5
 20
0.0
 30
0.0
 11
400.0
 21
0.0
 31
0.0
  0
ENDBLK
  5
1A5
  8
0
  0
BLOCK
  5
1AC
  8
0
  2
PIPE_15
 70
0
 10
0.0
 20
0.0
 30
0.0
  3
PIPE_15
  1

  0
LINE
  5
1AE
  8
\U+5916\U+5f62
 10
-177.48248652763317
 20
96.87231347236677
 30
0.0
 11
-323.14508652763317
 21
242.53491347236678
 31
0.0
  0
LINE
  5
1AF
  8
\U+5916\U+5f62
 10
-96.87231347236677
 20
177.48248652763317
 30
0.0
 11
-242.53491347236678
 21
323.14508652763317
 31
0.0
  0
LINE
  5
1B0
  8
\U+4e2d\U+5fc3\U+7dda
 10
-137.17739999999998
 20
137.17739999999998
 30
0.0
 11
-282.84
 21
282.84
 31
0.0
  0
ENDBLK
  5
1AD
  8
0
  0
BLOCK
  5
1B5
  8
0
  2
DV100x50_DT_vertical
 70
0
 10
0.0
 20
0.0
 30
0.0
  3
DV100x50_DT_vertical
  1

  0
POLYLINE
  5
1B7
  8
\U+7d99\U+624b
 66
1
 10
0.0
 20
0.0
 30
0.0
 70
1
  0
VERTEX
  5
1B9
  8
\U+7d99\U+624b
 10
-86.0
 20
-62.0
 30
0.0
 70
0
  0
VERTEX
  5
1BA
  8
\U+7d99\U+624b
 10
-36.0
 20
-62.0
 30
0.0
 70
0
  0
VERTEX
  5
1BB
  8
\U+7d99\U+624b
 10
-36.0
 20
-57.0
 30
0.0
 70
0
  0
VERTEX
  5
1BC
  8
\U+7d99\U+624b
 10
36.0
 20
-57.0
 30
0.0
 70
0
  0
VERTEX
  5
1BD
  8
\U+7d99\U+624b
 10
36.0
 20
-62.0
 30
0.0
 70
0
  0
VERTEX
  5
1BE
  8
\U+7d99\U+624b
 10
86.0
 20
-62.0
 30
0.0
 70
0
  0
VERTEX
  5
1BF
  8
\U+7d99\U+624b
 10
86.0
 20
62.0
 30
0.0
 70
0
  0
VERTEX
  5
1C0
  8
\U+7d99\U+624b
 10
36.0
 20
62.0
 30
0.0
 70
0
  0
VERTEX
  5
1C1
  8
\U+7d99\U+624b
 10
36.0
 20
57.0
 30
0.0
 70
0
  0
VERTEX
  5
1C2
  8
\U+7d99\U+624b
 10
-36.0
 20
57.0
 30
0.0
 70
0
  0
VERTEX
  5
1C3
  8
\U+7d99\U+624b
 10
-36.0
 20
62.0
 30
0.0
 70
0
  0
VERTEX
  5
1C4
  8
\U+7d99\U+624b
 10
-86.0
 20
62.0
 30
0.0
 70
0
  0
SEQEND
  5
1B8
  8
\U+7d99\U+624b
  0
POLYLINE
  5
1C5
  8
\U+7d99\U+624b_\U+6955\U+5186\U+5f27
 66
1
 10
0.0
 20
0.0
 30
0.0
 70
0
  0
VERTEX
  5
1C7
  8
\U+7d99\U+624b_\U+6955\U+5186\U+5f27
 10
-36.0
 20
-62.0
 30
0.0
 70
0
  0
VERTEX
  5
1C8
  8
\U+7d99\U+624b_\U+6955\U+5186\U+5f27
 10
-36.0
 20
62.0
 30
0.0
 70
0
  0
SEQEND
  5
1C6
  8
\U+7d99\U+624b_\U+6955\U+5186\U+5f27
  0
POLYLINE
  5
1C9
  8
\U+7d99\U+624b_\U+6955\U+5186\U+5f27
 66
1
 10
0.0
 20
0.0
 30
0.0
 70
0
  0
VERTEX
  5
1CB
  8
\U+7d99\U+624b_\U+6955\U+5186\U+5f27
 10
36.0
 20
-62.0
 30
0.0
 70
0
  0
VERTEX
  5
1CC
  8
\U+7d99\U+624b_\U+6955\U+5186\U+5f27
 10
36.0
 20
62.0
 30
0.0
 70
0
  0
SEQEND
  5
1CA
  8
\U+7d99\U+624b_\U+6955\U+5186\U+5f27
  0
CIRCLE
  5
1CD
  8
\U+7d99\U+624b
 10
0.0
 20
0.0
 30
0.0
 40
33.5
  0
POLYLINE
  5
1CE
  8
\U+7d99\U+624b_\U+6955\U+5186\U+5f27
 66
1
 10
0.0
 20
0.0
 30
0.0
 70
0
  0
VERTEX
  5
1D0
  8
\U+7d99\U+624b_\U+6955\U+5186\U+5f27
 10
-30.0
 20
0.0
 30
0.0
 70
0
  0
VERTEX
  5
1D1
  8
\U+7d99\U+624b_\U+6955\U+5186\U+5f27
 10
-28.97777478867205
 20
-7.764571353075622
 30
0.0
 70
0
  0
VERTEX
  5
1D2
  8
\U+7d99\U+624b_\U+6955\U+5186\U+5f27
 10
-25.98076211353316
 20
-14.999999999999998
 30
0.0
 70
0
  0
VERTEX
  5
1D3
  8
\U+7d99\U+624b_\U+6955\U+5186\U+5f27
 10
-21.213203435596427
 20
-21.213203435596423
 30
0.0
 70
0
  0
VERTEX
  5
1D4
  8
\U+7d99\U+624b_\U+6955\U+5186\U+5f27
 10
-15.000000000000004
 20
-25.980762113533157
 30
0.0
 70
0
  0
VERTEX
  5
1D5
  8
\U+7d99\U+624b_\U+6955\U+5186\U+5f27
 10
-7.764571353075622
 20
-28.97777478867205
 30
0.0
 70
0
  0
VERTEX
  5
1D6
  8
\U+7d99\U+624b_\U+6955\U+5186\U+5f27
 10
-1.83697019872103e-15
 20
-30.0
 30
0.0
 70
0
  0
VERTEX
  5
1D7
  8
\U+7d99\U+624b_\U+6955\U+5186\U+5f27
 10
7.764571353075619
 20
-28.97777478867205
 30
0.0
 70
0
  0
VERTEX
  5
1D8
  8
\U+7d99\U+624b_\U+6955\U+5186\U+5f27
 10
14.999999999999993
 20
-25.98076211353316
 30
0.0
 70
0
  0
VERTEX
  5
1D9
  8
\U+7d99\U+624b_\U+6955\U+5186\U+5f27
 10
21.213203435596423
 20
-21.213203435596427
 30
0.0
 70
0
  0
VERTEX
  5
1DA
  8
\U+7d99\U+624b_\U+6955\U+5186\U+5f27
 10
25.98076211353316
 20
-14.999999999999998
 30
0.0
 70
0
  0
VERTEX
  5
1DB
  8
\U+7d99\U+624b_\U+6955\U+5186\U+5f27
 10
28.977774788672047
 20
-7.76457135307563
 30
0.0
 70
0
  0
VERTEX
  5
1DC
  8
\U+7d99\U+624b_\U+6955\U+5186\U+5f27
 10
30.0
 20
-3.67394039744206e-15
 30
0.0
 70
0
  0
SEQEND
  5
1CF
  8
\U+7d99\U+624b_\U+6955\U+5186\U+5f27
  0
ENDBLK
  5
1B6
  8
0
  0
BLOCK
  5
1E0
  8
0
  2
PIPE_16
 70
0
 10
0.0
 20
0.0
 30
0.0
  3
PIPE_16
  1

  0
LINE
  5
1E2
  8
\U+5916\U+5f62
 10
-400.0
 20
57.0
 30
0.0
 11
-86.0
 21
57.0
 31
0.0
  0
LINE
  5
1E3
  8
\U+5916\U+5f62
 10
-400.0
 20
-57.0
 30
0.0
 11
-86.0
 21
-57.0
 31
0.0
  0
LINE
  5
1E4
  8
\U+4e2d\U+5fc3\U+7dda
 10
-400.0
 20
0.0
 30
0.0
 11
-86.0
 21
0.0
 31
0.0
  0
ENDBLK
  5
1E1
  8
0
  0
BLOCK
  5
1E8
  8
0
  2
PIPE_17
 70
0
 10
0.0
 20
0.0
 30
0.0
  3
PIPE_17
  1

  0
LINE
  5
1EA
  8
\U+5916\U+5f62
 10
86.0
 20
57.0
 30
0.0
 11
400.0
 21
57.0
 31
0.0
  0
LINE
  5
1EB
  8
\U+5916\U+5f62
 10
86.0
 20
-57.0
 30
0.0
 11
400.0
 21
-57.0
 31
0.0
  0
LINE
  5
1EC
  8
\U+4e2d\U+5fc3\U+7dda
 10
86.0
 20
0.0
 30
0.0
 11
400.0
 21
0.0
 31
0.0
  0
ENDBLK
  5
1E9
  8
0
  0
BLOCK
  5
1F0
  8
0
  2
DV50_DL_riser
 70
0
 10
0.0
 20
0.0
 30
0.0
  3
DV50_DL_riser
  1

  0
POLYLINE
  5
1F2
  8
\U+7d99\U+624b
 66
1
 10
0.0
 20
0.0
 30
0.0
 70
1
  0
VERTEX
  5
1F4
  8
\U+7d99\U+624b
 10
-33.5
 20
33.0
 30
0.0
 70
0
  0
VERTEX
  5
1F5
  8
\U+7d99\U+624b
 10
-33.5
 20
58.0
 30
0.0
 70
0
  0
VERTEX
  5
1F6
  8
\U+7d99\U+624b
 10
33.5
 20
58.0
 30
0.0
 70
0
  0
VERTEX
  5
1F7
  8
\U+7d99\U+624b
 10
33.5
 20
33.0
 30
0.0
 70
0
  0
SEQEND
  5
1F3
  8
\U+7d99\U+624b
  0
POLYLINE
  5
1F8
  8
\U+7d99\U+624b_\U+6955\U+5186\U+5f27
 66
1
 10
0.0
 20
0.0
 30
0.0
 70
0
  0
VERTEX
  5
1FA
  8
\U+7d99\U+624b_\U+6955\U+5186\U+5f27
 10
-33.5
 20
33.0
 30
0.0
 70
0
  0
VERTEX
  5
1FB
  8
\U+7d99\U+624b_\U+6955\U+5186\U+5f27
 10
33.5
 20
33.0
 30
0.0
 70
0
  0
SEQEND
  5
1F9
  8
\U+7d99\U+624b_\U+6955\U+5186\U+5f27
  0
ENDBLK
  5
1F1
  8
0
  0
BLOCK
  5
1FF
  8
0
  2
PIPE_18
 70
0
 10
0.0
 20
0.0
 30
0.0
  3
PIPE_18
  1

  0
LINE
  5
201
  8
\U+5916\U+5f62
 10
-30.0
 20
58.0
 30
0.0
 11
-30.0
 21
300.0
 31
0.0
  0
LINE
  5
202
  8
\U+5916\U+5f62
 10
30.0
 20
58.0
 30
0.0
 11
30.0
 21
300.0
 31
0.0
  0
LINE
  5
203
  8
\U+4e2d\U+5fc3\U+7dda
 10
0.0
 20
58.0
 30
0.0
 11
0.0
 21
300.0
 31
0.0
  0
ENDBLK
  5
200
  8
0
  0
BLOCK
  5
208
  8
0
  2
DV100_DL_riser_up
 70
0
 10
0.0
 20
0.0
 30
0.0
  3
DV100_DL_riser_up
  1

  0
POLYLINE
  5
20A
  8
\U+7d99\U+624b
 66
1
 10
0.0
 20
0.0
 30
0.0
 70
1
  0
VERTEX
  5
20C
  8
\U+7d99\U+624b
 10
-62.0
 20
-62.0
 30
0.0
 70
0
  0
VERTEX
  5
20D
  8
\U+7d99\U+624b
 10
-112.0
 20
-62.0
 30
0.0
 70
0
  0
VERTEX
  5
20E
  8
\U+7d99\U+624b
 10
-112.0
 20
62.0
 30
0.0
 70
0
  0
VERTEX
  5
20F
  8
\U+7d99\U+624b
 10
-62.0
 20
62.0
 30
0.0
 70
0
  0
SEQEND
  5
20B
  8
\U+7d99\U+624b
  0
POLYLINE
  5
210
  8
\U+7d99\U+624b_\U+6955\U+5186\U+5f27
 66
1
 10
0.0
 20
0.0
 30
0.0
 70
0
  0
VERTEX
  5
212
  8
\U+7d99\U+624b_\U+6955\U+5186\U+5f27
 10
-62.0
 20
-62.0
 30
0.0
 70
0
  0
VERTEX
  5
213
  8
\U+7d99\U+624b_\U+6955\U+5186\U+5f27
 10
-62.0
 20
62.0
 30
0.0
 70
0
  0
SEQEND
  5
211
  8
\U+7d99\U+624b_\U+6955\U+5186\U+5f27
  0
CIRCLE
  5
214
  8
\U+7d99\U+624b
 10
0.0
 20
0.0
 30
0.0
 40
62.0
  0
CIRCLE
  5
215
  8
\U+7d99\U+624b
 10
0.0
 20
0.0
 30
0.0
 40
57.0
  0
ENDBLK
  5
209
  8
0
  0
BLOCK
  5
219
  8
0
  2
PIPE_19
 70
0
 10
0.0
 20
0.0
 30
0.0
  3
PIPE_19
  1

  0
LINE
  5
21B
  8
\U+5916\U+5f62
 10
-400.0
 20
57.0
 30
0.0
 11
-112.0
 21
57.0
 31
0.0
  0
LINE
  5
21C
  8
\U+5916\U+5f62
 10
-400.0
 20
-57.0
 30
0.0
 11
-112.0
 21
-57.0
 31
0.0
  0
LINE
  5
21D
  8
\U+4e2d\U+5fc3\U+7dda
 10
-400.0
 20
0.0
 30
0.0
 11
-112.0
 21
0.0
 31
0.0
  0
ENDBLK
  5
21A
  8
0
  0
BLOCK
  5
222
  8
0
  2
DV100_DL_riser_down
 70
0
 10
0.0
 20
0.0
 30
0.0
  3
DV100_DL_riser_down
  1

  0
POLYLINE
  5
224
  8
\U+7d99\U+624b
 66
1
 10
0.0
 20
0.0
 30
0.0
 70
1
  0
VERTEX
  5
226
  8
\U+7d99\U+624b
 10
-62.0
 20
-62.0
 30
0.0
 70
0
  0
VERTEX
  5
227
  8
\U+7d99\U+624b
 10
-112.0
 20
-62.0
 30
0.0
 70
0
  0
VERTEX
  5
228
  8
\U+7d99\U+624b
 10
-112.0
 20
62.0
 30
0.0
 70
0
  0
VERTEX
  5
229
  8
\U+7d99\U+624b
 10
-62.0
 20
62.0
 30
0.0
 70
0
  0
SEQEND
  5
225
  8
\U+7d99\U+624b
  0
POLYLINE
  5
22A
  8
\U+7d99\U+624b_\U+6955\U+5186\U+5f27
 66
1
 10
0.0
 20
0.0
 30
0.0
 70
0
  0
VERTEX
  5
22C
  8
\U+7d99\U+624b_\U+6955\U+5186\U+5f27
 10
-62.0
 20
-62.0
 30
0.0
 70
0
  0
VERTEX
  5
22D
  8
\U+7d99\U+624b_\U+6955\U+5186\U+5f27
 10
-62.0
 20
62.0
 30
0.0
 70
0
  0
SEQEND
  5
22B
  8
\U+7d99\U+624b_\U+6955\U+5186\U+5f27
  0
ARC
  5
22E
  8
\U+7d99\U+624b
 10
0.0
 20
0.0
 30
0.0
 40
62.0
 50
246.8319452642344
 51
113.1680547357656
  0
ARC
  5
22F
  8
\U+7d99\U+624b
 10
0.0
 20
0.0
 30
0.0
 40
57.0
 50
270.0
 51
90.0
  0
ENDBLK
  5
223
  8
0
  0
BLOCK
  5
233
  8
0
  2
PIPE_20
 70
0
 10
0.0
 20
0.0
 30
0.0
  3
PIPE_20
  1

  0
LINE
  5
235
  8
\U+5916\U+5f62
 10
-400.0
 20
57.0
 30
0.0
 11
-112.0
 21
57.0
 31
0.0
  0
LINE
  5
236
  8
\U+5916\U+5f62
 10
-400.0
 20
-57.0
 30
0.0
 11
-112.0
 21
-57.0
 31
0.0
  0
LINE
  5
237
  8
\U+4e2d\U+5fc3\U+7dda
 10
-400.0
 20
0.0
 30
0.0
 11
-112.0
 21
0.0
 31
0.0
  0
ENDBLK
  5
234
  8
0
  0
BLOCK
  5
23C
  8
0
  2
DV100_45L_drop_A
 70
0
 10
0.0
 20
0.0
 30
0.0
  3
DV100_45L_drop_A
  1

  0
POLYLINE
  5
23E
  8
\U+7d99\U+624b
 66
1
 10
0.0
 20
0.0
 30
0.0
 70
1
  0
VERTEX
  5
240
  8
\U+7d99\U+624b
 10
-30.0
 20
-62.0
 30
0.0
 70
0
  0
VERTEX
  5
241
  8
\U+7d99\U+624b
 10
-80.0
 20
-62.0
 30
0.0
 70
0
  0
VERTEX
  5
242
  8
\U+7d99\U+624b
 10
-80.0
 20
62.0
 30
0.0
 70
0
  0
VERTEX
  5
243
  8
\U+7d99\U+624b
 10
-30.0
 20
62.0
 30
0.0
 70
0
  0
SEQEND
  5
23F
  8
\U+7d99\U+624b
  0
POLYLINE
  5
244
  8
\U+7d99\U+624b_\U+6955\U+5186\U+5f27
 66
1
 10
0.0
 20
0.0
 30
0.0
 70
0
  0
VERTEX
  5
246
  8
\U+7d99\U+624b_\U+6955\U+5186\U+5f27
 10
-30.0
 20
-62.0
 30
0.0
 70
0
  0
VERTEX
  5
247
  8
\U+7d99\U+624b_\U+6955\U+5186\U+5f27
 10
-30.0
 20
62.0
 30
0.0
 70
0
  0
SEQEND
  5
245
  8
\U+7d99\U+624b_\U+6955\U+5186\U+5f27
  0
POLYLINE
  5
248
  8
\U+7d99\U+624b_\U+6955\U+5186\U+5f27
 66
1
 10
0.0
 20
0.0
 30
0.0
 70
0
  0
VERTEX
  5
24A
  8
\U+7d99\U+624b_\U+6955\U+5186\U+5f27
 10
21.2132034
 20
62.0
 30
0.0
 70
0
  0
VERTEX
  5
24B
  8
\U+7d99\U+624b_\U+6955\U+5186\U+5f27
 10
56.568542400000005
 20
62.0
 30
0.0
 70
0
  0
SEQEND
  5
249
  8
\U+7d99\U+624b_\U+6955\U+5186\U+5f27
  0
POLYLINE
  5
24C
  8
\U+7d99\U+624b_\U+6955\U+5186\U+5f27
 66
1
 10
0.0
 20
0.0
 30
0.0
 70
0
  0
VERTEX
  5
24E
  8
\U+7d99\U+624b_\U+6955\U+5186\U+5f27
 10
21.2132034
 20
-62.0
 30
0.0
 70
0
  0
VERTEX
  5
24F
  8
\U+7d99\U+624b_\U+6955\U+5186\U+5f27
 10
56.568542400000005
 20
-62.0
 30
0.0
 70
0
  0
SEQEND
  5
24D
  8
\U+7d99\U+624b_\U+6955\U+5186\U+5f27
  0
POLYLINE
  5
250
  8
\U+7d99\U+624b_\U+6955\U+5186\U+5f27
 66
1
 10
0.0
 20
0.0
 30
0.0
 70
0
  0
VERTEX
  5
252
  8
\U+7d99\U+624b_\U+6955\U+5186\U+5f27
 10
56.568542400000005
 20
62.0
 30
0.0
 70
0
  0
VERTEX
  5
253
  8
\U+7d99\U+624b_\U+6955\U+5186\U+5f27
 10
65.12142314341924
 20
60.80868738500028
 30
0.0
 70
0
  0
VERTEX
  5
254
  8
\U+7d99\U+624b_\U+6955\U+5186\U+5f27
 10
73.34562147637965
 20
57.28053101569978
 30
0.0
 70
0
  0
VERTEX
  5
255
  8
\U+7d99\U+624b_\U+6955\U+5186\U+5f27
 10
80.92508606912912
 20
51.551115962757805
 30
0.0
 70
0
  0
VERTEX
  5
256
  8
\U+7d99\U+624b_\U+6955\U+5186\U+5f27
 10
87.56854234798102
 20
43.84062043356595
 30
0.0
 70
0
  0
VERTEX
  5
257
  8
\U+7d99\U+624b_\U+6955\U+5186\U+5f27
 10
93.02068601383228
 20
34.445354447215344
 30
0.0
 70
0
  0
VERTEX
  5
258
  8
\U+7d99\U+624b_\U+6955\U+5186\U+5f27
 10
97.0719942432016
 20
23.72637280663557
 30
0.0
 70
0
  0
VERTEX
  5
259
  8
\U+7d99\U+624b_\U+6955\U+5186\U+5f27
 10
99.56677753283418
 20
12.095599964999957
 30
0.0
 70
0
  0
VERTEX
  5
25A
  8
\U+7d99\U+624b_\U+6955\U+5186\U+5f27
 10
100.40916276000002
 20
3.796405077356795e-15
 30
0.0
 70
0
  0
VERTEX
  5
25B
  8
\U+7d99\U+624b_\U+6955\U+5186\U+5f27
 10
99.56677753283418
 20
-12.095599964999948
 30
0.0
 70
0
  0
VERTEX
  5
25C
  8
\U+7d99\U+624b_\U+6955\U+5186\U+5f27
 10
97.0719942432016
 20
-23.726372806635563
 30
0.0
 70
0
  0
VERTEX
  5
25D
  8
\U+7d99\U+624b_\U+6955\U+5186\U+5f27
 10
93.02068601383229
 20
-34.44535444721532
 30
0.0
 70
0
  0
VERTEX
  5
25E
  8
\U+7d99\U+624b_\U+6955\U+5186\U+5f27
 10
87.56854234798104
 20
-43.840620433565945
 30
0.0
 70
0
  0
VERTEX
  5
25F
  8
\U+7d99\U+624b_\U+6955\U+5186\U+5f27
 10
80.92508606912912
 20
-51.55111596275781
 30
0.0
 70
0
  0
VERTEX
  5
260
  8
\U+7d99\U+624b_\U+6955\U+5186\U+5f27
 10
73.34562147637965
 20
-57.28053101569978
 30
0.0
 70
0
  0
VERTEX
  5
261
  8
\U+7d99\U+624b_\U+6955\U+5186\U+5f27
 10
65.12142314341925
 20
-60.80868738500028
 30
0.0
 70
0
  0
VERTEX
  5
262
  8
\U+7d99\U+624b_\U+6955\U+5186\U+5f27
 10
56.56854240000001
 20
-62.0
 30
0.0
 70
0
  0
SEQEND
  5
251
  8
\U+7d99\U+624b_\U+6955\U+5186\U+5f27
  0
POLYLINE
  5
263
  8
\U+7d99\U+624b_\U+6955\U+5186\U+5f27
 66
1
 10
0.0
 20
0.0
 30
0.0
 70
0
  0
VERTEX
  5
265
  8
\U+7d99\U+624b_\U+6955\U+5186\U+5f27
 10
21.2132034
 20
57.0
 30
0.0
 70
0
  0
VERTEX
  5
266
  8
\U+7d99\U+624b_\U+6955\U+5186\U+5f27
 10
29.07633569636929
 20
55.904760982984136
 30
0.0
 70
0
  0
VERTEX
  5
267
  8
\U+7d99\U+624b_\U+6955\U+5186\U+5f27
 10
36.63729222828451
 20
52.66113335314334
 30
0.0
 70
0
  0
VERTEX
  5
268
  8
\U+7d99\U+624b_\U+6955\U+5186\U+5f27
 10
43.605509676457416
 20
47.39376790124508
 30
0.0
 70
0
  0
VERTEX
  5
269
  8
\U+7d99\U+624b_\U+6955\U+5186\U+5f27
 10
49.7132033521761
 20
40.305086527633215
 30
0.0
 70
0
  0
VERTEX
  5
26A
  8
\U+7d99\U+624b_\U+6955\U+5186\U+5f27
 10
54.72565801271678
 20
31.66750328211733
 30
0.0
 70
0
  0
VERTEX
  5
26B
  8
\U+7d99\U+624b_\U+6955\U+5186\U+5f27
 10
58.4502478364918
 20
21.81295564481012
 30
0.0
 70
0
  0
VERTEX
  5
26C
  8
\U+7d99\U+624b_\U+6955\U+5186\U+5f27
 10
60.743838925347546
 20
11.120148354919316
 30
0.0
 70
0
  0
VERTEX
  5
26D
  8
\U+7d99\U+624b_\U+6955\U+5186\U+5f27
 10
61.51828986000001
 20
3.4902433775699565e-15
 30
0.0
 70
0
  0
VERTEX
  5
26E
  8
\U+7d99\U+624b_\U+6955\U+5186\U+5f27
 10
60.743838925347546
 20
-11.120148354919307
 30
0.0
 70
0
  0
VERTEX
  5
26F
  8
\U+7d99\U+624b_\U+6955\U+5186\U+5f27
 10
58.4502478364918
 20
-21.812955644810113
 30
0.0
 70
0
  0
VERTEX
  5
270
  8
\U+7d99\U+624b_\U+6955\U+5186\U+5f27
 10
54.72565801271678
 20
-31.667503282117313
 30
0.0
 70
0
  0
VERTEX
  5
271
  8
\U+7d99\U+624b_\U+6955\U+5186\U+5f27
 10
49.71320335217611
 20
-40.30508652763321
 30
0.0
 70
0
  0
VERTEX
  5
272
  8
\U+7d99\U+624b_\U+6955\U+5186\U+5f27
 10
43.605509676457416
 20
-47.393767901245084
 30
0.0
 70
0
  0
VERTEX
  5
273
  8
\U+7d99\U+624b_\U+6955\U+5186\U+5f27
 10
36.637292228284515
 20
-52.66113335314334
 30
0.0
 70
0
  0
VERTEX
  5
274
  8
\U+7d99\U+624b_\U+6955\U+5186\U+5f27
 10
29.076335696369306
 20
-55.904760982984136
 30
0.0
 70
0
  0
VERTEX
  5
275
  8
\U+7d99\U+624b_\U+6955\U+5186\U+5f27
 10
21.213203400000005
 20
-57.0
 30
0.0
 70
0
  0
SEQEND
  5
264
  8
\U+7d99\U+624b_\U+6955\U+5186\U+5f27
  0
POLYLINE
  5
276
  8
\U+7d99\U+624b_\U+6955\U+5186\U+5f27
 66
1
 10
0.0
 20
0.0
 30
0.0
 70
0
  0
VERTEX
  5
278
  8
\U+7d99\U+624b_\U+6955\U+5186\U+5f27
 10
3.9650151182826576
 20
57.0
 30
0.0
 70
0
  0
VERTEX
  5
279
  8
\U+7d99\U+624b_\U+6955\U+5186\U+5f27
 10
10.802283702998258
 20
60.22645184134338
 30
0.0
 70
0
  0
VERTEX
  5
27A
  8
\U+7d99\U+624b_\U+6955\U+5186\U+5f27
 10
17.9209679925209
 20
61.824933254882936
 30
0.0
 70
0
  0
VERTEX
  5
27B
  8
\U+7d99\U+624b_\U+6955\U+5186\U+5f27
 10
25.128644107410636
 20
61.75223597595962
 30
0.0
 70
0
  0
VERTEX
  5
27C
  8
\U+7d99\U+624b_\U+6955\U+5186\U+5f27
 10
32.230482646142384
 20
60.01032507169346
 30
0.0
 70
0
  0
VERTEX
  5
27D
  8
\U+7d99\U+624b_\U+6955\U+5186\U+5f27
 10
39.03451508374725
 20
56.64628582360632
 30
0.0
 70
0
  0
VERTEX
  5
27E
  8
\U+7d99\U+624b_\U+6955\U+5186\U+5f27
 10
45.3568228386123
 20
51.75105097381434
 30
0.0
 70
0
  0
VERTEX
  5
27F
  8
\U+7d99\U+624b_\U+6955\U+5186\U+5f27
 10
51.026508742703996
 20
45.45694273836984
 30
0.0
 70
0
  0
VERTEX
  5
280
  8
\U+7d99\U+624b_\U+6955\U+5186\U+5f27
 10
55.89031653229435
 20
37.93409602914998
 30
0.0
 70
0
  0
VERTEX
  5
281
  8
\U+7d99\U+624b_\U+6955\U+5186\U+5f27
 10
59.81677349056393
 20
29.385859567540063
 30
0.0
 70
0
  0
VERTEX
  5
282
  8
\U+7d99\U+624b_\U+6955\U+5186\U+5f27
 10
62.6997442630518
 20
20.043299201583658
 30
0.0
 70
0
  0
VERTEX
  5
283
  8
\U+7d99\U+624b_\U+6955\U+5186\U+5f27
 10
64.46129978340356
 20
10.158952006448626
 30
0.0
 70
0
  0
VERTEX
  5
284
  8
\U+7d99\U+624b_\U+6955\U+5186\U+5f27
 10
65.05382376
 20
1.7563170582708737e-14
 30
0.0
 70
0
  0
VERTEX
  5
285
  8
\U+7d99\U+624b_\U+6955\U+5186\U+5f27
 10
64.46129978340356
 20
-10.158952006448578
 30
0.0
 70
0
  0
VERTEX
  5
286
  8
\U+7d99\U+624b_\U+6955\U+5186\U+5f27
 10
62.69974426305181
 20
-20.043299201583622
 30
0.0
 70
0
  0
VERTEX
  5
287
  8
\U+7d99\U+624b_\U+6955\U+5186\U+5f27
 10
59.81677349056396
 20
-29.38585956754001
 30
0.0
 70
0
  0
VERTEX
  5
288
  8
\U+7d99\U+624b_\U+6955\U+5186\U+5f27
 10
55.890316532294364
 20
-37.93409602914995
 30
0.0
 70
0
  0
VERTEX
  5
289
  8
\U+7d99\U+624b_\U+6955\U+5186\U+5f27
 10
51.026508742704
 20
-45.45694273836983
 30
0.0
 70
0
  0
VERTEX
  5
28A
  8
\U+7d99\U+624b_\U+6955\U+5186\U+5f27
 10
45.35682283861233
 20
-51.75105097381431
 30
0.0
 70
0
  0
VERTEX
  5
28B
  8
\U+7d99\U+624b_\U+6955\U+5186\U+5f27
 10
39.034515083747266
 20
-56.64628582360631
 30
0.0
 70
0
  0
VERTEX
  5
28C
  8
\U+7d99\U+624b_\U+6955\U+5186\U+5f27
 10
32.230482646142384
 20
-60.01032507169346
 30
0.0
 70
0
  0
VERTEX
  5
28D
  8
\U+7d99\U+624b_\U+6955\U+5186\U+5f27
 10
25.12864410741066
 20
-61.75223597595962
 30
0.0
 70
0
  0
VERTEX
  5
28E
  8
\U+7d99\U+624b_\U+6955\U+5186\U+5f27
 10
17.920967992520946
 20
-61.82493325488294
 30
0.0
 70
0
  0
VERTEX
  5
28F
  8
\U+7d99\U+624b_\U+6955\U+5186\U+5f27
 10
10.802283702998288
 20
-60.22645184134339
 30
0.0
 70
0
  0
VERTEX
  5
290
  8
\U+7d99\U+624b_\U+6955\U+5186\U+5f27
 10
3.965015118282672
 20
-57.00000000000001
 30
0.0
 70
0
  0
SEQEND
  5
277
  8
\U+7d99\U+624b_\U+6955\U+5186\U+5f27
  0
ENDBLK
  5
23D
  8
0
  0
BLOCK
  5
294
  8
0
  2
PIPE_21
 70
0
 10
0.0
 20
0.0
 30
0.0
  3
PIPE_21
  1

  0
LINE
  5
296
  8
\U+5916\U+5f62
 10
-400.0
 20
57.0
 30
0.0
 11
-80.0
 21
57.0
 31
0.0
  0
LINE
  5
297
  8
\U+5916\U+5f62
 10
-400.0
 20
-57.0
 30
0.0
 11
-80.0
 21
-57.0
 31
0.0
  0
LINE
  5
298
  8
\U+4e2d\U+5fc3\U+7dda
 10
-400.0
 20
0.0
 30
0.0
 11
-80.0
 21
0.0
 31
0.0
  0
ENDBLK
  5
295
  8
0
  0
BLOCK
  5
29C
  8
0
  2
PIPE_22
 70
0
 10
0.0
 20
0.0
 30
0.0
  3
PIPE_22
  1

  0
LINE
  5
29E
  8
\U+5916\U+5f62
 10
56.568542400000005
 20
57.0
 30
0.0
 11
243.4314576
 21
57.0
 31
0.0
  0
LINE
  5
29F
  8
\U+5916\U+5f62
 10
56.568542400000005
 20
-57.0
 30
0.0
 11
243.4314576
 21
-57.0
 31
0.0
  0
LINE
  5
2A0
  8
\U+4e2d\U+5fc3\U+7dda
 10
56.568542400000005
 20
0.0
 30
0.0
 11
243.4314576
 21
0.0
 31
0.0
  0
ENDBLK
  5
29D
  8
0
  0
BLOCK
  5
2A4
  8
0
  2
DV100_45L_drop_B
 70
0
 10
0.0
 20
0.0
 30
0.0
  3
DV100_45L_drop_B
  1

  0
POLYLINE
  5
2A6
  8
\U+7d99\U+624b
 66
1
 10
0.0
 20
0.0
 30
0.0
 70
1
  0
VERTEX
  5
2A8
  8
\U+7d99\U+624b
 10
330.0
 20
62.0
 30
0.0
 70
0
  0
VERTEX
  5
2A9
  8
\U+7d99\U+624b
 10
380.0
 20
62.0
 30
0.0
 70
0
  0
VERTEX
  5
2AA
  8
\U+7d99\U+624b
 10
380.0
 20
-62.0
 30
0.0
 70
0
  0
VERTEX
  5
2AB
  8
\U+7d99\U+624b
 10
330.0
 20
-62.0
 30
0.0
 70
0
  0
SEQEND
  5
2A7
  8
\U+7d99\U+624b
  0
POLYLINE
  5
2AC
  8
\U+7d99\U+624b_\U+6955\U+5186\U+5f27
 66
1
 10
0.0
 20
0.0
 30
0.0
 70
0
  0
VERTEX
  5
2AE
  8
\U+7d99\U+624b_\U+6955\U+5186\U+5f27
 10
330.0
 20
62.0
 30
0.0
 70
0
  0
VERTEX
  5
2AF
  8
\U+7d99\U+624b_\U+6955\U+5186\U+5f27
 10
330.0
 20
-62.0
 30
0.0
 70
0
  0
SEQEND
  5
2AD
  8
\U+7d99\U+624b_\U+6955\U+5186\U+5f27
  0
POLYLINE
  5
2B0
  8
\U+7d99\U+624b_\U+6955\U+5186\U+5f27
 66
1
 10
0.0
 20
0.0
 30
0.0
 70
0
  0
VERTEX
  5
2B2
  8
\U+7d99\U+624b_\U+6955\U+5186\U+5f27
 10
278.7867966
 20
-62.0
 30
0.0
 70
0
  0
VERTEX
  5
2B3
  8
\U+7d99\U+624b_\U+6955\U+5186\U+5f27
 10
243.4314576
 20
-62.0
 30
0.0
 70
0
  0
SEQEND
  5
2B1
  8
\U+7d99\U+624b_\U+6955\U+5186\U+5f27
  0
POLYLINE
  5
2B4
  8
\U+7d99\U+624b_\U+6955\U+5186\U+5f27
 66
1
 10
0.0
 20
0.0
 30
0.0
 70
0
  0
VERTEX
  5
2B6
  8
\U+7d99\U+624b_\U+6955\U+5186\U+5f27
 10
278.7867966
 20
62.0
 30
0.0
 70
0
  0
VERTEX
  5
2B7
  8
\U+7d99\U+624b_\U+6955\U+5186\U+5f27
 10
243.4314576
 20
62.0
 30
0.0
 70
0
  0
SEQEND
  5
2B5
  8
\U+7d99\U+624b_\U+6955\U+5186\U+5f27
  0
POLYLINE
  5
2B8
  8
\U+7d99\U+624b_\U+6955\U+5186\U+5f27
 66
1
 10
0.0
 20
0.0
 30
0.0
 70
0
  0
VERTEX
  5
2BA
  8
\U+7d99\U+624b_\U+6955\U+5186\U+5f27
 10
278.7867966
 20
-62.0
 30
0.0
 70
0
  0
VERTEX
  5
2BB
  8
\U+7d99\U+624b_\U+6955\U+5186\U+5f27
 10
287.3396773434192
 20
-60.80868738500028
 30
0.0
 70
0
  0
VERTEX
  5
2BC
  8
\U+7d99\U+624b_\U+6955\U+5186\U+5f27
 10
295.56387567637967
 20
-57.28053101569978
 30
0.0
 70
0
  0
VERTEX
  5
2BD
  8
\U+7d99\U+624b_\U+6955\U+5186\U+5f27
 10
303.1433402691291
 20
-51.551115962757805
 30
0.0
 70
0
  0
VERTEX
  5
2BE
  8
\U+7d99\U+624b_\U+6955\U+5186\U+5f27
 10
309.786796547981
 20
-43.84062043356595
 30
0.0
 70
0
  0
VERTEX
  5
2BF
  8
\U+7d99\U+624b_\U+6955\U+5186\U+5f27
 10
315.2389402138323
 20
-34.445354447215344
 30
0.0
 70
0
  0
VERTEX
  5
2C0
  8
\U+7d99\U+624b_\U+6955\U+5186\U+5f27
 10
319.2902484432016
 20
-23.72637280663557
 30
0.0
 70
0
  0
VERTEX
  5
2C1
  8
\U+7d99\U+624b_\U+6955\U+5186\U+5f27
 10
321.78503173283417
 20
-12.095599964999957
 30
0.0
 70
0
  0
VERTEX
  5
2C2
  8
\U+7d99\U+624b_\U+6955\U+5186\U+5f27
 10
322.62741696
 20
-3.796405077356795e-15
 30
0.0
 70
0
  0
VERTEX
  5
2C3
  8
\U+7d99\U+624b_\U+6955\U+5186\U+5f27
 10
321.78503173283417
 20
12.095599964999948
 30
0.0
 70
0
  0
VERTEX
  5
2C4
  8
\U+7d99\U+624b_\U+6955\U+5186\U+5f27
 10
319.2902484432016
 20
23.726372806635563
 30
0.0
 70
0
  0
VERTEX
  5
2C5
  8
\U+7d99\U+624b_\U+6955\U+5186\U+5f27
 10
315.2389402138323
 20
34.44535444721532
 30
0.0
 70
0
  0
VERTEX
  5
2C6
  8
\U+7d99\U+624b_\U+6955\U+5186\U+5f27
 10
309.786796547981
 20
43.840620433565945
 30
0.0
 70
0
  0
VERTEX
  5
2C7
  8
\U+7d99\U+624b_\U+6955\U+5186\U+5f27
 10
303.1433402691291
 20
51.55111596275781
 30
0.0
 70
0
  0
VERTEX
  5
2C8
  8
\U+7d99\U+624b_\U+6955\U+5186\U+5f27
 10
295.56387567637967
 20
57.28053101569978
 30
0.0
 70
0
  0
VERTEX
  5
2C9
  8
\U+7d99\U+624b_\U+6955\U+5186\U+5f27
 10
287.3396773434192
 20
60.80868738500028
 30
0.0
 70
0
  0
VERTEX
  5
2CA
  8
\U+7d99\U+624b_\U+6955\U+5186\U+5f27
 10
278.7867966
 20
62.0
 30
0.0
 70
0
  0
SEQEND
  5
2B9
  8
\U+7d99\U+624b_\U+6955\U+5186\U+5f27
  0
POLYLINE
  5
2CB
  8
\U+7d99\U+624b_\U+6955\U+5186\U+5f27
 66
1
 10
0.0
 20
0.0
 30
0.0
 70
0
  0
VERTEX
  5
2CD
  8
\U+7d99\U+624b_\U+6955\U+5186\U+5f27
 10
243.4314576
 20
-57.0
 30
0.0
 70
0
  0
VERTEX
  5
2CE
  8
\U+7d99\U+624b_\U+6955\U+5186\U+5f27
 10
251.29458989636927
 20
-55.904760982984136
 30
0.0
 70
0
  0
VERTEX
  5
2CF
  8
\U+7d99\U+624b_\U+6955\U+5186\U+5f27
 10
258.85554642828447
 20
-52.66113335314334
 30
0.0
 70
0
  0
VERTEX
  5
2D0
  8
\U+7d99\U+624b_\U+6955\U+5186\U+5f27
 10
265.8237638764574
 20
-47.39376790124508
 30
0.0
 70
0
  0
VERTEX
  5
2D1
  8
\U+7d99\U+624b_\U+6955\U+5186\U+5f27
 10
271.9314575521761
 20
-40.305086527633215
 30
0.0
 70
0
  0
VERTEX
  5
2D2
  8
\U+7d99\U+624b_\U+6955\U+5186\U+5f27
 10
276.9439122127168
 20
-31.66750328211733
 30
0.0
 70
0
  0
VERTEX
  5
2D3
  8
\U+7d99\U+624b_\U+6955\U+5186\U+5f27
 10
280.66850203649176
 20
-21.81295564481012
 30
0.0
 70
0
  0
VERTEX
  5
2D4
  8
\U+7d99\U+624b_\U+6955\U+5186\U+5f27
 10
282.96209312534756
 20
-11.120148354919316
 30
0.0
 70
0
  0
VERTEX
  5
2D5
  8
\U+7d99\U+624b_\U+6955\U+5186\U+5f27
 10
283.73654405999997
 20
-3.4902433775699565e-15
 30
0.0
 70
0
  0
VERTEX
  5
2D6
  8
\U+7d99\U+624b_\U+6955\U+5186\U+5f27
 10
282.96209312534756
 20
11.120148354919307
 30
0.0
 70
0
  0
VERTEX
  5
2D7
  8
\U+7d99\U+624b_\U+6955\U+5186\U+5f27
 10
280.66850203649176
 20
21.812955644810113
 30
0.0
 70
0
  0
VERTEX
  5
2D8
  8
\U+7d99\U+624b_\U+6955\U+5186\U+5f27
 10
276.9439122127168
 20
31.667503282117313
 30
0.0
 70
0
  0
VERTEX
  5
2D9
  8
\U+7d99\U+624b_\U+6955\U+5186\U+5f27
 10
271.9314575521761
 20
40.30508652763321
 30
0.0
 70
0
  0
VERTEX
  5
2DA
  8
\U+7d99\U+624b_\U+6955\U+5186\U+5f27
 10
265.8237638764574
 20
47.393767901245084
 30
0.0
 70
0
  0
VERTEX
  5
2DB
  8
\U+7d99\U+624b_\U+6955\U+5186\U+5f27
 10
258.8555464282845
 20
52.66113335314334
 30
0.0
 70
0
  0
VERTEX
  5
2DC
  8
\U+7d99\U+624b_\U+6955\U+5186\U+5f27
 10
251.2945898963693
 20
55.904760982984136
 30
0.0
 70
0
  0
VERTEX
  5
2DD
  8
\U+7d99\U+624b_\U+6955\U+5186\U+5f27
 10
243.4314576
 20
57.0
 30
0.0
 70
0
  0
SEQEND
  5
2CC
  8
\U+7d99\U+624b_\U+6955\U+5186\U+5f27
  0
POLYLINE
  5
2DE
  8
\U+7d99\U+624b_\U+6955\U+5186\U+5f27
 66
1
 10
0.0
 20
0.0
 30
0.0
 70
0
  0
VERTEX
  5
2E0
  8
\U+7d99\U+624b_\U+6955\U+5186\U+5f27
 10
226.18326931828264
 20
-57.0
 30
0.0
 70
0
  0
VERTEX
  5
2E1
  8
\U+7d99\U+624b_\U+6955\U+5186\U+5f27
 10
233.02053790299826
 20
-60.22645184134338
 30
0.0
 70
0
  0
VERTEX
  5
2E2
  8
\U+7d99\U+624b_\U+6955\U+5186\U+5f27
 10
240.1392221925209
 20
-61.824933254882936
 30
0.0
 70
0
  0
VERTEX
  5
2E3
  8
\U+7d99\U+624b_\U+6955\U+5186\U+5f27
 10
247.3468983074106
 20
-61.75223597595962
 30
0.0
 70
0
  0
VERTEX
  5
2E4
  8
\U+7d99\U+624b_\U+6955\U+5186\U+5f27
 10
254.44873684614237
 20
-60.01032507169346
 30
0.0
 70
0
  0
VERTEX
  5
2E5
  8
\U+7d99\U+624b_\U+6955\U+5186\U+5f27
 10
261.2527692837472
 20
-56.64628582360632
 30
0.0
 70
0
  0
VERTEX
  5
2E6
  8
\U+7d99\U+624b_\U+6955\U+5186\U+5f27
 10
267.5750770386123
 20
-51.75105097381434
 30
0.0
 70
0
  0
VERTEX
  5
2E7
  8
\U+7d99\U+624b_\U+6955\U+5186\U+5f27
 10
273.24476294270397
 20
-45.45694273836984
 30
0.0
 70
0
  0
VERTEX
  5
2E8
  8
\U+7d99\U+624b_\U+6955\U+5186\U+5f27
 10
278.1085707322943
 20
-37.93409602914998
 30
0.0
 70
0
  0
VERTEX
  5
2E9
  8
\U+7d99\U+624b_\U+6955\U+5186\U+5f27
 10
282.03502769056394
 20
-29.385859567540063
 30
0.0
 70
0
  0
VERTEX
  5
2EA
  8
\U+7d99\U+624b_\U+6955\U+5186\U+5f27
 10
284.9179984630518
 20
-20.043299201583658
 30
0.0
 70
0
  0
VERTEX
  5
2EB
  8
\U+7d99\U+624b_\U+6955\U+5186\U+5f27
 10
286.67955398340354
 20
-10.158952006448626
 30
0.0
 70
0
  0
VERTEX
  5
2EC
  8
\U+7d99\U+624b_\U+6955\U+5186\U+5f27
 10
287.27207796
 20
-1.7563170582708737e-14
 30
0.0
 70
0
  0
VERTEX
  5
2ED
  8
\U+7d99\U+624b_\U+6955\U+5186\U+5f27
 10
286.67955398340354
 20
10.158952006448578
 30
0.0
 70
0
  0
VERTEX
  5
2EE
  8
\U+7d99\U+624b_\U+6955\U+5186\U+5f27
 10
284.9179984630518
 20
20.043299201583622
 30
0.0
 70
0
  0
VERTEX
  5
2EF
  8
\U+7d99\U+624b_\U+6955\U+5186\U+5f27
 10
282.03502769056394
 20
29.38585956754001
 30
0.0
 70
0
  0
VERTEX
  5
2F0
  8
\U+7d99\U+624b_\U+6955\U+5186\U+5f27
 10
278.10857073229437
 20
37.93409602914995
 30
0.0
 70
0
  0
VERTEX
  5
2F1
  8
\U+7d99\U+624b_\U+6955\U+5186\U+5f27
 10
273.24476294270397
 20
45.45694273836983
 30
0.0
 70
0
  0
VERTEX
  5
2F2
  8
\U+7d99\U+624b_\U+6955\U+5186\U+5f27
 10
267.57507703861233
 20
51.75105097381431
 30
0.0
 70
0
  0
VERTEX
  5
2F3
  8
\U+7d99\U+624b_\U+6955\U+5186\U+5f27
 10
261.2527692837472
 20
56.64628582360631
 30
0.0
 70
0
  0
VERTEX
  5
2F4
  8
\U+7d99\U+624b_\U+6955\U+5186\U+5f27
 10
254.44873684614237
 20
60.01032507169346
 30
0.0
 70
0
  0
VERTEX
  5
2F5
  8
\U+7d99\U+624b_\U+6955\U+5186\U+5f27
 10
247.34689830741064
 20
61.75223597595962
 30
0.0
 70
0
  0
VERTEX
  5
2F6
  8
\U+7d99\U+624b_\U+6955\U+5186\U+5f27
 10
240.13922219252092
 20
61.82493325488294
 30
0.0
 70
0
  0
VERTEX
  5
2F7
  8
\U+7d99\U+624b_\U+6955\U+5186\U+5f27
 10
233.02053790299829
 20
60.22645184134339
 30
0.0
 70
0
  0
VERTEX
  5
2F8
  8
\U+7d99\U+624b_\U+6955\U+5186\U+5f27
 10
226.18326931828267
 20
57.00000000000001
 30
0.0
 70
0
  0
SEQEND
  5
2DF
  8
\U+7d99\U+624b_\U+6955\U+5186\U+5f27
  0
ENDBLK
  5
2A5
  8
0
  0
BLOCK
  5
2FC
  8
0
  2
PIPE_23
 70
0
 10
0.0
 20
0.0
 30
0.0
  3
PIPE_23
  1

  0
LINE
  5
2FE
  8
\U+5916\U+5f62
 10
380.0
 20
57.0
 30
0.0
 11
700.0
 21
57.0
 31
0.0
  0
LINE
  5
2FF
  8
\U+5916\U+5f62
 10
380.0
 20
-57.0
 30
0.0
 11
700.0
 21
-57.0
 31
0.0
  0
LINE
  5
300
  8
\U+4e2d\U+5fc3\U+7dda
 10
380.0
 20
0.0
 30
0.0
 11
700.0
 21
0.0
 31
0.0
  0
ENDBLK
  5
2FD
  8
0
  0
BLOCK
  5
305
  8
0
  2
DV100_DL_twist
 70
0
 10
0.0
 20
0.0
 30
0.0
  3
DV100_DL_twist
  1

  0
POLYLINE
  5
307
  8
\U+7d99\U+624b
 66
1
 10
0.0
 20
0.0
 30
0.0
 70
1
  0
VERTEX
  5
309
  8
\U+7d99\U+624b
 10
-62.0
 20
-62.0
 30
0.0
 70
0
  0
VERTEX
  5
30A
  8
\U+7d99\U+624b
 10
-112.0
 20
-62.0
 30
0.0
 70
0
  0
VERTEX
  5
30B
  8
\U+7d99\U+624b
 10
-112.0
 20
62.0
 30
0.0
 70
0
  0
VERTEX
  5
30C
  8
\U+7d99\U+624b
 10
-62.0
 20
62.0
 30
0.0
 70
0
  0
SEQEND
  5
308
  8
\U+7d99\U+624b
  0
POLYLINE
  5
30D
  8
\U+7d99\U+624b_\U+6955\U+5186\U+5f27
 66
1
 10
0.0
 20
0.0
 30
0.0
 70
0
  0
VERTEX
  5
30F
  8
\U+7d99\U+624b_\U+6955\U+5186\U+5f27
 10
-62.0
 20
62.0
 30
0.0
 70
0
  0
VERTEX
  5
310
  8
\U+7d99\U+624b_\U+6955\U+5186\U+5f27
 10
-62.0
 20
-62.0
 30
0.0
 70
0
  0
SEQEND
  5
30E
  8
\U+7d99\U+624b_\U+6955\U+5186\U+5f27
  0
POLYLINE
  5
311
  8
\U+7d99\U+624b_\U+6955\U+5186\U+5f27
 66
1
 10
0.0
 20
0.0
 30
0.0
 70
0
  0
VERTEX
  5
313
  8
\U+7d99\U+624b_\U+6955\U+5186\U+5f27
 10
62.0
 20
-43.84062036
 30
0.0
 70
0
  0
VERTEX
  5
314
  8
\U+7d99\U+624b_\U+6955\U+5186\U+5f27
 10
62.0
 20
-79.19595936
 30
0.0
 70
0
  0
SEQEND
  5
312
  8
\U+7d99\U+624b_\U+6955\U+5186\U+5f27
  0
POLYLINE
  5
315
  8
\U+7d99\U+624b_\U+6955\U+5186\U+5f27
 66
1
 10
0.0
 20
0.0
 30
0.0
 70
0
  0
VERTEX
  5
317
  8
\U+7d99\U+624b_\U+6955\U+5186\U+5f27
 10
62.0
 20
-79.19595936
 30
0.0
 70
0
  0
VERTEX
  5
318
  8
\U+7d99\U+624b_\U+6955\U+5186\U+5f27
 10
60.80868738500028
 20
-87.74884010341923
 30
0.0
 70
0
  0
VERTEX
  5
319
  8
\U+7d99\U+624b_\U+6955\U+5186\U+5f27
 10
57.28053101569978
 20
-95.97303843637964
 30
0.0
 70
0
  0
VERTEX
  5
31A
  8
\U+7d99\U+624b_\U+6955\U+5186\U+5f27
 10
51.551115962757805
 20
-103.55250302912913
 30
0.0
 70
0
  0
VERTEX
  5
31B
  8
\U+7d99\U+624b_\U+6955\U+5186\U+5f27
 10
43.84062043356595
 20
-110.19595930798103
 30
0.0
 70
0
  0
VERTEX
  5
31C
  8
\U+7d99\U+624b_\U+6955\U+5186\U+5f27
 10
34.445354447215344
 20
-115.64810297383227
 30
0.0
 70
0
  0
VERTEX
  5
31D
  8
\U+7d99\U+624b_\U+6955\U+5186\U+5f27
 10
23.72637280663557
 20
-119.6994112032016
 30
0.0
 70
0
  0
VERTEX
  5
31E
  8
\U+7d99\U+624b_\U+6955\U+5186\U+5f27
 10
12.095599964999957
 20
-122.19419449283419
 30
0.0
 70
0
  0
VERTEX
  5
31F
  8
\U+7d99\U+624b_\U+6955\U+5186\U+5f27
 10
3.796405077356795e-15
 20
-123.03657972
 30
0.0
 70
0
  0
VERTEX
  5
320
  8
\U+7d99\U+624b_\U+6955\U+5186\U+5f27
 10
-12.095599964999948
 20
-122.19419449283419
 30
0.0
 70
0
  0
VERTEX
  5
321
  8
\U+7d99\U+624b_\U+6955\U+5186\U+5f27
 10
-23.726372806635563
 20
-119.6994112032016
 30
0.0
 70
0
  0
VERTEX
  5
322
  8
\U+7d99\U+624b_\U+6955\U+5186\U+5f27
 10
-34.44535444721532
 20
-115.6481029738323
 30
0.0
 70
0
  0
VERTEX
  5
323
  8
\U+7d99\U+624b_\U+6955\U+5186\U+5f27
 10
-43.840620433565945
 20
-110.19595930798103
 30
0.0
 70
0
  0
VERTEX
  5
324
  8
\U+7d99\U+624b_\U+6955\U+5186\U+5f27
 10
-51.55111596275781
 20
-103.55250302912913
 30
0.0
 70
0
  0
VERTEX
  5
325
  8
\U+7d99\U+624b_\U+6955\U+5186\U+5f27
 10
-57.28053101569978
 20
-95.97303843637965
 30
0.0
 70
0
  0
VERTEX
  5
326
  8
\U+7d99\U+624b_\U+6955\U+5186\U+5f27
 10
-60.80868738500028
 20
-87.74884010341924
 30
0.0
 70
0
  0
VERTEX
  5
327
  8
\U+7d99\U+624b_\U+6955\U+5186\U+5f27
 10
-62.0
 20
-79.19595936
 30
0.0
 70
0
  0
SEQEND
  5
316
  8
\U+7d99\U+624b_\U+6955\U+5186\U+5f27
  0
POLYLINE
  5
328
  8
\U+7d99\U+624b_\U+6955\U+5186\U+5f27
 66
1
 10
0.0
 20
0.0
 30
0.0
 70
0
  0
VERTEX
  5
32A
  8
\U+7d99\U+624b_\U+6955\U+5186\U+5f27
 10
53.6935750346352
 20
-21.920310180000005
 30
0.0
 70
0
  0
VERTEX
  5
32B
  8
\U+7d99\U+624b_\U+6955\U+5186\U+5f27
 10
57.68588921488552
 20
-27.7729792177058
 30
0.0
 70
0
  0
VERTEX
  5
32C
  8
\U+7d99\U+624b_\U+6955\U+5186\U+5f27
 10
60.41094401668459
 20
-33.97862658692889
 30
0.0
 70
0
  0
VERTEX
  5
32D
  8
\U+7d99\U+624b_\U+6955\U+5186\U+5f27
 10
61.80887469145394
 20
-40.40092493040665
 30
0.0
 70
0
  0
VERTEX
  5
32E
  8
\U+7d99\U+624b_\U+6955\U+5186\U+5f27
 10
61.8489711161091
 20
-46.89878744306851
 30
0.0
 70
0
  0
VERTEX
  5
32F
  8
\U+7d99\U+624b_\U+6955\U+5186\U+5f27
 10
60.530352441435866
 20
-53.329467305525334
 30
0.0
 70
0
  0
VERTEX
  5
330
  8
\U+7d99\U+624b_\U+6955\U+5186\U+5f27
 10
57.88198644282651
 20
-59.55169358520715
 30
0.0
 70
0
  0
VERTEX
  5
331
  8
\U+7d99\U+624b_\U+6955\U+5186\U+5f27
 10
53.96205314827379
 20
-65.42877471481575
 30
0.0
 70
0
  0
VERTEX
  5
332
  8
\U+7d99\U+624b_\U+6955\U+5186\U+5f27
 10
48.85666672361676
 20
-70.83160137002969
 30
0.0
 70
0
  0
VERTEX
  5
333
  8
\U+7d99\U+624b_\U+6955\U+5186\U+5f27
 10
42.67798369301275
 20
-75.6414827784235
 30
0.0
 70
0
  0
VERTEX
  5
334
  8
\U+7d99\U+624b_\U+6955\U+5186\U+5f27
 10
35.56173905376486
 20
-79.75275415079159
 30
0.0
 70
0
  0
VERTEX
  5
335
  8
\U+7d99\U+624b_\U+6955\U+5186\U+5f27
 10
27.664264412808155
 20
-83.07509795411335
 30
0.0
 70
0
  0
VERTEX
  5
336
  8
\U+7d99\U+624b_\U+6955\U+5186\U+5f27
 10
19.159053651246744
 20
-85.53552803179998
 30
0.0
 70
0
  0
VERTEX
  5
337
  8
\U+7d99\U+624b_\U+6955\U+5186\U+5f27
 10
10.232951563362038
 20
-87.079992983528
 30
0.0
 70
0
  0
VERTEX
  5
338
  8
\U+7d99\U+624b_\U+6955\U+5186\U+5f27
 10
1.0820491991115968
 20
-87.67456358117236
 30
0.0
 70
0
  0
VERTEX
  5
339
  8
\U+7d99\U+624b_\U+6955\U+5186\U+5f27
 10
-8.092623917643186
 20
-87.30617813536206
 30
0.0
 70
0
  0
VERTEX
  5
33A
  8
\U+7d99\U+624b_\U+6955\U+5186\U+5f27
 10
-17.089516060653942
 20
-85.9829294382416
 30
0.0
 70
0
  0
VERTEX
  5
33B
  8
\U+7d99\U+624b_\U+6955\U+5186\U+5f27
 10
-25.710981044686818
 20
-83.73388697880166
 30
0.0
 70
0
  0
VERTEX
  5
33C
  8
\U+7d99\U+624b_\U+6955\U+5186\U+5f27
 10
-33.76762017093168
 20
-80.60845833640093
 30
0.0
 70
0
  0
VERTEX
  5
33D
  8
\U+7d99\U+624b_\U+6955\U+5186\U+5f27
 10
-41.082442989375714
 20
-76.67530378156081
 30
0.0
 70
0
  0
VERTEX
  5
33E
  8
\U+7d99\U+624b_\U+6955\U+5186\U+5f27
 10
-47.49475547337663
 20
-72.02082792837945
 30
0.0
 70
0
  0
SEQEND
  5
329
  8
\U+7d99\U+624b_\U+6955\U+5186\U+5f27
  0
POLYLINE
  5
33F
  8
\U+7d99\U+624b_\U+6955\U+5186\U+5f27
 66
1
 10
0.0
 20
0.0
 30
0.0
 70
0
  0
VERTEX
  5
341
  8
\U+7d99\U+624b_\U+6955\U+5186\U+5f27
 10
56.88209520474224
 20
-43.84619028177752
 30
0.0
 70
0
  0
VERTEX
  5
342
  8
\U+7d99\U+624b_\U+6955\U+5186\U+5f27
 10
55.80897235597348
 20
-33.00712224459554
 30
0.0
 70
0
  0
VERTEX
  5
343
  8
\U+7d99\U+624b_\U+6955\U+5186\U+5f27
 10
53.62756081228967
 20
-22.335738443031072
 30
0.0
 70
0
  0
VERTEX
  5
344
  8
\U+7d99\U+624b_\U+6955\U+5186\U+5f27
 10
50.36096275392944
 20
-11.94505388000411
 30
0.0
 70
0
  0
VERTEX
  5
345
  8
\U+7d99\U+624b_\U+6955\U+5186\U+5f27
 10
46.043772999706235
 20
-1.9451108207042367
 30
0.0
 70
0
  0
VERTEX
  5
346
  8
\U+7d99\U+624b_\U+6955\U+5186\U+5f27
 10
40.72171263151091
 20
7.558186607057031
 30
0.0
 70
0
  0
VERTEX
  5
347
  8
\U+7d99\U+624b_\U+6955\U+5186\U+5f27
 10
34.45114478642449
 20
16.464193987661318
 30
0.0
 70
0
  0
VERTEX
  5
348
  8
\U+7d99\U+624b_\U+6955\U+5186\U+5f27
 10
27.29847774443209
 20
24.678592489657973
 30
0.0
 70
0
  0
VERTEX
  5
349
  8
\U+7d99\U+624b_\U+6955\U+5186\U+5f27
 10
19.339461633321022
 20
32.11438774680997
 30
0.0
 70
0
  0
VERTEX
  5
34A
  8
\U+7d99\U+624b_\U+6955\U+5186\U+5f27
 10
10.658386198991565
 20
38.69283116958796
 30
0.0
 70
0
  0
VERTEX
  5
34B
  8
\U+7d99\U+624b_\U+6955\U+5186\U+5f27
 10
1.3471881371715284
 20
44.3442539299881
 30
0.0
 70
0
  0
VERTEX
  5
34C
  8
\U+7d99\U+624b_\U+6955\U+5186\U+5f27
 10
-8.49552255968512
 20
49.00880478737976
 30
0.0
 70
0
  0
VERTEX
  5
34D
  8
\U+7d99\U+624b_\U+6955\U+5186\U+5f27
 10
-18.765506928869264
 20
52.637083941458584
 30
0.0
 70
0
  0
VERTEX
  5
34E
  8
\U+7d99\U+624b_\U+6955\U+5186\U+5f27
 10
-29.354000977345468
 20
55.19066619950189
 30
0.0
 70
0
  0
VERTEX
  5
34F
  8
\U+7d99\U+624b_\U+6955\U+5186\U+5f27
 10
-40.148867543892734
 20
56.64250791733798
 30
0.0
 70
0
  0
VERTEX
  5
350
  8
\U+7d99\U+624b_\U+6955\U+5186\U+5f27
 10
-51.035783884692194
 20
56.977233404331784
 30
0.0
 70
0
  0
VERTEX
  5
351
  8
\U+7d99\U+624b_\U+6955\U+5186\U+5f27
 10
-61.89945240526832
 20
56.19129775922279
 30
0.0
 70
0
  0
SEQEND
  5
340
  8
\U+7d99\U+624b_\U+6955\U+5186\U+5f27
  0
ENDBLK
  5
306
  8
0
  0
BLOCK
  5
355
  8
0
  2
PIPE_24
 70
0
 10
0.0
 20
0.0
 30
0.0
  3
PIPE_24
  1

  0
LINE
  5
357
  8
\U+5916\U+5f62
 10
-400.0
 20
57.0
 30
0.0
 11
-112.0
 21
57.0
 31
0.0
  0
LINE
  5
358
  8
\U+5916\U+5f62
 10
-400.0
 20
-57.0
 30
0.0
 11
-112.0
 21
-57.0
 31
0.0
  0
LINE
  5
359
  8
\U+4e2d\U+5fc3\U+7dda
 10
-400.0
 20
0.0
 30
0.0
 11
-112.0
 21
0.0
 31
0.0
  0
ENDBLK
  5
356
  8
0
  0
BLOCK
  5
35D
  8
0
  2
PIPE_25
 70
0
 10
0.0
 20
0.0
 30
0.0
  3
PIPE_25
  1

  0
LINE
  5
35F
  8
\U+5916\U+5f62
 10
57.0
 20
-79.19595936
 30
0.0
 11
57.0
 21
-400.0
 31
0.0
  0
LINE
  5
360
  8
\U+5916\U+5f62
 10
-57.0
 20
-79.19595936
 30
0.0
 11
-57.0
 21
-400.0
 31
0.0
  0
LINE
  5
361
  8
\U+4e2d\U+5fc3\U+7dda
 10
0.0
 20
-79.19595936
 30
0.0
 11
0.0
 21
-400.0
 31
0.0
  0
ENDBLK
  5
35E
  8
0
  0
BLOCK
  5
366
  8
0
  2
DV100x75_IN
 70
0
 10
0.0
 20
0.0
 30
0.0
  3
DV100x75_IN
  1

  0
POLYLINE
  5
368
  8
\U+7d99\U+624b
 66
1
 10
0.0
 20
0.0
 30
0.0
 70
1
  0
VERTEX
  5
36A
  8
\U+7d99\U+624b
 10
-50.0
 20
62.0
 30
0.0
 70
0
  0
VERTEX
  5
36B
  8
\U+7d99\U+624b
 10
0.0
 20
62.0
 30
0.0
 70
0
  0
VERTEX
  5
36C
  8
\U+7d99\U+624b
 10
30.0
 20
48.5
 30
0.0
 70
0
  0
VERTEX
  5
36D
  8
\U+7d99\U+624b
 10
70.0
 20
48.5
 30
0.0
 70
0
  0
VERTEX
  5
36E
  8
\U+7d99\U+624b
 10
70.0
 20
-48.5
 30
0.0
 70
0
  0
VERTEX
  5
36F
  8
\U+7d99\U+624b
 10
30.0
 20
-48.5
 30
0.0
 70
0
  0
VERTEX
  5
370
  8
\U+7d99\U+624b
 10
0.0
 20
-62.0
 30
0.0
 70
0
  0
VERTEX
  5
371
  8
\U+7d99\U+624b
 10
-50.0
 20
-62.0
 30
0.0
 70
0
  0
SEQEND
  5
369
  8
\U+7d99\U+624b
  0
POLYLINE
  5
372
  8
\U+7d99\U+624b_\U+6955\U+5186\U+5f27
 66
1
 10
0.0
 20
0.0
 30
0.0
 70
0
  0
VERTEX
  5
374
  8
\U+7d99\U+624b_\U+6955\U+5186\U+5f27
 10
0.0
 20
-62.0
 30
0.0
 70
0
  0
VERTEX
  5
375
  8
\U+7d99\U+624b_\U+6955\U+5186\U+5f27
 10
0.0
 20
62.0
 30
0.0
 70
0
  0
SEQEND
  5
373
  8
\U+7d99\U+624b_\U+6955\U+5186\U+5f27
  0
POLYLINE
  5
376
  8
\U+7d99\U+624b_\U+6955\U+5186\U+5f27
 66
1
 10
0.0
 20
0.0
 30
0.0
 70
0
  0
VERTEX
  5
378
  8
\U+7d99\U+624b_\U+6955\U+5186\U+5f27
 10
30.0
 20
-48.5
 30
0.0
 70
0
  0
VERTEX
  5
379
  8
\U+7d99\U+624b_\U+6955\U+5186\U+5f27
 10
30.0
 20
48.5
 30
0.0
 70
0
  0
SEQEND
  5
377
  8
\U+7d99\U+624b_\U+6955\U+5186\U+5f27
  0
ENDBLK
  5
367
  8
0
  0
BLOCK
  5
37D
  8
0
  2
PIPE_26
 70
0
 10
0.0
 20
0.0
 30
0.0
  3
PIPE_26
  1

  0
LINE
  5
37F
  8
\U+5916\U+5f62
 10
-400.0
 20
57.0
 30
0.0
 11
-50.0
 21
57.0
 31
0.0
  0
LINE
  5
380
  8
\U+5916\U+5f62
 10
-400.0
 20
-57.0
 30
0.0
 11
-50.0
 21
-57.0
 31
0.0
  0
LINE
  5
381
  8
\U+4e2d\U+5fc3\U+7dda
 10
-400.0
 20
0.0
 30
0.0
 11
-50.0
 21
0.0
 31
0.0
  0
ENDBLK
  5
37E
  8
0
  0
BLOCK
  5
385
  8
0
  2
PIPE_27
 70
0
 10
0.0
 20
0.0
 30
0.0
  3
PIPE_27
  1

  0
LINE
  5
387
  8
\U+5916\U+5f62
 10
70.0
 20
44.5
 30
0.0
 11
460.0
 21
44.5
 31
0.0
  0
LINE
  5
388
  8
\U+5916\U+5f62
 10
70.0
 20
-44.5
 30
0.0
 11
460.0
 21
-44.5
 31
0.0
  0
LINE
  5
389
  8
\U+4e2d\U+5fc3\U+7dda
 10
70.0
 20
0.0
 30
0.0
 11
460.0
 21
0.0
 31
0.0
  0
ENDBLK
  5
386
  8
0
  0
BLOCK
  5
38D
  8
0
  2
DV75_cap
 70
0
 10
0.0
 20
0.0
 30
0.0
  3
DV75_cap
  1

  0
POLYLINE
  5
38F
  8
\U+7d99\U+624b
 66
1
 10
0.0
 20
0.0
 30
0.0
 70
1
  0
VERTEX
  5
391
  8
\U+7d99\U+624b
 10
460.0
 20
48.5
 30
0.0
 70
0
  0
VERTEX
  5
392
  8
\U+7d99\U+624b
 10
508.0
 20
48.5
 30
0.0
 70
0
  0
VERTEX
  5
393
  8
\U+7d99\U+624b
 10
508.0
 20
-48.5
 30
0.0
 70
0
  0
VERTEX
  5
394
  8
\U+7d99\U+624b
 10
460.0
 20
-48.5
 30
0.0
 70
0
  0
SEQEND
  5
390
  8
\U+7d99\U+624b
  0
POLYLINE
  5
395
  8
\U+7d99\U+624b_\U+6955\U+5186\U+5f27
 66
1
 10
0.0
 20
0.0
 30
0.0
 70
0
  0
VERTEX
  5
397
  8
\U+7d99\U+624b_\U+6955\U+5186\U+5f27
 10
500.0
 20
-48.5
 30
0.0
 70
0
  0
VERTEX
  5
398
  8
\U+7d99\U+624b_\U+6955\U+5186\U+5f27
 10
500.0
 20
48.5
 30
0.0
 70
0
  0
SEQEND
  5
396
  8
\U+7d99\U+624b_\U+6955\U+5186\U+5f27
  0
ENDBLK
  5
38E
  8
0
  0
ENDSEC
  0
SECTION
  2
ENTITIES
  0
INSERT
  5
5D
  8
\U+7d99\U+624b
  2
DV100_DL
 10
0.0
 20
0.0
 30
0.0
  0
INSERT
  5
65
  8
\U+5916\U+5f62
  2
PIPE_01
 10
0.0
 20
0.0
 30
0.0
  0
INSERT
  5
6D
  8
\U+5916\U+5f62
  2
PIPE_02
 10
0.0
 20
0.0
 30
0.0
  0
TEXT
  5
6F
  8
\U+6587\U+5b57
 10
-450.0
 20
-520.0
 30
0.0
 40
40.0
  1
DV100_DL
 11
-450.0
 21
-520.0
 31
0.0
  0
INSERT
  5
9B
  8
\U+7d99\U+624b
  2
DV100_LL
 10
1400.0
 20
0.0
 30
0.0
  0
INSERT
  5
A3
  8
\U+5916\U+5f62
  2
PIPE_03
 10
1400.0
 20
0.0
 30
0.0
  0
INSERT
  5
AB
  8
\U+5916\U+5f62
  2
PIPE_04
 10
1400.0
 20
0.0
 30
0.0
  0
TEXT
  5
AD
  8
\U+6587\U+5b57
 10
950.0
 20
-520.0
 30
0.0
 40
40.0
  1
DV100_LL
 11
950.0
 21
-520.0
 31
0.0
  0
INSERT
  5
CF
  8
\U+7d99\U+624b
  2
DV100_45L
 10
2800.0
 20
0.0
 30
0.0
  0
INSERT
  5
D7
  8
\U+5916\U+5f62
  2
PIPE_05
 10
2800.0
 20
0.0
 30
0.0
  0
INSERT
  5
DF
  8
\U+5916\U+5f62
  2
PIPE_06
 10
2800.0
 20
0.0
 30
0.0
  0
TEXT
  5
E1
  8
\U+6587\U+5b57
 10
2350.0
 20
-520.0
 30
0.0
 40
40.0
  1
DV100_45L
 11
2350.0
 21
-520.0
 31
0.0
  0
INSERT
  5
107
  8
\U+7d99\U+624b
  2
DV100_DT
 10
4200.0
 20
0.0
 30
0.0
  0
INSERT
  5
10F
  8
\U+5916\U+5f62
  2
PIPE_07
 10
4200.0
 20
0.0
 30
0.0
  0
INSERT
  5
117
  8
\U+5916\U+5f62
  2
PIPE_08
 10
4200.0
 20
0.0
 30
0.0
  0
INSERT
  5
11F
  8
\U+5916\U+5f62
  2
PIPE_09
 10
4200.0
 20
0.0
 30
0.0
  0
TEXT
  5
121
  8
\U+6587\U+5b57
 10
3750.0
 20
-520.0
 30
0.0
 40
40.0
  1
DV100_DT
 11
3750.0
 21
-520.0
 31
0.0
  0
INSERT
  5
157
  8
\U+7d99\U+624b
  2
DV100_LT
 10
0.0
 20
-1400.0
 30
0.0
  0
INSERT
  5
15F
  8
\U+5916\U+5f62
  2
PIPE_10
 10
0.0
 20
-1400.0
 30
0.0
  0
INSERT
  5
167
  8
\U+5916\U+5f62
  2
PIPE_11
 10
0.0
 20
-1400.0
 30
0.0
  0
INSERT
  5
16F
  8
\U+5916\U+5f62
  2
PIPE_12
 10
0.0
 20
-1400.0
 30
0.0
  0
TEXT
  5
171
  8
\U+6587\U+5b57
 10
-450.0
 20
-1920.0
 30
0.0
 40
40.0
  1
DV100_LT
 11
-450.0
 21
-1920.0
 31
0.0
  0
INSERT
  5
199
  8
\U+7d99\U+624b
  2
DV100_Y
 10
1400.0
 20
-1400.0
 30
0.0
  0
INSERT
  5
1A1
  8
\U+5916\U+5f62
  2
PIPE_13
 10
1400.0
 20
-1400.0
 30
0.0
  0
INSERT
  5
1A9
  8
\U+5916\U+5f62
  2
PIPE_14
 10
1400.0
 20
-1400.0
 30
0.0
  0
INSERT
  5
1B1
  8
\U+5916\U+5f62
  2
PIPE_15
 10
1400.0
 20
-1400.0
 30
0.0
  0
TEXT
  5
1B3
  8
\U+6587\U+5b57
 10
950.0
 20
-1920.0
 30
0.0
 40
40.0
  1
DV100_Y
 11
950.0
 21
-1920.0
 31
0.0
  0
INSERT
  5
1DD
  8
\U+7d99\U+624b
  2
DV100x50_DT_vertical
 10
2800.0
 20
-1400.0
 30
0.0
  0
INSERT
  5
1E5
  8
\U+5916\U+5f62
  2
PIPE_16
 10
2800.0
 20
-1400.0
 30
0.0
  0
INSERT
  5
1ED
  8
\U+5916\U+5f62
  2
PIPE_17
 10
2800.0
 20
-1400.0
 30
0.0
  0
INSERT
  5
1FC
  8
\U+7d99\U+624b
  2
DV50_DL_riser
 10
2800.0
 20
-1400.0
 30
0.0
  0
INSERT
  5
204
  8
\U+5916\U+5f62
  2
PIPE_18
 10
2800.0
 20
-1400.0
 30
0.0
  0
TEXT
  5
206
  8
\U+6587\U+5b57
 10
2350.0
 20
-1920.0
 30
0.0
 40
40.0
  1
DV100x50_DT_vertical
 11
2350.0
 21
-1920.0
 31
0.0
  0
INSERT
  5
216
  8
\U+7d99\U+624b
  2
DV100_DL_riser_up
 10
4200.0
 20
-1400.0
 30
0.0
  0
INSERT
  5
21E
  8
\U+5916\U+5f62
  2
PIPE_19
 10
4200.0
 20
-1400.0
 30
0.0
  0
TEXT
  5
220
  8
\U+6587\U+5b57
 10
3750.0
 20
-1920.0
 30
0.0
 40
40.0
  1
DV100_DL_riser_up
 11
3750.0
 21
-1920.0
 31
0.0
  0
INSERT
  5
230
  8
\U+7d99\U+624b
  2
DV100_DL_riser_down
 10
0.0
 20
-2800.0
 30
0.0
  0
INSERT
  5
238
  8
\U+5916\U+5f62
  2
PIPE_20
 10
0.0
 20
-2800.0
 30
0.0
  0
TEXT
  5
23A
  8
\U+6587\U+5b57
 10
-450.0
 20
-3320.0
 30
0.0
 40
40.0
  1
DV100_DL_riser_down
 11
-450.0
 21
-3320.0
 31
0.0
  0
INSERT
  5
291
  8
\U+7d99\U+624b
  2
DV100_45L_drop_A
 10
1400.0
 20
-2800.0
 30
0.0
  0
INSERT
  5
299
  8
\U+5916\U+5f62
  2
PIPE_21
 10
1400.0
 20
-2800.0
 30
0.0
  0
INSERT
  5
2A1
  8
\U+5916\U+5f62
  2
PIPE_22
 10
1400.0
 20
-2800.0
 30
0.0
  0
INSERT
  5
2F9
  8
\U+7d99\U+624b
  2
DV100_45L_drop_B
 10
1400.0
 20
-2800.0
 30
0.0
  0
INSERT
  5
301
  8
\U+5916\U+5f62
  2
PIPE_23
 10
1400.0
 20
-2800.0
 30
0.0
  0
TEXT
  5
303
  8
\U+6587\U+5b57
 10
950.0
 20
-3320.0
 30
0.0
 40
40.0
  1
DV100_45L_drop_A
 11
950.0
 21
-3320.0
 31
0.0
  0
INSERT
  5
352
  8
\U+7d99\U+624b
  2
DV100_DL_twist
 10
2800.0
 20
-2800.0
 30
0.0
  0
INSERT
  5
35A
  8
\U+5916\U+5f62
  2
PIPE_24
 10
2800.0
 20
-2800.0
 30
0.0
  0
INSERT
  5
362
  8
\U+5916\U+5f62
  2
PIPE_25
 10
2800.0
 20
-2800.0
 30
0.0
  0
TEXT
  5
364
  8
\U+6587\U+5b57
 10
2350.0
 20
-3320.0
 30
0.0
 40
40.0
  1
DV100_DL_twist
 11
2350.0
 21
-3320.0
 31
0.0
  0
INSERT
  5
37A
  8
\U+7d99\U+624b
  2
DV100x75_IN
 10
4200.0
 20
-2800.0
 30
0.0
  0
INSERT
  5
382
  8
\U+5916\U+5f62
  2
PIPE_26
 10
4200.0
 20
-2800.0
 30
0.0
  0
INSERT
  5
38A
  8
\U+5916\U+5f62
  2
PIPE_27
 10
4200.0
 20
-2800.0
 30
0.0
  0
INSERT
  5
399
  8
\U+7d99\U+624b
  2
DV75_cap
 10
4200.0
 20
-2800.0
 30
0.0
  0
TEXT
  5
39B
  8
\U+6587\U+5b57
 10
3750.0
 20
-3320.0
 30
0.0
 40
40.0
  1
DV100x75_IN
 11
3750.0
 21
-3320.0
 31
0.0
  0
TEXT
  5
39C
  8
\U+6587\U+5b57
 10
-450.0
 20
600.0
 30
0.0
 40
60.0
  1
MepCad fitting catalog DV100 v4 - socket depth fixed (LT/Y/DT100x50)
 11
-450.0
 21
600.0
 31
0.0
  0
ENDSEC
  0
EOF
